solid OpenSCAD_Model
  facet normal -1 0 0
    outer loop
      vertex 0 0 0
      vertex 0 298 5
      vertex 0 298 0
    endloop
  endfacet
  facet normal -1 -0 0
    outer loop
      vertex 0 298 5
      vertex 0 0 0
      vertex 0 0 5
    endloop
  endfacet
  facet normal 0 0 1
    outer loop
      vertex 242 298 5
      vertex 237 293 5
      vertex 242 0 5
    endloop
  endfacet
  facet normal 0 0 1
    outer loop
      vertex 242 298 5
      vertex 5 293 5
      vertex 237 293 5
    endloop
  endfacet
  facet normal 0 0 1
    outer loop
      vertex 5 293 5
      vertex 0 298 5
      vertex 5 5 5
    endloop
  endfacet
  facet normal -0 0 1
    outer loop
      vertex 0 298 5
      vertex 5 293 5
      vertex 242 298 5
    endloop
  endfacet
  facet normal -0 0 1
    outer loop
      vertex 237 5 5
      vertex 242 0 5
      vertex 237 293 5
    endloop
  endfacet
  facet normal -0 0 1
    outer loop
      vertex 5 5 5
      vertex 242 0 5
      vertex 237 5 5
    endloop
  endfacet
  facet normal 0 0 1
    outer loop
      vertex 5 5 5
      vertex 0 0 5
      vertex 242 0 5
    endloop
  endfacet
  facet normal 0 0 1
    outer loop
      vertex 0 0 5
      vertex 5 5 5
      vertex 0 298 5
    endloop
  endfacet
  facet normal 1 -0 0
    outer loop
      vertex 242 0 5
      vertex 242 298 0
      vertex 242 298 5
    endloop
  endfacet
  facet normal 1 0 0
    outer loop
      vertex 242 298 0
      vertex 242 0 5
      vertex 242 0 0
    endloop
  endfacet
  facet normal 0 1 -0
    outer loop
      vertex 242 298 0
      vertex 0 298 5
      vertex 242 298 5
    endloop
  endfacet
  facet normal 0 1 0
    outer loop
      vertex 0 298 5
      vertex 242 298 0
      vertex 0 298 0
    endloop
  endfacet
  facet normal 0 0 -1
    outer loop
      vertex 242 0 0
      vertex 237 5 0
      vertex 242 298 0
    endloop
  endfacet
  facet normal 0 0 -1
    outer loop
      vertex 242 0 0
      vertex 5 5 0
      vertex 237 5 0
    endloop
  endfacet
  facet normal -0 0 -1
    outer loop
      vertex 5 5 0
      vertex 0 0 0
      vertex 5 293 0
    endloop
  endfacet
  facet normal 0 0 -1
    outer loop
      vertex 0 0 0
      vertex 5 5 0
      vertex 242 0 0
    endloop
  endfacet
  facet normal 0 0 -1
    outer loop
      vertex 237 293 0
      vertex 242 298 0
      vertex 237 5 0
    endloop
  endfacet
  facet normal 0 0 -1
    outer loop
      vertex 5 293 0
      vertex 242 298 0
      vertex 237 293 0
    endloop
  endfacet
  facet normal 0 0 -1
    outer loop
      vertex 5 293 0
      vertex 0 298 0
      vertex 242 298 0
    endloop
  endfacet
  facet normal 0 0 -1
    outer loop
      vertex 0 298 0
      vertex 5 293 0
      vertex 0 0 0
    endloop
  endfacet
  facet normal 0 -1 0
    outer loop
      vertex 0 0 0
      vertex 242 0 5
      vertex 0 0 5
    endloop
  endfacet
  facet normal 0 -1 -0
    outer loop
      vertex 242 0 5
      vertex 0 0 0
      vertex 242 0 0
    endloop
  endfacet
  facet normal 1 -0 0
    outer loop
      vertex 5 5 5
      vertex 5 293 0
      vertex 5 293 5
    endloop
  endfacet
  facet normal 1 0 0
    outer loop
      vertex 5 293 0
      vertex 5 5 5
      vertex 5 5 0
    endloop
  endfacet
  facet normal -1 0 0
    outer loop
      vertex 237 5 0
      vertex 237 293 5
      vertex 237 293 0
    endloop
  endfacet
  facet normal -1 -0 0
    outer loop
      vertex 237 293 5
      vertex 237 5 0
      vertex 237 5 5
    endloop
  endfacet
  facet normal 0 1 -0
    outer loop
      vertex 237 5 0
      vertex 5 5 5
      vertex 237 5 5
    endloop
  endfacet
  facet normal 0 1 0
    outer loop
      vertex 5 5 5
      vertex 237 5 0
      vertex 5 5 0
    endloop
  endfacet
  facet normal 0 -1 0
    outer loop
      vertex 5 293 0
      vertex 237 293 5
      vertex 5 293 5
    endloop
  endfacet
  facet normal 0 -1 -0
    outer loop
      vertex 237 293 5
      vertex 5 293 0
      vertex 237 293 0
    endloop
  endfacet
endsolid OpenSCAD_Model
