solid OpenSCAD_Model
  facet normal -1 0 0
    outer loop
      vertex 0 0 0
      vertex 0 97.5 32
      vertex 0 97.5 0
    endloop
  endfacet
  facet normal -1 -0 0
    outer loop
      vertex 0 97.5 32
      vertex 0 0 0
      vertex 0 0 32
    endloop
  endfacet
  facet normal -0 0 1
    outer loop
      vertex 61.5788 26 32
      vertex 65.0429 7.5 32
      vertex 65.0429 26 32
    endloop
  endfacet
  facet normal 0 0 1
    outer loop
      vertex 65.0429 7.5 32
      vertex 61.5788 26 32
      vertex 61.5788 7.5 32
    endloop
  endfacet
  facet normal -0 0 1
    outer loop
      vertex 61.5788 33 32
      vertex 65.0429 32.5 32
      vertex 65.0429 33 32
    endloop
  endfacet
  facet normal 0 0 1
    outer loop
      vertex 65.0429 32.5 32
      vertex 61.5788 33 32
      vertex 61.5788 32.5 32
    endloop
  endfacet
  facet normal -0 0 1
    outer loop
      vertex 61.5788 58 32
      vertex 65.0429 39.5 32
      vertex 65.0429 58 32
    endloop
  endfacet
  facet normal 0 0 1
    outer loop
      vertex 65.0429 39.5 32
      vertex 61.5788 58 32
      vertex 61.5788 39.5 32
    endloop
  endfacet
  facet normal -0 0 1
    outer loop
      vertex 61.5788 65 32
      vertex 65.0429 64.5 32
      vertex 65.0429 65 32
    endloop
  endfacet
  facet normal 0 0 1
    outer loop
      vertex 65.0429 64.5 32
      vertex 61.5788 65 32
      vertex 61.5788 64.5 32
    endloop
  endfacet
  facet normal -0 0 1
    outer loop
      vertex 61.5788 90 32
      vertex 65.0429 71.5 32
      vertex 65.0429 90 32
    endloop
  endfacet
  facet normal 0 0 1
    outer loop
      vertex 65.0429 71.5 32
      vertex 61.5788 90 32
      vertex 61.5788 71.5 32
    endloop
  endfacet
  facet normal 0 0 1
    outer loop
      vertex 65.0429 90 32
      vertex 66 97.5 32
      vertex 65.0429 96.5 32
    endloop
  endfacet
  facet normal -0 0 1
    outer loop
      vertex 61.5788 97.5 32
      vertex 65.0429 96.5 32
      vertex 66 97.5 32
    endloop
  endfacet
  facet normal 0 0 1
    outer loop
      vertex 65.0429 96.5 32
      vertex 61.5788 97.5 32
      vertex 61.5788 96.5 32
    endloop
  endfacet
  facet normal 0 0 1
    outer loop
      vertex 65.0429 71.5 32
      vertex 66 97.5 32
      vertex 65.0429 90 32
    endloop
  endfacet
  facet normal 0 0 1
    outer loop
      vertex 65.0429 65 32
      vertex 66 97.5 32
      vertex 65.0429 71.5 32
    endloop
  endfacet
  facet normal 0 0 1
    outer loop
      vertex 65.0429 64.5 32
      vertex 66 97.5 32
      vertex 65.0429 65 32
    endloop
  endfacet
  facet normal 0 0 1
    outer loop
      vertex 65.0429 58 32
      vertex 66 97.5 32
      vertex 65.0429 64.5 32
    endloop
  endfacet
  facet normal 0 0 1
    outer loop
      vertex 66 97.5 32
      vertex 65.0429 58 32
      vertex 66 0 32
    endloop
  endfacet
  facet normal -0 0 1
    outer loop
      vertex 65.0429 39.5 32
      vertex 66 0 32
      vertex 65.0429 58 32
    endloop
  endfacet
  facet normal -0 0 1
    outer loop
      vertex 65.0429 33 32
      vertex 66 0 32
      vertex 65.0429 39.5 32
    endloop
  endfacet
  facet normal -0 0 1
    outer loop
      vertex 65.0429 32.5 32
      vertex 66 0 32
      vertex 65.0429 33 32
    endloop
  endfacet
  facet normal -0 0 1
    outer loop
      vertex 65.0429 26 32
      vertex 66 0 32
      vertex 65.0429 32.5 32
    endloop
  endfacet
  facet normal -0 0 1
    outer loop
      vertex 65.0429 7.5 32
      vertex 66 0 32
      vertex 65.0429 26 32
    endloop
  endfacet
  facet normal -0 0 1
    outer loop
      vertex 65.0429 1 32
      vertex 66 0 32
      vertex 65.0429 7.5 32
    endloop
  endfacet
  facet normal 0 0 1
    outer loop
      vertex 61.5788 0 32
      vertex 65.0429 1 32
      vertex 61.5788 1 32
    endloop
  endfacet
  facet normal 0 0 1
    outer loop
      vertex 65.0429 1 32
      vertex 61.5788 0 32
      vertex 66 0 32
    endloop
  endfacet
  facet normal 0 0 1
    outer loop
      vertex 4.42116 97.5 32
      vertex 0.95706 96.5 32
      vertex 4.42116 96.5 32
    endloop
  endfacet
  facet normal 0 0 1
    outer loop
      vertex 0 97.5 32
      vertex 0.95706 90 32
      vertex 0.95706 96.5 32
    endloop
  endfacet
  facet normal 0 0 1
    outer loop
      vertex 0.95706 90 32
      vertex 0 97.5 32
      vertex 0.95706 71.5 32
    endloop
  endfacet
  facet normal 0 0 1
    outer loop
      vertex 0.95706 71.5 32
      vertex 0 97.5 32
      vertex 0.95706 65 32
    endloop
  endfacet
  facet normal 0 0 1
    outer loop
      vertex 0.95706 65 32
      vertex 0 97.5 32
      vertex 0.95706 64.5 32
    endloop
  endfacet
  facet normal 0 0 1
    outer loop
      vertex 0.95706 64.5 32
      vertex 0 97.5 32
      vertex 0.95706 58 32
    endloop
  endfacet
  facet normal 0 0 1
    outer loop
      vertex 0.95706 58 32
      vertex 0 97.5 32
      vertex 0.95706 39.5 32
    endloop
  endfacet
  facet normal 0 0 1
    outer loop
      vertex 0 0 32
      vertex 0.95706 39.5 32
      vertex 0 97.5 32
    endloop
  endfacet
  facet normal 0 0 1
    outer loop
      vertex 0.95706 39.5 32
      vertex 0 0 32
      vertex 0.95706 33 32
    endloop
  endfacet
  facet normal 0 0 1
    outer loop
      vertex 0.95706 33 32
      vertex 0 0 32
      vertex 0.95706 32.5 32
    endloop
  endfacet
  facet normal 0 0 1
    outer loop
      vertex 0.95706 32.5 32
      vertex 0 0 32
      vertex 0.95706 26 32
    endloop
  endfacet
  facet normal 0 0 1
    outer loop
      vertex 0.95706 26 32
      vertex 0 0 32
      vertex 0.95706 7.5 32
    endloop
  endfacet
  facet normal -0 0 1
    outer loop
      vertex 0 97.5 32
      vertex 0.95706 96.5 32
      vertex 4.42116 97.5 32
    endloop
  endfacet
  facet normal -0 0 1
    outer loop
      vertex 0.95706 90 32
      vertex 4.42116 71.5 32
      vertex 4.42116 90 32
    endloop
  endfacet
  facet normal 0 0 1
    outer loop
      vertex 4.42116 71.5 32
      vertex 0.95706 90 32
      vertex 0.95706 71.5 32
    endloop
  endfacet
  facet normal -0 0 1
    outer loop
      vertex 0.95706 65 32
      vertex 4.42116 64.5 32
      vertex 4.42116 65 32
    endloop
  endfacet
  facet normal 0 0 1
    outer loop
      vertex 4.42116 64.5 32
      vertex 0.95706 65 32
      vertex 0.95706 64.5 32
    endloop
  endfacet
  facet normal -0 0 1
    outer loop
      vertex 0.95706 58 32
      vertex 4.42116 39.5 32
      vertex 4.42116 58 32
    endloop
  endfacet
  facet normal 0 0 1
    outer loop
      vertex 4.42116 39.5 32
      vertex 0.95706 58 32
      vertex 0.95706 39.5 32
    endloop
  endfacet
  facet normal -0 0 1
    outer loop
      vertex 0.95706 33 32
      vertex 4.42116 32.5 32
      vertex 4.42116 33 32
    endloop
  endfacet
  facet normal 0 0 1
    outer loop
      vertex 4.42116 32.5 32
      vertex 0.95706 33 32
      vertex 0.95706 32.5 32
    endloop
  endfacet
  facet normal -0 0 1
    outer loop
      vertex 0.95706 26 32
      vertex 4.42116 7.5 32
      vertex 4.42116 26 32
    endloop
  endfacet
  facet normal 0 0 1
    outer loop
      vertex 4.42116 7.5 32
      vertex 0.95706 26 32
      vertex 0.95706 7.5 32
    endloop
  endfacet
  facet normal -0 0 1
    outer loop
      vertex 0.95706 1 32
      vertex 4.42116 0 32
      vertex 4.42116 1 32
    endloop
  endfacet
  facet normal 0 0 1
    outer loop
      vertex 0.95706 1 32
      vertex 0 0 32
      vertex 4.42116 0 32
    endloop
  endfacet
  facet normal 0 0 1
    outer loop
      vertex 0.95706 7.5 32
      vertex 0 0 32
      vertex 0.95706 1 32
    endloop
  endfacet
  facet normal 1 -0 0
    outer loop
      vertex 66 0 32
      vertex 66 97.5 0
      vertex 66 97.5 32
    endloop
  endfacet
  facet normal 1 0 0
    outer loop
      vertex 66 97.5 0
      vertex 66 0 32
      vertex 66 0 0
    endloop
  endfacet
  facet normal 0 1 0
    outer loop
      vertex 66 97.5 32
      vertex 61.5788 97.5 21.5
      vertex 61.5788 97.5 32
    endloop
  endfacet
  facet normal 0 1 0
    outer loop
      vertex 61.5788 97.5 21.5
      vertex 66 97.5 0
      vertex 33 97.5 5
    endloop
  endfacet
  facet normal 0 1 -0
    outer loop
      vertex 66 97.5 0
      vertex 61.5788 97.5 21.5
      vertex 66 97.5 32
    endloop
  endfacet
  facet normal 0 1 -0
    outer loop
      vertex 4.42116 97.5 21.5
      vertex 0 97.5 32
      vertex 4.42116 97.5 32
    endloop
  endfacet
  facet normal 0 1 0
    outer loop
      vertex 4.42116 97.5 21.5
      vertex 0 97.5 0
      vertex 0 97.5 32
    endloop
  endfacet
  facet normal 0 1 0
    outer loop
      vertex 33 97.5 5
      vertex 0 97.5 0
      vertex 4.42116 97.5 21.5
    endloop
  endfacet
  facet normal 0 1 0
    outer loop
      vertex 0 97.5 0
      vertex 33 97.5 5
      vertex 66 97.5 0
    endloop
  endfacet
  facet normal 0 0 -1
    outer loop
      vertex 0 0 0
      vertex 66 97.5 0
      vertex 66 0 0
    endloop
  endfacet
  facet normal -0 0 -1
    outer loop
      vertex 66 97.5 0
      vertex 0 0 0
      vertex 0 97.5 0
    endloop
  endfacet
  facet normal 0 -1 0
    outer loop
      vertex 0 0 32
      vertex 4.42116 0 21.5
      vertex 4.42116 0 32
    endloop
  endfacet
  facet normal 0 -1 -0
    outer loop
      vertex 4.42116 0 21.5
      vertex 0 0 0
      vertex 33 0 5
    endloop
  endfacet
  facet normal 0 -1 0
    outer loop
      vertex 0 0 0
      vertex 4.42116 0 21.5
      vertex 0 0 32
    endloop
  endfacet
  facet normal 0 -1 0
    outer loop
      vertex 61.5788 0 21.5
      vertex 66 0 32
      vertex 61.5788 0 32
    endloop
  endfacet
  facet normal 0 -1 0
    outer loop
      vertex 61.5788 0 21.5
      vertex 66 0 0
      vertex 66 0 32
    endloop
  endfacet
  facet normal 0 -1 0
    outer loop
      vertex 33 0 5
      vertex 66 0 0
      vertex 61.5788 0 21.5
    endloop
  endfacet
  facet normal 0 -1 0
    outer loop
      vertex 66 0 0
      vertex 33 0 5
      vertex 0 0 0
    endloop
  endfacet
  facet normal 0.5 0 0.866025
    outer loop
      vertex 4.42116 1 21.5
      vertex 33 0 5
      vertex 33 1 5
    endloop
  endfacet
  facet normal 0.5 0 0.866025
    outer loop
      vertex 33 0 5
      vertex 4.42116 1 21.5
      vertex 4.42116 0 21.5
    endloop
  endfacet
  facet normal 0.5 0 0.866025
    outer loop
      vertex 4.42116 97.5 21.5
      vertex 33 96.5 5
      vertex 33 97.5 5
    endloop
  endfacet
  facet normal 0.5 0 0.866025
    outer loop
      vertex 33 96.5 5
      vertex 4.42116 97.5 21.5
      vertex 4.42116 96.5 21.5
    endloop
  endfacet
  facet normal 0.5 0 0.866025
    outer loop
      vertex 4.42116 26 21.5
      vertex 33 7.5 5
      vertex 33 26 5
    endloop
  endfacet
  facet normal 0.5 0 0.866025
    outer loop
      vertex 33 7.5 5
      vertex 4.42116 26 21.5
      vertex 4.42116 7.5 21.5
    endloop
  endfacet
  facet normal 0.5 0 0.866025
    outer loop
      vertex 4.42116 33 21.5
      vertex 33 32.5 5
      vertex 33 33 5
    endloop
  endfacet
  facet normal 0.5 0 0.866025
    outer loop
      vertex 33 32.5 5
      vertex 4.42116 33 21.5
      vertex 4.42116 32.5 21.5
    endloop
  endfacet
  facet normal 0.5 0 0.866025
    outer loop
      vertex 4.42116 58 21.5
      vertex 33 39.5 5
      vertex 33 58 5
    endloop
  endfacet
  facet normal 0.5 0 0.866025
    outer loop
      vertex 33 39.5 5
      vertex 4.42116 58 21.5
      vertex 4.42116 39.5 21.5
    endloop
  endfacet
  facet normal 0.5 0 0.866025
    outer loop
      vertex 4.42116 65 21.5
      vertex 33 64.5 5
      vertex 33 65 5
    endloop
  endfacet
  facet normal 0.5 0 0.866025
    outer loop
      vertex 33 64.5 5
      vertex 4.42116 65 21.5
      vertex 4.42116 64.5 21.5
    endloop
  endfacet
  facet normal 0.5 0 0.866025
    outer loop
      vertex 4.42116 90 21.5
      vertex 33 71.5 5
      vertex 33 90 5
    endloop
  endfacet
  facet normal 0.5 0 0.866025
    outer loop
      vertex 33 71.5 5
      vertex 4.42116 90 21.5
      vertex 4.42116 71.5 21.5
    endloop
  endfacet
  facet normal 1 -0 0
    outer loop
      vertex 4.42116 0 32
      vertex 4.42116 1 21.5
      vertex 4.42116 1 32
    endloop
  endfacet
  facet normal 1 0 0
    outer loop
      vertex 4.42116 1 21.5
      vertex 4.42116 0 32
      vertex 4.42116 0 21.5
    endloop
  endfacet
  facet normal 1 -0 0
    outer loop
      vertex 4.42116 96.5 32
      vertex 4.42116 97.5 21.5
      vertex 4.42116 97.5 32
    endloop
  endfacet
  facet normal 1 0 0
    outer loop
      vertex 4.42116 97.5 21.5
      vertex 4.42116 96.5 32
      vertex 4.42116 96.5 21.5
    endloop
  endfacet
  facet normal 1 -0 0
    outer loop
      vertex 4.42116 7.5 32
      vertex 4.42116 26 21.5
      vertex 4.42116 26 32
    endloop
  endfacet
  facet normal 1 0 0
    outer loop
      vertex 4.42116 26 21.5
      vertex 4.42116 7.5 32
      vertex 4.42116 7.5 21.5
    endloop
  endfacet
  facet normal 1 -0 0
    outer loop
      vertex 4.42116 32.5 32
      vertex 4.42116 33 21.5
      vertex 4.42116 33 32
    endloop
  endfacet
  facet normal 1 0 0
    outer loop
      vertex 4.42116 33 21.5
      vertex 4.42116 32.5 32
      vertex 4.42116 32.5 21.5
    endloop
  endfacet
  facet normal 1 -0 0
    outer loop
      vertex 4.42116 39.5 32
      vertex 4.42116 58 21.5
      vertex 4.42116 58 32
    endloop
  endfacet
  facet normal 1 0 0
    outer loop
      vertex 4.42116 58 21.5
      vertex 4.42116 39.5 32
      vertex 4.42116 39.5 21.5
    endloop
  endfacet
  facet normal 1 -0 0
    outer loop
      vertex 4.42116 64.5 32
      vertex 4.42116 65 21.5
      vertex 4.42116 65 32
    endloop
  endfacet
  facet normal 1 0 0
    outer loop
      vertex 4.42116 65 21.5
      vertex 4.42116 64.5 32
      vertex 4.42116 64.5 21.5
    endloop
  endfacet
  facet normal 1 -0 0
    outer loop
      vertex 4.42116 71.5 32
      vertex 4.42116 90 21.5
      vertex 4.42116 90 32
    endloop
  endfacet
  facet normal 1 0 0
    outer loop
      vertex 4.42116 90 21.5
      vertex 4.42116 71.5 32
      vertex 4.42116 71.5 21.5
    endloop
  endfacet
  facet normal -0.500001 0 0.866025
    outer loop
      vertex 33 1 5
      vertex 61.5788 0 21.5
      vertex 61.5788 1 21.5
    endloop
  endfacet
  facet normal -0.500001 0 0.866025
    outer loop
      vertex 61.5788 0 21.5
      vertex 33 1 5
      vertex 33 0 5
    endloop
  endfacet
  facet normal -0.500001 0 0.866025
    outer loop
      vertex 33 97.5 5
      vertex 61.5788 96.5 21.5
      vertex 61.5788 97.5 21.5
    endloop
  endfacet
  facet normal -0.500001 0 0.866025
    outer loop
      vertex 61.5788 96.5 21.5
      vertex 33 97.5 5
      vertex 33 96.5 5
    endloop
  endfacet
  facet normal -0.500001 0 0.866025
    outer loop
      vertex 33 26 5
      vertex 61.5788 7.5 21.5
      vertex 61.5788 26 21.5
    endloop
  endfacet
  facet normal -0.500001 0 0.866025
    outer loop
      vertex 61.5788 7.5 21.5
      vertex 33 26 5
      vertex 33 7.5 5
    endloop
  endfacet
  facet normal -0.500001 0 0.866025
    outer loop
      vertex 33 33 5
      vertex 61.5788 32.5 21.5
      vertex 61.5788 33 21.5
    endloop
  endfacet
  facet normal -0.500001 0 0.866025
    outer loop
      vertex 61.5788 32.5 21.5
      vertex 33 33 5
      vertex 33 32.5 5
    endloop
  endfacet
  facet normal -0.500001 0 0.866025
    outer loop
      vertex 33 58 5
      vertex 61.5788 39.5 21.5
      vertex 61.5788 58 21.5
    endloop
  endfacet
  facet normal -0.500001 0 0.866025
    outer loop
      vertex 61.5788 39.5 21.5
      vertex 33 58 5
      vertex 33 39.5 5
    endloop
  endfacet
  facet normal -0.500001 0 0.866025
    outer loop
      vertex 33 65 5
      vertex 61.5788 64.5 21.5
      vertex 61.5788 65 21.5
    endloop
  endfacet
  facet normal -0.500001 0 0.866025
    outer loop
      vertex 61.5788 64.5 21.5
      vertex 33 65 5
      vertex 33 64.5 5
    endloop
  endfacet
  facet normal -0.500001 0 0.866025
    outer loop
      vertex 33 90 5
      vertex 61.5788 71.5 21.5
      vertex 61.5788 90 21.5
    endloop
  endfacet
  facet normal -0.500001 0 0.866025
    outer loop
      vertex 61.5788 71.5 21.5
      vertex 33 90 5
      vertex 33 71.5 5
    endloop
  endfacet
  facet normal -1 0 0
    outer loop
      vertex 61.5788 0 21.5
      vertex 61.5788 1 32
      vertex 61.5788 1 21.5
    endloop
  endfacet
  facet normal -1 -0 0
    outer loop
      vertex 61.5788 1 32
      vertex 61.5788 0 21.5
      vertex 61.5788 0 32
    endloop
  endfacet
  facet normal -1 0 0
    outer loop
      vertex 61.5788 96.5 21.5
      vertex 61.5788 97.5 32
      vertex 61.5788 97.5 21.5
    endloop
  endfacet
  facet normal -1 -0 0
    outer loop
      vertex 61.5788 97.5 32
      vertex 61.5788 96.5 21.5
      vertex 61.5788 96.5 32
    endloop
  endfacet
  facet normal -1 0 0
    outer loop
      vertex 61.5788 7.5 21.5
      vertex 61.5788 26 32
      vertex 61.5788 26 21.5
    endloop
  endfacet
  facet normal -1 -0 0
    outer loop
      vertex 61.5788 26 32
      vertex 61.5788 7.5 21.5
      vertex 61.5788 7.5 32
    endloop
  endfacet
  facet normal -1 0 0
    outer loop
      vertex 61.5788 32.5 21.5
      vertex 61.5788 33 32
      vertex 61.5788 33 21.5
    endloop
  endfacet
  facet normal -1 -0 0
    outer loop
      vertex 61.5788 33 32
      vertex 61.5788 32.5 21.5
      vertex 61.5788 32.5 32
    endloop
  endfacet
  facet normal -1 0 0
    outer loop
      vertex 61.5788 39.5 21.5
      vertex 61.5788 58 32
      vertex 61.5788 58 21.5
    endloop
  endfacet
  facet normal -1 -0 0
    outer loop
      vertex 61.5788 58 32
      vertex 61.5788 39.5 21.5
      vertex 61.5788 39.5 32
    endloop
  endfacet
  facet normal -1 0 0
    outer loop
      vertex 61.5788 64.5 21.5
      vertex 61.5788 65 32
      vertex 61.5788 65 21.5
    endloop
  endfacet
  facet normal -1 -0 0
    outer loop
      vertex 61.5788 65 32
      vertex 61.5788 64.5 21.5
      vertex 61.5788 64.5 32
    endloop
  endfacet
  facet normal -1 0 0
    outer loop
      vertex 61.5788 71.5 21.5
      vertex 61.5788 90 32
      vertex 61.5788 90 21.5
    endloop
  endfacet
  facet normal -1 -0 0
    outer loop
      vertex 61.5788 90 32
      vertex 61.5788 71.5 21.5
      vertex 61.5788 71.5 32
    endloop
  endfacet
  facet normal 0 1 0
    outer loop
      vertex 65.0429 1 32
      vertex 61.5788 1 21.5
      vertex 61.5788 1 32
    endloop
  endfacet
  facet normal 0 1 -0
    outer loop
      vertex 65.0429 1 19.5
      vertex 61.5788 1 21.5
      vertex 65.0429 1 32
    endloop
  endfacet
  facet normal 0 1 0
    outer loop
      vertex 65.0429 1 19.5
      vertex 33 1 5
      vertex 61.5788 1 21.5
    endloop
  endfacet
  facet normal -0 1 0
    outer loop
      vertex 33 1 5
      vertex 65.0429 1 19.5
      vertex 33 1 1
    endloop
  endfacet
  facet normal 0 1 -0
    outer loop
      vertex 4.42116 1 21.5
      vertex 0.95706 1 32
      vertex 4.42116 1 32
    endloop
  endfacet
  facet normal 0 1 0
    outer loop
      vertex 4.42116 1 21.5
      vertex 0.95706 1 19.5
      vertex 0.95706 1 32
    endloop
  endfacet
  facet normal 0 1 0
    outer loop
      vertex 33 1 5
      vertex 0.95706 1 19.5
      vertex 4.42116 1 21.5
    endloop
  endfacet
  facet normal 0 1 0
    outer loop
      vertex 0.95706 1 19.5
      vertex 33 1 5
      vertex 33 1 1
    endloop
  endfacet
  facet normal 0.5 0 0.866025
    outer loop
      vertex 0.95706 7.5 19.5
      vertex 33 1 1
      vertex 33 7.5 1
    endloop
  endfacet
  facet normal 0.5 0 0.866025
    outer loop
      vertex 33 1 1
      vertex 0.95706 7.5 19.5
      vertex 0.95706 1 19.5
    endloop
  endfacet
  facet normal 1 -0 0
    outer loop
      vertex 0.95706 1 32
      vertex 0.95706 7.5 19.5
      vertex 0.95706 7.5 32
    endloop
  endfacet
  facet normal 1 0 0
    outer loop
      vertex 0.95706 7.5 19.5
      vertex 0.95706 1 32
      vertex 0.95706 1 19.5
    endloop
  endfacet
  facet normal 0 -1 0
    outer loop
      vertex 0.95706 7.5 32
      vertex 4.42116 7.5 21.5
      vertex 4.42116 7.5 32
    endloop
  endfacet
  facet normal 0 -1 0
    outer loop
      vertex 0.95706 7.5 19.5
      vertex 4.42116 7.5 21.5
      vertex 0.95706 7.5 32
    endloop
  endfacet
  facet normal 0 -1 0
    outer loop
      vertex 0.95706 7.5 19.5
      vertex 33 7.5 5
      vertex 4.42116 7.5 21.5
    endloop
  endfacet
  facet normal -0 -1 -0
    outer loop
      vertex 33 7.5 5
      vertex 0.95706 7.5 19.5
      vertex 33 7.5 1
    endloop
  endfacet
  facet normal 0 -1 0
    outer loop
      vertex 61.5788 7.5 21.5
      vertex 65.0429 7.5 32
      vertex 61.5788 7.5 32
    endloop
  endfacet
  facet normal 0 -1 0
    outer loop
      vertex 61.5788 7.5 21.5
      vertex 65.0429 7.5 19.5
      vertex 65.0429 7.5 32
    endloop
  endfacet
  facet normal 0 -1 0
    outer loop
      vertex 33 7.5 5
      vertex 65.0429 7.5 19.5
      vertex 61.5788 7.5 21.5
    endloop
  endfacet
  facet normal 0 -1 0
    outer loop
      vertex 65.0429 7.5 19.5
      vertex 33 7.5 5
      vertex 33 7.5 1
    endloop
  endfacet
  facet normal -0.5 0 0.866025
    outer loop
      vertex 33 7.5 1
      vertex 65.0429 1 19.5
      vertex 65.0429 7.5 19.5
    endloop
  endfacet
  facet normal -0.5 0 0.866025
    outer loop
      vertex 65.0429 1 19.5
      vertex 33 7.5 1
      vertex 33 1 1
    endloop
  endfacet
  facet normal -1 0 0
    outer loop
      vertex 65.0429 1 19.5
      vertex 65.0429 7.5 32
      vertex 65.0429 7.5 19.5
    endloop
  endfacet
  facet normal -1 -0 0
    outer loop
      vertex 65.0429 7.5 32
      vertex 65.0429 1 19.5
      vertex 65.0429 1 32
    endloop
  endfacet
  facet normal 0 1 0
    outer loop
      vertex 65.0429 26 32
      vertex 61.5788 26 21.5
      vertex 61.5788 26 32
    endloop
  endfacet
  facet normal 0 1 -0
    outer loop
      vertex 65.0429 26 19.5
      vertex 61.5788 26 21.5
      vertex 65.0429 26 32
    endloop
  endfacet
  facet normal 0 1 0
    outer loop
      vertex 65.0429 26 19.5
      vertex 33 26 5
      vertex 61.5788 26 21.5
    endloop
  endfacet
  facet normal -0 1 0
    outer loop
      vertex 33 26 5
      vertex 65.0429 26 19.5
      vertex 33 26 1
    endloop
  endfacet
  facet normal 0 1 -0
    outer loop
      vertex 4.42116 26 21.5
      vertex 0.95706 26 32
      vertex 4.42116 26 32
    endloop
  endfacet
  facet normal 0 1 0
    outer loop
      vertex 4.42116 26 21.5
      vertex 0.95706 26 19.5
      vertex 0.95706 26 32
    endloop
  endfacet
  facet normal 0 1 0
    outer loop
      vertex 33 26 5
      vertex 0.95706 26 19.5
      vertex 4.42116 26 21.5
    endloop
  endfacet
  facet normal 0 1 0
    outer loop
      vertex 0.95706 26 19.5
      vertex 33 26 5
      vertex 33 26 1
    endloop
  endfacet
  facet normal 0.5 0 0.866025
    outer loop
      vertex 0.95706 32.5 19.5
      vertex 33 26 1
      vertex 33 32.5 1
    endloop
  endfacet
  facet normal 0.5 0 0.866025
    outer loop
      vertex 33 26 1
      vertex 0.95706 32.5 19.5
      vertex 0.95706 26 19.5
    endloop
  endfacet
  facet normal 1 -0 0
    outer loop
      vertex 0.95706 26 32
      vertex 0.95706 32.5 19.5
      vertex 0.95706 32.5 32
    endloop
  endfacet
  facet normal 1 0 0
    outer loop
      vertex 0.95706 32.5 19.5
      vertex 0.95706 26 32
      vertex 0.95706 26 19.5
    endloop
  endfacet
  facet normal 0 -1 0
    outer loop
      vertex 0.95706 32.5 32
      vertex 4.42116 32.5 21.5
      vertex 4.42116 32.5 32
    endloop
  endfacet
  facet normal 0 -1 0
    outer loop
      vertex 0.95706 32.5 19.5
      vertex 4.42116 32.5 21.5
      vertex 0.95706 32.5 32
    endloop
  endfacet
  facet normal 0 -1 0
    outer loop
      vertex 0.95706 32.5 19.5
      vertex 33 32.5 5
      vertex 4.42116 32.5 21.5
    endloop
  endfacet
  facet normal -0 -1 -0
    outer loop
      vertex 33 32.5 5
      vertex 0.95706 32.5 19.5
      vertex 33 32.5 1
    endloop
  endfacet
  facet normal 0 -1 0
    outer loop
      vertex 61.5788 32.5 21.5
      vertex 65.0429 32.5 32
      vertex 61.5788 32.5 32
    endloop
  endfacet
  facet normal 0 -1 0
    outer loop
      vertex 61.5788 32.5 21.5
      vertex 65.0429 32.5 19.5
      vertex 65.0429 32.5 32
    endloop
  endfacet
  facet normal 0 -1 0
    outer loop
      vertex 33 32.5 5
      vertex 65.0429 32.5 19.5
      vertex 61.5788 32.5 21.5
    endloop
  endfacet
  facet normal 0 -1 0
    outer loop
      vertex 65.0429 32.5 19.5
      vertex 33 32.5 5
      vertex 33 32.5 1
    endloop
  endfacet
  facet normal -0.5 0 0.866025
    outer loop
      vertex 33 32.5 1
      vertex 65.0429 26 19.5
      vertex 65.0429 32.5 19.5
    endloop
  endfacet
  facet normal -0.5 0 0.866025
    outer loop
      vertex 65.0429 26 19.5
      vertex 33 32.5 1
      vertex 33 26 1
    endloop
  endfacet
  facet normal -1 0 0
    outer loop
      vertex 65.0429 26 19.5
      vertex 65.0429 32.5 32
      vertex 65.0429 32.5 19.5
    endloop
  endfacet
  facet normal -1 -0 0
    outer loop
      vertex 65.0429 32.5 32
      vertex 65.0429 26 19.5
      vertex 65.0429 26 32
    endloop
  endfacet
  facet normal 0 1 0
    outer loop
      vertex 65.0429 33 32
      vertex 61.5788 33 21.5
      vertex 61.5788 33 32
    endloop
  endfacet
  facet normal 0 1 -0
    outer loop
      vertex 65.0429 33 19.5
      vertex 61.5788 33 21.5
      vertex 65.0429 33 32
    endloop
  endfacet
  facet normal 0 1 0
    outer loop
      vertex 65.0429 33 19.5
      vertex 33 33 5
      vertex 61.5788 33 21.5
    endloop
  endfacet
  facet normal -0 1 0
    outer loop
      vertex 33 33 5
      vertex 65.0429 33 19.5
      vertex 33 33 1
    endloop
  endfacet
  facet normal 0 1 -0
    outer loop
      vertex 4.42116 33 21.5
      vertex 0.95706 33 32
      vertex 4.42116 33 32
    endloop
  endfacet
  facet normal 0 1 0
    outer loop
      vertex 4.42116 33 21.5
      vertex 0.95706 33 19.5
      vertex 0.95706 33 32
    endloop
  endfacet
  facet normal 0 1 0
    outer loop
      vertex 33 33 5
      vertex 0.95706 33 19.5
      vertex 4.42116 33 21.5
    endloop
  endfacet
  facet normal 0 1 0
    outer loop
      vertex 0.95706 33 19.5
      vertex 33 33 5
      vertex 33 33 1
    endloop
  endfacet
  facet normal 0.5 0 0.866025
    outer loop
      vertex 0.95706 39.5 19.5
      vertex 33 33 1
      vertex 33 39.5 1
    endloop
  endfacet
  facet normal 0.5 0 0.866025
    outer loop
      vertex 33 33 1
      vertex 0.95706 39.5 19.5
      vertex 0.95706 33 19.5
    endloop
  endfacet
  facet normal 1 -0 0
    outer loop
      vertex 0.95706 33 32
      vertex 0.95706 39.5 19.5
      vertex 0.95706 39.5 32
    endloop
  endfacet
  facet normal 1 0 0
    outer loop
      vertex 0.95706 39.5 19.5
      vertex 0.95706 33 32
      vertex 0.95706 33 19.5
    endloop
  endfacet
  facet normal 0 -1 0
    outer loop
      vertex 0.95706 39.5 32
      vertex 4.42116 39.5 21.5
      vertex 4.42116 39.5 32
    endloop
  endfacet
  facet normal 0 -1 0
    outer loop
      vertex 0.95706 39.5 19.5
      vertex 4.42116 39.5 21.5
      vertex 0.95706 39.5 32
    endloop
  endfacet
  facet normal 0 -1 0
    outer loop
      vertex 0.95706 39.5 19.5
      vertex 33 39.5 5
      vertex 4.42116 39.5 21.5
    endloop
  endfacet
  facet normal -0 -1 -0
    outer loop
      vertex 33 39.5 5
      vertex 0.95706 39.5 19.5
      vertex 33 39.5 1
    endloop
  endfacet
  facet normal 0 -1 0
    outer loop
      vertex 61.5788 39.5 21.5
      vertex 65.0429 39.5 32
      vertex 61.5788 39.5 32
    endloop
  endfacet
  facet normal 0 -1 0
    outer loop
      vertex 61.5788 39.5 21.5
      vertex 65.0429 39.5 19.5
      vertex 65.0429 39.5 32
    endloop
  endfacet
  facet normal 0 -1 0
    outer loop
      vertex 33 39.5 5
      vertex 65.0429 39.5 19.5
      vertex 61.5788 39.5 21.5
    endloop
  endfacet
  facet normal 0 -1 0
    outer loop
      vertex 65.0429 39.5 19.5
      vertex 33 39.5 5
      vertex 33 39.5 1
    endloop
  endfacet
  facet normal -0.5 0 0.866025
    outer loop
      vertex 33 39.5 1
      vertex 65.0429 33 19.5
      vertex 65.0429 39.5 19.5
    endloop
  endfacet
  facet normal -0.5 0 0.866025
    outer loop
      vertex 65.0429 33 19.5
      vertex 33 39.5 1
      vertex 33 33 1
    endloop
  endfacet
  facet normal -1 0 0
    outer loop
      vertex 65.0429 33 19.5
      vertex 65.0429 39.5 32
      vertex 65.0429 39.5 19.5
    endloop
  endfacet
  facet normal -1 -0 0
    outer loop
      vertex 65.0429 39.5 32
      vertex 65.0429 33 19.5
      vertex 65.0429 33 32
    endloop
  endfacet
  facet normal 0 1 0
    outer loop
      vertex 65.0429 58 32
      vertex 61.5788 58 21.5
      vertex 61.5788 58 32
    endloop
  endfacet
  facet normal 0 1 -0
    outer loop
      vertex 65.0429 58 19.5
      vertex 61.5788 58 21.5
      vertex 65.0429 58 32
    endloop
  endfacet
  facet normal 0 1 0
    outer loop
      vertex 65.0429 58 19.5
      vertex 33 58 5
      vertex 61.5788 58 21.5
    endloop
  endfacet
  facet normal -0 1 0
    outer loop
      vertex 33 58 5
      vertex 65.0429 58 19.5
      vertex 33 58 1
    endloop
  endfacet
  facet normal 0 1 -0
    outer loop
      vertex 4.42116 58 21.5
      vertex 0.95706 58 32
      vertex 4.42116 58 32
    endloop
  endfacet
  facet normal 0 1 0
    outer loop
      vertex 4.42116 58 21.5
      vertex 0.95706 58 19.5
      vertex 0.95706 58 32
    endloop
  endfacet
  facet normal 0 1 0
    outer loop
      vertex 33 58 5
      vertex 0.95706 58 19.5
      vertex 4.42116 58 21.5
    endloop
  endfacet
  facet normal 0 1 0
    outer loop
      vertex 0.95706 58 19.5
      vertex 33 58 5
      vertex 33 58 1
    endloop
  endfacet
  facet normal 0.5 0 0.866025
    outer loop
      vertex 0.95706 64.5 19.5
      vertex 33 58 1
      vertex 33 64.5 1
    endloop
  endfacet
  facet normal 0.5 0 0.866025
    outer loop
      vertex 33 58 1
      vertex 0.95706 64.5 19.5
      vertex 0.95706 58 19.5
    endloop
  endfacet
  facet normal 1 -0 0
    outer loop
      vertex 0.95706 58 32
      vertex 0.95706 64.5 19.5
      vertex 0.95706 64.5 32
    endloop
  endfacet
  facet normal 1 0 0
    outer loop
      vertex 0.95706 64.5 19.5
      vertex 0.95706 58 32
      vertex 0.95706 58 19.5
    endloop
  endfacet
  facet normal 0 -1 0
    outer loop
      vertex 0.95706 64.5 32
      vertex 4.42116 64.5 21.5
      vertex 4.42116 64.5 32
    endloop
  endfacet
  facet normal 0 -1 0
    outer loop
      vertex 0.95706 64.5 19.5
      vertex 4.42116 64.5 21.5
      vertex 0.95706 64.5 32
    endloop
  endfacet
  facet normal 0 -1 0
    outer loop
      vertex 0.95706 64.5 19.5
      vertex 33 64.5 5
      vertex 4.42116 64.5 21.5
    endloop
  endfacet
  facet normal -0 -1 -0
    outer loop
      vertex 33 64.5 5
      vertex 0.95706 64.5 19.5
      vertex 33 64.5 1
    endloop
  endfacet
  facet normal 0 -1 0
    outer loop
      vertex 61.5788 64.5 21.5
      vertex 65.0429 64.5 32
      vertex 61.5788 64.5 32
    endloop
  endfacet
  facet normal 0 -1 0
    outer loop
      vertex 61.5788 64.5 21.5
      vertex 65.0429 64.5 19.5
      vertex 65.0429 64.5 32
    endloop
  endfacet
  facet normal 0 -1 0
    outer loop
      vertex 33 64.5 5
      vertex 65.0429 64.5 19.5
      vertex 61.5788 64.5 21.5
    endloop
  endfacet
  facet normal 0 -1 0
    outer loop
      vertex 65.0429 64.5 19.5
      vertex 33 64.5 5
      vertex 33 64.5 1
    endloop
  endfacet
  facet normal -0.5 0 0.866025
    outer loop
      vertex 33 64.5 1
      vertex 65.0429 58 19.5
      vertex 65.0429 64.5 19.5
    endloop
  endfacet
  facet normal -0.5 0 0.866025
    outer loop
      vertex 65.0429 58 19.5
      vertex 33 64.5 1
      vertex 33 58 1
    endloop
  endfacet
  facet normal -1 0 0
    outer loop
      vertex 65.0429 58 19.5
      vertex 65.0429 64.5 32
      vertex 65.0429 64.5 19.5
    endloop
  endfacet
  facet normal -1 -0 0
    outer loop
      vertex 65.0429 64.5 32
      vertex 65.0429 58 19.5
      vertex 65.0429 58 32
    endloop
  endfacet
  facet normal 0 1 0
    outer loop
      vertex 65.0429 65 32
      vertex 61.5788 65 21.5
      vertex 61.5788 65 32
    endloop
  endfacet
  facet normal 0 1 -0
    outer loop
      vertex 65.0429 65 19.5
      vertex 61.5788 65 21.5
      vertex 65.0429 65 32
    endloop
  endfacet
  facet normal 0 1 0
    outer loop
      vertex 65.0429 65 19.5
      vertex 33 65 5
      vertex 61.5788 65 21.5
    endloop
  endfacet
  facet normal -0 1 0
    outer loop
      vertex 33 65 5
      vertex 65.0429 65 19.5
      vertex 33 65 1
    endloop
  endfacet
  facet normal 0 1 -0
    outer loop
      vertex 4.42116 65 21.5
      vertex 0.95706 65 32
      vertex 4.42116 65 32
    endloop
  endfacet
  facet normal 0 1 0
    outer loop
      vertex 4.42116 65 21.5
      vertex 0.95706 65 19.5
      vertex 0.95706 65 32
    endloop
  endfacet
  facet normal 0 1 0
    outer loop
      vertex 33 65 5
      vertex 0.95706 65 19.5
      vertex 4.42116 65 21.5
    endloop
  endfacet
  facet normal 0 1 0
    outer loop
      vertex 0.95706 65 19.5
      vertex 33 65 5
      vertex 33 65 1
    endloop
  endfacet
  facet normal 0.5 0 0.866025
    outer loop
      vertex 0.95706 71.5 19.5
      vertex 33 65 1
      vertex 33 71.5 1
    endloop
  endfacet
  facet normal 0.5 0 0.866025
    outer loop
      vertex 33 65 1
      vertex 0.95706 71.5 19.5
      vertex 0.95706 65 19.5
    endloop
  endfacet
  facet normal 1 -0 0
    outer loop
      vertex 0.95706 65 32
      vertex 0.95706 71.5 19.5
      vertex 0.95706 71.5 32
    endloop
  endfacet
  facet normal 1 0 0
    outer loop
      vertex 0.95706 71.5 19.5
      vertex 0.95706 65 32
      vertex 0.95706 65 19.5
    endloop
  endfacet
  facet normal 0 -1 0
    outer loop
      vertex 0.95706 71.5 32
      vertex 4.42116 71.5 21.5
      vertex 4.42116 71.5 32
    endloop
  endfacet
  facet normal 0 -1 0
    outer loop
      vertex 0.95706 71.5 19.5
      vertex 4.42116 71.5 21.5
      vertex 0.95706 71.5 32
    endloop
  endfacet
  facet normal 0 -1 0
    outer loop
      vertex 0.95706 71.5 19.5
      vertex 33 71.5 5
      vertex 4.42116 71.5 21.5
    endloop
  endfacet
  facet normal -0 -1 -0
    outer loop
      vertex 33 71.5 5
      vertex 0.95706 71.5 19.5
      vertex 33 71.5 1
    endloop
  endfacet
  facet normal 0 -1 0
    outer loop
      vertex 61.5788 71.5 21.5
      vertex 65.0429 71.5 32
      vertex 61.5788 71.5 32
    endloop
  endfacet
  facet normal 0 -1 0
    outer loop
      vertex 61.5788 71.5 21.5
      vertex 65.0429 71.5 19.5
      vertex 65.0429 71.5 32
    endloop
  endfacet
  facet normal 0 -1 0
    outer loop
      vertex 33 71.5 5
      vertex 65.0429 71.5 19.5
      vertex 61.5788 71.5 21.5
    endloop
  endfacet
  facet normal 0 -1 0
    outer loop
      vertex 65.0429 71.5 19.5
      vertex 33 71.5 5
      vertex 33 71.5 1
    endloop
  endfacet
  facet normal -0.5 0 0.866025
    outer loop
      vertex 33 71.5 1
      vertex 65.0429 65 19.5
      vertex 65.0429 71.5 19.5
    endloop
  endfacet
  facet normal -0.5 0 0.866025
    outer loop
      vertex 65.0429 65 19.5
      vertex 33 71.5 1
      vertex 33 65 1
    endloop
  endfacet
  facet normal -1 0 0
    outer loop
      vertex 65.0429 65 19.5
      vertex 65.0429 71.5 32
      vertex 65.0429 71.5 19.5
    endloop
  endfacet
  facet normal -1 -0 0
    outer loop
      vertex 65.0429 71.5 32
      vertex 65.0429 65 19.5
      vertex 65.0429 65 32
    endloop
  endfacet
  facet normal 0 1 0
    outer loop
      vertex 65.0429 90 32
      vertex 61.5788 90 21.5
      vertex 61.5788 90 32
    endloop
  endfacet
  facet normal 0 1 -0
    outer loop
      vertex 65.0429 90 19.5
      vertex 61.5788 90 21.5
      vertex 65.0429 90 32
    endloop
  endfacet
  facet normal 0 1 0
    outer loop
      vertex 65.0429 90 19.5
      vertex 33 90 5
      vertex 61.5788 90 21.5
    endloop
  endfacet
  facet normal -0 1 0
    outer loop
      vertex 33 90 5
      vertex 65.0429 90 19.5
      vertex 33 90 1
    endloop
  endfacet
  facet normal 0 1 -0
    outer loop
      vertex 4.42116 90 21.5
      vertex 0.95706 90 32
      vertex 4.42116 90 32
    endloop
  endfacet
  facet normal 0 1 0
    outer loop
      vertex 4.42116 90 21.5
      vertex 0.95706 90 19.5
      vertex 0.95706 90 32
    endloop
  endfacet
  facet normal 0 1 0
    outer loop
      vertex 33 90 5
      vertex 0.95706 90 19.5
      vertex 4.42116 90 21.5
    endloop
  endfacet
  facet normal 0 1 0
    outer loop
      vertex 0.95706 90 19.5
      vertex 33 90 5
      vertex 33 90 1
    endloop
  endfacet
  facet normal 0.5 0 0.866025
    outer loop
      vertex 0.95706 96.5 19.5
      vertex 33 90 1
      vertex 33 96.5 1
    endloop
  endfacet
  facet normal 0.5 0 0.866025
    outer loop
      vertex 33 90 1
      vertex 0.95706 96.5 19.5
      vertex 0.95706 90 19.5
    endloop
  endfacet
  facet normal 1 -0 0
    outer loop
      vertex 0.95706 90 32
      vertex 0.95706 96.5 19.5
      vertex 0.95706 96.5 32
    endloop
  endfacet
  facet normal 1 0 0
    outer loop
      vertex 0.95706 96.5 19.5
      vertex 0.95706 90 32
      vertex 0.95706 90 19.5
    endloop
  endfacet
  facet normal 0 -1 0
    outer loop
      vertex 0.95706 96.5 32
      vertex 4.42116 96.5 21.5
      vertex 4.42116 96.5 32
    endloop
  endfacet
  facet normal 0 -1 0
    outer loop
      vertex 0.95706 96.5 19.5
      vertex 4.42116 96.5 21.5
      vertex 0.95706 96.5 32
    endloop
  endfacet
  facet normal 0 -1 0
    outer loop
      vertex 0.95706 96.5 19.5
      vertex 33 96.5 5
      vertex 4.42116 96.5 21.5
    endloop
  endfacet
  facet normal -0 -1 -0
    outer loop
      vertex 33 96.5 5
      vertex 0.95706 96.5 19.5
      vertex 33 96.5 1
    endloop
  endfacet
  facet normal 0 -1 0
    outer loop
      vertex 61.5788 96.5 21.5
      vertex 65.0429 96.5 32
      vertex 61.5788 96.5 32
    endloop
  endfacet
  facet normal 0 -1 0
    outer loop
      vertex 61.5788 96.5 21.5
      vertex 65.0429 96.5 19.5
      vertex 65.0429 96.5 32
    endloop
  endfacet
  facet normal 0 -1 0
    outer loop
      vertex 33 96.5 5
      vertex 65.0429 96.5 19.5
      vertex 61.5788 96.5 21.5
    endloop
  endfacet
  facet normal 0 -1 0
    outer loop
      vertex 65.0429 96.5 19.5
      vertex 33 96.5 5
      vertex 33 96.5 1
    endloop
  endfacet
  facet normal -0.5 0 0.866025
    outer loop
      vertex 33 96.5 1
      vertex 65.0429 90 19.5
      vertex 65.0429 96.5 19.5
    endloop
  endfacet
  facet normal -0.5 0 0.866025
    outer loop
      vertex 65.0429 90 19.5
      vertex 33 96.5 1
      vertex 33 90 1
    endloop
  endfacet
  facet normal -1 0 0
    outer loop
      vertex 65.0429 90 19.5
      vertex 65.0429 96.5 32
      vertex 65.0429 96.5 19.5
    endloop
  endfacet
  facet normal -1 -0 0
    outer loop
      vertex 65.0429 96.5 32
      vertex 65.0429 90 19.5
      vertex 65.0429 90 32
    endloop
  endfacet
endsolid OpenSCAD_Model
