solid OpenSCAD_Model
  facet normal -1 0 0
    outer loop
      vertex 0 0 0
      vertex 0 77.5 32
      vertex 0 77.5 0
    endloop
  endfacet
  facet normal -1 -0 0
    outer loop
      vertex 0 77.5 32
      vertex 0 0 0
      vertex 0 0 32
    endloop
  endfacet
  facet normal -0 0 1
    outer loop
      vertex 61.5788 21 32
      vertex 65.0429 6.5 32
      vertex 65.0429 21 32
    endloop
  endfacet
  facet normal 0 0 1
    outer loop
      vertex 65.0429 6.5 32
      vertex 61.5788 21 32
      vertex 61.5788 6.5 32
    endloop
  endfacet
  facet normal -0 0 1
    outer loop
      vertex 61.5788 46 32
      vertex 65.0429 31.5 32
      vertex 65.0429 46 32
    endloop
  endfacet
  facet normal 0 0 1
    outer loop
      vertex 65.0429 31.5 32
      vertex 61.5788 46 32
      vertex 61.5788 31.5 32
    endloop
  endfacet
  facet normal -0 0 1
    outer loop
      vertex 61.5788 71 32
      vertex 65.0429 56.5 32
      vertex 65.0429 71 32
    endloop
  endfacet
  facet normal 0 0 1
    outer loop
      vertex 65.0429 56.5 32
      vertex 61.5788 71 32
      vertex 61.5788 56.5 32
    endloop
  endfacet
  facet normal 0 0 1
    outer loop
      vertex 65.0429 71 32
      vertex 66 77.5 32
      vertex 65.0429 76.5 32
    endloop
  endfacet
  facet normal -0 0 1
    outer loop
      vertex 61.5788 77.5 32
      vertex 65.0429 76.5 32
      vertex 66 77.5 32
    endloop
  endfacet
  facet normal 0 0 1
    outer loop
      vertex 65.0429 76.5 32
      vertex 61.5788 77.5 32
      vertex 61.5788 76.5 32
    endloop
  endfacet
  facet normal 0 0 1
    outer loop
      vertex 65.0429 56.5 32
      vertex 66 77.5 32
      vertex 65.0429 71 32
    endloop
  endfacet
  facet normal 0 0 1
    outer loop
      vertex 65.0429 46 32
      vertex 66 77.5 32
      vertex 65.0429 56.5 32
    endloop
  endfacet
  facet normal 0 0 1
    outer loop
      vertex 66 77.5 32
      vertex 65.0429 46 32
      vertex 66 0 32
    endloop
  endfacet
  facet normal -0 0 1
    outer loop
      vertex 65.0429 31.5 32
      vertex 66 0 32
      vertex 65.0429 46 32
    endloop
  endfacet
  facet normal -0 0 1
    outer loop
      vertex 65.0429 21 32
      vertex 66 0 32
      vertex 65.0429 31.5 32
    endloop
  endfacet
  facet normal -0 0 1
    outer loop
      vertex 65.0429 6.5 32
      vertex 66 0 32
      vertex 65.0429 21 32
    endloop
  endfacet
  facet normal -0 0 1
    outer loop
      vertex 65.0429 1 32
      vertex 66 0 32
      vertex 65.0429 6.5 32
    endloop
  endfacet
  facet normal 0 0 1
    outer loop
      vertex 61.5788 0 32
      vertex 65.0429 1 32
      vertex 61.5788 1 32
    endloop
  endfacet
  facet normal 0 0 1
    outer loop
      vertex 65.0429 1 32
      vertex 61.5788 0 32
      vertex 66 0 32
    endloop
  endfacet
  facet normal 0 0 1
    outer loop
      vertex 4.42116 77.5 32
      vertex 0.95706 76.5 32
      vertex 4.42116 76.5 32
    endloop
  endfacet
  facet normal 0 0 1
    outer loop
      vertex 0 77.5 32
      vertex 0.95706 71 32
      vertex 0.95706 76.5 32
    endloop
  endfacet
  facet normal 0 0 1
    outer loop
      vertex 0.95706 71 32
      vertex 0 77.5 32
      vertex 0.95706 56.5 32
    endloop
  endfacet
  facet normal 0 0 1
    outer loop
      vertex 0.95706 56.5 32
      vertex 0 77.5 32
      vertex 0.95706 46 32
    endloop
  endfacet
  facet normal 0 0 1
    outer loop
      vertex 0.95706 46 32
      vertex 0 77.5 32
      vertex 0.95706 31.5 32
    endloop
  endfacet
  facet normal 0 0 1
    outer loop
      vertex 0 0 32
      vertex 0.95706 31.5 32
      vertex 0 77.5 32
    endloop
  endfacet
  facet normal 0 0 1
    outer loop
      vertex 0.95706 31.5 32
      vertex 0 0 32
      vertex 0.95706 21 32
    endloop
  endfacet
  facet normal 0 0 1
    outer loop
      vertex 0.95706 21 32
      vertex 0 0 32
      vertex 0.95706 6.5 32
    endloop
  endfacet
  facet normal -0 0 1
    outer loop
      vertex 0 77.5 32
      vertex 0.95706 76.5 32
      vertex 4.42116 77.5 32
    endloop
  endfacet
  facet normal -0 0 1
    outer loop
      vertex 0.95706 71 32
      vertex 4.42116 56.5 32
      vertex 4.42116 71 32
    endloop
  endfacet
  facet normal 0 0 1
    outer loop
      vertex 4.42116 56.5 32
      vertex 0.95706 71 32
      vertex 0.95706 56.5 32
    endloop
  endfacet
  facet normal -0 0 1
    outer loop
      vertex 0.95706 46 32
      vertex 4.42116 31.5 32
      vertex 4.42116 46 32
    endloop
  endfacet
  facet normal 0 0 1
    outer loop
      vertex 4.42116 31.5 32
      vertex 0.95706 46 32
      vertex 0.95706 31.5 32
    endloop
  endfacet
  facet normal -0 0 1
    outer loop
      vertex 0.95706 21 32
      vertex 4.42116 6.5 32
      vertex 4.42116 21 32
    endloop
  endfacet
  facet normal 0 0 1
    outer loop
      vertex 4.42116 6.5 32
      vertex 0.95706 21 32
      vertex 0.95706 6.5 32
    endloop
  endfacet
  facet normal -0 0 1
    outer loop
      vertex 0.95706 1 32
      vertex 4.42116 0 32
      vertex 4.42116 1 32
    endloop
  endfacet
  facet normal 0 0 1
    outer loop
      vertex 0.95706 1 32
      vertex 0 0 32
      vertex 4.42116 0 32
    endloop
  endfacet
  facet normal 0 0 1
    outer loop
      vertex 0.95706 6.5 32
      vertex 0 0 32
      vertex 0.95706 1 32
    endloop
  endfacet
  facet normal 1 -0 0
    outer loop
      vertex 66 0 32
      vertex 66 77.5 0
      vertex 66 77.5 32
    endloop
  endfacet
  facet normal 1 0 0
    outer loop
      vertex 66 77.5 0
      vertex 66 0 32
      vertex 66 0 0
    endloop
  endfacet
  facet normal 0 1 0
    outer loop
      vertex 66 77.5 32
      vertex 61.5788 77.5 21.5
      vertex 61.5788 77.5 32
    endloop
  endfacet
  facet normal 0 1 0
    outer loop
      vertex 61.5788 77.5 21.5
      vertex 66 77.5 0
      vertex 33 77.5 5
    endloop
  endfacet
  facet normal 0 1 -0
    outer loop
      vertex 66 77.5 0
      vertex 61.5788 77.5 21.5
      vertex 66 77.5 32
    endloop
  endfacet
  facet normal 0 1 -0
    outer loop
      vertex 4.42116 77.5 21.5
      vertex 0 77.5 32
      vertex 4.42116 77.5 32
    endloop
  endfacet
  facet normal 0 1 0
    outer loop
      vertex 4.42116 77.5 21.5
      vertex 0 77.5 0
      vertex 0 77.5 32
    endloop
  endfacet
  facet normal 0 1 0
    outer loop
      vertex 33 77.5 5
      vertex 0 77.5 0
      vertex 4.42116 77.5 21.5
    endloop
  endfacet
  facet normal 0 1 0
    outer loop
      vertex 0 77.5 0
      vertex 33 77.5 5
      vertex 66 77.5 0
    endloop
  endfacet
  facet normal 0 0 -1
    outer loop
      vertex 0 0 0
      vertex 66 77.5 0
      vertex 66 0 0
    endloop
  endfacet
  facet normal -0 0 -1
    outer loop
      vertex 66 77.5 0
      vertex 0 0 0
      vertex 0 77.5 0
    endloop
  endfacet
  facet normal 0 -1 0
    outer loop
      vertex 0 0 32
      vertex 4.42116 0 21.5
      vertex 4.42116 0 32
    endloop
  endfacet
  facet normal 0 -1 -0
    outer loop
      vertex 4.42116 0 21.5
      vertex 0 0 0
      vertex 33 0 5
    endloop
  endfacet
  facet normal 0 -1 0
    outer loop
      vertex 0 0 0
      vertex 4.42116 0 21.5
      vertex 0 0 32
    endloop
  endfacet
  facet normal 0 -1 0
    outer loop
      vertex 61.5788 0 21.5
      vertex 66 0 32
      vertex 61.5788 0 32
    endloop
  endfacet
  facet normal 0 -1 0
    outer loop
      vertex 61.5788 0 21.5
      vertex 66 0 0
      vertex 66 0 32
    endloop
  endfacet
  facet normal 0 -1 0
    outer loop
      vertex 33 0 5
      vertex 66 0 0
      vertex 61.5788 0 21.5
    endloop
  endfacet
  facet normal 0 -1 0
    outer loop
      vertex 66 0 0
      vertex 33 0 5
      vertex 0 0 0
    endloop
  endfacet
  facet normal 0.5 0 0.866025
    outer loop
      vertex 4.42116 1 21.5
      vertex 33 0 5
      vertex 33 1 5
    endloop
  endfacet
  facet normal 0.5 0 0.866025
    outer loop
      vertex 33 0 5
      vertex 4.42116 1 21.5
      vertex 4.42116 0 21.5
    endloop
  endfacet
  facet normal 0.5 0 0.866025
    outer loop
      vertex 4.42116 77.5 21.5
      vertex 33 76.5 5
      vertex 33 77.5 5
    endloop
  endfacet
  facet normal 0.5 0 0.866025
    outer loop
      vertex 33 76.5 5
      vertex 4.42116 77.5 21.5
      vertex 4.42116 76.5 21.5
    endloop
  endfacet
  facet normal 0.5 0 0.866025
    outer loop
      vertex 4.42116 21 21.5
      vertex 33 6.5 5
      vertex 33 21 5
    endloop
  endfacet
  facet normal 0.5 0 0.866025
    outer loop
      vertex 33 6.5 5
      vertex 4.42116 21 21.5
      vertex 4.42116 6.5 21.5
    endloop
  endfacet
  facet normal 0.5 0 0.866025
    outer loop
      vertex 4.42116 46 21.5
      vertex 33 31.5 5
      vertex 33 46 5
    endloop
  endfacet
  facet normal 0.5 0 0.866025
    outer loop
      vertex 33 31.5 5
      vertex 4.42116 46 21.5
      vertex 4.42116 31.5 21.5
    endloop
  endfacet
  facet normal 0.5 0 0.866025
    outer loop
      vertex 4.42116 71 21.5
      vertex 33 56.5 5
      vertex 33 71 5
    endloop
  endfacet
  facet normal 0.5 0 0.866025
    outer loop
      vertex 33 56.5 5
      vertex 4.42116 71 21.5
      vertex 4.42116 56.5 21.5
    endloop
  endfacet
  facet normal 1 -0 0
    outer loop
      vertex 4.42116 0 32
      vertex 4.42116 1 21.5
      vertex 4.42116 1 32
    endloop
  endfacet
  facet normal 1 0 0
    outer loop
      vertex 4.42116 1 21.5
      vertex 4.42116 0 32
      vertex 4.42116 0 21.5
    endloop
  endfacet
  facet normal 1 -0 0
    outer loop
      vertex 4.42116 76.5 32
      vertex 4.42116 77.5 21.5
      vertex 4.42116 77.5 32
    endloop
  endfacet
  facet normal 1 0 0
    outer loop
      vertex 4.42116 77.5 21.5
      vertex 4.42116 76.5 32
      vertex 4.42116 76.5 21.5
    endloop
  endfacet
  facet normal 1 -0 0
    outer loop
      vertex 4.42116 6.5 32
      vertex 4.42116 21 21.5
      vertex 4.42116 21 32
    endloop
  endfacet
  facet normal 1 0 0
    outer loop
      vertex 4.42116 21 21.5
      vertex 4.42116 6.5 32
      vertex 4.42116 6.5 21.5
    endloop
  endfacet
  facet normal 1 -0 0
    outer loop
      vertex 4.42116 31.5 32
      vertex 4.42116 46 21.5
      vertex 4.42116 46 32
    endloop
  endfacet
  facet normal 1 0 0
    outer loop
      vertex 4.42116 46 21.5
      vertex 4.42116 31.5 32
      vertex 4.42116 31.5 21.5
    endloop
  endfacet
  facet normal 1 -0 0
    outer loop
      vertex 4.42116 56.5 32
      vertex 4.42116 71 21.5
      vertex 4.42116 71 32
    endloop
  endfacet
  facet normal 1 0 0
    outer loop
      vertex 4.42116 71 21.5
      vertex 4.42116 56.5 32
      vertex 4.42116 56.5 21.5
    endloop
  endfacet
  facet normal -0.500001 0 0.866025
    outer loop
      vertex 33 1 5
      vertex 61.5788 0 21.5
      vertex 61.5788 1 21.5
    endloop
  endfacet
  facet normal -0.500001 0 0.866025
    outer loop
      vertex 61.5788 0 21.5
      vertex 33 1 5
      vertex 33 0 5
    endloop
  endfacet
  facet normal -0.500001 0 0.866025
    outer loop
      vertex 33 77.5 5
      vertex 61.5788 76.5 21.5
      vertex 61.5788 77.5 21.5
    endloop
  endfacet
  facet normal -0.500001 0 0.866025
    outer loop
      vertex 61.5788 76.5 21.5
      vertex 33 77.5 5
      vertex 33 76.5 5
    endloop
  endfacet
  facet normal -0.500001 0 0.866025
    outer loop
      vertex 33 21 5
      vertex 61.5788 6.5 21.5
      vertex 61.5788 21 21.5
    endloop
  endfacet
  facet normal -0.500001 0 0.866025
    outer loop
      vertex 61.5788 6.5 21.5
      vertex 33 21 5
      vertex 33 6.5 5
    endloop
  endfacet
  facet normal -0.500001 0 0.866025
    outer loop
      vertex 33 46 5
      vertex 61.5788 31.5 21.5
      vertex 61.5788 46 21.5
    endloop
  endfacet
  facet normal -0.500001 0 0.866025
    outer loop
      vertex 61.5788 31.5 21.5
      vertex 33 46 5
      vertex 33 31.5 5
    endloop
  endfacet
  facet normal -0.500001 0 0.866025
    outer loop
      vertex 33 71 5
      vertex 61.5788 56.5 21.5
      vertex 61.5788 71 21.5
    endloop
  endfacet
  facet normal -0.500001 0 0.866025
    outer loop
      vertex 61.5788 56.5 21.5
      vertex 33 71 5
      vertex 33 56.5 5
    endloop
  endfacet
  facet normal -1 0 0
    outer loop
      vertex 61.5788 0 21.5
      vertex 61.5788 1 32
      vertex 61.5788 1 21.5
    endloop
  endfacet
  facet normal -1 -0 0
    outer loop
      vertex 61.5788 1 32
      vertex 61.5788 0 21.5
      vertex 61.5788 0 32
    endloop
  endfacet
  facet normal -1 0 0
    outer loop
      vertex 61.5788 76.5 21.5
      vertex 61.5788 77.5 32
      vertex 61.5788 77.5 21.5
    endloop
  endfacet
  facet normal -1 -0 0
    outer loop
      vertex 61.5788 77.5 32
      vertex 61.5788 76.5 21.5
      vertex 61.5788 76.5 32
    endloop
  endfacet
  facet normal -1 0 0
    outer loop
      vertex 61.5788 6.5 21.5
      vertex 61.5788 21 32
      vertex 61.5788 21 21.5
    endloop
  endfacet
  facet normal -1 -0 0
    outer loop
      vertex 61.5788 21 32
      vertex 61.5788 6.5 21.5
      vertex 61.5788 6.5 32
    endloop
  endfacet
  facet normal -1 0 0
    outer loop
      vertex 61.5788 31.5 21.5
      vertex 61.5788 46 32
      vertex 61.5788 46 21.5
    endloop
  endfacet
  facet normal -1 -0 0
    outer loop
      vertex 61.5788 46 32
      vertex 61.5788 31.5 21.5
      vertex 61.5788 31.5 32
    endloop
  endfacet
  facet normal -1 0 0
    outer loop
      vertex 61.5788 56.5 21.5
      vertex 61.5788 71 32
      vertex 61.5788 71 21.5
    endloop
  endfacet
  facet normal -1 -0 0
    outer loop
      vertex 61.5788 71 32
      vertex 61.5788 56.5 21.5
      vertex 61.5788 56.5 32
    endloop
  endfacet
  facet normal 0 1 0
    outer loop
      vertex 65.0429 1 32
      vertex 61.5788 1 21.5
      vertex 61.5788 1 32
    endloop
  endfacet
  facet normal 0 1 -0
    outer loop
      vertex 65.0429 1 19.5
      vertex 61.5788 1 21.5
      vertex 65.0429 1 32
    endloop
  endfacet
  facet normal 0 1 0
    outer loop
      vertex 65.0429 1 19.5
      vertex 33 1 5
      vertex 61.5788 1 21.5
    endloop
  endfacet
  facet normal -0 1 0
    outer loop
      vertex 33 1 5
      vertex 65.0429 1 19.5
      vertex 33 1 1
    endloop
  endfacet
  facet normal 0 1 -0
    outer loop
      vertex 4.42116 1 21.5
      vertex 0.95706 1 32
      vertex 4.42116 1 32
    endloop
  endfacet
  facet normal 0 1 0
    outer loop
      vertex 4.42116 1 21.5
      vertex 0.95706 1 19.5
      vertex 0.95706 1 32
    endloop
  endfacet
  facet normal 0 1 0
    outer loop
      vertex 33 1 5
      vertex 0.95706 1 19.5
      vertex 4.42116 1 21.5
    endloop
  endfacet
  facet normal 0 1 0
    outer loop
      vertex 0.95706 1 19.5
      vertex 33 1 5
      vertex 33 1 1
    endloop
  endfacet
  facet normal 0.5 0 0.866025
    outer loop
      vertex 0.95706 6.5 19.5
      vertex 33 1 1
      vertex 33 6.5 1
    endloop
  endfacet
  facet normal 0.5 0 0.866025
    outer loop
      vertex 33 1 1
      vertex 0.95706 6.5 19.5
      vertex 0.95706 1 19.5
    endloop
  endfacet
  facet normal 1 -0 0
    outer loop
      vertex 0.95706 1 32
      vertex 0.95706 6.5 19.5
      vertex 0.95706 6.5 32
    endloop
  endfacet
  facet normal 1 0 0
    outer loop
      vertex 0.95706 6.5 19.5
      vertex 0.95706 1 32
      vertex 0.95706 1 19.5
    endloop
  endfacet
  facet normal 0 -1 0
    outer loop
      vertex 0.95706 6.5 32
      vertex 4.42116 6.5 21.5
      vertex 4.42116 6.5 32
    endloop
  endfacet
  facet normal 0 -1 0
    outer loop
      vertex 0.95706 6.5 19.5
      vertex 4.42116 6.5 21.5
      vertex 0.95706 6.5 32
    endloop
  endfacet
  facet normal 0 -1 0
    outer loop
      vertex 0.95706 6.5 19.5
      vertex 33 6.5 5
      vertex 4.42116 6.5 21.5
    endloop
  endfacet
  facet normal -0 -1 -0
    outer loop
      vertex 33 6.5 5
      vertex 0.95706 6.5 19.5
      vertex 33 6.5 1
    endloop
  endfacet
  facet normal 0 -1 0
    outer loop
      vertex 61.5788 6.5 21.5
      vertex 65.0429 6.5 32
      vertex 61.5788 6.5 32
    endloop
  endfacet
  facet normal 0 -1 0
    outer loop
      vertex 61.5788 6.5 21.5
      vertex 65.0429 6.5 19.5
      vertex 65.0429 6.5 32
    endloop
  endfacet
  facet normal 0 -1 0
    outer loop
      vertex 33 6.5 5
      vertex 65.0429 6.5 19.5
      vertex 61.5788 6.5 21.5
    endloop
  endfacet
  facet normal 0 -1 0
    outer loop
      vertex 65.0429 6.5 19.5
      vertex 33 6.5 5
      vertex 33 6.5 1
    endloop
  endfacet
  facet normal -0.5 0 0.866025
    outer loop
      vertex 33 6.5 1
      vertex 65.0429 1 19.5
      vertex 65.0429 6.5 19.5
    endloop
  endfacet
  facet normal -0.5 0 0.866025
    outer loop
      vertex 65.0429 1 19.5
      vertex 33 6.5 1
      vertex 33 1 1
    endloop
  endfacet
  facet normal -1 0 0
    outer loop
      vertex 65.0429 1 19.5
      vertex 65.0429 6.5 32
      vertex 65.0429 6.5 19.5
    endloop
  endfacet
  facet normal -1 -0 0
    outer loop
      vertex 65.0429 6.5 32
      vertex 65.0429 1 19.5
      vertex 65.0429 1 32
    endloop
  endfacet
  facet normal 0 1 0
    outer loop
      vertex 65.0429 21 32
      vertex 61.5788 21 21.5
      vertex 61.5788 21 32
    endloop
  endfacet
  facet normal 0 1 -0
    outer loop
      vertex 65.0429 21 19.5
      vertex 61.5788 21 21.5
      vertex 65.0429 21 32
    endloop
  endfacet
  facet normal 0 1 0
    outer loop
      vertex 65.0429 21 19.5
      vertex 33 21 5
      vertex 61.5788 21 21.5
    endloop
  endfacet
  facet normal -0 1 0
    outer loop
      vertex 33 21 5
      vertex 65.0429 21 19.5
      vertex 33 21 1
    endloop
  endfacet
  facet normal 0 1 -0
    outer loop
      vertex 4.42116 21 21.5
      vertex 0.95706 21 32
      vertex 4.42116 21 32
    endloop
  endfacet
  facet normal 0 1 0
    outer loop
      vertex 4.42116 21 21.5
      vertex 0.95706 21 19.5
      vertex 0.95706 21 32
    endloop
  endfacet
  facet normal 0 1 0
    outer loop
      vertex 33 21 5
      vertex 0.95706 21 19.5
      vertex 4.42116 21 21.5
    endloop
  endfacet
  facet normal 0 1 0
    outer loop
      vertex 0.95706 21 19.5
      vertex 33 21 5
      vertex 33 21 1
    endloop
  endfacet
  facet normal 0.5 0 0.866025
    outer loop
      vertex 0.95706 31.5 19.5
      vertex 33 21 1
      vertex 33 31.5 1
    endloop
  endfacet
  facet normal 0.5 0 0.866025
    outer loop
      vertex 33 21 1
      vertex 0.95706 31.5 19.5
      vertex 0.95706 21 19.5
    endloop
  endfacet
  facet normal 1 -0 0
    outer loop
      vertex 0.95706 21 32
      vertex 0.95706 31.5 19.5
      vertex 0.95706 31.5 32
    endloop
  endfacet
  facet normal 1 0 0
    outer loop
      vertex 0.95706 31.5 19.5
      vertex 0.95706 21 32
      vertex 0.95706 21 19.5
    endloop
  endfacet
  facet normal -0.5 0 0.866025
    outer loop
      vertex 33 31.5 1
      vertex 65.0429 21 19.5
      vertex 65.0429 31.5 19.5
    endloop
  endfacet
  facet normal -0.5 0 0.866025
    outer loop
      vertex 65.0429 21 19.5
      vertex 33 31.5 1
      vertex 33 21 1
    endloop
  endfacet
  facet normal -1 0 0
    outer loop
      vertex 65.0429 21 19.5
      vertex 65.0429 31.5 32
      vertex 65.0429 31.5 19.5
    endloop
  endfacet
  facet normal -1 -0 0
    outer loop
      vertex 65.0429 31.5 32
      vertex 65.0429 21 19.5
      vertex 65.0429 21 32
    endloop
  endfacet
  facet normal 0 -1 0
    outer loop
      vertex 0.95706 31.5 32
      vertex 4.42116 31.5 21.5
      vertex 4.42116 31.5 32
    endloop
  endfacet
  facet normal 0 -1 0
    outer loop
      vertex 0.95706 31.5 19.5
      vertex 4.42116 31.5 21.5
      vertex 0.95706 31.5 32
    endloop
  endfacet
  facet normal 0 -1 0
    outer loop
      vertex 0.95706 31.5 19.5
      vertex 33 31.5 5
      vertex 4.42116 31.5 21.5
    endloop
  endfacet
  facet normal -0 -1 -0
    outer loop
      vertex 33 31.5 5
      vertex 0.95706 31.5 19.5
      vertex 33 31.5 1
    endloop
  endfacet
  facet normal 0 -1 0
    outer loop
      vertex 61.5788 31.5 21.5
      vertex 65.0429 31.5 32
      vertex 61.5788 31.5 32
    endloop
  endfacet
  facet normal 0 -1 0
    outer loop
      vertex 61.5788 31.5 21.5
      vertex 65.0429 31.5 19.5
      vertex 65.0429 31.5 32
    endloop
  endfacet
  facet normal 0 -1 0
    outer loop
      vertex 33 31.5 5
      vertex 65.0429 31.5 19.5
      vertex 61.5788 31.5 21.5
    endloop
  endfacet
  facet normal 0 -1 0
    outer loop
      vertex 65.0429 31.5 19.5
      vertex 33 31.5 5
      vertex 33 31.5 1
    endloop
  endfacet
  facet normal 0 1 0
    outer loop
      vertex 65.0429 46 32
      vertex 61.5788 46 21.5
      vertex 61.5788 46 32
    endloop
  endfacet
  facet normal 0 1 -0
    outer loop
      vertex 65.0429 46 19.5
      vertex 61.5788 46 21.5
      vertex 65.0429 46 32
    endloop
  endfacet
  facet normal 0 1 0
    outer loop
      vertex 65.0429 46 19.5
      vertex 33 46 5
      vertex 61.5788 46 21.5
    endloop
  endfacet
  facet normal -0 1 0
    outer loop
      vertex 33 46 5
      vertex 65.0429 46 19.5
      vertex 33 46 1
    endloop
  endfacet
  facet normal 0 1 -0
    outer loop
      vertex 4.42116 46 21.5
      vertex 0.95706 46 32
      vertex 4.42116 46 32
    endloop
  endfacet
  facet normal 0 1 0
    outer loop
      vertex 4.42116 46 21.5
      vertex 0.95706 46 19.5
      vertex 0.95706 46 32
    endloop
  endfacet
  facet normal 0 1 0
    outer loop
      vertex 33 46 5
      vertex 0.95706 46 19.5
      vertex 4.42116 46 21.5
    endloop
  endfacet
  facet normal 0 1 0
    outer loop
      vertex 0.95706 46 19.5
      vertex 33 46 5
      vertex 33 46 1
    endloop
  endfacet
  facet normal 0.5 0 0.866025
    outer loop
      vertex 0.95706 56.5 19.5
      vertex 33 46 1
      vertex 33 56.5 1
    endloop
  endfacet
  facet normal 0.5 0 0.866025
    outer loop
      vertex 33 46 1
      vertex 0.95706 56.5 19.5
      vertex 0.95706 46 19.5
    endloop
  endfacet
  facet normal 1 -0 0
    outer loop
      vertex 0.95706 46 32
      vertex 0.95706 56.5 19.5
      vertex 0.95706 56.5 32
    endloop
  endfacet
  facet normal 1 0 0
    outer loop
      vertex 0.95706 56.5 19.5
      vertex 0.95706 46 32
      vertex 0.95706 46 19.5
    endloop
  endfacet
  facet normal -0.5 0 0.866025
    outer loop
      vertex 33 56.5 1
      vertex 65.0429 46 19.5
      vertex 65.0429 56.5 19.5
    endloop
  endfacet
  facet normal -0.5 0 0.866025
    outer loop
      vertex 65.0429 46 19.5
      vertex 33 56.5 1
      vertex 33 46 1
    endloop
  endfacet
  facet normal -1 0 0
    outer loop
      vertex 65.0429 46 19.5
      vertex 65.0429 56.5 32
      vertex 65.0429 56.5 19.5
    endloop
  endfacet
  facet normal -1 -0 0
    outer loop
      vertex 65.0429 56.5 32
      vertex 65.0429 46 19.5
      vertex 65.0429 46 32
    endloop
  endfacet
  facet normal 0 -1 0
    outer loop
      vertex 0.95706 56.5 32
      vertex 4.42116 56.5 21.5
      vertex 4.42116 56.5 32
    endloop
  endfacet
  facet normal 0 -1 0
    outer loop
      vertex 0.95706 56.5 19.5
      vertex 4.42116 56.5 21.5
      vertex 0.95706 56.5 32
    endloop
  endfacet
  facet normal 0 -1 0
    outer loop
      vertex 0.95706 56.5 19.5
      vertex 33 56.5 5
      vertex 4.42116 56.5 21.5
    endloop
  endfacet
  facet normal -0 -1 -0
    outer loop
      vertex 33 56.5 5
      vertex 0.95706 56.5 19.5
      vertex 33 56.5 1
    endloop
  endfacet
  facet normal 0 -1 0
    outer loop
      vertex 61.5788 56.5 21.5
      vertex 65.0429 56.5 32
      vertex 61.5788 56.5 32
    endloop
  endfacet
  facet normal 0 -1 0
    outer loop
      vertex 61.5788 56.5 21.5
      vertex 65.0429 56.5 19.5
      vertex 65.0429 56.5 32
    endloop
  endfacet
  facet normal 0 -1 0
    outer loop
      vertex 33 56.5 5
      vertex 65.0429 56.5 19.5
      vertex 61.5788 56.5 21.5
    endloop
  endfacet
  facet normal 0 -1 0
    outer loop
      vertex 65.0429 56.5 19.5
      vertex 33 56.5 5
      vertex 33 56.5 1
    endloop
  endfacet
  facet normal 0 1 0
    outer loop
      vertex 65.0429 71 32
      vertex 61.5788 71 21.5
      vertex 61.5788 71 32
    endloop
  endfacet
  facet normal 0 1 -0
    outer loop
      vertex 65.0429 71 19.5
      vertex 61.5788 71 21.5
      vertex 65.0429 71 32
    endloop
  endfacet
  facet normal 0 1 0
    outer loop
      vertex 65.0429 71 19.5
      vertex 33 71 5
      vertex 61.5788 71 21.5
    endloop
  endfacet
  facet normal -0 1 0
    outer loop
      vertex 33 71 5
      vertex 65.0429 71 19.5
      vertex 33 71 1
    endloop
  endfacet
  facet normal 0 1 -0
    outer loop
      vertex 4.42116 71 21.5
      vertex 0.95706 71 32
      vertex 4.42116 71 32
    endloop
  endfacet
  facet normal 0 1 0
    outer loop
      vertex 4.42116 71 21.5
      vertex 0.95706 71 19.5
      vertex 0.95706 71 32
    endloop
  endfacet
  facet normal 0 1 0
    outer loop
      vertex 33 71 5
      vertex 0.95706 71 19.5
      vertex 4.42116 71 21.5
    endloop
  endfacet
  facet normal 0 1 0
    outer loop
      vertex 0.95706 71 19.5
      vertex 33 71 5
      vertex 33 71 1
    endloop
  endfacet
  facet normal 0.5 0 0.866025
    outer loop
      vertex 0.95706 76.5 19.5
      vertex 33 71 1
      vertex 33 76.5 1
    endloop
  endfacet
  facet normal 0.5 0 0.866025
    outer loop
      vertex 33 71 1
      vertex 0.95706 76.5 19.5
      vertex 0.95706 71 19.5
    endloop
  endfacet
  facet normal 1 -0 0
    outer loop
      vertex 0.95706 71 32
      vertex 0.95706 76.5 19.5
      vertex 0.95706 76.5 32
    endloop
  endfacet
  facet normal 1 0 0
    outer loop
      vertex 0.95706 76.5 19.5
      vertex 0.95706 71 32
      vertex 0.95706 71 19.5
    endloop
  endfacet
  facet normal 0 -1 0
    outer loop
      vertex 0.95706 76.5 32
      vertex 4.42116 76.5 21.5
      vertex 4.42116 76.5 32
    endloop
  endfacet
  facet normal 0 -1 0
    outer loop
      vertex 0.95706 76.5 19.5
      vertex 4.42116 76.5 21.5
      vertex 0.95706 76.5 32
    endloop
  endfacet
  facet normal 0 -1 0
    outer loop
      vertex 0.95706 76.5 19.5
      vertex 33 76.5 5
      vertex 4.42116 76.5 21.5
    endloop
  endfacet
  facet normal -0 -1 -0
    outer loop
      vertex 33 76.5 5
      vertex 0.95706 76.5 19.5
      vertex 33 76.5 1
    endloop
  endfacet
  facet normal 0 -1 0
    outer loop
      vertex 61.5788 76.5 21.5
      vertex 65.0429 76.5 32
      vertex 61.5788 76.5 32
    endloop
  endfacet
  facet normal 0 -1 0
    outer loop
      vertex 61.5788 76.5 21.5
      vertex 65.0429 76.5 19.5
      vertex 65.0429 76.5 32
    endloop
  endfacet
  facet normal 0 -1 0
    outer loop
      vertex 33 76.5 5
      vertex 65.0429 76.5 19.5
      vertex 61.5788 76.5 21.5
    endloop
  endfacet
  facet normal 0 -1 0
    outer loop
      vertex 65.0429 76.5 19.5
      vertex 33 76.5 5
      vertex 33 76.5 1
    endloop
  endfacet
  facet normal -0.5 0 0.866025
    outer loop
      vertex 33 76.5 1
      vertex 65.0429 71 19.5
      vertex 65.0429 76.5 19.5
    endloop
  endfacet
  facet normal -0.5 0 0.866025
    outer loop
      vertex 65.0429 71 19.5
      vertex 33 76.5 1
      vertex 33 71 1
    endloop
  endfacet
  facet normal -1 0 0
    outer loop
      vertex 65.0429 71 19.5
      vertex 65.0429 76.5 32
      vertex 65.0429 76.5 19.5
    endloop
  endfacet
  facet normal -1 -0 0
    outer loop
      vertex 65.0429 76.5 32
      vertex 65.0429 71 19.5
      vertex 65.0429 71 32
    endloop
  endfacet
endsolid OpenSCAD_Model
