solid OpenSCAD_Model
  facet normal -1 0 0
    outer loop
      vertex 0 0 0
      vertex 0 110 32
      vertex 0 110 0
    endloop
  endfacet
  facet normal -1 -0 0
    outer loop
      vertex 0 110 32
      vertex 0 0 0
      vertex 0 0 32
    endloop
  endfacet
  facet normal -0 0 1
    outer loop
      vertex 61.5788 9 32
      vertex 65.0429 6.5 32
      vertex 65.0429 9 32
    endloop
  endfacet
  facet normal 0 0 1
    outer loop
      vertex 65.0429 6.5 32
      vertex 61.5788 9 32
      vertex 61.5788 6.5 32
    endloop
  endfacet
  facet normal -0 0 1
    outer loop
      vertex 61.5788 22.5 32
      vertex 65.0429 20 32
      vertex 65.0429 22.5 32
    endloop
  endfacet
  facet normal 0 0 1
    outer loop
      vertex 65.0429 20 32
      vertex 61.5788 22.5 32
      vertex 61.5788 20 32
    endloop
  endfacet
  facet normal -0 0 1
    outer loop
      vertex 61.5788 36 32
      vertex 65.0429 33.5 32
      vertex 65.0429 36 32
    endloop
  endfacet
  facet normal 0 0 1
    outer loop
      vertex 65.0429 33.5 32
      vertex 61.5788 36 32
      vertex 61.5788 33.5 32
    endloop
  endfacet
  facet normal -0 0 1
    outer loop
      vertex 61.5788 49.5 32
      vertex 65.0429 47 32
      vertex 65.0429 49.5 32
    endloop
  endfacet
  facet normal 0 0 1
    outer loop
      vertex 65.0429 47 32
      vertex 61.5788 49.5 32
      vertex 61.5788 47 32
    endloop
  endfacet
  facet normal -0 0 1
    outer loop
      vertex 61.5788 63 32
      vertex 65.0429 60.5 32
      vertex 65.0429 63 32
    endloop
  endfacet
  facet normal 0 0 1
    outer loop
      vertex 65.0429 60.5 32
      vertex 61.5788 63 32
      vertex 61.5788 60.5 32
    endloop
  endfacet
  facet normal -0 0 1
    outer loop
      vertex 61.5788 76.5 32
      vertex 65.0429 74 32
      vertex 65.0429 76.5 32
    endloop
  endfacet
  facet normal 0 0 1
    outer loop
      vertex 65.0429 74 32
      vertex 61.5788 76.5 32
      vertex 61.5788 74 32
    endloop
  endfacet
  facet normal -0 0 1
    outer loop
      vertex 61.5788 90 32
      vertex 65.0429 87.5 32
      vertex 65.0429 90 32
    endloop
  endfacet
  facet normal 0 0 1
    outer loop
      vertex 65.0429 87.5 32
      vertex 61.5788 90 32
      vertex 61.5788 87.5 32
    endloop
  endfacet
  facet normal -0 0 1
    outer loop
      vertex 61.5788 103.5 32
      vertex 65.0429 101 32
      vertex 65.0429 103.5 32
    endloop
  endfacet
  facet normal 0 0 1
    outer loop
      vertex 65.0429 101 32
      vertex 61.5788 103.5 32
      vertex 61.5788 101 32
    endloop
  endfacet
  facet normal 0 0 1
    outer loop
      vertex 65.0429 103.5 32
      vertex 66 110 32
      vertex 65.0429 109 32
    endloop
  endfacet
  facet normal -0 0 1
    outer loop
      vertex 61.5788 110 32
      vertex 65.0429 109 32
      vertex 66 110 32
    endloop
  endfacet
  facet normal 0 0 1
    outer loop
      vertex 65.0429 109 32
      vertex 61.5788 110 32
      vertex 61.5788 109 32
    endloop
  endfacet
  facet normal 0 0 1
    outer loop
      vertex 65.0429 101 32
      vertex 66 110 32
      vertex 65.0429 103.5 32
    endloop
  endfacet
  facet normal 0 0 1
    outer loop
      vertex 65.0429 90 32
      vertex 66 110 32
      vertex 65.0429 101 32
    endloop
  endfacet
  facet normal 0 0 1
    outer loop
      vertex 65.0429 87.5 32
      vertex 66 110 32
      vertex 65.0429 90 32
    endloop
  endfacet
  facet normal 0 0 1
    outer loop
      vertex 65.0429 76.5 32
      vertex 66 110 32
      vertex 65.0429 87.5 32
    endloop
  endfacet
  facet normal 0 0 1
    outer loop
      vertex 65.0429 74 32
      vertex 66 110 32
      vertex 65.0429 76.5 32
    endloop
  endfacet
  facet normal 0 0 1
    outer loop
      vertex 65.0429 63 32
      vertex 66 110 32
      vertex 65.0429 74 32
    endloop
  endfacet
  facet normal 0 0 1
    outer loop
      vertex 66 110 32
      vertex 65.0429 63 32
      vertex 66 0 32
    endloop
  endfacet
  facet normal -0 0 1
    outer loop
      vertex 65.0429 60.5 32
      vertex 66 0 32
      vertex 65.0429 63 32
    endloop
  endfacet
  facet normal -0 0 1
    outer loop
      vertex 65.0429 49.5 32
      vertex 66 0 32
      vertex 65.0429 60.5 32
    endloop
  endfacet
  facet normal -0 0 1
    outer loop
      vertex 65.0429 47 32
      vertex 66 0 32
      vertex 65.0429 49.5 32
    endloop
  endfacet
  facet normal -0 0 1
    outer loop
      vertex 65.0429 36 32
      vertex 66 0 32
      vertex 65.0429 47 32
    endloop
  endfacet
  facet normal -0 0 1
    outer loop
      vertex 65.0429 33.5 32
      vertex 66 0 32
      vertex 65.0429 36 32
    endloop
  endfacet
  facet normal -0 0 1
    outer loop
      vertex 65.0429 22.5 32
      vertex 66 0 32
      vertex 65.0429 33.5 32
    endloop
  endfacet
  facet normal -0 0 1
    outer loop
      vertex 65.0429 20 32
      vertex 66 0 32
      vertex 65.0429 22.5 32
    endloop
  endfacet
  facet normal -0 0 1
    outer loop
      vertex 65.0429 9 32
      vertex 66 0 32
      vertex 65.0429 20 32
    endloop
  endfacet
  facet normal -0 0 1
    outer loop
      vertex 65.0429 6.5 32
      vertex 66 0 32
      vertex 65.0429 9 32
    endloop
  endfacet
  facet normal -0 0 1
    outer loop
      vertex 65.0429 1 32
      vertex 66 0 32
      vertex 65.0429 6.5 32
    endloop
  endfacet
  facet normal 0 0 1
    outer loop
      vertex 61.5788 0 32
      vertex 65.0429 1 32
      vertex 61.5788 1 32
    endloop
  endfacet
  facet normal 0 0 1
    outer loop
      vertex 65.0429 1 32
      vertex 61.5788 0 32
      vertex 66 0 32
    endloop
  endfacet
  facet normal 0 0 1
    outer loop
      vertex 4.42116 110 32
      vertex 0.95706 109 32
      vertex 4.42116 109 32
    endloop
  endfacet
  facet normal 0 0 1
    outer loop
      vertex 0 110 32
      vertex 0.95706 103.5 32
      vertex 0.95706 109 32
    endloop
  endfacet
  facet normal 0 0 1
    outer loop
      vertex 0.95706 103.5 32
      vertex 0 110 32
      vertex 0.95706 101 32
    endloop
  endfacet
  facet normal 0 0 1
    outer loop
      vertex 0.95706 101 32
      vertex 0 110 32
      vertex 0.95706 90 32
    endloop
  endfacet
  facet normal 0 0 1
    outer loop
      vertex 0.95706 90 32
      vertex 0 110 32
      vertex 0.95706 87.5 32
    endloop
  endfacet
  facet normal 0 0 1
    outer loop
      vertex 0.95706 87.5 32
      vertex 0 110 32
      vertex 0.95706 76.5 32
    endloop
  endfacet
  facet normal 0 0 1
    outer loop
      vertex 0.95706 76.5 32
      vertex 0 110 32
      vertex 0.95706 74 32
    endloop
  endfacet
  facet normal 0 0 1
    outer loop
      vertex 0.95706 74 32
      vertex 0 110 32
      vertex 0.95706 63 32
    endloop
  endfacet
  facet normal 0 0 1
    outer loop
      vertex 0.95706 63 32
      vertex 0 110 32
      vertex 0.95706 60.5 32
    endloop
  endfacet
  facet normal 0 0 1
    outer loop
      vertex 0.95706 60.5 32
      vertex 0 110 32
      vertex 0.95706 49.5 32
    endloop
  endfacet
  facet normal 0 0 1
    outer loop
      vertex 0.95706 49.5 32
      vertex 0 110 32
      vertex 0.95706 47 32
    endloop
  endfacet
  facet normal 0 0 1
    outer loop
      vertex 0 0 32
      vertex 0.95706 47 32
      vertex 0 110 32
    endloop
  endfacet
  facet normal 0 0 1
    outer loop
      vertex 0.95706 47 32
      vertex 0 0 32
      vertex 0.95706 36 32
    endloop
  endfacet
  facet normal 0 0 1
    outer loop
      vertex 0.95706 36 32
      vertex 0 0 32
      vertex 0.95706 33.5 32
    endloop
  endfacet
  facet normal 0 0 1
    outer loop
      vertex 0.95706 33.5 32
      vertex 0 0 32
      vertex 0.95706 22.5 32
    endloop
  endfacet
  facet normal 0 0 1
    outer loop
      vertex 0.95706 22.5 32
      vertex 0 0 32
      vertex 0.95706 20 32
    endloop
  endfacet
  facet normal 0 0 1
    outer loop
      vertex 0.95706 20 32
      vertex 0 0 32
      vertex 0.95706 9 32
    endloop
  endfacet
  facet normal 0 0 1
    outer loop
      vertex 0.95706 9 32
      vertex 0 0 32
      vertex 0.95706 6.5 32
    endloop
  endfacet
  facet normal -0 0 1
    outer loop
      vertex 0 110 32
      vertex 0.95706 109 32
      vertex 4.42116 110 32
    endloop
  endfacet
  facet normal -0 0 1
    outer loop
      vertex 0.95706 103.5 32
      vertex 4.42116 101 32
      vertex 4.42116 103.5 32
    endloop
  endfacet
  facet normal 0 0 1
    outer loop
      vertex 4.42116 101 32
      vertex 0.95706 103.5 32
      vertex 0.95706 101 32
    endloop
  endfacet
  facet normal -0 0 1
    outer loop
      vertex 0.95706 90 32
      vertex 4.42116 87.5 32
      vertex 4.42116 90 32
    endloop
  endfacet
  facet normal 0 0 1
    outer loop
      vertex 4.42116 87.5 32
      vertex 0.95706 90 32
      vertex 0.95706 87.5 32
    endloop
  endfacet
  facet normal -0 0 1
    outer loop
      vertex 0.95706 76.5 32
      vertex 4.42116 74 32
      vertex 4.42116 76.5 32
    endloop
  endfacet
  facet normal 0 0 1
    outer loop
      vertex 4.42116 74 32
      vertex 0.95706 76.5 32
      vertex 0.95706 74 32
    endloop
  endfacet
  facet normal -0 0 1
    outer loop
      vertex 0.95706 63 32
      vertex 4.42116 60.5 32
      vertex 4.42116 63 32
    endloop
  endfacet
  facet normal 0 0 1
    outer loop
      vertex 4.42116 60.5 32
      vertex 0.95706 63 32
      vertex 0.95706 60.5 32
    endloop
  endfacet
  facet normal -0 0 1
    outer loop
      vertex 0.95706 49.5 32
      vertex 4.42116 47 32
      vertex 4.42116 49.5 32
    endloop
  endfacet
  facet normal 0 0 1
    outer loop
      vertex 4.42116 47 32
      vertex 0.95706 49.5 32
      vertex 0.95706 47 32
    endloop
  endfacet
  facet normal -0 0 1
    outer loop
      vertex 0.95706 36 32
      vertex 4.42116 33.5 32
      vertex 4.42116 36 32
    endloop
  endfacet
  facet normal 0 0 1
    outer loop
      vertex 4.42116 33.5 32
      vertex 0.95706 36 32
      vertex 0.95706 33.5 32
    endloop
  endfacet
  facet normal -0 0 1
    outer loop
      vertex 0.95706 22.5 32
      vertex 4.42116 20 32
      vertex 4.42116 22.5 32
    endloop
  endfacet
  facet normal 0 0 1
    outer loop
      vertex 4.42116 20 32
      vertex 0.95706 22.5 32
      vertex 0.95706 20 32
    endloop
  endfacet
  facet normal -0 0 1
    outer loop
      vertex 0.95706 9 32
      vertex 4.42116 6.5 32
      vertex 4.42116 9 32
    endloop
  endfacet
  facet normal 0 0 1
    outer loop
      vertex 4.42116 6.5 32
      vertex 0.95706 9 32
      vertex 0.95706 6.5 32
    endloop
  endfacet
  facet normal -0 0 1
    outer loop
      vertex 0.95706 1 32
      vertex 4.42116 0 32
      vertex 4.42116 1 32
    endloop
  endfacet
  facet normal 0 0 1
    outer loop
      vertex 0.95706 1 32
      vertex 0 0 32
      vertex 4.42116 0 32
    endloop
  endfacet
  facet normal 0 0 1
    outer loop
      vertex 0.95706 6.5 32
      vertex 0 0 32
      vertex 0.95706 1 32
    endloop
  endfacet
  facet normal 1 -0 0
    outer loop
      vertex 66 0 32
      vertex 66 110 0
      vertex 66 110 32
    endloop
  endfacet
  facet normal 1 0 0
    outer loop
      vertex 66 110 0
      vertex 66 0 32
      vertex 66 0 0
    endloop
  endfacet
  facet normal 0 1 0
    outer loop
      vertex 66 110 32
      vertex 61.5788 110 21.5
      vertex 61.5788 110 32
    endloop
  endfacet
  facet normal 0 1 0
    outer loop
      vertex 61.5788 110 21.5
      vertex 66 110 0
      vertex 33 110 5
    endloop
  endfacet
  facet normal 0 1 -0
    outer loop
      vertex 66 110 0
      vertex 61.5788 110 21.5
      vertex 66 110 32
    endloop
  endfacet
  facet normal 0 1 -0
    outer loop
      vertex 4.42116 110 21.5
      vertex 0 110 32
      vertex 4.42116 110 32
    endloop
  endfacet
  facet normal 0 1 0
    outer loop
      vertex 4.42116 110 21.5
      vertex 0 110 0
      vertex 0 110 32
    endloop
  endfacet
  facet normal 0 1 0
    outer loop
      vertex 33 110 5
      vertex 0 110 0
      vertex 4.42116 110 21.5
    endloop
  endfacet
  facet normal 0 1 0
    outer loop
      vertex 0 110 0
      vertex 33 110 5
      vertex 66 110 0
    endloop
  endfacet
  facet normal 0 0 -1
    outer loop
      vertex 0 0 0
      vertex 66 110 0
      vertex 66 0 0
    endloop
  endfacet
  facet normal -0 0 -1
    outer loop
      vertex 66 110 0
      vertex 0 0 0
      vertex 0 110 0
    endloop
  endfacet
  facet normal 0 -1 0
    outer loop
      vertex 0 0 32
      vertex 4.42116 0 21.5
      vertex 4.42116 0 32
    endloop
  endfacet
  facet normal 0 -1 -0
    outer loop
      vertex 4.42116 0 21.5
      vertex 0 0 0
      vertex 33 0 5
    endloop
  endfacet
  facet normal 0 -1 0
    outer loop
      vertex 0 0 0
      vertex 4.42116 0 21.5
      vertex 0 0 32
    endloop
  endfacet
  facet normal 0 -1 0
    outer loop
      vertex 61.5788 0 21.5
      vertex 66 0 32
      vertex 61.5788 0 32
    endloop
  endfacet
  facet normal 0 -1 0
    outer loop
      vertex 61.5788 0 21.5
      vertex 66 0 0
      vertex 66 0 32
    endloop
  endfacet
  facet normal 0 -1 0
    outer loop
      vertex 33 0 5
      vertex 66 0 0
      vertex 61.5788 0 21.5
    endloop
  endfacet
  facet normal 0 -1 0
    outer loop
      vertex 66 0 0
      vertex 33 0 5
      vertex 0 0 0
    endloop
  endfacet
  facet normal 0.5 0 0.866025
    outer loop
      vertex 4.42116 1 21.5
      vertex 33 0 5
      vertex 33 1 5
    endloop
  endfacet
  facet normal 0.5 0 0.866025
    outer loop
      vertex 33 0 5
      vertex 4.42116 1 21.5
      vertex 4.42116 0 21.5
    endloop
  endfacet
  facet normal 0.5 0 0.866025
    outer loop
      vertex 4.42116 110 21.5
      vertex 33 109 5
      vertex 33 110 5
    endloop
  endfacet
  facet normal 0.5 0 0.866025
    outer loop
      vertex 33 109 5
      vertex 4.42116 110 21.5
      vertex 4.42116 109 21.5
    endloop
  endfacet
  facet normal 0.5 0 0.866025
    outer loop
      vertex 4.42116 9 21.5
      vertex 33 6.5 5
      vertex 33 9 5
    endloop
  endfacet
  facet normal 0.5 0 0.866025
    outer loop
      vertex 33 6.5 5
      vertex 4.42116 9 21.5
      vertex 4.42116 6.5 21.5
    endloop
  endfacet
  facet normal 0.5 0 0.866025
    outer loop
      vertex 4.42116 22.5 21.5
      vertex 33 20 5
      vertex 33 22.5 5
    endloop
  endfacet
  facet normal 0.5 0 0.866025
    outer loop
      vertex 33 20 5
      vertex 4.42116 22.5 21.5
      vertex 4.42116 20 21.5
    endloop
  endfacet
  facet normal 0.5 0 0.866025
    outer loop
      vertex 4.42116 36 21.5
      vertex 33 33.5 5
      vertex 33 36 5
    endloop
  endfacet
  facet normal 0.5 0 0.866025
    outer loop
      vertex 33 33.5 5
      vertex 4.42116 36 21.5
      vertex 4.42116 33.5 21.5
    endloop
  endfacet
  facet normal 0.5 0 0.866025
    outer loop
      vertex 4.42116 49.5 21.5
      vertex 33 47 5
      vertex 33 49.5 5
    endloop
  endfacet
  facet normal 0.5 0 0.866025
    outer loop
      vertex 33 47 5
      vertex 4.42116 49.5 21.5
      vertex 4.42116 47 21.5
    endloop
  endfacet
  facet normal 0.5 0 0.866025
    outer loop
      vertex 4.42116 63 21.5
      vertex 33 60.5 5
      vertex 33 63 5
    endloop
  endfacet
  facet normal 0.5 0 0.866025
    outer loop
      vertex 33 60.5 5
      vertex 4.42116 63 21.5
      vertex 4.42116 60.5 21.5
    endloop
  endfacet
  facet normal 0.5 0 0.866025
    outer loop
      vertex 4.42116 76.5 21.5
      vertex 33 74 5
      vertex 33 76.5 5
    endloop
  endfacet
  facet normal 0.5 0 0.866025
    outer loop
      vertex 33 74 5
      vertex 4.42116 76.5 21.5
      vertex 4.42116 74 21.5
    endloop
  endfacet
  facet normal 0.5 0 0.866025
    outer loop
      vertex 4.42116 90 21.5
      vertex 33 87.5 5
      vertex 33 90 5
    endloop
  endfacet
  facet normal 0.5 0 0.866025
    outer loop
      vertex 33 87.5 5
      vertex 4.42116 90 21.5
      vertex 4.42116 87.5 21.5
    endloop
  endfacet
  facet normal 0.5 0 0.866025
    outer loop
      vertex 4.42116 103.5 21.5
      vertex 33 101 5
      vertex 33 103.5 5
    endloop
  endfacet
  facet normal 0.5 0 0.866025
    outer loop
      vertex 33 101 5
      vertex 4.42116 103.5 21.5
      vertex 4.42116 101 21.5
    endloop
  endfacet
  facet normal 1 -0 0
    outer loop
      vertex 4.42116 0 32
      vertex 4.42116 1 21.5
      vertex 4.42116 1 32
    endloop
  endfacet
  facet normal 1 0 0
    outer loop
      vertex 4.42116 1 21.5
      vertex 4.42116 0 32
      vertex 4.42116 0 21.5
    endloop
  endfacet
  facet normal 1 -0 0
    outer loop
      vertex 4.42116 109 32
      vertex 4.42116 110 21.5
      vertex 4.42116 110 32
    endloop
  endfacet
  facet normal 1 0 0
    outer loop
      vertex 4.42116 110 21.5
      vertex 4.42116 109 32
      vertex 4.42116 109 21.5
    endloop
  endfacet
  facet normal 1 -0 0
    outer loop
      vertex 4.42116 6.5 32
      vertex 4.42116 9 21.5
      vertex 4.42116 9 32
    endloop
  endfacet
  facet normal 1 0 0
    outer loop
      vertex 4.42116 9 21.5
      vertex 4.42116 6.5 32
      vertex 4.42116 6.5 21.5
    endloop
  endfacet
  facet normal 1 -0 0
    outer loop
      vertex 4.42116 20 32
      vertex 4.42116 22.5 21.5
      vertex 4.42116 22.5 32
    endloop
  endfacet
  facet normal 1 0 0
    outer loop
      vertex 4.42116 22.5 21.5
      vertex 4.42116 20 32
      vertex 4.42116 20 21.5
    endloop
  endfacet
  facet normal 1 -0 0
    outer loop
      vertex 4.42116 33.5 32
      vertex 4.42116 36 21.5
      vertex 4.42116 36 32
    endloop
  endfacet
  facet normal 1 0 0
    outer loop
      vertex 4.42116 36 21.5
      vertex 4.42116 33.5 32
      vertex 4.42116 33.5 21.5
    endloop
  endfacet
  facet normal 1 -0 0
    outer loop
      vertex 4.42116 47 32
      vertex 4.42116 49.5 21.5
      vertex 4.42116 49.5 32
    endloop
  endfacet
  facet normal 1 0 0
    outer loop
      vertex 4.42116 49.5 21.5
      vertex 4.42116 47 32
      vertex 4.42116 47 21.5
    endloop
  endfacet
  facet normal 1 -0 0
    outer loop
      vertex 4.42116 60.5 32
      vertex 4.42116 63 21.5
      vertex 4.42116 63 32
    endloop
  endfacet
  facet normal 1 0 0
    outer loop
      vertex 4.42116 63 21.5
      vertex 4.42116 60.5 32
      vertex 4.42116 60.5 21.5
    endloop
  endfacet
  facet normal 1 -0 0
    outer loop
      vertex 4.42116 74 32
      vertex 4.42116 76.5 21.5
      vertex 4.42116 76.5 32
    endloop
  endfacet
  facet normal 1 0 0
    outer loop
      vertex 4.42116 76.5 21.5
      vertex 4.42116 74 32
      vertex 4.42116 74 21.5
    endloop
  endfacet
  facet normal 1 -0 0
    outer loop
      vertex 4.42116 87.5 32
      vertex 4.42116 90 21.5
      vertex 4.42116 90 32
    endloop
  endfacet
  facet normal 1 0 0
    outer loop
      vertex 4.42116 90 21.5
      vertex 4.42116 87.5 32
      vertex 4.42116 87.5 21.5
    endloop
  endfacet
  facet normal 1 -0 0
    outer loop
      vertex 4.42116 101 32
      vertex 4.42116 103.5 21.5
      vertex 4.42116 103.5 32
    endloop
  endfacet
  facet normal 1 0 0
    outer loop
      vertex 4.42116 103.5 21.5
      vertex 4.42116 101 32
      vertex 4.42116 101 21.5
    endloop
  endfacet
  facet normal -0.500001 0 0.866025
    outer loop
      vertex 33 1 5
      vertex 61.5788 0 21.5
      vertex 61.5788 1 21.5
    endloop
  endfacet
  facet normal -0.500001 0 0.866025
    outer loop
      vertex 61.5788 0 21.5
      vertex 33 1 5
      vertex 33 0 5
    endloop
  endfacet
  facet normal -0.500001 0 0.866025
    outer loop
      vertex 33 110 5
      vertex 61.5788 109 21.5
      vertex 61.5788 110 21.5
    endloop
  endfacet
  facet normal -0.500001 0 0.866025
    outer loop
      vertex 61.5788 109 21.5
      vertex 33 110 5
      vertex 33 109 5
    endloop
  endfacet
  facet normal -0.500001 0 0.866025
    outer loop
      vertex 33 9 5
      vertex 61.5788 6.5 21.5
      vertex 61.5788 9 21.5
    endloop
  endfacet
  facet normal -0.500001 0 0.866025
    outer loop
      vertex 61.5788 6.5 21.5
      vertex 33 9 5
      vertex 33 6.5 5
    endloop
  endfacet
  facet normal -0.500001 0 0.866025
    outer loop
      vertex 33 22.5 5
      vertex 61.5788 20 21.5
      vertex 61.5788 22.5 21.5
    endloop
  endfacet
  facet normal -0.500001 0 0.866025
    outer loop
      vertex 61.5788 20 21.5
      vertex 33 22.5 5
      vertex 33 20 5
    endloop
  endfacet
  facet normal -0.500001 0 0.866025
    outer loop
      vertex 33 36 5
      vertex 61.5788 33.5 21.5
      vertex 61.5788 36 21.5
    endloop
  endfacet
  facet normal -0.500001 0 0.866025
    outer loop
      vertex 61.5788 33.5 21.5
      vertex 33 36 5
      vertex 33 33.5 5
    endloop
  endfacet
  facet normal -0.500001 0 0.866025
    outer loop
      vertex 33 49.5 5
      vertex 61.5788 47 21.5
      vertex 61.5788 49.5 21.5
    endloop
  endfacet
  facet normal -0.500001 0 0.866025
    outer loop
      vertex 61.5788 47 21.5
      vertex 33 49.5 5
      vertex 33 47 5
    endloop
  endfacet
  facet normal -0.500001 0 0.866025
    outer loop
      vertex 33 63 5
      vertex 61.5788 60.5 21.5
      vertex 61.5788 63 21.5
    endloop
  endfacet
  facet normal -0.500001 0 0.866025
    outer loop
      vertex 61.5788 60.5 21.5
      vertex 33 63 5
      vertex 33 60.5 5
    endloop
  endfacet
  facet normal -0.500001 0 0.866025
    outer loop
      vertex 33 76.5 5
      vertex 61.5788 74 21.5
      vertex 61.5788 76.5 21.5
    endloop
  endfacet
  facet normal -0.500001 0 0.866025
    outer loop
      vertex 61.5788 74 21.5
      vertex 33 76.5 5
      vertex 33 74 5
    endloop
  endfacet
  facet normal -0.500001 0 0.866025
    outer loop
      vertex 33 90 5
      vertex 61.5788 87.5 21.5
      vertex 61.5788 90 21.5
    endloop
  endfacet
  facet normal -0.500001 0 0.866025
    outer loop
      vertex 61.5788 87.5 21.5
      vertex 33 90 5
      vertex 33 87.5 5
    endloop
  endfacet
  facet normal -0.500001 0 0.866025
    outer loop
      vertex 33 103.5 5
      vertex 61.5788 101 21.5
      vertex 61.5788 103.5 21.5
    endloop
  endfacet
  facet normal -0.500001 0 0.866025
    outer loop
      vertex 61.5788 101 21.5
      vertex 33 103.5 5
      vertex 33 101 5
    endloop
  endfacet
  facet normal -1 0 0
    outer loop
      vertex 61.5788 0 21.5
      vertex 61.5788 1 32
      vertex 61.5788 1 21.5
    endloop
  endfacet
  facet normal -1 -0 0
    outer loop
      vertex 61.5788 1 32
      vertex 61.5788 0 21.5
      vertex 61.5788 0 32
    endloop
  endfacet
  facet normal -1 0 0
    outer loop
      vertex 61.5788 109 21.5
      vertex 61.5788 110 32
      vertex 61.5788 110 21.5
    endloop
  endfacet
  facet normal -1 -0 0
    outer loop
      vertex 61.5788 110 32
      vertex 61.5788 109 21.5
      vertex 61.5788 109 32
    endloop
  endfacet
  facet normal -1 0 0
    outer loop
      vertex 61.5788 6.5 21.5
      vertex 61.5788 9 32
      vertex 61.5788 9 21.5
    endloop
  endfacet
  facet normal -1 -0 0
    outer loop
      vertex 61.5788 9 32
      vertex 61.5788 6.5 21.5
      vertex 61.5788 6.5 32
    endloop
  endfacet
  facet normal -1 0 0
    outer loop
      vertex 61.5788 20 21.5
      vertex 61.5788 22.5 32
      vertex 61.5788 22.5 21.5
    endloop
  endfacet
  facet normal -1 -0 0
    outer loop
      vertex 61.5788 22.5 32
      vertex 61.5788 20 21.5
      vertex 61.5788 20 32
    endloop
  endfacet
  facet normal -1 0 0
    outer loop
      vertex 61.5788 33.5 21.5
      vertex 61.5788 36 32
      vertex 61.5788 36 21.5
    endloop
  endfacet
  facet normal -1 -0 0
    outer loop
      vertex 61.5788 36 32
      vertex 61.5788 33.5 21.5
      vertex 61.5788 33.5 32
    endloop
  endfacet
  facet normal -1 0 0
    outer loop
      vertex 61.5788 47 21.5
      vertex 61.5788 49.5 32
      vertex 61.5788 49.5 21.5
    endloop
  endfacet
  facet normal -1 -0 0
    outer loop
      vertex 61.5788 49.5 32
      vertex 61.5788 47 21.5
      vertex 61.5788 47 32
    endloop
  endfacet
  facet normal -1 0 0
    outer loop
      vertex 61.5788 60.5 21.5
      vertex 61.5788 63 32
      vertex 61.5788 63 21.5
    endloop
  endfacet
  facet normal -1 -0 0
    outer loop
      vertex 61.5788 63 32
      vertex 61.5788 60.5 21.5
      vertex 61.5788 60.5 32
    endloop
  endfacet
  facet normal -1 0 0
    outer loop
      vertex 61.5788 74 21.5
      vertex 61.5788 76.5 32
      vertex 61.5788 76.5 21.5
    endloop
  endfacet
  facet normal -1 -0 0
    outer loop
      vertex 61.5788 76.5 32
      vertex 61.5788 74 21.5
      vertex 61.5788 74 32
    endloop
  endfacet
  facet normal -1 0 0
    outer loop
      vertex 61.5788 87.5 21.5
      vertex 61.5788 90 32
      vertex 61.5788 90 21.5
    endloop
  endfacet
  facet normal -1 -0 0
    outer loop
      vertex 61.5788 90 32
      vertex 61.5788 87.5 21.5
      vertex 61.5788 87.5 32
    endloop
  endfacet
  facet normal -1 0 0
    outer loop
      vertex 61.5788 101 21.5
      vertex 61.5788 103.5 32
      vertex 61.5788 103.5 21.5
    endloop
  endfacet
  facet normal -1 -0 0
    outer loop
      vertex 61.5788 103.5 32
      vertex 61.5788 101 21.5
      vertex 61.5788 101 32
    endloop
  endfacet
  facet normal 0 1 0
    outer loop
      vertex 65.0429 1 32
      vertex 61.5788 1 21.5
      vertex 61.5788 1 32
    endloop
  endfacet
  facet normal 0 1 -0
    outer loop
      vertex 65.0429 1 19.5
      vertex 61.5788 1 21.5
      vertex 65.0429 1 32
    endloop
  endfacet
  facet normal 0 1 0
    outer loop
      vertex 65.0429 1 19.5
      vertex 33 1 5
      vertex 61.5788 1 21.5
    endloop
  endfacet
  facet normal -0 1 0
    outer loop
      vertex 33 1 5
      vertex 65.0429 1 19.5
      vertex 33 1 1
    endloop
  endfacet
  facet normal 0 1 -0
    outer loop
      vertex 4.42116 1 21.5
      vertex 0.95706 1 32
      vertex 4.42116 1 32
    endloop
  endfacet
  facet normal 0 1 0
    outer loop
      vertex 4.42116 1 21.5
      vertex 0.95706 1 19.5
      vertex 0.95706 1 32
    endloop
  endfacet
  facet normal 0 1 0
    outer loop
      vertex 33 1 5
      vertex 0.95706 1 19.5
      vertex 4.42116 1 21.5
    endloop
  endfacet
  facet normal 0 1 0
    outer loop
      vertex 0.95706 1 19.5
      vertex 33 1 5
      vertex 33 1 1
    endloop
  endfacet
  facet normal 0.5 0 0.866025
    outer loop
      vertex 0.95706 6.5 19.5
      vertex 33 1 1
      vertex 33 6.5 1
    endloop
  endfacet
  facet normal 0.5 0 0.866025
    outer loop
      vertex 33 1 1
      vertex 0.95706 6.5 19.5
      vertex 0.95706 1 19.5
    endloop
  endfacet
  facet normal 1 -0 0
    outer loop
      vertex 0.95706 1 32
      vertex 0.95706 6.5 19.5
      vertex 0.95706 6.5 32
    endloop
  endfacet
  facet normal 1 0 0
    outer loop
      vertex 0.95706 6.5 19.5
      vertex 0.95706 1 32
      vertex 0.95706 1 19.5
    endloop
  endfacet
  facet normal 0 -1 0
    outer loop
      vertex 0.95706 6.5 32
      vertex 4.42116 6.5 21.5
      vertex 4.42116 6.5 32
    endloop
  endfacet
  facet normal 0 -1 0
    outer loop
      vertex 0.95706 6.5 19.5
      vertex 4.42116 6.5 21.5
      vertex 0.95706 6.5 32
    endloop
  endfacet
  facet normal 0 -1 0
    outer loop
      vertex 0.95706 6.5 19.5
      vertex 33 6.5 5
      vertex 4.42116 6.5 21.5
    endloop
  endfacet
  facet normal -0 -1 -0
    outer loop
      vertex 33 6.5 5
      vertex 0.95706 6.5 19.5
      vertex 33 6.5 1
    endloop
  endfacet
  facet normal 0 -1 0
    outer loop
      vertex 61.5788 6.5 21.5
      vertex 65.0429 6.5 32
      vertex 61.5788 6.5 32
    endloop
  endfacet
  facet normal 0 -1 0
    outer loop
      vertex 61.5788 6.5 21.5
      vertex 65.0429 6.5 19.5
      vertex 65.0429 6.5 32
    endloop
  endfacet
  facet normal 0 -1 0
    outer loop
      vertex 33 6.5 5
      vertex 65.0429 6.5 19.5
      vertex 61.5788 6.5 21.5
    endloop
  endfacet
  facet normal 0 -1 0
    outer loop
      vertex 65.0429 6.5 19.5
      vertex 33 6.5 5
      vertex 33 6.5 1
    endloop
  endfacet
  facet normal -0.5 0 0.866025
    outer loop
      vertex 33 6.5 1
      vertex 65.0429 1 19.5
      vertex 65.0429 6.5 19.5
    endloop
  endfacet
  facet normal -0.5 0 0.866025
    outer loop
      vertex 65.0429 1 19.5
      vertex 33 6.5 1
      vertex 33 1 1
    endloop
  endfacet
  facet normal -1 0 0
    outer loop
      vertex 65.0429 1 19.5
      vertex 65.0429 6.5 32
      vertex 65.0429 6.5 19.5
    endloop
  endfacet
  facet normal -1 -0 0
    outer loop
      vertex 65.0429 6.5 32
      vertex 65.0429 1 19.5
      vertex 65.0429 1 32
    endloop
  endfacet
  facet normal 0 1 0
    outer loop
      vertex 65.0429 9 32
      vertex 61.5788 9 21.5
      vertex 61.5788 9 32
    endloop
  endfacet
  facet normal 0 1 -0
    outer loop
      vertex 65.0429 9 19.5
      vertex 61.5788 9 21.5
      vertex 65.0429 9 32
    endloop
  endfacet
  facet normal 0 1 0
    outer loop
      vertex 65.0429 9 19.5
      vertex 33 9 5
      vertex 61.5788 9 21.5
    endloop
  endfacet
  facet normal -0 1 0
    outer loop
      vertex 33 9 5
      vertex 65.0429 9 19.5
      vertex 33 9 1
    endloop
  endfacet
  facet normal 0 1 -0
    outer loop
      vertex 4.42116 9 21.5
      vertex 0.95706 9 32
      vertex 4.42116 9 32
    endloop
  endfacet
  facet normal 0 1 0
    outer loop
      vertex 4.42116 9 21.5
      vertex 0.95706 9 19.5
      vertex 0.95706 9 32
    endloop
  endfacet
  facet normal 0 1 0
    outer loop
      vertex 33 9 5
      vertex 0.95706 9 19.5
      vertex 4.42116 9 21.5
    endloop
  endfacet
  facet normal 0 1 0
    outer loop
      vertex 0.95706 9 19.5
      vertex 33 9 5
      vertex 33 9 1
    endloop
  endfacet
  facet normal 0.5 0 0.866025
    outer loop
      vertex 0.95706 20 19.5
      vertex 33 9 1
      vertex 33 20 1
    endloop
  endfacet
  facet normal 0.5 0 0.866025
    outer loop
      vertex 33 9 1
      vertex 0.95706 20 19.5
      vertex 0.95706 9 19.5
    endloop
  endfacet
  facet normal 1 -0 0
    outer loop
      vertex 0.95706 9 32
      vertex 0.95706 20 19.5
      vertex 0.95706 20 32
    endloop
  endfacet
  facet normal 1 0 0
    outer loop
      vertex 0.95706 20 19.5
      vertex 0.95706 9 32
      vertex 0.95706 9 19.5
    endloop
  endfacet
  facet normal -0.5 0 0.866025
    outer loop
      vertex 33 20 1
      vertex 65.0429 9 19.5
      vertex 65.0429 20 19.5
    endloop
  endfacet
  facet normal -0.5 0 0.866025
    outer loop
      vertex 65.0429 9 19.5
      vertex 33 20 1
      vertex 33 9 1
    endloop
  endfacet
  facet normal -1 0 0
    outer loop
      vertex 65.0429 9 19.5
      vertex 65.0429 20 32
      vertex 65.0429 20 19.5
    endloop
  endfacet
  facet normal -1 -0 0
    outer loop
      vertex 65.0429 20 32
      vertex 65.0429 9 19.5
      vertex 65.0429 9 32
    endloop
  endfacet
  facet normal 0 -1 0
    outer loop
      vertex 0.95706 20 32
      vertex 4.42116 20 21.5
      vertex 4.42116 20 32
    endloop
  endfacet
  facet normal 0 -1 0
    outer loop
      vertex 0.95706 20 19.5
      vertex 4.42116 20 21.5
      vertex 0.95706 20 32
    endloop
  endfacet
  facet normal 0 -1 0
    outer loop
      vertex 0.95706 20 19.5
      vertex 33 20 5
      vertex 4.42116 20 21.5
    endloop
  endfacet
  facet normal -0 -1 -0
    outer loop
      vertex 33 20 5
      vertex 0.95706 20 19.5
      vertex 33 20 1
    endloop
  endfacet
  facet normal 0 -1 0
    outer loop
      vertex 61.5788 20 21.5
      vertex 65.0429 20 32
      vertex 61.5788 20 32
    endloop
  endfacet
  facet normal 0 -1 0
    outer loop
      vertex 61.5788 20 21.5
      vertex 65.0429 20 19.5
      vertex 65.0429 20 32
    endloop
  endfacet
  facet normal 0 -1 0
    outer loop
      vertex 33 20 5
      vertex 65.0429 20 19.5
      vertex 61.5788 20 21.5
    endloop
  endfacet
  facet normal 0 -1 0
    outer loop
      vertex 65.0429 20 19.5
      vertex 33 20 5
      vertex 33 20 1
    endloop
  endfacet
  facet normal 0 1 0
    outer loop
      vertex 65.0429 22.5 32
      vertex 61.5788 22.5 21.5
      vertex 61.5788 22.5 32
    endloop
  endfacet
  facet normal 0 1 -0
    outer loop
      vertex 65.0429 22.5 19.5
      vertex 61.5788 22.5 21.5
      vertex 65.0429 22.5 32
    endloop
  endfacet
  facet normal 0 1 0
    outer loop
      vertex 65.0429 22.5 19.5
      vertex 33 22.5 5
      vertex 61.5788 22.5 21.5
    endloop
  endfacet
  facet normal -0 1 0
    outer loop
      vertex 33 22.5 5
      vertex 65.0429 22.5 19.5
      vertex 33 22.5 1
    endloop
  endfacet
  facet normal 0 1 -0
    outer loop
      vertex 4.42116 22.5 21.5
      vertex 0.95706 22.5 32
      vertex 4.42116 22.5 32
    endloop
  endfacet
  facet normal 0 1 0
    outer loop
      vertex 4.42116 22.5 21.5
      vertex 0.95706 22.5 19.5
      vertex 0.95706 22.5 32
    endloop
  endfacet
  facet normal 0 1 0
    outer loop
      vertex 33 22.5 5
      vertex 0.95706 22.5 19.5
      vertex 4.42116 22.5 21.5
    endloop
  endfacet
  facet normal 0 1 0
    outer loop
      vertex 0.95706 22.5 19.5
      vertex 33 22.5 5
      vertex 33 22.5 1
    endloop
  endfacet
  facet normal 0.5 0 0.866025
    outer loop
      vertex 0.95706 33.5 19.5
      vertex 33 22.5 1
      vertex 33 33.5 1
    endloop
  endfacet
  facet normal 0.5 0 0.866025
    outer loop
      vertex 33 22.5 1
      vertex 0.95706 33.5 19.5
      vertex 0.95706 22.5 19.5
    endloop
  endfacet
  facet normal 1 -0 0
    outer loop
      vertex 0.95706 22.5 32
      vertex 0.95706 33.5 19.5
      vertex 0.95706 33.5 32
    endloop
  endfacet
  facet normal 1 0 0
    outer loop
      vertex 0.95706 33.5 19.5
      vertex 0.95706 22.5 32
      vertex 0.95706 22.5 19.5
    endloop
  endfacet
  facet normal -0.5 0 0.866025
    outer loop
      vertex 33 33.5 1
      vertex 65.0429 22.5 19.5
      vertex 65.0429 33.5 19.5
    endloop
  endfacet
  facet normal -0.5 0 0.866025
    outer loop
      vertex 65.0429 22.5 19.5
      vertex 33 33.5 1
      vertex 33 22.5 1
    endloop
  endfacet
  facet normal -1 0 0
    outer loop
      vertex 65.0429 22.5 19.5
      vertex 65.0429 33.5 32
      vertex 65.0429 33.5 19.5
    endloop
  endfacet
  facet normal -1 -0 0
    outer loop
      vertex 65.0429 33.5 32
      vertex 65.0429 22.5 19.5
      vertex 65.0429 22.5 32
    endloop
  endfacet
  facet normal 0 -1 0
    outer loop
      vertex 0.95706 33.5 32
      vertex 4.42116 33.5 21.5
      vertex 4.42116 33.5 32
    endloop
  endfacet
  facet normal 0 -1 0
    outer loop
      vertex 0.95706 33.5 19.5
      vertex 4.42116 33.5 21.5
      vertex 0.95706 33.5 32
    endloop
  endfacet
  facet normal 0 -1 0
    outer loop
      vertex 0.95706 33.5 19.5
      vertex 33 33.5 5
      vertex 4.42116 33.5 21.5
    endloop
  endfacet
  facet normal -0 -1 -0
    outer loop
      vertex 33 33.5 5
      vertex 0.95706 33.5 19.5
      vertex 33 33.5 1
    endloop
  endfacet
  facet normal 0 -1 0
    outer loop
      vertex 61.5788 33.5 21.5
      vertex 65.0429 33.5 32
      vertex 61.5788 33.5 32
    endloop
  endfacet
  facet normal 0 -1 0
    outer loop
      vertex 61.5788 33.5 21.5
      vertex 65.0429 33.5 19.5
      vertex 65.0429 33.5 32
    endloop
  endfacet
  facet normal 0 -1 0
    outer loop
      vertex 33 33.5 5
      vertex 65.0429 33.5 19.5
      vertex 61.5788 33.5 21.5
    endloop
  endfacet
  facet normal 0 -1 0
    outer loop
      vertex 65.0429 33.5 19.5
      vertex 33 33.5 5
      vertex 33 33.5 1
    endloop
  endfacet
  facet normal 0 1 0
    outer loop
      vertex 65.0429 36 32
      vertex 61.5788 36 21.5
      vertex 61.5788 36 32
    endloop
  endfacet
  facet normal 0 1 -0
    outer loop
      vertex 65.0429 36 19.5
      vertex 61.5788 36 21.5
      vertex 65.0429 36 32
    endloop
  endfacet
  facet normal 0 1 0
    outer loop
      vertex 65.0429 36 19.5
      vertex 33 36 5
      vertex 61.5788 36 21.5
    endloop
  endfacet
  facet normal -0 1 0
    outer loop
      vertex 33 36 5
      vertex 65.0429 36 19.5
      vertex 33 36 1
    endloop
  endfacet
  facet normal 0 1 -0
    outer loop
      vertex 4.42116 36 21.5
      vertex 0.95706 36 32
      vertex 4.42116 36 32
    endloop
  endfacet
  facet normal 0 1 0
    outer loop
      vertex 4.42116 36 21.5
      vertex 0.95706 36 19.5
      vertex 0.95706 36 32
    endloop
  endfacet
  facet normal 0 1 0
    outer loop
      vertex 33 36 5
      vertex 0.95706 36 19.5
      vertex 4.42116 36 21.5
    endloop
  endfacet
  facet normal 0 1 0
    outer loop
      vertex 0.95706 36 19.5
      vertex 33 36 5
      vertex 33 36 1
    endloop
  endfacet
  facet normal 0.5 0 0.866025
    outer loop
      vertex 0.95706 47 19.5
      vertex 33 36 1
      vertex 33 47 1
    endloop
  endfacet
  facet normal 0.5 0 0.866025
    outer loop
      vertex 33 36 1
      vertex 0.95706 47 19.5
      vertex 0.95706 36 19.5
    endloop
  endfacet
  facet normal 1 -0 0
    outer loop
      vertex 0.95706 36 32
      vertex 0.95706 47 19.5
      vertex 0.95706 47 32
    endloop
  endfacet
  facet normal 1 0 0
    outer loop
      vertex 0.95706 47 19.5
      vertex 0.95706 36 32
      vertex 0.95706 36 19.5
    endloop
  endfacet
  facet normal -0.5 0 0.866025
    outer loop
      vertex 33 47 1
      vertex 65.0429 36 19.5
      vertex 65.0429 47 19.5
    endloop
  endfacet
  facet normal -0.5 0 0.866025
    outer loop
      vertex 65.0429 36 19.5
      vertex 33 47 1
      vertex 33 36 1
    endloop
  endfacet
  facet normal -1 0 0
    outer loop
      vertex 65.0429 36 19.5
      vertex 65.0429 47 32
      vertex 65.0429 47 19.5
    endloop
  endfacet
  facet normal -1 -0 0
    outer loop
      vertex 65.0429 47 32
      vertex 65.0429 36 19.5
      vertex 65.0429 36 32
    endloop
  endfacet
  facet normal 0 -1 0
    outer loop
      vertex 0.95706 47 32
      vertex 4.42116 47 21.5
      vertex 4.42116 47 32
    endloop
  endfacet
  facet normal 0 -1 0
    outer loop
      vertex 0.95706 47 19.5
      vertex 4.42116 47 21.5
      vertex 0.95706 47 32
    endloop
  endfacet
  facet normal 0 -1 0
    outer loop
      vertex 0.95706 47 19.5
      vertex 33 47 5
      vertex 4.42116 47 21.5
    endloop
  endfacet
  facet normal -0 -1 -0
    outer loop
      vertex 33 47 5
      vertex 0.95706 47 19.5
      vertex 33 47 1
    endloop
  endfacet
  facet normal 0 -1 0
    outer loop
      vertex 61.5788 47 21.5
      vertex 65.0429 47 32
      vertex 61.5788 47 32
    endloop
  endfacet
  facet normal 0 -1 0
    outer loop
      vertex 61.5788 47 21.5
      vertex 65.0429 47 19.5
      vertex 65.0429 47 32
    endloop
  endfacet
  facet normal 0 -1 0
    outer loop
      vertex 33 47 5
      vertex 65.0429 47 19.5
      vertex 61.5788 47 21.5
    endloop
  endfacet
  facet normal 0 -1 0
    outer loop
      vertex 65.0429 47 19.5
      vertex 33 47 5
      vertex 33 47 1
    endloop
  endfacet
  facet normal 0 1 0
    outer loop
      vertex 65.0429 49.5 32
      vertex 61.5788 49.5 21.5
      vertex 61.5788 49.5 32
    endloop
  endfacet
  facet normal 0 1 -0
    outer loop
      vertex 65.0429 49.5 19.5
      vertex 61.5788 49.5 21.5
      vertex 65.0429 49.5 32
    endloop
  endfacet
  facet normal 0 1 0
    outer loop
      vertex 65.0429 49.5 19.5
      vertex 33 49.5 5
      vertex 61.5788 49.5 21.5
    endloop
  endfacet
  facet normal -0 1 0
    outer loop
      vertex 33 49.5 5
      vertex 65.0429 49.5 19.5
      vertex 33 49.5 1
    endloop
  endfacet
  facet normal 0 1 -0
    outer loop
      vertex 4.42116 49.5 21.5
      vertex 0.95706 49.5 32
      vertex 4.42116 49.5 32
    endloop
  endfacet
  facet normal 0 1 0
    outer loop
      vertex 4.42116 49.5 21.5
      vertex 0.95706 49.5 19.5
      vertex 0.95706 49.5 32
    endloop
  endfacet
  facet normal 0 1 0
    outer loop
      vertex 33 49.5 5
      vertex 0.95706 49.5 19.5
      vertex 4.42116 49.5 21.5
    endloop
  endfacet
  facet normal 0 1 0
    outer loop
      vertex 0.95706 49.5 19.5
      vertex 33 49.5 5
      vertex 33 49.5 1
    endloop
  endfacet
  facet normal 0.5 0 0.866025
    outer loop
      vertex 0.95706 60.5 19.5
      vertex 33 49.5 1
      vertex 33 60.5 1
    endloop
  endfacet
  facet normal 0.5 0 0.866025
    outer loop
      vertex 33 49.5 1
      vertex 0.95706 60.5 19.5
      vertex 0.95706 49.5 19.5
    endloop
  endfacet
  facet normal 1 -0 0
    outer loop
      vertex 0.95706 49.5 32
      vertex 0.95706 60.5 19.5
      vertex 0.95706 60.5 32
    endloop
  endfacet
  facet normal 1 0 0
    outer loop
      vertex 0.95706 60.5 19.5
      vertex 0.95706 49.5 32
      vertex 0.95706 49.5 19.5
    endloop
  endfacet
  facet normal -0.5 0 0.866025
    outer loop
      vertex 33 60.5 1
      vertex 65.0429 49.5 19.5
      vertex 65.0429 60.5 19.5
    endloop
  endfacet
  facet normal -0.5 0 0.866025
    outer loop
      vertex 65.0429 49.5 19.5
      vertex 33 60.5 1
      vertex 33 49.5 1
    endloop
  endfacet
  facet normal -1 0 0
    outer loop
      vertex 65.0429 49.5 19.5
      vertex 65.0429 60.5 32
      vertex 65.0429 60.5 19.5
    endloop
  endfacet
  facet normal -1 -0 0
    outer loop
      vertex 65.0429 60.5 32
      vertex 65.0429 49.5 19.5
      vertex 65.0429 49.5 32
    endloop
  endfacet
  facet normal 0 -1 0
    outer loop
      vertex 0.95706 60.5 32
      vertex 4.42116 60.5 21.5
      vertex 4.42116 60.5 32
    endloop
  endfacet
  facet normal 0 -1 0
    outer loop
      vertex 0.95706 60.5 19.5
      vertex 4.42116 60.5 21.5
      vertex 0.95706 60.5 32
    endloop
  endfacet
  facet normal 0 -1 0
    outer loop
      vertex 0.95706 60.5 19.5
      vertex 33 60.5 5
      vertex 4.42116 60.5 21.5
    endloop
  endfacet
  facet normal -0 -1 -0
    outer loop
      vertex 33 60.5 5
      vertex 0.95706 60.5 19.5
      vertex 33 60.5 1
    endloop
  endfacet
  facet normal 0 -1 0
    outer loop
      vertex 61.5788 60.5 21.5
      vertex 65.0429 60.5 32
      vertex 61.5788 60.5 32
    endloop
  endfacet
  facet normal 0 -1 0
    outer loop
      vertex 61.5788 60.5 21.5
      vertex 65.0429 60.5 19.5
      vertex 65.0429 60.5 32
    endloop
  endfacet
  facet normal 0 -1 0
    outer loop
      vertex 33 60.5 5
      vertex 65.0429 60.5 19.5
      vertex 61.5788 60.5 21.5
    endloop
  endfacet
  facet normal 0 -1 0
    outer loop
      vertex 65.0429 60.5 19.5
      vertex 33 60.5 5
      vertex 33 60.5 1
    endloop
  endfacet
  facet normal 0 1 0
    outer loop
      vertex 65.0429 63 32
      vertex 61.5788 63 21.5
      vertex 61.5788 63 32
    endloop
  endfacet
  facet normal 0 1 -0
    outer loop
      vertex 65.0429 63 19.5
      vertex 61.5788 63 21.5
      vertex 65.0429 63 32
    endloop
  endfacet
  facet normal 0 1 0
    outer loop
      vertex 65.0429 63 19.5
      vertex 33 63 5
      vertex 61.5788 63 21.5
    endloop
  endfacet
  facet normal -0 1 0
    outer loop
      vertex 33 63 5
      vertex 65.0429 63 19.5
      vertex 33 63 1
    endloop
  endfacet
  facet normal 0 1 -0
    outer loop
      vertex 4.42116 63 21.5
      vertex 0.95706 63 32
      vertex 4.42116 63 32
    endloop
  endfacet
  facet normal 0 1 0
    outer loop
      vertex 4.42116 63 21.5
      vertex 0.95706 63 19.5
      vertex 0.95706 63 32
    endloop
  endfacet
  facet normal 0 1 0
    outer loop
      vertex 33 63 5
      vertex 0.95706 63 19.5
      vertex 4.42116 63 21.5
    endloop
  endfacet
  facet normal 0 1 0
    outer loop
      vertex 0.95706 63 19.5
      vertex 33 63 5
      vertex 33 63 1
    endloop
  endfacet
  facet normal 0.5 0 0.866025
    outer loop
      vertex 0.95706 74 19.5
      vertex 33 63 1
      vertex 33 74 1
    endloop
  endfacet
  facet normal 0.5 0 0.866025
    outer loop
      vertex 33 63 1
      vertex 0.95706 74 19.5
      vertex 0.95706 63 19.5
    endloop
  endfacet
  facet normal 1 -0 0
    outer loop
      vertex 0.95706 63 32
      vertex 0.95706 74 19.5
      vertex 0.95706 74 32
    endloop
  endfacet
  facet normal 1 0 0
    outer loop
      vertex 0.95706 74 19.5
      vertex 0.95706 63 32
      vertex 0.95706 63 19.5
    endloop
  endfacet
  facet normal -0.5 0 0.866025
    outer loop
      vertex 33 74 1
      vertex 65.0429 63 19.5
      vertex 65.0429 74 19.5
    endloop
  endfacet
  facet normal -0.5 0 0.866025
    outer loop
      vertex 65.0429 63 19.5
      vertex 33 74 1
      vertex 33 63 1
    endloop
  endfacet
  facet normal -1 0 0
    outer loop
      vertex 65.0429 63 19.5
      vertex 65.0429 74 32
      vertex 65.0429 74 19.5
    endloop
  endfacet
  facet normal -1 -0 0
    outer loop
      vertex 65.0429 74 32
      vertex 65.0429 63 19.5
      vertex 65.0429 63 32
    endloop
  endfacet
  facet normal 0 -1 0
    outer loop
      vertex 0.95706 74 32
      vertex 4.42116 74 21.5
      vertex 4.42116 74 32
    endloop
  endfacet
  facet normal 0 -1 0
    outer loop
      vertex 0.95706 74 19.5
      vertex 4.42116 74 21.5
      vertex 0.95706 74 32
    endloop
  endfacet
  facet normal 0 -1 0
    outer loop
      vertex 0.95706 74 19.5
      vertex 33 74 5
      vertex 4.42116 74 21.5
    endloop
  endfacet
  facet normal -0 -1 -0
    outer loop
      vertex 33 74 5
      vertex 0.95706 74 19.5
      vertex 33 74 1
    endloop
  endfacet
  facet normal 0 -1 0
    outer loop
      vertex 61.5788 74 21.5
      vertex 65.0429 74 32
      vertex 61.5788 74 32
    endloop
  endfacet
  facet normal 0 -1 0
    outer loop
      vertex 61.5788 74 21.5
      vertex 65.0429 74 19.5
      vertex 65.0429 74 32
    endloop
  endfacet
  facet normal 0 -1 0
    outer loop
      vertex 33 74 5
      vertex 65.0429 74 19.5
      vertex 61.5788 74 21.5
    endloop
  endfacet
  facet normal 0 -1 0
    outer loop
      vertex 65.0429 74 19.5
      vertex 33 74 5
      vertex 33 74 1
    endloop
  endfacet
  facet normal 0 1 0
    outer loop
      vertex 65.0429 76.5 32
      vertex 61.5788 76.5 21.5
      vertex 61.5788 76.5 32
    endloop
  endfacet
  facet normal 0 1 -0
    outer loop
      vertex 65.0429 76.5 19.5
      vertex 61.5788 76.5 21.5
      vertex 65.0429 76.5 32
    endloop
  endfacet
  facet normal 0 1 0
    outer loop
      vertex 65.0429 76.5 19.5
      vertex 33 76.5 5
      vertex 61.5788 76.5 21.5
    endloop
  endfacet
  facet normal -0 1 0
    outer loop
      vertex 33 76.5 5
      vertex 65.0429 76.5 19.5
      vertex 33 76.5 1
    endloop
  endfacet
  facet normal 0 1 -0
    outer loop
      vertex 4.42116 76.5 21.5
      vertex 0.95706 76.5 32
      vertex 4.42116 76.5 32
    endloop
  endfacet
  facet normal 0 1 0
    outer loop
      vertex 4.42116 76.5 21.5
      vertex 0.95706 76.5 19.5
      vertex 0.95706 76.5 32
    endloop
  endfacet
  facet normal 0 1 0
    outer loop
      vertex 33 76.5 5
      vertex 0.95706 76.5 19.5
      vertex 4.42116 76.5 21.5
    endloop
  endfacet
  facet normal 0 1 0
    outer loop
      vertex 0.95706 76.5 19.5
      vertex 33 76.5 5
      vertex 33 76.5 1
    endloop
  endfacet
  facet normal 0.5 0 0.866025
    outer loop
      vertex 0.95706 87.5 19.5
      vertex 33 76.5 1
      vertex 33 87.5 1
    endloop
  endfacet
  facet normal 0.5 0 0.866025
    outer loop
      vertex 33 76.5 1
      vertex 0.95706 87.5 19.5
      vertex 0.95706 76.5 19.5
    endloop
  endfacet
  facet normal 1 -0 0
    outer loop
      vertex 0.95706 76.5 32
      vertex 0.95706 87.5 19.5
      vertex 0.95706 87.5 32
    endloop
  endfacet
  facet normal 1 0 0
    outer loop
      vertex 0.95706 87.5 19.5
      vertex 0.95706 76.5 32
      vertex 0.95706 76.5 19.5
    endloop
  endfacet
  facet normal -0.5 0 0.866025
    outer loop
      vertex 33 87.5 1
      vertex 65.0429 76.5 19.5
      vertex 65.0429 87.5 19.5
    endloop
  endfacet
  facet normal -0.5 0 0.866025
    outer loop
      vertex 65.0429 76.5 19.5
      vertex 33 87.5 1
      vertex 33 76.5 1
    endloop
  endfacet
  facet normal -1 0 0
    outer loop
      vertex 65.0429 76.5 19.5
      vertex 65.0429 87.5 32
      vertex 65.0429 87.5 19.5
    endloop
  endfacet
  facet normal -1 -0 0
    outer loop
      vertex 65.0429 87.5 32
      vertex 65.0429 76.5 19.5
      vertex 65.0429 76.5 32
    endloop
  endfacet
  facet normal 0 -1 0
    outer loop
      vertex 0.95706 87.5 32
      vertex 4.42116 87.5 21.5
      vertex 4.42116 87.5 32
    endloop
  endfacet
  facet normal 0 -1 0
    outer loop
      vertex 0.95706 87.5 19.5
      vertex 4.42116 87.5 21.5
      vertex 0.95706 87.5 32
    endloop
  endfacet
  facet normal 0 -1 0
    outer loop
      vertex 0.95706 87.5 19.5
      vertex 33 87.5 5
      vertex 4.42116 87.5 21.5
    endloop
  endfacet
  facet normal -0 -1 -0
    outer loop
      vertex 33 87.5 5
      vertex 0.95706 87.5 19.5
      vertex 33 87.5 1
    endloop
  endfacet
  facet normal 0 -1 0
    outer loop
      vertex 61.5788 87.5 21.5
      vertex 65.0429 87.5 32
      vertex 61.5788 87.5 32
    endloop
  endfacet
  facet normal 0 -1 0
    outer loop
      vertex 61.5788 87.5 21.5
      vertex 65.0429 87.5 19.5
      vertex 65.0429 87.5 32
    endloop
  endfacet
  facet normal 0 -1 0
    outer loop
      vertex 33 87.5 5
      vertex 65.0429 87.5 19.5
      vertex 61.5788 87.5 21.5
    endloop
  endfacet
  facet normal 0 -1 0
    outer loop
      vertex 65.0429 87.5 19.5
      vertex 33 87.5 5
      vertex 33 87.5 1
    endloop
  endfacet
  facet normal 0 1 0
    outer loop
      vertex 65.0429 90 32
      vertex 61.5788 90 21.5
      vertex 61.5788 90 32
    endloop
  endfacet
  facet normal 0 1 -0
    outer loop
      vertex 65.0429 90 19.5
      vertex 61.5788 90 21.5
      vertex 65.0429 90 32
    endloop
  endfacet
  facet normal 0 1 0
    outer loop
      vertex 65.0429 90 19.5
      vertex 33 90 5
      vertex 61.5788 90 21.5
    endloop
  endfacet
  facet normal -0 1 0
    outer loop
      vertex 33 90 5
      vertex 65.0429 90 19.5
      vertex 33 90 1
    endloop
  endfacet
  facet normal 0 1 -0
    outer loop
      vertex 4.42116 90 21.5
      vertex 0.95706 90 32
      vertex 4.42116 90 32
    endloop
  endfacet
  facet normal 0 1 0
    outer loop
      vertex 4.42116 90 21.5
      vertex 0.95706 90 19.5
      vertex 0.95706 90 32
    endloop
  endfacet
  facet normal 0 1 0
    outer loop
      vertex 33 90 5
      vertex 0.95706 90 19.5
      vertex 4.42116 90 21.5
    endloop
  endfacet
  facet normal 0 1 0
    outer loop
      vertex 0.95706 90 19.5
      vertex 33 90 5
      vertex 33 90 1
    endloop
  endfacet
  facet normal 0.5 0 0.866025
    outer loop
      vertex 0.95706 101 19.5
      vertex 33 90 1
      vertex 33 101 1
    endloop
  endfacet
  facet normal 0.5 0 0.866025
    outer loop
      vertex 33 90 1
      vertex 0.95706 101 19.5
      vertex 0.95706 90 19.5
    endloop
  endfacet
  facet normal 1 -0 0
    outer loop
      vertex 0.95706 90 32
      vertex 0.95706 101 19.5
      vertex 0.95706 101 32
    endloop
  endfacet
  facet normal 1 0 0
    outer loop
      vertex 0.95706 101 19.5
      vertex 0.95706 90 32
      vertex 0.95706 90 19.5
    endloop
  endfacet
  facet normal -0.5 0 0.866025
    outer loop
      vertex 33 101 1
      vertex 65.0429 90 19.5
      vertex 65.0429 101 19.5
    endloop
  endfacet
  facet normal -0.5 0 0.866025
    outer loop
      vertex 65.0429 90 19.5
      vertex 33 101 1
      vertex 33 90 1
    endloop
  endfacet
  facet normal -1 0 0
    outer loop
      vertex 65.0429 90 19.5
      vertex 65.0429 101 32
      vertex 65.0429 101 19.5
    endloop
  endfacet
  facet normal -1 -0 0
    outer loop
      vertex 65.0429 101 32
      vertex 65.0429 90 19.5
      vertex 65.0429 90 32
    endloop
  endfacet
  facet normal 0 -1 0
    outer loop
      vertex 0.95706 101 32
      vertex 4.42116 101 21.5
      vertex 4.42116 101 32
    endloop
  endfacet
  facet normal 0 -1 0
    outer loop
      vertex 0.95706 101 19.5
      vertex 4.42116 101 21.5
      vertex 0.95706 101 32
    endloop
  endfacet
  facet normal 0 -1 0
    outer loop
      vertex 0.95706 101 19.5
      vertex 33 101 5
      vertex 4.42116 101 21.5
    endloop
  endfacet
  facet normal -0 -1 -0
    outer loop
      vertex 33 101 5
      vertex 0.95706 101 19.5
      vertex 33 101 1
    endloop
  endfacet
  facet normal 0 -1 0
    outer loop
      vertex 61.5788 101 21.5
      vertex 65.0429 101 32
      vertex 61.5788 101 32
    endloop
  endfacet
  facet normal 0 -1 0
    outer loop
      vertex 61.5788 101 21.5
      vertex 65.0429 101 19.5
      vertex 65.0429 101 32
    endloop
  endfacet
  facet normal 0 -1 0
    outer loop
      vertex 33 101 5
      vertex 65.0429 101 19.5
      vertex 61.5788 101 21.5
    endloop
  endfacet
  facet normal 0 -1 0
    outer loop
      vertex 65.0429 101 19.5
      vertex 33 101 5
      vertex 33 101 1
    endloop
  endfacet
  facet normal 0 1 0
    outer loop
      vertex 65.0429 103.5 32
      vertex 61.5788 103.5 21.5
      vertex 61.5788 103.5 32
    endloop
  endfacet
  facet normal 0 1 -0
    outer loop
      vertex 65.0429 103.5 19.5
      vertex 61.5788 103.5 21.5
      vertex 65.0429 103.5 32
    endloop
  endfacet
  facet normal 0 1 0
    outer loop
      vertex 65.0429 103.5 19.5
      vertex 33 103.5 5
      vertex 61.5788 103.5 21.5
    endloop
  endfacet
  facet normal -0 1 0
    outer loop
      vertex 33 103.5 5
      vertex 65.0429 103.5 19.5
      vertex 33 103.5 1
    endloop
  endfacet
  facet normal 0 1 -0
    outer loop
      vertex 4.42116 103.5 21.5
      vertex 0.95706 103.5 32
      vertex 4.42116 103.5 32
    endloop
  endfacet
  facet normal 0 1 0
    outer loop
      vertex 4.42116 103.5 21.5
      vertex 0.95706 103.5 19.5
      vertex 0.95706 103.5 32
    endloop
  endfacet
  facet normal 0 1 0
    outer loop
      vertex 33 103.5 5
      vertex 0.95706 103.5 19.5
      vertex 4.42116 103.5 21.5
    endloop
  endfacet
  facet normal 0 1 0
    outer loop
      vertex 0.95706 103.5 19.5
      vertex 33 103.5 5
      vertex 33 103.5 1
    endloop
  endfacet
  facet normal 0.5 0 0.866025
    outer loop
      vertex 0.95706 109 19.5
      vertex 33 103.5 1
      vertex 33 109 1
    endloop
  endfacet
  facet normal 0.5 0 0.866025
    outer loop
      vertex 33 103.5 1
      vertex 0.95706 109 19.5
      vertex 0.95706 103.5 19.5
    endloop
  endfacet
  facet normal 1 -0 0
    outer loop
      vertex 0.95706 103.5 32
      vertex 0.95706 109 19.5
      vertex 0.95706 109 32
    endloop
  endfacet
  facet normal 1 0 0
    outer loop
      vertex 0.95706 109 19.5
      vertex 0.95706 103.5 32
      vertex 0.95706 103.5 19.5
    endloop
  endfacet
  facet normal 0 -1 0
    outer loop
      vertex 0.95706 109 32
      vertex 4.42116 109 21.5
      vertex 4.42116 109 32
    endloop
  endfacet
  facet normal 0 -1 0
    outer loop
      vertex 0.95706 109 19.5
      vertex 4.42116 109 21.5
      vertex 0.95706 109 32
    endloop
  endfacet
  facet normal 0 -1 0
    outer loop
      vertex 0.95706 109 19.5
      vertex 33 109 5
      vertex 4.42116 109 21.5
    endloop
  endfacet
  facet normal -0 -1 -0
    outer loop
      vertex 33 109 5
      vertex 0.95706 109 19.5
      vertex 33 109 1
    endloop
  endfacet
  facet normal 0 -1 0
    outer loop
      vertex 61.5788 109 21.5
      vertex 65.0429 109 32
      vertex 61.5788 109 32
    endloop
  endfacet
  facet normal 0 -1 0
    outer loop
      vertex 61.5788 109 21.5
      vertex 65.0429 109 19.5
      vertex 65.0429 109 32
    endloop
  endfacet
  facet normal 0 -1 0
    outer loop
      vertex 33 109 5
      vertex 65.0429 109 19.5
      vertex 61.5788 109 21.5
    endloop
  endfacet
  facet normal 0 -1 0
    outer loop
      vertex 65.0429 109 19.5
      vertex 33 109 5
      vertex 33 109 1
    endloop
  endfacet
  facet normal -0.5 0 0.866025
    outer loop
      vertex 33 109 1
      vertex 65.0429 103.5 19.5
      vertex 65.0429 109 19.5
    endloop
  endfacet
  facet normal -0.5 0 0.866025
    outer loop
      vertex 65.0429 103.5 19.5
      vertex 33 109 1
      vertex 33 103.5 1
    endloop
  endfacet
  facet normal -1 0 0
    outer loop
      vertex 65.0429 103.5 19.5
      vertex 65.0429 109 32
      vertex 65.0429 109 19.5
    endloop
  endfacet
  facet normal -1 -0 0
    outer loop
      vertex 65.0429 109 32
      vertex 65.0429 103.5 19.5
      vertex 65.0429 103.5 32
    endloop
  endfacet
endsolid OpenSCAD_Model
