solid OpenSCAD_Model
  facet normal -1 0 0
    outer loop
      vertex 0 0 0
      vertex 0 90.5 32
      vertex 0 90.5 0
    endloop
  endfacet
  facet normal -1 -0 0
    outer loop
      vertex 0 90.5 32
      vertex 0 0 0
      vertex 0 0 32
    endloop
  endfacet
  facet normal -0 0 1
    outer loop
      vertex 61.5788 18 32
      vertex 65.0429 6.5 32
      vertex 65.0429 18 32
    endloop
  endfacet
  facet normal 0 0 1
    outer loop
      vertex 65.0429 6.5 32
      vertex 61.5788 18 32
      vertex 61.5788 6.5 32
    endloop
  endfacet
  facet normal -0 0 1
    outer loop
      vertex 61.5788 40 32
      vertex 65.0429 28.5 32
      vertex 65.0429 40 32
    endloop
  endfacet
  facet normal 0 0 1
    outer loop
      vertex 65.0429 28.5 32
      vertex 61.5788 40 32
      vertex 61.5788 28.5 32
    endloop
  endfacet
  facet normal -0 0 1
    outer loop
      vertex 61.5788 62 32
      vertex 65.0429 50.5 32
      vertex 65.0429 62 32
    endloop
  endfacet
  facet normal 0 0 1
    outer loop
      vertex 65.0429 50.5 32
      vertex 61.5788 62 32
      vertex 61.5788 50.5 32
    endloop
  endfacet
  facet normal -0 0 1
    outer loop
      vertex 61.5788 84 32
      vertex 65.0429 72.5 32
      vertex 65.0429 84 32
    endloop
  endfacet
  facet normal 0 0 1
    outer loop
      vertex 65.0429 72.5 32
      vertex 61.5788 84 32
      vertex 61.5788 72.5 32
    endloop
  endfacet
  facet normal 0 0 1
    outer loop
      vertex 65.0429 84 32
      vertex 66 90.5 32
      vertex 65.0429 89.5 32
    endloop
  endfacet
  facet normal -0 0 1
    outer loop
      vertex 61.5788 90.5 32
      vertex 65.0429 89.5 32
      vertex 66 90.5 32
    endloop
  endfacet
  facet normal 0 0 1
    outer loop
      vertex 65.0429 89.5 32
      vertex 61.5788 90.5 32
      vertex 61.5788 89.5 32
    endloop
  endfacet
  facet normal 0 0 1
    outer loop
      vertex 65.0429 72.5 32
      vertex 66 90.5 32
      vertex 65.0429 84 32
    endloop
  endfacet
  facet normal 0 0 1
    outer loop
      vertex 65.0429 62 32
      vertex 66 90.5 32
      vertex 65.0429 72.5 32
    endloop
  endfacet
  facet normal 0 0 1
    outer loop
      vertex 65.0429 50.5 32
      vertex 66 90.5 32
      vertex 65.0429 62 32
    endloop
  endfacet
  facet normal 0 0 1
    outer loop
      vertex 66 90.5 32
      vertex 65.0429 50.5 32
      vertex 66 0 32
    endloop
  endfacet
  facet normal -0 0 1
    outer loop
      vertex 65.0429 40 32
      vertex 66 0 32
      vertex 65.0429 50.5 32
    endloop
  endfacet
  facet normal -0 0 1
    outer loop
      vertex 65.0429 28.5 32
      vertex 66 0 32
      vertex 65.0429 40 32
    endloop
  endfacet
  facet normal -0 0 1
    outer loop
      vertex 65.0429 18 32
      vertex 66 0 32
      vertex 65.0429 28.5 32
    endloop
  endfacet
  facet normal -0 0 1
    outer loop
      vertex 65.0429 6.5 32
      vertex 66 0 32
      vertex 65.0429 18 32
    endloop
  endfacet
  facet normal -0 0 1
    outer loop
      vertex 65.0429 1 32
      vertex 66 0 32
      vertex 65.0429 6.5 32
    endloop
  endfacet
  facet normal 0 0 1
    outer loop
      vertex 61.5788 0 32
      vertex 65.0429 1 32
      vertex 61.5788 1 32
    endloop
  endfacet
  facet normal 0 0 1
    outer loop
      vertex 65.0429 1 32
      vertex 61.5788 0 32
      vertex 66 0 32
    endloop
  endfacet
  facet normal 0 0 1
    outer loop
      vertex 4.42116 90.5 32
      vertex 0.95706 89.5 32
      vertex 4.42116 89.5 32
    endloop
  endfacet
  facet normal 0 0 1
    outer loop
      vertex 0 90.5 32
      vertex 0.95706 84 32
      vertex 0.95706 89.5 32
    endloop
  endfacet
  facet normal 0 0 1
    outer loop
      vertex 0.95706 84 32
      vertex 0 90.5 32
      vertex 0.95706 72.5 32
    endloop
  endfacet
  facet normal 0 0 1
    outer loop
      vertex 0.95706 72.5 32
      vertex 0 90.5 32
      vertex 0.95706 62 32
    endloop
  endfacet
  facet normal 0 0 1
    outer loop
      vertex 0.95706 62 32
      vertex 0 90.5 32
      vertex 0.95706 50.5 32
    endloop
  endfacet
  facet normal 0 0 1
    outer loop
      vertex 0.95706 50.5 32
      vertex 0 90.5 32
      vertex 0.95706 40 32
    endloop
  endfacet
  facet normal 0 0 1
    outer loop
      vertex 0 0 32
      vertex 0.95706 40 32
      vertex 0 90.5 32
    endloop
  endfacet
  facet normal 0 0 1
    outer loop
      vertex 0.95706 40 32
      vertex 0 0 32
      vertex 0.95706 28.5 32
    endloop
  endfacet
  facet normal 0 0 1
    outer loop
      vertex 0.95706 28.5 32
      vertex 0 0 32
      vertex 0.95706 18 32
    endloop
  endfacet
  facet normal 0 0 1
    outer loop
      vertex 0.95706 18 32
      vertex 0 0 32
      vertex 0.95706 6.5 32
    endloop
  endfacet
  facet normal -0 0 1
    outer loop
      vertex 0 90.5 32
      vertex 0.95706 89.5 32
      vertex 4.42116 90.5 32
    endloop
  endfacet
  facet normal -0 0 1
    outer loop
      vertex 0.95706 84 32
      vertex 4.42116 72.5 32
      vertex 4.42116 84 32
    endloop
  endfacet
  facet normal 0 0 1
    outer loop
      vertex 4.42116 72.5 32
      vertex 0.95706 84 32
      vertex 0.95706 72.5 32
    endloop
  endfacet
  facet normal -0 0 1
    outer loop
      vertex 0.95706 62 32
      vertex 4.42116 50.5 32
      vertex 4.42116 62 32
    endloop
  endfacet
  facet normal 0 0 1
    outer loop
      vertex 4.42116 50.5 32
      vertex 0.95706 62 32
      vertex 0.95706 50.5 32
    endloop
  endfacet
  facet normal -0 0 1
    outer loop
      vertex 0.95706 40 32
      vertex 4.42116 28.5 32
      vertex 4.42116 40 32
    endloop
  endfacet
  facet normal 0 0 1
    outer loop
      vertex 4.42116 28.5 32
      vertex 0.95706 40 32
      vertex 0.95706 28.5 32
    endloop
  endfacet
  facet normal -0 0 1
    outer loop
      vertex 0.95706 18 32
      vertex 4.42116 6.5 32
      vertex 4.42116 18 32
    endloop
  endfacet
  facet normal 0 0 1
    outer loop
      vertex 4.42116 6.5 32
      vertex 0.95706 18 32
      vertex 0.95706 6.5 32
    endloop
  endfacet
  facet normal -0 0 1
    outer loop
      vertex 0.95706 1 32
      vertex 4.42116 0 32
      vertex 4.42116 1 32
    endloop
  endfacet
  facet normal 0 0 1
    outer loop
      vertex 0.95706 1 32
      vertex 0 0 32
      vertex 4.42116 0 32
    endloop
  endfacet
  facet normal 0 0 1
    outer loop
      vertex 0.95706 6.5 32
      vertex 0 0 32
      vertex 0.95706 1 32
    endloop
  endfacet
  facet normal 1 -0 0
    outer loop
      vertex 66 0 32
      vertex 66 90.5 0
      vertex 66 90.5 32
    endloop
  endfacet
  facet normal 1 0 0
    outer loop
      vertex 66 90.5 0
      vertex 66 0 32
      vertex 66 0 0
    endloop
  endfacet
  facet normal 0 0 -1
    outer loop
      vertex 0 0 0
      vertex 66 90.5 0
      vertex 66 0 0
    endloop
  endfacet
  facet normal -0 0 -1
    outer loop
      vertex 66 90.5 0
      vertex 0 0 0
      vertex 0 90.5 0
    endloop
  endfacet
  facet normal 0 -1 0
    outer loop
      vertex 0 0 32
      vertex 4.42116 0 21.5
      vertex 4.42116 0 32
    endloop
  endfacet
  facet normal 0 -1 -0
    outer loop
      vertex 4.42116 0 21.5
      vertex 0 0 0
      vertex 33 0 5
    endloop
  endfacet
  facet normal 0 -1 0
    outer loop
      vertex 0 0 0
      vertex 4.42116 0 21.5
      vertex 0 0 32
    endloop
  endfacet
  facet normal 0 -1 0
    outer loop
      vertex 61.5788 0 21.5
      vertex 66 0 32
      vertex 61.5788 0 32
    endloop
  endfacet
  facet normal 0 -1 0
    outer loop
      vertex 61.5788 0 21.5
      vertex 66 0 0
      vertex 66 0 32
    endloop
  endfacet
  facet normal 0 -1 0
    outer loop
      vertex 33 0 5
      vertex 66 0 0
      vertex 61.5788 0 21.5
    endloop
  endfacet
  facet normal 0 -1 0
    outer loop
      vertex 66 0 0
      vertex 33 0 5
      vertex 0 0 0
    endloop
  endfacet
  facet normal 0 1 0
    outer loop
      vertex 66 90.5 32
      vertex 61.5788 90.5 21.5
      vertex 61.5788 90.5 32
    endloop
  endfacet
  facet normal 0 1 0
    outer loop
      vertex 61.5788 90.5 21.5
      vertex 66 90.5 0
      vertex 33 90.5 5
    endloop
  endfacet
  facet normal 0 1 -0
    outer loop
      vertex 66 90.5 0
      vertex 61.5788 90.5 21.5
      vertex 66 90.5 32
    endloop
  endfacet
  facet normal 0 1 -0
    outer loop
      vertex 4.42116 90.5 21.5
      vertex 0 90.5 32
      vertex 4.42116 90.5 32
    endloop
  endfacet
  facet normal 0 1 0
    outer loop
      vertex 4.42116 90.5 21.5
      vertex 0 90.5 0
      vertex 0 90.5 32
    endloop
  endfacet
  facet normal 0 1 0
    outer loop
      vertex 33 90.5 5
      vertex 0 90.5 0
      vertex 4.42116 90.5 21.5
    endloop
  endfacet
  facet normal 0 1 0
    outer loop
      vertex 0 90.5 0
      vertex 33 90.5 5
      vertex 66 90.5 0
    endloop
  endfacet
  facet normal 0.5 0 0.866025
    outer loop
      vertex 4.42116 1 21.5
      vertex 33 0 5
      vertex 33 1 5
    endloop
  endfacet
  facet normal 0.5 0 0.866025
    outer loop
      vertex 33 0 5
      vertex 4.42116 1 21.5
      vertex 4.42116 0 21.5
    endloop
  endfacet
  facet normal 0.5 0 0.866025
    outer loop
      vertex 4.42116 90.5 21.5
      vertex 33 89.5 5
      vertex 33 90.5 5
    endloop
  endfacet
  facet normal 0.5 0 0.866025
    outer loop
      vertex 33 89.5 5
      vertex 4.42116 90.5 21.5
      vertex 4.42116 89.5 21.5
    endloop
  endfacet
  facet normal 0.5 0 0.866025
    outer loop
      vertex 4.42116 18 21.5
      vertex 33 6.5 5
      vertex 33 18 5
    endloop
  endfacet
  facet normal 0.5 0 0.866025
    outer loop
      vertex 33 6.5 5
      vertex 4.42116 18 21.5
      vertex 4.42116 6.5 21.5
    endloop
  endfacet
  facet normal 0.5 0 0.866025
    outer loop
      vertex 4.42116 40 21.5
      vertex 33 28.5 5
      vertex 33 40 5
    endloop
  endfacet
  facet normal 0.5 0 0.866025
    outer loop
      vertex 33 28.5 5
      vertex 4.42116 40 21.5
      vertex 4.42116 28.5 21.5
    endloop
  endfacet
  facet normal 0.5 0 0.866025
    outer loop
      vertex 4.42116 62 21.5
      vertex 33 50.5 5
      vertex 33 62 5
    endloop
  endfacet
  facet normal 0.5 0 0.866025
    outer loop
      vertex 33 50.5 5
      vertex 4.42116 62 21.5
      vertex 4.42116 50.5 21.5
    endloop
  endfacet
  facet normal 0.5 0 0.866025
    outer loop
      vertex 4.42116 84 21.5
      vertex 33 72.5 5
      vertex 33 84 5
    endloop
  endfacet
  facet normal 0.5 0 0.866025
    outer loop
      vertex 33 72.5 5
      vertex 4.42116 84 21.5
      vertex 4.42116 72.5 21.5
    endloop
  endfacet
  facet normal 1 -0 0
    outer loop
      vertex 4.42116 0 32
      vertex 4.42116 1 21.5
      vertex 4.42116 1 32
    endloop
  endfacet
  facet normal 1 0 0
    outer loop
      vertex 4.42116 1 21.5
      vertex 4.42116 0 32
      vertex 4.42116 0 21.5
    endloop
  endfacet
  facet normal 1 -0 0
    outer loop
      vertex 4.42116 89.5 32
      vertex 4.42116 90.5 21.5
      vertex 4.42116 90.5 32
    endloop
  endfacet
  facet normal 1 0 0
    outer loop
      vertex 4.42116 90.5 21.5
      vertex 4.42116 89.5 32
      vertex 4.42116 89.5 21.5
    endloop
  endfacet
  facet normal 1 -0 0
    outer loop
      vertex 4.42116 6.5 32
      vertex 4.42116 18 21.5
      vertex 4.42116 18 32
    endloop
  endfacet
  facet normal 1 0 0
    outer loop
      vertex 4.42116 18 21.5
      vertex 4.42116 6.5 32
      vertex 4.42116 6.5 21.5
    endloop
  endfacet
  facet normal 1 -0 0
    outer loop
      vertex 4.42116 28.5 32
      vertex 4.42116 40 21.5
      vertex 4.42116 40 32
    endloop
  endfacet
  facet normal 1 0 0
    outer loop
      vertex 4.42116 40 21.5
      vertex 4.42116 28.5 32
      vertex 4.42116 28.5 21.5
    endloop
  endfacet
  facet normal 1 -0 0
    outer loop
      vertex 4.42116 50.5 32
      vertex 4.42116 62 21.5
      vertex 4.42116 62 32
    endloop
  endfacet
  facet normal 1 0 0
    outer loop
      vertex 4.42116 62 21.5
      vertex 4.42116 50.5 32
      vertex 4.42116 50.5 21.5
    endloop
  endfacet
  facet normal 1 -0 0
    outer loop
      vertex 4.42116 72.5 32
      vertex 4.42116 84 21.5
      vertex 4.42116 84 32
    endloop
  endfacet
  facet normal 1 0 0
    outer loop
      vertex 4.42116 84 21.5
      vertex 4.42116 72.5 32
      vertex 4.42116 72.5 21.5
    endloop
  endfacet
  facet normal -0.500001 0 0.866025
    outer loop
      vertex 33 1 5
      vertex 61.5788 0 21.5
      vertex 61.5788 1 21.5
    endloop
  endfacet
  facet normal -0.500001 0 0.866025
    outer loop
      vertex 61.5788 0 21.5
      vertex 33 1 5
      vertex 33 0 5
    endloop
  endfacet
  facet normal -0.500001 0 0.866025
    outer loop
      vertex 33 90.5 5
      vertex 61.5788 89.5 21.5
      vertex 61.5788 90.5 21.5
    endloop
  endfacet
  facet normal -0.500001 0 0.866025
    outer loop
      vertex 61.5788 89.5 21.5
      vertex 33 90.5 5
      vertex 33 89.5 5
    endloop
  endfacet
  facet normal -0.500001 0 0.866025
    outer loop
      vertex 33 18 5
      vertex 61.5788 6.5 21.5
      vertex 61.5788 18 21.5
    endloop
  endfacet
  facet normal -0.500001 0 0.866025
    outer loop
      vertex 61.5788 6.5 21.5
      vertex 33 18 5
      vertex 33 6.5 5
    endloop
  endfacet
  facet normal -0.500001 0 0.866025
    outer loop
      vertex 33 40 5
      vertex 61.5788 28.5 21.5
      vertex 61.5788 40 21.5
    endloop
  endfacet
  facet normal -0.500001 0 0.866025
    outer loop
      vertex 61.5788 28.5 21.5
      vertex 33 40 5
      vertex 33 28.5 5
    endloop
  endfacet
  facet normal -0.500001 0 0.866025
    outer loop
      vertex 33 62 5
      vertex 61.5788 50.5 21.5
      vertex 61.5788 62 21.5
    endloop
  endfacet
  facet normal -0.500001 0 0.866025
    outer loop
      vertex 61.5788 50.5 21.5
      vertex 33 62 5
      vertex 33 50.5 5
    endloop
  endfacet
  facet normal -0.500001 0 0.866025
    outer loop
      vertex 33 84 5
      vertex 61.5788 72.5 21.5
      vertex 61.5788 84 21.5
    endloop
  endfacet
  facet normal -0.500001 0 0.866025
    outer loop
      vertex 61.5788 72.5 21.5
      vertex 33 84 5
      vertex 33 72.5 5
    endloop
  endfacet
  facet normal -1 0 0
    outer loop
      vertex 61.5788 0 21.5
      vertex 61.5788 1 32
      vertex 61.5788 1 21.5
    endloop
  endfacet
  facet normal -1 -0 0
    outer loop
      vertex 61.5788 1 32
      vertex 61.5788 0 21.5
      vertex 61.5788 0 32
    endloop
  endfacet
  facet normal -1 0 0
    outer loop
      vertex 61.5788 89.5 21.5
      vertex 61.5788 90.5 32
      vertex 61.5788 90.5 21.5
    endloop
  endfacet
  facet normal -1 -0 0
    outer loop
      vertex 61.5788 90.5 32
      vertex 61.5788 89.5 21.5
      vertex 61.5788 89.5 32
    endloop
  endfacet
  facet normal -1 0 0
    outer loop
      vertex 61.5788 6.5 21.5
      vertex 61.5788 18 32
      vertex 61.5788 18 21.5
    endloop
  endfacet
  facet normal -1 -0 0
    outer loop
      vertex 61.5788 18 32
      vertex 61.5788 6.5 21.5
      vertex 61.5788 6.5 32
    endloop
  endfacet
  facet normal -1 0 0
    outer loop
      vertex 61.5788 28.5 21.5
      vertex 61.5788 40 32
      vertex 61.5788 40 21.5
    endloop
  endfacet
  facet normal -1 -0 0
    outer loop
      vertex 61.5788 40 32
      vertex 61.5788 28.5 21.5
      vertex 61.5788 28.5 32
    endloop
  endfacet
  facet normal -1 0 0
    outer loop
      vertex 61.5788 50.5 21.5
      vertex 61.5788 62 32
      vertex 61.5788 62 21.5
    endloop
  endfacet
  facet normal -1 -0 0
    outer loop
      vertex 61.5788 62 32
      vertex 61.5788 50.5 21.5
      vertex 61.5788 50.5 32
    endloop
  endfacet
  facet normal -1 0 0
    outer loop
      vertex 61.5788 72.5 21.5
      vertex 61.5788 84 32
      vertex 61.5788 84 21.5
    endloop
  endfacet
  facet normal -1 -0 0
    outer loop
      vertex 61.5788 84 32
      vertex 61.5788 72.5 21.5
      vertex 61.5788 72.5 32
    endloop
  endfacet
  facet normal 0 1 0
    outer loop
      vertex 65.0429 1 32
      vertex 61.5788 1 21.5
      vertex 61.5788 1 32
    endloop
  endfacet
  facet normal 0 1 -0
    outer loop
      vertex 65.0429 1 19.5
      vertex 61.5788 1 21.5
      vertex 65.0429 1 32
    endloop
  endfacet
  facet normal 0 1 0
    outer loop
      vertex 65.0429 1 19.5
      vertex 33 1 5
      vertex 61.5788 1 21.5
    endloop
  endfacet
  facet normal -0 1 0
    outer loop
      vertex 33 1 5
      vertex 65.0429 1 19.5
      vertex 33 1 1
    endloop
  endfacet
  facet normal 0 1 -0
    outer loop
      vertex 4.42116 1 21.5
      vertex 0.95706 1 32
      vertex 4.42116 1 32
    endloop
  endfacet
  facet normal 0 1 0
    outer loop
      vertex 4.42116 1 21.5
      vertex 0.95706 1 19.5
      vertex 0.95706 1 32
    endloop
  endfacet
  facet normal 0 1 0
    outer loop
      vertex 33 1 5
      vertex 0.95706 1 19.5
      vertex 4.42116 1 21.5
    endloop
  endfacet
  facet normal 0 1 0
    outer loop
      vertex 0.95706 1 19.5
      vertex 33 1 5
      vertex 33 1 1
    endloop
  endfacet
  facet normal 0.5 0 0.866025
    outer loop
      vertex 0.95706 6.5 19.5
      vertex 33 1 1
      vertex 33 6.5 1
    endloop
  endfacet
  facet normal 0.5 0 0.866025
    outer loop
      vertex 33 1 1
      vertex 0.95706 6.5 19.5
      vertex 0.95706 1 19.5
    endloop
  endfacet
  facet normal 1 -0 0
    outer loop
      vertex 0.95706 1 32
      vertex 0.95706 6.5 19.5
      vertex 0.95706 6.5 32
    endloop
  endfacet
  facet normal 1 0 0
    outer loop
      vertex 0.95706 6.5 19.5
      vertex 0.95706 1 32
      vertex 0.95706 1 19.5
    endloop
  endfacet
  facet normal 0 -1 0
    outer loop
      vertex 0.95706 6.5 32
      vertex 4.42116 6.5 21.5
      vertex 4.42116 6.5 32
    endloop
  endfacet
  facet normal 0 -1 0
    outer loop
      vertex 0.95706 6.5 19.5
      vertex 4.42116 6.5 21.5
      vertex 0.95706 6.5 32
    endloop
  endfacet
  facet normal 0 -1 0
    outer loop
      vertex 0.95706 6.5 19.5
      vertex 33 6.5 5
      vertex 4.42116 6.5 21.5
    endloop
  endfacet
  facet normal -0 -1 -0
    outer loop
      vertex 33 6.5 5
      vertex 0.95706 6.5 19.5
      vertex 33 6.5 1
    endloop
  endfacet
  facet normal 0 -1 0
    outer loop
      vertex 61.5788 6.5 21.5
      vertex 65.0429 6.5 32
      vertex 61.5788 6.5 32
    endloop
  endfacet
  facet normal 0 -1 0
    outer loop
      vertex 61.5788 6.5 21.5
      vertex 65.0429 6.5 19.5
      vertex 65.0429 6.5 32
    endloop
  endfacet
  facet normal 0 -1 0
    outer loop
      vertex 33 6.5 5
      vertex 65.0429 6.5 19.5
      vertex 61.5788 6.5 21.5
    endloop
  endfacet
  facet normal 0 -1 0
    outer loop
      vertex 65.0429 6.5 19.5
      vertex 33 6.5 5
      vertex 33 6.5 1
    endloop
  endfacet
  facet normal -0.5 0 0.866025
    outer loop
      vertex 33 6.5 1
      vertex 65.0429 1 19.5
      vertex 65.0429 6.5 19.5
    endloop
  endfacet
  facet normal -0.5 0 0.866025
    outer loop
      vertex 65.0429 1 19.5
      vertex 33 6.5 1
      vertex 33 1 1
    endloop
  endfacet
  facet normal -1 0 0
    outer loop
      vertex 65.0429 1 19.5
      vertex 65.0429 6.5 32
      vertex 65.0429 6.5 19.5
    endloop
  endfacet
  facet normal -1 -0 0
    outer loop
      vertex 65.0429 6.5 32
      vertex 65.0429 1 19.5
      vertex 65.0429 1 32
    endloop
  endfacet
  facet normal 0 1 0
    outer loop
      vertex 65.0429 18 32
      vertex 61.5788 18 21.5
      vertex 61.5788 18 32
    endloop
  endfacet
  facet normal 0 1 -0
    outer loop
      vertex 65.0429 18 19.5
      vertex 61.5788 18 21.5
      vertex 65.0429 18 32
    endloop
  endfacet
  facet normal 0 1 0
    outer loop
      vertex 65.0429 18 19.5
      vertex 33 18 5
      vertex 61.5788 18 21.5
    endloop
  endfacet
  facet normal -0 1 0
    outer loop
      vertex 33 18 5
      vertex 65.0429 18 19.5
      vertex 33 18 1
    endloop
  endfacet
  facet normal 0 1 -0
    outer loop
      vertex 4.42116 18 21.5
      vertex 0.95706 18 32
      vertex 4.42116 18 32
    endloop
  endfacet
  facet normal 0 1 0
    outer loop
      vertex 4.42116 18 21.5
      vertex 0.95706 18 19.5
      vertex 0.95706 18 32
    endloop
  endfacet
  facet normal 0 1 0
    outer loop
      vertex 33 18 5
      vertex 0.95706 18 19.5
      vertex 4.42116 18 21.5
    endloop
  endfacet
  facet normal 0 1 0
    outer loop
      vertex 0.95706 18 19.5
      vertex 33 18 5
      vertex 33 18 1
    endloop
  endfacet
  facet normal 0.5 0 0.866025
    outer loop
      vertex 0.95706 28.5 19.5
      vertex 33 18 1
      vertex 33 28.5 1
    endloop
  endfacet
  facet normal 0.5 0 0.866025
    outer loop
      vertex 33 18 1
      vertex 0.95706 28.5 19.5
      vertex 0.95706 18 19.5
    endloop
  endfacet
  facet normal 1 -0 0
    outer loop
      vertex 0.95706 18 32
      vertex 0.95706 28.5 19.5
      vertex 0.95706 28.5 32
    endloop
  endfacet
  facet normal 1 0 0
    outer loop
      vertex 0.95706 28.5 19.5
      vertex 0.95706 18 32
      vertex 0.95706 18 19.5
    endloop
  endfacet
  facet normal -0.5 0 0.866025
    outer loop
      vertex 33 28.5 1
      vertex 65.0429 18 19.5
      vertex 65.0429 28.5 19.5
    endloop
  endfacet
  facet normal -0.5 0 0.866025
    outer loop
      vertex 65.0429 18 19.5
      vertex 33 28.5 1
      vertex 33 18 1
    endloop
  endfacet
  facet normal -1 0 0
    outer loop
      vertex 65.0429 18 19.5
      vertex 65.0429 28.5 32
      vertex 65.0429 28.5 19.5
    endloop
  endfacet
  facet normal -1 -0 0
    outer loop
      vertex 65.0429 28.5 32
      vertex 65.0429 18 19.5
      vertex 65.0429 18 32
    endloop
  endfacet
  facet normal 0 -1 0
    outer loop
      vertex 0.95706 28.5 32
      vertex 4.42116 28.5 21.5
      vertex 4.42116 28.5 32
    endloop
  endfacet
  facet normal 0 -1 0
    outer loop
      vertex 0.95706 28.5 19.5
      vertex 4.42116 28.5 21.5
      vertex 0.95706 28.5 32
    endloop
  endfacet
  facet normal 0 -1 0
    outer loop
      vertex 0.95706 28.5 19.5
      vertex 33 28.5 5
      vertex 4.42116 28.5 21.5
    endloop
  endfacet
  facet normal -0 -1 -0
    outer loop
      vertex 33 28.5 5
      vertex 0.95706 28.5 19.5
      vertex 33 28.5 1
    endloop
  endfacet
  facet normal 0 -1 0
    outer loop
      vertex 61.5788 28.5 21.5
      vertex 65.0429 28.5 32
      vertex 61.5788 28.5 32
    endloop
  endfacet
  facet normal 0 -1 0
    outer loop
      vertex 61.5788 28.5 21.5
      vertex 65.0429 28.5 19.5
      vertex 65.0429 28.5 32
    endloop
  endfacet
  facet normal 0 -1 0
    outer loop
      vertex 33 28.5 5
      vertex 65.0429 28.5 19.5
      vertex 61.5788 28.5 21.5
    endloop
  endfacet
  facet normal 0 -1 0
    outer loop
      vertex 65.0429 28.5 19.5
      vertex 33 28.5 5
      vertex 33 28.5 1
    endloop
  endfacet
  facet normal 0 1 0
    outer loop
      vertex 65.0429 40 32
      vertex 61.5788 40 21.5
      vertex 61.5788 40 32
    endloop
  endfacet
  facet normal 0 1 -0
    outer loop
      vertex 65.0429 40 19.5
      vertex 61.5788 40 21.5
      vertex 65.0429 40 32
    endloop
  endfacet
  facet normal 0 1 0
    outer loop
      vertex 65.0429 40 19.5
      vertex 33 40 5
      vertex 61.5788 40 21.5
    endloop
  endfacet
  facet normal -0 1 0
    outer loop
      vertex 33 40 5
      vertex 65.0429 40 19.5
      vertex 33 40 1
    endloop
  endfacet
  facet normal 0 1 -0
    outer loop
      vertex 4.42116 40 21.5
      vertex 0.95706 40 32
      vertex 4.42116 40 32
    endloop
  endfacet
  facet normal 0 1 0
    outer loop
      vertex 4.42116 40 21.5
      vertex 0.95706 40 19.5
      vertex 0.95706 40 32
    endloop
  endfacet
  facet normal 0 1 0
    outer loop
      vertex 33 40 5
      vertex 0.95706 40 19.5
      vertex 4.42116 40 21.5
    endloop
  endfacet
  facet normal 0 1 0
    outer loop
      vertex 0.95706 40 19.5
      vertex 33 40 5
      vertex 33 40 1
    endloop
  endfacet
  facet normal 0.5 0 0.866025
    outer loop
      vertex 0.95706 50.5 19.5
      vertex 33 40 1
      vertex 33 50.5 1
    endloop
  endfacet
  facet normal 0.5 0 0.866025
    outer loop
      vertex 33 40 1
      vertex 0.95706 50.5 19.5
      vertex 0.95706 40 19.5
    endloop
  endfacet
  facet normal 1 -0 0
    outer loop
      vertex 0.95706 40 32
      vertex 0.95706 50.5 19.5
      vertex 0.95706 50.5 32
    endloop
  endfacet
  facet normal 1 0 0
    outer loop
      vertex 0.95706 50.5 19.5
      vertex 0.95706 40 32
      vertex 0.95706 40 19.5
    endloop
  endfacet
  facet normal -0.5 0 0.866025
    outer loop
      vertex 33 50.5 1
      vertex 65.0429 40 19.5
      vertex 65.0429 50.5 19.5
    endloop
  endfacet
  facet normal -0.5 0 0.866025
    outer loop
      vertex 65.0429 40 19.5
      vertex 33 50.5 1
      vertex 33 40 1
    endloop
  endfacet
  facet normal -1 0 0
    outer loop
      vertex 65.0429 40 19.5
      vertex 65.0429 50.5 32
      vertex 65.0429 50.5 19.5
    endloop
  endfacet
  facet normal -1 -0 0
    outer loop
      vertex 65.0429 50.5 32
      vertex 65.0429 40 19.5
      vertex 65.0429 40 32
    endloop
  endfacet
  facet normal 0 -1 0
    outer loop
      vertex 0.95706 50.5 32
      vertex 4.42116 50.5 21.5
      vertex 4.42116 50.5 32
    endloop
  endfacet
  facet normal 0 -1 0
    outer loop
      vertex 0.95706 50.5 19.5
      vertex 4.42116 50.5 21.5
      vertex 0.95706 50.5 32
    endloop
  endfacet
  facet normal 0 -1 0
    outer loop
      vertex 0.95706 50.5 19.5
      vertex 33 50.5 5
      vertex 4.42116 50.5 21.5
    endloop
  endfacet
  facet normal -0 -1 -0
    outer loop
      vertex 33 50.5 5
      vertex 0.95706 50.5 19.5
      vertex 33 50.5 1
    endloop
  endfacet
  facet normal 0 -1 0
    outer loop
      vertex 61.5788 50.5 21.5
      vertex 65.0429 50.5 32
      vertex 61.5788 50.5 32
    endloop
  endfacet
  facet normal 0 -1 0
    outer loop
      vertex 61.5788 50.5 21.5
      vertex 65.0429 50.5 19.5
      vertex 65.0429 50.5 32
    endloop
  endfacet
  facet normal 0 -1 0
    outer loop
      vertex 33 50.5 5
      vertex 65.0429 50.5 19.5
      vertex 61.5788 50.5 21.5
    endloop
  endfacet
  facet normal 0 -1 0
    outer loop
      vertex 65.0429 50.5 19.5
      vertex 33 50.5 5
      vertex 33 50.5 1
    endloop
  endfacet
  facet normal 0 1 0
    outer loop
      vertex 65.0429 62 32
      vertex 61.5788 62 21.5
      vertex 61.5788 62 32
    endloop
  endfacet
  facet normal 0 1 -0
    outer loop
      vertex 65.0429 62 19.5
      vertex 61.5788 62 21.5
      vertex 65.0429 62 32
    endloop
  endfacet
  facet normal 0 1 0
    outer loop
      vertex 65.0429 62 19.5
      vertex 33 62 5
      vertex 61.5788 62 21.5
    endloop
  endfacet
  facet normal -0 1 0
    outer loop
      vertex 33 62 5
      vertex 65.0429 62 19.5
      vertex 33 62 1
    endloop
  endfacet
  facet normal 0 1 -0
    outer loop
      vertex 4.42116 62 21.5
      vertex 0.95706 62 32
      vertex 4.42116 62 32
    endloop
  endfacet
  facet normal 0 1 0
    outer loop
      vertex 4.42116 62 21.5
      vertex 0.95706 62 19.5
      vertex 0.95706 62 32
    endloop
  endfacet
  facet normal 0 1 0
    outer loop
      vertex 33 62 5
      vertex 0.95706 62 19.5
      vertex 4.42116 62 21.5
    endloop
  endfacet
  facet normal 0 1 0
    outer loop
      vertex 0.95706 62 19.5
      vertex 33 62 5
      vertex 33 62 1
    endloop
  endfacet
  facet normal 0.5 0 0.866025
    outer loop
      vertex 0.95706 72.5 19.5
      vertex 33 62 1
      vertex 33 72.5 1
    endloop
  endfacet
  facet normal 0.5 0 0.866025
    outer loop
      vertex 33 62 1
      vertex 0.95706 72.5 19.5
      vertex 0.95706 62 19.5
    endloop
  endfacet
  facet normal 1 -0 0
    outer loop
      vertex 0.95706 62 32
      vertex 0.95706 72.5 19.5
      vertex 0.95706 72.5 32
    endloop
  endfacet
  facet normal 1 0 0
    outer loop
      vertex 0.95706 72.5 19.5
      vertex 0.95706 62 32
      vertex 0.95706 62 19.5
    endloop
  endfacet
  facet normal -0.5 0 0.866025
    outer loop
      vertex 33 72.5 1
      vertex 65.0429 62 19.5
      vertex 65.0429 72.5 19.5
    endloop
  endfacet
  facet normal -0.5 0 0.866025
    outer loop
      vertex 65.0429 62 19.5
      vertex 33 72.5 1
      vertex 33 62 1
    endloop
  endfacet
  facet normal -1 0 0
    outer loop
      vertex 65.0429 62 19.5
      vertex 65.0429 72.5 32
      vertex 65.0429 72.5 19.5
    endloop
  endfacet
  facet normal -1 -0 0
    outer loop
      vertex 65.0429 72.5 32
      vertex 65.0429 62 19.5
      vertex 65.0429 62 32
    endloop
  endfacet
  facet normal 0 -1 0
    outer loop
      vertex 0.95706 72.5 32
      vertex 4.42116 72.5 21.5
      vertex 4.42116 72.5 32
    endloop
  endfacet
  facet normal 0 -1 0
    outer loop
      vertex 0.95706 72.5 19.5
      vertex 4.42116 72.5 21.5
      vertex 0.95706 72.5 32
    endloop
  endfacet
  facet normal 0 -1 0
    outer loop
      vertex 0.95706 72.5 19.5
      vertex 33 72.5 5
      vertex 4.42116 72.5 21.5
    endloop
  endfacet
  facet normal -0 -1 -0
    outer loop
      vertex 33 72.5 5
      vertex 0.95706 72.5 19.5
      vertex 33 72.5 1
    endloop
  endfacet
  facet normal 0 -1 0
    outer loop
      vertex 61.5788 72.5 21.5
      vertex 65.0429 72.5 32
      vertex 61.5788 72.5 32
    endloop
  endfacet
  facet normal 0 -1 0
    outer loop
      vertex 61.5788 72.5 21.5
      vertex 65.0429 72.5 19.5
      vertex 65.0429 72.5 32
    endloop
  endfacet
  facet normal 0 -1 0
    outer loop
      vertex 33 72.5 5
      vertex 65.0429 72.5 19.5
      vertex 61.5788 72.5 21.5
    endloop
  endfacet
  facet normal 0 -1 0
    outer loop
      vertex 65.0429 72.5 19.5
      vertex 33 72.5 5
      vertex 33 72.5 1
    endloop
  endfacet
  facet normal 0 1 0
    outer loop
      vertex 65.0429 84 32
      vertex 61.5788 84 21.5
      vertex 61.5788 84 32
    endloop
  endfacet
  facet normal 0 1 -0
    outer loop
      vertex 65.0429 84 19.5
      vertex 61.5788 84 21.5
      vertex 65.0429 84 32
    endloop
  endfacet
  facet normal 0 1 0
    outer loop
      vertex 65.0429 84 19.5
      vertex 33 84 5
      vertex 61.5788 84 21.5
    endloop
  endfacet
  facet normal -0 1 0
    outer loop
      vertex 33 84 5
      vertex 65.0429 84 19.5
      vertex 33 84 1
    endloop
  endfacet
  facet normal 0 1 -0
    outer loop
      vertex 4.42116 84 21.5
      vertex 0.95706 84 32
      vertex 4.42116 84 32
    endloop
  endfacet
  facet normal 0 1 0
    outer loop
      vertex 4.42116 84 21.5
      vertex 0.95706 84 19.5
      vertex 0.95706 84 32
    endloop
  endfacet
  facet normal 0 1 0
    outer loop
      vertex 33 84 5
      vertex 0.95706 84 19.5
      vertex 4.42116 84 21.5
    endloop
  endfacet
  facet normal 0 1 0
    outer loop
      vertex 0.95706 84 19.5
      vertex 33 84 5
      vertex 33 84 1
    endloop
  endfacet
  facet normal 0.5 0 0.866025
    outer loop
      vertex 0.95706 89.5 19.5
      vertex 33 84 1
      vertex 33 89.5 1
    endloop
  endfacet
  facet normal 0.5 0 0.866025
    outer loop
      vertex 33 84 1
      vertex 0.95706 89.5 19.5
      vertex 0.95706 84 19.5
    endloop
  endfacet
  facet normal 1 -0 0
    outer loop
      vertex 0.95706 84 32
      vertex 0.95706 89.5 19.5
      vertex 0.95706 89.5 32
    endloop
  endfacet
  facet normal 1 0 0
    outer loop
      vertex 0.95706 89.5 19.5
      vertex 0.95706 84 32
      vertex 0.95706 84 19.5
    endloop
  endfacet
  facet normal 0 -1 0
    outer loop
      vertex 0.95706 89.5 32
      vertex 4.42116 89.5 21.5
      vertex 4.42116 89.5 32
    endloop
  endfacet
  facet normal 0 -1 0
    outer loop
      vertex 0.95706 89.5 19.5
      vertex 4.42116 89.5 21.5
      vertex 0.95706 89.5 32
    endloop
  endfacet
  facet normal 0 -1 0
    outer loop
      vertex 0.95706 89.5 19.5
      vertex 33 89.5 5
      vertex 4.42116 89.5 21.5
    endloop
  endfacet
  facet normal -0 -1 -0
    outer loop
      vertex 33 89.5 5
      vertex 0.95706 89.5 19.5
      vertex 33 89.5 1
    endloop
  endfacet
  facet normal 0 -1 0
    outer loop
      vertex 61.5788 89.5 21.5
      vertex 65.0429 89.5 32
      vertex 61.5788 89.5 32
    endloop
  endfacet
  facet normal 0 -1 0
    outer loop
      vertex 61.5788 89.5 21.5
      vertex 65.0429 89.5 19.5
      vertex 65.0429 89.5 32
    endloop
  endfacet
  facet normal 0 -1 0
    outer loop
      vertex 33 89.5 5
      vertex 65.0429 89.5 19.5
      vertex 61.5788 89.5 21.5
    endloop
  endfacet
  facet normal 0 -1 0
    outer loop
      vertex 65.0429 89.5 19.5
      vertex 33 89.5 5
      vertex 33 89.5 1
    endloop
  endfacet
  facet normal -0.5 0 0.866025
    outer loop
      vertex 33 89.5 1
      vertex 65.0429 84 19.5
      vertex 65.0429 89.5 19.5
    endloop
  endfacet
  facet normal -0.5 0 0.866025
    outer loop
      vertex 65.0429 84 19.5
      vertex 33 89.5 1
      vertex 33 84 1
    endloop
  endfacet
  facet normal -1 0 0
    outer loop
      vertex 65.0429 84 19.5
      vertex 65.0429 89.5 32
      vertex 65.0429 89.5 19.5
    endloop
  endfacet
  facet normal -1 -0 0
    outer loop
      vertex 65.0429 89.5 32
      vertex 65.0429 84 19.5
      vertex 65.0429 84 32
    endloop
  endfacet
endsolid OpenSCAD_Model
