solid OpenSCAD_Model
  facet normal 0 1 -0
    outer loop
      vertex 18.2625 31.6316 -7
      vertex -18.2625 31.6316 -2
      vertex 18.2625 31.6316 -2
    endloop
  endfacet
  facet normal 0 1 0
    outer loop
      vertex -18.2625 31.6316 -2
      vertex 18.2625 31.6316 -7
      vertex -18.2625 31.6316 -7
    endloop
  endfacet
  facet normal 0.866026 0.5 0
    outer loop
      vertex 36.525 0 -2
      vertex 18.2625 31.6316 -7
      vertex 18.2625 31.6316 -2
    endloop
  endfacet
  facet normal 0.866026 0.5 0
    outer loop
      vertex 18.2625 31.6316 -7
      vertex 36.525 0 -2
      vertex 36.525 0 -7
    endloop
  endfacet
  facet normal 0 0 1
    outer loop
      vertex 18.2625 31.6316 -2
      vertex 18.2625 -31.6316 -2
      vertex 36.525 0 -2
    endloop
  endfacet
  facet normal -0 0 1
    outer loop
      vertex -18.2625 31.6316 -2
      vertex 18.2625 -31.6316 -2
      vertex 18.2625 31.6316 -2
    endloop
  endfacet
  facet normal 0 0 1
    outer loop
      vertex -18.2625 31.6316 -2
      vertex -18.2625 -31.6316 -2
      vertex 18.2625 -31.6316 -2
    endloop
  endfacet
  facet normal 0 -0 1
    outer loop
      vertex -18.2625 -31.6316 -2
      vertex -18.2625 31.6316 -2
      vertex -36.525 0 -2
    endloop
  endfacet
  facet normal -0.866026 -0.5 0
    outer loop
      vertex -18.2625 -31.6316 -7
      vertex -36.525 0 -2
      vertex -36.525 0 -7
    endloop
  endfacet
  facet normal -0.866026 -0.5 0
    outer loop
      vertex -36.525 0 -2
      vertex -18.2625 -31.6316 -7
      vertex -18.2625 -31.6316 -2
    endloop
  endfacet
  facet normal 0 0 -1
    outer loop
      vertex 18.2625 -31.6316 -7
      vertex 18.2625 31.6316 -7
      vertex 36.525 0 -7
    endloop
  endfacet
  facet normal 0 0 -1
    outer loop
      vertex -18.2625 -31.6316 -7
      vertex 18.2625 31.6316 -7
      vertex 18.2625 -31.6316 -7
    endloop
  endfacet
  facet normal 0 0 -1
    outer loop
      vertex -18.2625 -31.6316 -7
      vertex -18.2625 31.6316 -7
      vertex 18.2625 31.6316 -7
    endloop
  endfacet
  facet normal 0 -0 -1
    outer loop
      vertex -18.2625 31.6316 -7
      vertex -18.2625 -31.6316 -7
      vertex -36.525 0 -7
    endloop
  endfacet
  facet normal -0.866026 0.5 0
    outer loop
      vertex -36.525 0 -7
      vertex -18.2625 31.6316 -2
      vertex -18.2625 31.6316 -7
    endloop
  endfacet
  facet normal -0.866026 0.5 0
    outer loop
      vertex -18.2625 31.6316 -2
      vertex -36.525 0 -7
      vertex -36.525 0 -2
    endloop
  endfacet
  facet normal 0.866026 -0.5 0
    outer loop
      vertex 18.2625 -31.6316 -2
      vertex 36.525 0 -7
      vertex 36.525 0 -2
    endloop
  endfacet
  facet normal 0.866026 -0.5 0
    outer loop
      vertex 36.525 0 -7
      vertex 18.2625 -31.6316 -2
      vertex 18.2625 -31.6316 -7
    endloop
  endfacet
  facet normal 0 -1 0
    outer loop
      vertex -18.2625 -31.6316 -7
      vertex 18.2625 -31.6316 -2
      vertex -18.2625 -31.6316 -2
    endloop
  endfacet
  facet normal 0 -1 -0
    outer loop
      vertex 18.2625 -31.6316 -2
      vertex -18.2625 -31.6316 -7
      vertex 18.2625 -31.6316 -7
    endloop
  endfacet
endsolid OpenSCAD_Model
