solid OpenSCAD_Model
  facet normal -1 0 0
    outer loop
      vertex 0 0 0
      vertex 0 71 43
      vertex 0 71 0
    endloop
  endfacet
  facet normal -1 -0 0
    outer loop
      vertex 0 71 43
      vertex 0 0 0
      vertex 0 0 43
    endloop
  endfacet
  facet normal 0 0 1
    outer loop
      vertex 105 71 43
      vertex 104 70 43
      vertex 105 0 43
    endloop
  endfacet
  facet normal 0 0 1
    outer loop
      vertex 105 71 43
      vertex 1 70 43
      vertex 104 70 43
    endloop
  endfacet
  facet normal 0 0 1
    outer loop
      vertex 1 70 43
      vertex 0 71 43
      vertex 1 1 43
    endloop
  endfacet
  facet normal -0 0 1
    outer loop
      vertex 0 71 43
      vertex 1 70 43
      vertex 105 71 43
    endloop
  endfacet
  facet normal -0 0 1
    outer loop
      vertex 104 1 43
      vertex 105 0 43
      vertex 104 70 43
    endloop
  endfacet
  facet normal -0 0 1
    outer loop
      vertex 1 1 43
      vertex 105 0 43
      vertex 104 1 43
    endloop
  endfacet
  facet normal 0 0 1
    outer loop
      vertex 1 1 43
      vertex 0 0 43
      vertex 105 0 43
    endloop
  endfacet
  facet normal 0 0 1
    outer loop
      vertex 0 0 43
      vertex 1 1 43
      vertex 0 71 43
    endloop
  endfacet
  facet normal 1 -0 0
    outer loop
      vertex 105 0 43
      vertex 105 71 0
      vertex 105 71 43
    endloop
  endfacet
  facet normal 1 0 0
    outer loop
      vertex 105 71 0
      vertex 105 0 43
      vertex 105 0 0
    endloop
  endfacet
  facet normal 0 0 -1
    outer loop
      vertex 0 0 0
      vertex 105 71 0
      vertex 105 0 0
    endloop
  endfacet
  facet normal -0 0 -1
    outer loop
      vertex 105 71 0
      vertex 0 0 0
      vertex 0 71 0
    endloop
  endfacet
  facet normal 0 -1 0
    outer loop
      vertex 0 0 0
      vertex 105 0 43
      vertex 0 0 43
    endloop
  endfacet
  facet normal 0 -1 -0
    outer loop
      vertex 105 0 43
      vertex 0 0 0
      vertex 105 0 0
    endloop
  endfacet
  facet normal 0 1 -0
    outer loop
      vertex 105 71 0
      vertex 0 71 43
      vertex 105 71 43
    endloop
  endfacet
  facet normal 0 1 0
    outer loop
      vertex 0 71 43
      vertex 105 71 0
      vertex 0 71 0
    endloop
  endfacet
  facet normal 1 -0 0
    outer loop
      vertex 1 1 43
      vertex 1 70 37
      vertex 1 70 43
    endloop
  endfacet
  facet normal 1 0 0
    outer loop
      vertex 1 70 37
      vertex 1 1 43
      vertex 1 1 37
    endloop
  endfacet
  facet normal -1 0 0
    outer loop
      vertex 104 1 37
      vertex 104 70 43
      vertex 104 70 37
    endloop
  endfacet
  facet normal -1 -0 0
    outer loop
      vertex 104 70 43
      vertex 104 1 37
      vertex 104 1 43
    endloop
  endfacet
  facet normal 0 0 1
    outer loop
      vertex 104 70 37
      vertex 103 69 37
      vertex 104 1 37
    endloop
  endfacet
  facet normal 0 0 1
    outer loop
      vertex 104 70 37
      vertex 53.5 69 37
      vertex 103 69 37
    endloop
  endfacet
  facet normal 0 0 1
    outer loop
      vertex 53.5 69 37
      vertex 51.5 69 37
      vertex 53.5 2 37
    endloop
  endfacet
  facet normal 0 0 1
    outer loop
      vertex 104 70 37
      vertex 51.5 69 37
      vertex 53.5 69 37
    endloop
  endfacet
  facet normal -0 0 1
    outer loop
      vertex 1 70 37
      vertex 51.5 69 37
      vertex 104 70 37
    endloop
  endfacet
  facet normal 0 0 1
    outer loop
      vertex 2 69 37
      vertex 1 70 37
      vertex 2 2 37
    endloop
  endfacet
  facet normal 0 0 1
    outer loop
      vertex 51.5 69 37
      vertex 1 70 37
      vertex 2 69 37
    endloop
  endfacet
  facet normal -0 0 1
    outer loop
      vertex 103 2 37
      vertex 104 1 37
      vertex 103 69 37
    endloop
  endfacet
  facet normal -0 0 1
    outer loop
      vertex 53.5 2 37
      vertex 104 1 37
      vertex 103 2 37
    endloop
  endfacet
  facet normal 0 0 1
    outer loop
      vertex 51.5 2 37
      vertex 53.5 2 37
      vertex 51.5 69 37
    endloop
  endfacet
  facet normal -0 0 1
    outer loop
      vertex 51.5 2 37
      vertex 104 1 37
      vertex 53.5 2 37
    endloop
  endfacet
  facet normal 0 0 1
    outer loop
      vertex 1 1 37
      vertex 51.5 2 37
      vertex 2 2 37
    endloop
  endfacet
  facet normal 0 0 1
    outer loop
      vertex 51.5 2 37
      vertex 1 1 37
      vertex 104 1 37
    endloop
  endfacet
  facet normal 0 0 1
    outer loop
      vertex 1 1 37
      vertex 2 2 37
      vertex 1 70 37
    endloop
  endfacet
  facet normal 0 1 -0
    outer loop
      vertex 104 1 37
      vertex 1 1 43
      vertex 104 1 43
    endloop
  endfacet
  facet normal 0 1 0
    outer loop
      vertex 1 1 43
      vertex 104 1 37
      vertex 1 1 37
    endloop
  endfacet
  facet normal 0 -1 0
    outer loop
      vertex 1 70 37
      vertex 104 70 43
      vertex 1 70 43
    endloop
  endfacet
  facet normal 0 -1 -0
    outer loop
      vertex 104 70 43
      vertex 1 70 37
      vertex 104 70 37
    endloop
  endfacet
  facet normal 1 -0 0
    outer loop
      vertex 2 2 37
      vertex 2 69 1
      vertex 2 69 37
    endloop
  endfacet
  facet normal 1 0 0
    outer loop
      vertex 2 69 1
      vertex 2 2 37
      vertex 2 2 1
    endloop
  endfacet
  facet normal -1 0 0
    outer loop
      vertex 51.5 2 1
      vertex 51.5 69 37
      vertex 51.5 69 1
    endloop
  endfacet
  facet normal -1 -0 0
    outer loop
      vertex 51.5 69 37
      vertex 51.5 2 1
      vertex 51.5 2 37
    endloop
  endfacet
  facet normal 0 -1 0
    outer loop
      vertex 2 69 1
      vertex 51.5 69 37
      vertex 2 69 37
    endloop
  endfacet
  facet normal 0 -1 -0
    outer loop
      vertex 51.5 69 37
      vertex 2 69 1
      vertex 51.5 69 1
    endloop
  endfacet
  facet normal -0 0 1
    outer loop
      vertex 2 69 1
      vertex 51.5 2 1
      vertex 51.5 69 1
    endloop
  endfacet
  facet normal 0 0 1
    outer loop
      vertex 51.5 2 1
      vertex 2 69 1
      vertex 2 2 1
    endloop
  endfacet
  facet normal 0 1 -0
    outer loop
      vertex 51.5 2 1
      vertex 2 2 37
      vertex 51.5 2 37
    endloop
  endfacet
  facet normal 0 1 0
    outer loop
      vertex 2 2 37
      vertex 51.5 2 1
      vertex 2 2 1
    endloop
  endfacet
  facet normal 1 -0 0
    outer loop
      vertex 53.5 2 37
      vertex 53.5 69 1
      vertex 53.5 69 37
    endloop
  endfacet
  facet normal 1 0 0
    outer loop
      vertex 53.5 69 1
      vertex 53.5 2 37
      vertex 53.5 2 1
    endloop
  endfacet
  facet normal -1 0 0
    outer loop
      vertex 103 2 1
      vertex 103 69 37
      vertex 103 69 1
    endloop
  endfacet
  facet normal -1 -0 0
    outer loop
      vertex 103 69 37
      vertex 103 2 1
      vertex 103 2 37
    endloop
  endfacet
  facet normal 0 -1 0
    outer loop
      vertex 53.5 69 1
      vertex 103 69 37
      vertex 53.5 69 37
    endloop
  endfacet
  facet normal 0 -1 -0
    outer loop
      vertex 103 69 37
      vertex 53.5 69 1
      vertex 103 69 1
    endloop
  endfacet
  facet normal -0 0 1
    outer loop
      vertex 53.5 69 1
      vertex 103 2 1
      vertex 103 69 1
    endloop
  endfacet
  facet normal 0 0 1
    outer loop
      vertex 103 2 1
      vertex 53.5 69 1
      vertex 53.5 2 1
    endloop
  endfacet
  facet normal 0 1 -0
    outer loop
      vertex 103 2 1
      vertex 53.5 2 37
      vertex 103 2 37
    endloop
  endfacet
  facet normal 0 1 0
    outer loop
      vertex 53.5 2 37
      vertex 103 2 1
      vertex 53.5 2 1
    endloop
  endfacet
endsolid OpenSCAD_Model
