solid OpenSCAD_Model
  facet normal 1 -0 0
    outer loop
      vertex 1 53 36
      vertex 1 82 1
      vertex 1 82 36
    endloop
  endfacet
  facet normal 1 0 0
    outer loop
      vertex 1 82 1
      vertex 1 53 36
      vertex 1 53 1
    endloop
  endfacet
  facet normal -1 0 0
    outer loop
      vertex 6 53 1
      vertex 6 56 36
      vertex 6 56 1
    endloop
  endfacet
  facet normal -1 -0 0
    outer loop
      vertex 6 56 36
      vertex 6 53 1
      vertex 6 53 36
    endloop
  endfacet
  facet normal -1 0 0
    outer loop
      vertex 6 79 1
      vertex 6 82 36
      vertex 6 82 1
    endloop
  endfacet
  facet normal -1 -0 0
    outer loop
      vertex 6 82 36
      vertex 6 79 1
      vertex 6 79 36
    endloop
  endfacet
  facet normal 0 0 1
    outer loop
      vertex 66 103 1
      vertex 64 99 1
      vertex 66 99 1
    endloop
  endfacet
  facet normal 0 0 1
    outer loop
      vertex 42 97 1
      vertex 64 97 1
      vertex 64 99 1
    endloop
  endfacet
  facet normal 0 0 1
    outer loop
      vertex 42 97 1
      vertex 64 99 1
      vertex 42 99 1
    endloop
  endfacet
  facet normal 0 0 1
    outer loop
      vertex 66 103 1
      vertex 42 99 1
      vertex 64 99 1
    endloop
  endfacet
  facet normal -0 0 1
    outer loop
      vertex 40 103 1
      vertex 42 99 1
      vertex 66 103 1
    endloop
  endfacet
  facet normal 0 0 1
    outer loop
      vertex 42 99 1
      vertex 40 103 1
      vertex 40 99 1
    endloop
  endfacet
  facet normal 0 0 1
    outer loop
      vertex 64 97 1
      vertex 42 97 1
      vertex 42.5 7 1
    endloop
  endfacet
  facet normal -0 0 1
    outer loop
      vertex 7 48 1
      vertex 42.5 7 1
      vertex 42 97 1
    endloop
  endfacet
  facet normal 0 0 1
    outer loop
      vertex 42.5 7 1
      vertex 7 48 1
      vertex 38 7 1
    endloop
  endfacet
  facet normal 0 0 1
    outer loop
      vertex 7 48 1
      vertex 42 97 1
      vertex 37 97 1
    endloop
  endfacet
  facet normal 0 0 1
    outer loop
      vertex 92.5 103 1
      vertex 90.5 99 1
      vertex 92.5 99 1
    endloop
  endfacet
  facet normal 0 0 1
    outer loop
      vertex 68.5 97 1
      vertex 90.5 97 1
      vertex 90.5 99 1
    endloop
  endfacet
  facet normal 0 0 1
    outer loop
      vertex 68.5 97 1
      vertex 90.5 99 1
      vertex 68.5 99 1
    endloop
  endfacet
  facet normal 0 0 1
    outer loop
      vertex 92.5 103 1
      vertex 68.5 99 1
      vertex 90.5 99 1
    endloop
  endfacet
  facet normal -0 0 1
    outer loop
      vertex 66.5 103 1
      vertex 68.5 99 1
      vertex 92.5 103 1
    endloop
  endfacet
  facet normal 0 0 1
    outer loop
      vertex 68.5 99 1
      vertex 66.5 103 1
      vertex 66.5 99 1
    endloop
  endfacet
  facet normal 0 0 1
    outer loop
      vertex 90.5 97 1
      vertex 68.5 97 1
      vertex 70 7 1
    endloop
  endfacet
  facet normal 0 0 1
    outer loop
      vertex 68.5 97 1
      vertex 64.5 7 1
      vertex 70 7 1
    endloop
  endfacet
  facet normal 0 0 1
    outer loop
      vertex 42.5 7 1
      vertex 64.5 7 1
      vertex 64 97 1
    endloop
  endfacet
  facet normal -0 0 1
    outer loop
      vertex 64 97 1
      vertex 64.5 7 1
      vertex 68.5 97 1
    endloop
  endfacet
  facet normal -0 0 1
    outer loop
      vertex 90.5 97 1
      vertex 97 79 1
      vertex 97 97 1
    endloop
  endfacet
  facet normal 0 0 1
    outer loop
      vertex 97 79 1
      vertex 90.5 97 1
      vertex 97 56 1
    endloop
  endfacet
  facet normal 0 0 1
    outer loop
      vertex 70 7 1
      vertex 97 56 1
      vertex 90.5 97 1
    endloop
  endfacet
  facet normal 0 0 1
    outer loop
      vertex 97 56 1
      vertex 70 7 1
      vertex 97 48 1
    endloop
  endfacet
  facet normal 0 0 1
    outer loop
      vertex 97 25 1
      vertex 92 7 1
      vertex 97 7 1
    endloop
  endfacet
  facet normal 0 0 1
    outer loop
      vertex 97 25 1
      vertex 70 7 1
      vertex 92 7 1
    endloop
  endfacet
  facet normal 0 0 1
    outer loop
      vertex 97 48 1
      vertex 70 7 1
      vertex 97 25 1
    endloop
  endfacet
  facet normal -0 0 1
    outer loop
      vertex 97 79 1
      vertex 98 56 1
      vertex 98 79 1
    endloop
  endfacet
  facet normal 0 0 1
    outer loop
      vertex 98 56 1
      vertex 97 79 1
      vertex 97 56 1
    endloop
  endfacet
  facet normal 0 0 1
    outer loop
      vertex 98 79 1
      vertex 103 82 1
      vertex 98 82 1
    endloop
  endfacet
  facet normal 0 0 1
    outer loop
      vertex 103 82 1
      vertex 98 79 1
      vertex 103 53 1
    endloop
  endfacet
  facet normal -0 0 1
    outer loop
      vertex 98 56 1
      vertex 103 53 1
      vertex 98 79 1
    endloop
  endfacet
  facet normal 0 0 1
    outer loop
      vertex 103 53 1
      vertex 98 56 1
      vertex 98 53 1
    endloop
  endfacet
  facet normal -0 0 1
    outer loop
      vertex 97 48 1
      vertex 98 25 1
      vertex 98 48 1
    endloop
  endfacet
  facet normal 0 0 1
    outer loop
      vertex 98 25 1
      vertex 97 48 1
      vertex 97 25 1
    endloop
  endfacet
  facet normal 0 0 1
    outer loop
      vertex 98 48 1
      vertex 103 51 1
      vertex 98 51 1
    endloop
  endfacet
  facet normal 0 0 1
    outer loop
      vertex 103 51 1
      vertex 98 48 1
      vertex 103 22 1
    endloop
  endfacet
  facet normal -0 0 1
    outer loop
      vertex 98 25 1
      vertex 103 22 1
      vertex 98 48 1
    endloop
  endfacet
  facet normal 0 0 1
    outer loop
      vertex 103 22 1
      vertex 98 25 1
      vertex 98 22 1
    endloop
  endfacet
  facet normal -0 0 1
    outer loop
      vertex 92 5 1
      vertex 94 1 1
      vertex 94 5 1
    endloop
  endfacet
  facet normal 0 0 1
    outer loop
      vertex 92 7 1
      vertex 70 7 1
      vertex 92 5 1
    endloop
  endfacet
  facet normal 0 0 1
    outer loop
      vertex 70 5 1
      vertex 92 5 1
      vertex 70 7 1
    endloop
  endfacet
  facet normal 0 0 1
    outer loop
      vertex 92 5 1
      vertex 70 5 1
      vertex 94 1 1
    endloop
  endfacet
  facet normal 0 0 1
    outer loop
      vertex 68 1 1
      vertex 70 5 1
      vertex 68 5 1
    endloop
  endfacet
  facet normal 0 0 1
    outer loop
      vertex 70 5 1
      vertex 68 1 1
      vertex 94 1 1
    endloop
  endfacet
  facet normal -0 0 1
    outer loop
      vertex 64.5 5 1
      vertex 66.5 1 1
      vertex 66.5 5 1
    endloop
  endfacet
  facet normal 0 0 1
    outer loop
      vertex 64.5 7 1
      vertex 42.5 7 1
      vertex 64.5 5 1
    endloop
  endfacet
  facet normal 0 0 1
    outer loop
      vertex 42.5 5 1
      vertex 64.5 5 1
      vertex 42.5 7 1
    endloop
  endfacet
  facet normal 0 0 1
    outer loop
      vertex 64.5 5 1
      vertex 42.5 5 1
      vertex 66.5 1 1
    endloop
  endfacet
  facet normal 0 0 1
    outer loop
      vertex 40.5 1 1
      vertex 42.5 5 1
      vertex 40.5 5 1
    endloop
  endfacet
  facet normal 0 0 1
    outer loop
      vertex 42.5 5 1
      vertex 40.5 1 1
      vertex 66.5 1 1
    endloop
  endfacet
  facet normal -0 0 1
    outer loop
      vertex 38 5 1
      vertex 40 1 1
      vertex 40 5 1
    endloop
  endfacet
  facet normal -0 0 1
    outer loop
      vertex 7 25 1
      vertex 38 7 1
      vertex 7 48 1
    endloop
  endfacet
  facet normal 0 0 1
    outer loop
      vertex 16 5 1
      vertex 38 5 1
      vertex 16 7 1
    endloop
  endfacet
  facet normal 0 0 1
    outer loop
      vertex 38 5 1
      vertex 16 5 1
      vertex 40 1 1
    endloop
  endfacet
  facet normal 0 0 1
    outer loop
      vertex 14 1 1
      vertex 16 5 1
      vertex 14 5 1
    endloop
  endfacet
  facet normal 0 0 1
    outer loop
      vertex 16 5 1
      vertex 14 1 1
      vertex 40 1 1
    endloop
  endfacet
  facet normal -0 0 1
    outer loop
      vertex 1 51 1
      vertex 6 48 1
      vertex 6 51 1
    endloop
  endfacet
  facet normal 0 0 1
    outer loop
      vertex 6 48 1
      vertex 1 51 1
      vertex 6 25 1
    endloop
  endfacet
  facet normal 0 0 1
    outer loop
      vertex 1 22 1
      vertex 6 25 1
      vertex 1 51 1
    endloop
  endfacet
  facet normal 0 0 1
    outer loop
      vertex 6 25 1
      vertex 1 22 1
      vertex 6 22 1
    endloop
  endfacet
  facet normal -0 0 1
    outer loop
      vertex 1 82 1
      vertex 6 79 1
      vertex 6 82 1
    endloop
  endfacet
  facet normal 0 0 1
    outer loop
      vertex 6 79 1
      vertex 1 82 1
      vertex 6 56 1
    endloop
  endfacet
  facet normal 0 0 1
    outer loop
      vertex 1 53 1
      vertex 6 56 1
      vertex 1 82 1
    endloop
  endfacet
  facet normal 0 0 1
    outer loop
      vertex 6 56 1
      vertex 1 53 1
      vertex 6 53 1
    endloop
  endfacet
  facet normal -0 0 1
    outer loop
      vertex 6 48 1
      vertex 7 25 1
      vertex 7 48 1
    endloop
  endfacet
  facet normal 0 0 1
    outer loop
      vertex 7 25 1
      vertex 6 48 1
      vertex 6 25 1
    endloop
  endfacet
  facet normal -0 0 1
    outer loop
      vertex 6 79 1
      vertex 7 56 1
      vertex 7 79 1
    endloop
  endfacet
  facet normal 0 0 1
    outer loop
      vertex 7 56 1
      vertex 6 79 1
      vertex 6 56 1
    endloop
  endfacet
  facet normal 0 0 1
    outer loop
      vertex 39 103 1
      vertex 37 99 1
      vertex 39 99 1
    endloop
  endfacet
  facet normal 0 0 1
    outer loop
      vertex 15 97 1
      vertex 37 97 1
      vertex 37 99 1
    endloop
  endfacet
  facet normal 0 0 1
    outer loop
      vertex 15 97 1
      vertex 37 99 1
      vertex 15 99 1
    endloop
  endfacet
  facet normal 0 0 1
    outer loop
      vertex 39 103 1
      vertex 15 99 1
      vertex 37 99 1
    endloop
  endfacet
  facet normal -0 0 1
    outer loop
      vertex 13 103 1
      vertex 15 99 1
      vertex 39 103 1
    endloop
  endfacet
  facet normal 0 0 1
    outer loop
      vertex 15 99 1
      vertex 13 103 1
      vertex 13 99 1
    endloop
  endfacet
  facet normal 0 0 1
    outer loop
      vertex 37 97 1
      vertex 15 97 1
      vertex 7 79 1
    endloop
  endfacet
  facet normal 0 0 1
    outer loop
      vertex 7 79 1
      vertex 15 97 1
      vertex 7 97 1
    endloop
  endfacet
  facet normal 0 0 1
    outer loop
      vertex 37 97 1
      vertex 7 79 1
      vertex 7 56 1
    endloop
  endfacet
  facet normal 0 0 1
    outer loop
      vertex 37 97 1
      vertex 7 56 1
      vertex 7 48 1
    endloop
  endfacet
  facet normal 0 -0 1
    outer loop
      vertex 16 7 1
      vertex 38 7 1
      vertex 7 25 1
    endloop
  endfacet
  facet normal 0 0 1
    outer loop
      vertex 38 7 1
      vertex 16 7 1
      vertex 38 5 1
    endloop
  endfacet
  facet normal 0 0 1
    outer loop
      vertex 16 7 1
      vertex 7 25 1
      vertex 7 7 1
    endloop
  endfacet
  facet normal 0 1 -0
    outer loop
      vertex 6 53 1
      vertex 1 53 36
      vertex 6 53 36
    endloop
  endfacet
  facet normal 0 1 0
    outer loop
      vertex 1 53 36
      vertex 6 53 1
      vertex 1 53 1
    endloop
  endfacet
  facet normal 0 -1 0
    outer loop
      vertex 1 82 1
      vertex 6 82 36
      vertex 1 82 36
    endloop
  endfacet
  facet normal 0 -1 -0
    outer loop
      vertex 6 82 36
      vertex 1 82 1
      vertex 6 82 1
    endloop
  endfacet
  facet normal 0 1 -0
    outer loop
      vertex 7 56 1
      vertex 6 56 36
      vertex 7 56 36
    endloop
  endfacet
  facet normal 0 1 0
    outer loop
      vertex 6 56 36
      vertex 7 56 1
      vertex 6 56 1
    endloop
  endfacet
  facet normal 0 -1 0
    outer loop
      vertex 6 79 1
      vertex 7 79 36
      vertex 6 79 36
    endloop
  endfacet
  facet normal 0 -1 -0
    outer loop
      vertex 7 79 36
      vertex 6 79 1
      vertex 7 79 1
    endloop
  endfacet
  facet normal 1 -0 0
    outer loop
      vertex 1 22 36
      vertex 1 51 1
      vertex 1 51 36
    endloop
  endfacet
  facet normal 1 0 0
    outer loop
      vertex 1 51 1
      vertex 1 22 36
      vertex 1 22 1
    endloop
  endfacet
  facet normal -1 0 0
    outer loop
      vertex 6 22 1
      vertex 6 25 36
      vertex 6 25 1
    endloop
  endfacet
  facet normal -1 -0 0
    outer loop
      vertex 6 25 36
      vertex 6 22 1
      vertex 6 22 36
    endloop
  endfacet
  facet normal -1 0 0
    outer loop
      vertex 6 48 1
      vertex 6 51 36
      vertex 6 51 1
    endloop
  endfacet
  facet normal -1 -0 0
    outer loop
      vertex 6 51 36
      vertex 6 48 1
      vertex 6 48 36
    endloop
  endfacet
  facet normal 0 -1 0
    outer loop
      vertex 1 51 1
      vertex 6 51 36
      vertex 1 51 36
    endloop
  endfacet
  facet normal 0 -1 -0
    outer loop
      vertex 6 51 36
      vertex 1 51 1
      vertex 6 51 1
    endloop
  endfacet
  facet normal 0 1 -0
    outer loop
      vertex 6 22 1
      vertex 1 22 36
      vertex 6 22 36
    endloop
  endfacet
  facet normal 0 1 0
    outer loop
      vertex 1 22 36
      vertex 6 22 1
      vertex 1 22 1
    endloop
  endfacet
  facet normal 0 1 -0
    outer loop
      vertex 7 25 1
      vertex 6 25 36
      vertex 7 25 36
    endloop
  endfacet
  facet normal 0 1 0
    outer loop
      vertex 6 25 36
      vertex 7 25 1
      vertex 6 25 1
    endloop
  endfacet
  facet normal 0 -1 0
    outer loop
      vertex 6 48 1
      vertex 7 48 36
      vertex 6 48 36
    endloop
  endfacet
  facet normal 0 -1 -0
    outer loop
      vertex 7 48 36
      vertex 6 48 1
      vertex 7 48 1
    endloop
  endfacet
  facet normal -1 0 0
    outer loop
      vertex 103 22 1
      vertex 103 51 36
      vertex 103 51 1
    endloop
  endfacet
  facet normal -1 -0 0
    outer loop
      vertex 103 51 36
      vertex 103 22 1
      vertex 103 22 36
    endloop
  endfacet
  facet normal 1 -0 0
    outer loop
      vertex 98 48 36
      vertex 98 51 1
      vertex 98 51 36
    endloop
  endfacet
  facet normal 1 0 0
    outer loop
      vertex 98 51 1
      vertex 98 48 36
      vertex 98 48 1
    endloop
  endfacet
  facet normal 1 -0 0
    outer loop
      vertex 98 22 36
      vertex 98 25 1
      vertex 98 25 36
    endloop
  endfacet
  facet normal 1 0 0
    outer loop
      vertex 98 25 1
      vertex 98 22 36
      vertex 98 22 1
    endloop
  endfacet
  facet normal 0 1 -0
    outer loop
      vertex 103 22 1
      vertex 98 22 36
      vertex 103 22 36
    endloop
  endfacet
  facet normal 0 1 0
    outer loop
      vertex 98 22 36
      vertex 103 22 1
      vertex 98 22 1
    endloop
  endfacet
  facet normal 0 -1 0
    outer loop
      vertex 98 51 1
      vertex 103 51 36
      vertex 98 51 36
    endloop
  endfacet
  facet normal 0 -1 -0
    outer loop
      vertex 103 51 36
      vertex 98 51 1
      vertex 103 51 1
    endloop
  endfacet
  facet normal 0 -1 0
    outer loop
      vertex 97 48 1
      vertex 98 48 36
      vertex 97 48 36
    endloop
  endfacet
  facet normal 0 -1 -0
    outer loop
      vertex 98 48 36
      vertex 97 48 1
      vertex 98 48 1
    endloop
  endfacet
  facet normal 0 1 -0
    outer loop
      vertex 98 25 1
      vertex 97 25 36
      vertex 98 25 36
    endloop
  endfacet
  facet normal 0 1 0
    outer loop
      vertex 97 25 36
      vertex 98 25 1
      vertex 97 25 1
    endloop
  endfacet
  facet normal -1 0 0
    outer loop
      vertex 103 53 1
      vertex 103 82 36
      vertex 103 82 1
    endloop
  endfacet
  facet normal -1 -0 0
    outer loop
      vertex 103 82 36
      vertex 103 53 1
      vertex 103 53 36
    endloop
  endfacet
  facet normal 1 -0 0
    outer loop
      vertex 98 79 36
      vertex 98 82 1
      vertex 98 82 36
    endloop
  endfacet
  facet normal 1 0 0
    outer loop
      vertex 98 82 1
      vertex 98 79 36
      vertex 98 79 1
    endloop
  endfacet
  facet normal 1 -0 0
    outer loop
      vertex 98 53 36
      vertex 98 56 1
      vertex 98 56 36
    endloop
  endfacet
  facet normal 1 0 0
    outer loop
      vertex 98 56 1
      vertex 98 53 36
      vertex 98 53 1
    endloop
  endfacet
  facet normal 0 -1 0
    outer loop
      vertex 98 82 1
      vertex 103 82 36
      vertex 98 82 36
    endloop
  endfacet
  facet normal 0 -1 -0
    outer loop
      vertex 103 82 36
      vertex 98 82 1
      vertex 103 82 1
    endloop
  endfacet
  facet normal 0 1 -0
    outer loop
      vertex 103 53 1
      vertex 98 53 36
      vertex 103 53 36
    endloop
  endfacet
  facet normal 0 1 0
    outer loop
      vertex 98 53 36
      vertex 103 53 1
      vertex 98 53 1
    endloop
  endfacet
  facet normal 0 -1 0
    outer loop
      vertex 97 79 1
      vertex 98 79 36
      vertex 97 79 36
    endloop
  endfacet
  facet normal 0 -1 -0
    outer loop
      vertex 98 79 36
      vertex 97 79 1
      vertex 98 79 1
    endloop
  endfacet
  facet normal 0 1 -0
    outer loop
      vertex 98 56 1
      vertex 97 56 36
      vertex 98 56 36
    endloop
  endfacet
  facet normal 0 1 0
    outer loop
      vertex 97 56 36
      vertex 98 56 1
      vertex 97 56 1
    endloop
  endfacet
  facet normal 0 1 -0
    outer loop
      vertex 40 1 1
      vertex 14 1 36
      vertex 40 1 36
    endloop
  endfacet
  facet normal 0 1 0
    outer loop
      vertex 14 1 36
      vertex 40 1 1
      vertex 14 1 1
    endloop
  endfacet
  facet normal 0 -1 0
    outer loop
      vertex 38 5 1
      vertex 40 5 36
      vertex 38 5 36
    endloop
  endfacet
  facet normal 0 -1 -0
    outer loop
      vertex 40 5 36
      vertex 38 5 1
      vertex 40 5 1
    endloop
  endfacet
  facet normal 0 -1 0
    outer loop
      vertex 14 5 1
      vertex 16 5 36
      vertex 14 5 36
    endloop
  endfacet
  facet normal 0 -1 -0
    outer loop
      vertex 16 5 36
      vertex 14 5 1
      vertex 16 5 1
    endloop
  endfacet
  facet normal 1 -0 0
    outer loop
      vertex 14 1 36
      vertex 14 5 1
      vertex 14 5 36
    endloop
  endfacet
  facet normal 1 0 0
    outer loop
      vertex 14 5 1
      vertex 14 1 36
      vertex 14 1 1
    endloop
  endfacet
  facet normal -1 0 0
    outer loop
      vertex 40 1 1
      vertex 40 5 36
      vertex 40 5 1
    endloop
  endfacet
  facet normal -1 -0 0
    outer loop
      vertex 40 5 36
      vertex 40 1 1
      vertex 40 1 36
    endloop
  endfacet
  facet normal 1 -0 0
    outer loop
      vertex 16 5 36
      vertex 16 7 1
      vertex 16 7 36
    endloop
  endfacet
  facet normal 1 0 0
    outer loop
      vertex 16 7 1
      vertex 16 5 36
      vertex 16 5 1
    endloop
  endfacet
  facet normal -1 0 0
    outer loop
      vertex 38 5 1
      vertex 38 7 36
      vertex 38 7 1
    endloop
  endfacet
  facet normal -1 -0 0
    outer loop
      vertex 38 7 36
      vertex 38 5 1
      vertex 38 5 36
    endloop
  endfacet
  facet normal 0 1 -0
    outer loop
      vertex 66.5 1 1
      vertex 40.5 1 36
      vertex 66.5 1 36
    endloop
  endfacet
  facet normal 0 1 0
    outer loop
      vertex 40.5 1 36
      vertex 66.5 1 1
      vertex 40.5 1 1
    endloop
  endfacet
  facet normal 0 -1 0
    outer loop
      vertex 64.5 5 1
      vertex 66.5 5 36
      vertex 64.5 5 36
    endloop
  endfacet
  facet normal 0 -1 -0
    outer loop
      vertex 66.5 5 36
      vertex 64.5 5 1
      vertex 66.5 5 1
    endloop
  endfacet
  facet normal 0 -1 0
    outer loop
      vertex 40.5 5 1
      vertex 42.5 5 36
      vertex 40.5 5 36
    endloop
  endfacet
  facet normal 0 -1 -0
    outer loop
      vertex 42.5 5 36
      vertex 40.5 5 1
      vertex 42.5 5 1
    endloop
  endfacet
  facet normal -1 0 0
    outer loop
      vertex 66.5 1 1
      vertex 66.5 5 36
      vertex 66.5 5 1
    endloop
  endfacet
  facet normal -1 -0 0
    outer loop
      vertex 66.5 5 36
      vertex 66.5 1 1
      vertex 66.5 1 36
    endloop
  endfacet
  facet normal 1 -0 0
    outer loop
      vertex 40.5 1 36
      vertex 40.5 5 1
      vertex 40.5 5 36
    endloop
  endfacet
  facet normal 1 0 0
    outer loop
      vertex 40.5 5 1
      vertex 40.5 1 36
      vertex 40.5 1 1
    endloop
  endfacet
  facet normal 1 -0 0
    outer loop
      vertex 42.5 5 36
      vertex 42.5 7 1
      vertex 42.5 7 36
    endloop
  endfacet
  facet normal 1 0 0
    outer loop
      vertex 42.5 7 1
      vertex 42.5 5 36
      vertex 42.5 5 1
    endloop
  endfacet
  facet normal -1 0 0
    outer loop
      vertex 64.5 5 1
      vertex 64.5 7 36
      vertex 64.5 7 1
    endloop
  endfacet
  facet normal -1 -0 0
    outer loop
      vertex 64.5 7 36
      vertex 64.5 5 1
      vertex 64.5 5 36
    endloop
  endfacet
  facet normal 0 1 -0
    outer loop
      vertex 94 1 1
      vertex 68 1 36
      vertex 94 1 36
    endloop
  endfacet
  facet normal 0 1 0
    outer loop
      vertex 68 1 36
      vertex 94 1 1
      vertex 68 1 1
    endloop
  endfacet
  facet normal 0 -1 0
    outer loop
      vertex 92 5 1
      vertex 94 5 36
      vertex 92 5 36
    endloop
  endfacet
  facet normal 0 -1 -0
    outer loop
      vertex 94 5 36
      vertex 92 5 1
      vertex 94 5 1
    endloop
  endfacet
  facet normal 0 -1 0
    outer loop
      vertex 68 5 1
      vertex 70 5 36
      vertex 68 5 36
    endloop
  endfacet
  facet normal 0 -1 -0
    outer loop
      vertex 70 5 36
      vertex 68 5 1
      vertex 70 5 1
    endloop
  endfacet
  facet normal -1 0 0
    outer loop
      vertex 94 1 1
      vertex 94 5 36
      vertex 94 5 1
    endloop
  endfacet
  facet normal -1 -0 0
    outer loop
      vertex 94 5 36
      vertex 94 1 1
      vertex 94 1 36
    endloop
  endfacet
  facet normal 1 -0 0
    outer loop
      vertex 68 1 36
      vertex 68 5 1
      vertex 68 5 36
    endloop
  endfacet
  facet normal 1 0 0
    outer loop
      vertex 68 5 1
      vertex 68 1 36
      vertex 68 1 1
    endloop
  endfacet
  facet normal 1 -0 0
    outer loop
      vertex 70 5 36
      vertex 70 7 1
      vertex 70 7 36
    endloop
  endfacet
  facet normal 1 0 0
    outer loop
      vertex 70 7 1
      vertex 70 5 36
      vertex 70 5 1
    endloop
  endfacet
  facet normal -1 0 0
    outer loop
      vertex 92 5 1
      vertex 92 7 36
      vertex 92 7 1
    endloop
  endfacet
  facet normal -1 -0 0
    outer loop
      vertex 92 7 36
      vertex 92 5 1
      vertex 92 5 36
    endloop
  endfacet
  facet normal 0 -1 0
    outer loop
      vertex 40 103 1
      vertex 66 103 36
      vertex 40 103 36
    endloop
  endfacet
  facet normal 0 -1 -0
    outer loop
      vertex 66 103 36
      vertex 40 103 1
      vertex 66 103 1
    endloop
  endfacet
  facet normal 0 1 -0
    outer loop
      vertex 42 99 1
      vertex 40 99 36
      vertex 42 99 36
    endloop
  endfacet
  facet normal 0 1 0
    outer loop
      vertex 40 99 36
      vertex 42 99 1
      vertex 40 99 1
    endloop
  endfacet
  facet normal 0 1 -0
    outer loop
      vertex 66 99 1
      vertex 64 99 36
      vertex 66 99 36
    endloop
  endfacet
  facet normal 0 1 0
    outer loop
      vertex 64 99 36
      vertex 66 99 1
      vertex 64 99 1
    endloop
  endfacet
  facet normal 1 -0 0
    outer loop
      vertex 40 99 36
      vertex 40 103 1
      vertex 40 103 36
    endloop
  endfacet
  facet normal 1 0 0
    outer loop
      vertex 40 103 1
      vertex 40 99 36
      vertex 40 99 1
    endloop
  endfacet
  facet normal -1 0 0
    outer loop
      vertex 66 99 1
      vertex 66 103 36
      vertex 66 103 1
    endloop
  endfacet
  facet normal -1 -0 0
    outer loop
      vertex 66 103 36
      vertex 66 99 1
      vertex 66 99 36
    endloop
  endfacet
  facet normal 1 -0 0
    outer loop
      vertex 42 97 36
      vertex 42 99 1
      vertex 42 99 36
    endloop
  endfacet
  facet normal 1 0 0
    outer loop
      vertex 42 99 1
      vertex 42 97 36
      vertex 42 97 1
    endloop
  endfacet
  facet normal -1 0 0
    outer loop
      vertex 64 97 1
      vertex 64 99 36
      vertex 64 99 1
    endloop
  endfacet
  facet normal -1 -0 0
    outer loop
      vertex 64 99 36
      vertex 64 97 1
      vertex 64 97 36
    endloop
  endfacet
  facet normal 0 -1 0
    outer loop
      vertex 66.5 103 1
      vertex 92.5 103 36
      vertex 66.5 103 36
    endloop
  endfacet
  facet normal 0 -1 -0
    outer loop
      vertex 92.5 103 36
      vertex 66.5 103 1
      vertex 92.5 103 1
    endloop
  endfacet
  facet normal 0 1 -0
    outer loop
      vertex 68.5 99 1
      vertex 66.5 99 36
      vertex 68.5 99 36
    endloop
  endfacet
  facet normal 0 1 0
    outer loop
      vertex 66.5 99 36
      vertex 68.5 99 1
      vertex 66.5 99 1
    endloop
  endfacet
  facet normal 0 1 -0
    outer loop
      vertex 92.5 99 1
      vertex 90.5 99 36
      vertex 92.5 99 36
    endloop
  endfacet
  facet normal 0 1 0
    outer loop
      vertex 90.5 99 36
      vertex 92.5 99 1
      vertex 90.5 99 1
    endloop
  endfacet
  facet normal -1 0 0
    outer loop
      vertex 92.5 99 1
      vertex 92.5 103 36
      vertex 92.5 103 1
    endloop
  endfacet
  facet normal -1 -0 0
    outer loop
      vertex 92.5 103 36
      vertex 92.5 99 1
      vertex 92.5 99 36
    endloop
  endfacet
  facet normal 1 -0 0
    outer loop
      vertex 66.5 99 36
      vertex 66.5 103 1
      vertex 66.5 103 36
    endloop
  endfacet
  facet normal 1 0 0
    outer loop
      vertex 66.5 103 1
      vertex 66.5 99 36
      vertex 66.5 99 1
    endloop
  endfacet
  facet normal 1 -0 0
    outer loop
      vertex 68.5 97 36
      vertex 68.5 99 1
      vertex 68.5 99 36
    endloop
  endfacet
  facet normal 1 0 0
    outer loop
      vertex 68.5 99 1
      vertex 68.5 97 36
      vertex 68.5 97 1
    endloop
  endfacet
  facet normal -1 0 0
    outer loop
      vertex 90.5 97 1
      vertex 90.5 99 36
      vertex 90.5 99 1
    endloop
  endfacet
  facet normal -1 -0 0
    outer loop
      vertex 90.5 99 36
      vertex 90.5 97 1
      vertex 90.5 97 36
    endloop
  endfacet
  facet normal 0 -1 0
    outer loop
      vertex 13 103 1
      vertex 39 103 36
      vertex 13 103 36
    endloop
  endfacet
  facet normal 0 -1 -0
    outer loop
      vertex 39 103 36
      vertex 13 103 1
      vertex 39 103 1
    endloop
  endfacet
  facet normal 0 1 -0
    outer loop
      vertex 15 99 1
      vertex 13 99 36
      vertex 15 99 36
    endloop
  endfacet
  facet normal 0 1 0
    outer loop
      vertex 13 99 36
      vertex 15 99 1
      vertex 13 99 1
    endloop
  endfacet
  facet normal 0 1 -0
    outer loop
      vertex 39 99 1
      vertex 37 99 36
      vertex 39 99 36
    endloop
  endfacet
  facet normal 0 1 0
    outer loop
      vertex 37 99 36
      vertex 39 99 1
      vertex 37 99 1
    endloop
  endfacet
  facet normal -1 0 0
    outer loop
      vertex 39 99 1
      vertex 39 103 36
      vertex 39 103 1
    endloop
  endfacet
  facet normal -1 -0 0
    outer loop
      vertex 39 103 36
      vertex 39 99 1
      vertex 39 99 36
    endloop
  endfacet
  facet normal 1 -0 0
    outer loop
      vertex 13 99 36
      vertex 13 103 1
      vertex 13 103 36
    endloop
  endfacet
  facet normal 1 0 0
    outer loop
      vertex 13 103 1
      vertex 13 99 36
      vertex 13 99 1
    endloop
  endfacet
  facet normal 1 -0 0
    outer loop
      vertex 15 97 36
      vertex 15 99 1
      vertex 15 99 36
    endloop
  endfacet
  facet normal 1 0 0
    outer loop
      vertex 15 99 1
      vertex 15 97 36
      vertex 15 97 1
    endloop
  endfacet
  facet normal -1 0 0
    outer loop
      vertex 37 97 1
      vertex 37 99 36
      vertex 37 99 1
    endloop
  endfacet
  facet normal -1 -0 0
    outer loop
      vertex 37 99 36
      vertex 37 97 1
      vertex 37 97 36
    endloop
  endfacet
  facet normal -1 0 0
    outer loop
      vertex 0 0 0
      vertex 0 104 36
      vertex 0 104 0
    endloop
  endfacet
  facet normal -1 -0 0
    outer loop
      vertex 0 104 36
      vertex 0 0 0
      vertex 0 0 36
    endloop
  endfacet
  facet normal 0 0 1
    outer loop
      vertex 6 22 36
      vertex 7 25 36
      vertex 6 25 36
    endloop
  endfacet
  facet normal 0 0 1
    outer loop
      vertex 16 7 36
      vertex 14 5 36
      vertex 16 5 36
    endloop
  endfacet
  facet normal 0 0 1
    outer loop
      vertex 14 5 36
      vertex 7 7 36
      vertex 14 1 36
    endloop
  endfacet
  facet normal -0 0 1
    outer loop
      vertex 7 7 36
      vertex 14 5 36
      vertex 16 7 36
    endloop
  endfacet
  facet normal 0 0 1
    outer loop
      vertex 42.5 7 36
      vertex 40.5 5 36
      vertex 42.5 5 36
    endloop
  endfacet
  facet normal 0 0 1
    outer loop
      vertex 40.5 5 36
      vertex 40 5 36
      vertex 40.5 1 36
    endloop
  endfacet
  facet normal 0 0 1
    outer loop
      vertex 42.5 7 36
      vertex 40 5 36
      vertex 40.5 5 36
    endloop
  endfacet
  facet normal -0 0 1
    outer loop
      vertex 38 7 36
      vertex 40 5 36
      vertex 42.5 7 36
    endloop
  endfacet
  facet normal 0 0 1
    outer loop
      vertex 40 5 36
      vertex 38 7 36
      vertex 38 5 36
    endloop
  endfacet
  facet normal 0 0 1
    outer loop
      vertex 70 7 36
      vertex 68 5 36
      vertex 70 5 36
    endloop
  endfacet
  facet normal 0 0 1
    outer loop
      vertex 68 5 36
      vertex 66.5 5 36
      vertex 68 1 36
    endloop
  endfacet
  facet normal 0 0 1
    outer loop
      vertex 70 7 36
      vertex 66.5 5 36
      vertex 68 5 36
    endloop
  endfacet
  facet normal -0 0 1
    outer loop
      vertex 64.5 7 36
      vertex 66.5 5 36
      vertex 70 7 36
    endloop
  endfacet
  facet normal 0 0 1
    outer loop
      vertex 66.5 5 36
      vertex 64.5 7 36
      vertex 64.5 5 36
    endloop
  endfacet
  facet normal -0 0 1
    outer loop
      vertex 92 7 36
      vertex 94 5 36
      vertex 97 7 36
    endloop
  endfacet
  facet normal 0 0 1
    outer loop
      vertex 94 5 36
      vertex 92 7 36
      vertex 92 5 36
    endloop
  endfacet
  facet normal 0 0 1
    outer loop
      vertex 98 82 36
      vertex 97 79 36
      vertex 98 79 36
    endloop
  endfacet
  facet normal -0 0 1
    outer loop
      vertex 92.5 99 36
      vertex 97 97 36
      vertex 92.5 103 36
    endloop
  endfacet
  facet normal 0 0 1
    outer loop
      vertex 90.5 97 36
      vertex 92.5 99 36
      vertex 90.5 99 36
    endloop
  endfacet
  facet normal 0 0 1
    outer loop
      vertex 92.5 99 36
      vertex 90.5 97 36
      vertex 97 97 36
    endloop
  endfacet
  facet normal 0 0 1
    outer loop
      vertex 98 25 36
      vertex 97 25 36
      vertex 98 22 36
    endloop
  endfacet
  facet normal -0 0 1
    outer loop
      vertex 97 56 36
      vertex 98 53 36
      vertex 98 56 36
    endloop
  endfacet
  facet normal 0 0 1
    outer loop
      vertex 98 53 36
      vertex 97 56 36
      vertex 98 51 36
    endloop
  endfacet
  facet normal 0 0 1
    outer loop
      vertex 97 48 36
      vertex 98 51 36
      vertex 97 56 36
    endloop
  endfacet
  facet normal 0 0 1
    outer loop
      vertex 98 51 36
      vertex 97 48 36
      vertex 98 48 36
    endloop
  endfacet
  facet normal -0 0 1
    outer loop
      vertex 98 53 36
      vertex 103 51 36
      vertex 103 53 36
    endloop
  endfacet
  facet normal 0 0 1
    outer loop
      vertex 103 51 36
      vertex 98 53 36
      vertex 98 51 36
    endloop
  endfacet
  facet normal 0 0 1
    outer loop
      vertex 103 53 36
      vertex 104 104 36
      vertex 103 82 36
    endloop
  endfacet
  facet normal -0 0 1
    outer loop
      vertex 97 97 36
      vertex 103 82 36
      vertex 104 104 36
    endloop
  endfacet
  facet normal 0 0 1
    outer loop
      vertex 97 79 36
      vertex 98 82 36
      vertex 97 97 36
    endloop
  endfacet
  facet normal 0 0 1
    outer loop
      vertex 103 82 36
      vertex 97 97 36
      vertex 98 82 36
    endloop
  endfacet
  facet normal 0 0 1
    outer loop
      vertex 104 104 36
      vertex 92.5 103 36
      vertex 97 97 36
    endloop
  endfacet
  facet normal 0 0 1
    outer loop
      vertex 104 104 36
      vertex 66.5 103 36
      vertex 92.5 103 36
    endloop
  endfacet
  facet normal 0 0 1
    outer loop
      vertex 66.5 103 36
      vertex 66 103 36
      vertex 66.5 99 36
    endloop
  endfacet
  facet normal 0 0 1
    outer loop
      vertex 104 104 36
      vertex 66 103 36
      vertex 66.5 103 36
    endloop
  endfacet
  facet normal 0 0 1
    outer loop
      vertex 104 104 36
      vertex 40 103 36
      vertex 66 103 36
    endloop
  endfacet
  facet normal 0 0 1
    outer loop
      vertex 40 103 36
      vertex 39 103 36
      vertex 40 99 36
    endloop
  endfacet
  facet normal -0 0 1
    outer loop
      vertex 0 104 36
      vertex 40 103 36
      vertex 104 104 36
    endloop
  endfacet
  facet normal 0 0 1
    outer loop
      vertex 40 103 36
      vertex 0 104 36
      vertex 39 103 36
    endloop
  endfacet
  facet normal 0 0 1
    outer loop
      vertex 13 103 36
      vertex 7 97 36
      vertex 13 99 36
    endloop
  endfacet
  facet normal 0 0 1
    outer loop
      vertex 7 97 36
      vertex 6 82 36
      vertex 7 79 36
    endloop
  endfacet
  facet normal 0 0 1
    outer loop
      vertex 7 97 36
      vertex 1 82 36
      vertex 6 82 36
    endloop
  endfacet
  facet normal 0 0 1
    outer loop
      vertex 0 104 36
      vertex 1 53 36
      vertex 1 82 36
    endloop
  endfacet
  facet normal 0 0 1
    outer loop
      vertex 1 53 36
      vertex 0 104 36
      vertex 1 51 36
    endloop
  endfacet
  facet normal 0 0 1
    outer loop
      vertex 0 0 36
      vertex 1 51 36
      vertex 0 104 36
    endloop
  endfacet
  facet normal 0 0 1
    outer loop
      vertex 7 97 36
      vertex 0 104 36
      vertex 1 82 36
    endloop
  endfacet
  facet normal 0 0 1
    outer loop
      vertex 13 103 36
      vertex 0 104 36
      vertex 7 97 36
    endloop
  endfacet
  facet normal 0 0 1
    outer loop
      vertex 39 103 36
      vertex 0 104 36
      vertex 13 103 36
    endloop
  endfacet
  facet normal 0 0 1
    outer loop
      vertex 104 104 36
      vertex 103 53 36
      vertex 104 0 36
    endloop
  endfacet
  facet normal -0 0 1
    outer loop
      vertex 103 51 36
      vertex 104 0 36
      vertex 103 53 36
    endloop
  endfacet
  facet normal -0 0 1
    outer loop
      vertex 103 22 36
      vertex 104 0 36
      vertex 103 51 36
    endloop
  endfacet
  facet normal 0 0 1
    outer loop
      vertex 97 7 36
      vertex 103 22 36
      vertex 98 22 36
    endloop
  endfacet
  facet normal 0 0 1
    outer loop
      vertex 97 7 36
      vertex 98 22 36
      vertex 97 25 36
    endloop
  endfacet
  facet normal 0 0 1
    outer loop
      vertex 103 22 36
      vertex 97 7 36
      vertex 104 0 36
    endloop
  endfacet
  facet normal 0 0 1
    outer loop
      vertex 94 1 36
      vertex 97 7 36
      vertex 94 5 36
    endloop
  endfacet
  facet normal 0 0 1
    outer loop
      vertex 97 7 36
      vertex 94 1 36
      vertex 104 0 36
    endloop
  endfacet
  facet normal -0 0 1
    outer loop
      vertex 68 1 36
      vertex 104 0 36
      vertex 94 1 36
    endloop
  endfacet
  facet normal 0 0 1
    outer loop
      vertex 66.5 1 36
      vertex 68 1 36
      vertex 66.5 5 36
    endloop
  endfacet
  facet normal -0 0 1
    outer loop
      vertex 66.5 1 36
      vertex 104 0 36
      vertex 68 1 36
    endloop
  endfacet
  facet normal -0 0 1
    outer loop
      vertex 40.5 1 36
      vertex 104 0 36
      vertex 66.5 1 36
    endloop
  endfacet
  facet normal 0 0 1
    outer loop
      vertex 40 1 36
      vertex 40.5 1 36
      vertex 40 5 36
    endloop
  endfacet
  facet normal -0 0 1
    outer loop
      vertex 40 1 36
      vertex 104 0 36
      vertex 40.5 1 36
    endloop
  endfacet
  facet normal 0 0 1
    outer loop
      vertex 0 0 36
      vertex 40 1 36
      vertex 14 1 36
    endloop
  endfacet
  facet normal 0 0 1
    outer loop
      vertex 7 25 36
      vertex 6 22 36
      vertex 7 7 36
    endloop
  endfacet
  facet normal -0 0 1
    outer loop
      vertex 1 22 36
      vertex 7 7 36
      vertex 6 22 36
    endloop
  endfacet
  facet normal 0 0 1
    outer loop
      vertex 40 1 36
      vertex 0 0 36
      vertex 104 0 36
    endloop
  endfacet
  facet normal 0 0 1
    outer loop
      vertex 7 7 36
      vertex 0 0 36
      vertex 14 1 36
    endloop
  endfacet
  facet normal 0 0 1
    outer loop
      vertex 1 22 36
      vertex 0 0 36
      vertex 7 7 36
    endloop
  endfacet
  facet normal 0 0 1
    outer loop
      vertex 1 51 36
      vertex 0 0 36
      vertex 1 22 36
    endloop
  endfacet
  facet normal -0 0 1
    outer loop
      vertex 66.5 99 36
      vertex 68.5 97 36
      vertex 68.5 99 36
    endloop
  endfacet
  facet normal 0 0 1
    outer loop
      vertex 66 99 36
      vertex 66.5 99 36
      vertex 66 103 36
    endloop
  endfacet
  facet normal -0 0 1
    outer loop
      vertex 66 99 36
      vertex 68.5 97 36
      vertex 66.5 99 36
    endloop
  endfacet
  facet normal 0 0 1
    outer loop
      vertex 64 97 36
      vertex 66 99 36
      vertex 64 99 36
    endloop
  endfacet
  facet normal 0 0 1
    outer loop
      vertex 66 99 36
      vertex 64 97 36
      vertex 68.5 97 36
    endloop
  endfacet
  facet normal -0 0 1
    outer loop
      vertex 40 99 36
      vertex 42 97 36
      vertex 42 99 36
    endloop
  endfacet
  facet normal 0 0 1
    outer loop
      vertex 39 99 36
      vertex 40 99 36
      vertex 39 103 36
    endloop
  endfacet
  facet normal -0 0 1
    outer loop
      vertex 39 99 36
      vertex 42 97 36
      vertex 40 99 36
    endloop
  endfacet
  facet normal 0 0 1
    outer loop
      vertex 37 97 36
      vertex 39 99 36
      vertex 37 99 36
    endloop
  endfacet
  facet normal 0 0 1
    outer loop
      vertex 39 99 36
      vertex 37 97 36
      vertex 42 97 36
    endloop
  endfacet
  facet normal -0 0 1
    outer loop
      vertex 13 99 36
      vertex 15 97 36
      vertex 15 99 36
    endloop
  endfacet
  facet normal 0 0 1
    outer loop
      vertex 15 97 36
      vertex 13 99 36
      vertex 7 97 36
    endloop
  endfacet
  facet normal 0 0 1
    outer loop
      vertex 7 79 36
      vertex 6 82 36
      vertex 6 79 36
    endloop
  endfacet
  facet normal -0 0 1
    outer loop
      vertex 1 53 36
      vertex 6 51 36
      vertex 6 53 36
    endloop
  endfacet
  facet normal 0 0 1
    outer loop
      vertex 6 51 36
      vertex 1 53 36
      vertex 1 51 36
    endloop
  endfacet
  facet normal 0 0 1
    outer loop
      vertex 6 53 36
      vertex 7 56 36
      vertex 6 56 36
    endloop
  endfacet
  facet normal 0 0 1
    outer loop
      vertex 7 56 36
      vertex 6 53 36
      vertex 7 48 36
    endloop
  endfacet
  facet normal -0 0 1
    outer loop
      vertex 6 51 36
      vertex 7 48 36
      vertex 6 53 36
    endloop
  endfacet
  facet normal 0 0 1
    outer loop
      vertex 7 48 36
      vertex 6 51 36
      vertex 6 48 36
    endloop
  endfacet
  facet normal 1 -0 0
    outer loop
      vertex 104 0 36
      vertex 104 104 0
      vertex 104 104 36
    endloop
  endfacet
  facet normal 1 0 0
    outer loop
      vertex 104 104 0
      vertex 104 0 36
      vertex 104 0 0
    endloop
  endfacet
  facet normal 0 1 -0
    outer loop
      vertex 104 104 0
      vertex 0 104 36
      vertex 104 104 36
    endloop
  endfacet
  facet normal 0 1 0
    outer loop
      vertex 0 104 36
      vertex 104 104 0
      vertex 0 104 0
    endloop
  endfacet
  facet normal 0 0 -1
    outer loop
      vertex 0 0 0
      vertex 104 104 0
      vertex 104 0 0
    endloop
  endfacet
  facet normal -0 0 -1
    outer loop
      vertex 104 104 0
      vertex 0 0 0
      vertex 0 104 0
    endloop
  endfacet
  facet normal 0 -1 0
    outer loop
      vertex 0 0 0
      vertex 104 0 36
      vertex 0 0 36
    endloop
  endfacet
  facet normal 0 -1 -0
    outer loop
      vertex 104 0 36
      vertex 0 0 0
      vertex 104 0 0
    endloop
  endfacet
  facet normal 1 -0 0
    outer loop
      vertex 7 7 36
      vertex 7 25 1
      vertex 7 25 36
    endloop
  endfacet
  facet normal 1 0 0
    outer loop
      vertex 7 25 1
      vertex 7 7 36
      vertex 7 7 1
    endloop
  endfacet
  facet normal 1 -0 0
    outer loop
      vertex 7 79 36
      vertex 7 97 1
      vertex 7 97 36
    endloop
  endfacet
  facet normal 1 0 0
    outer loop
      vertex 7 97 1
      vertex 7 79 36
      vertex 7 79 1
    endloop
  endfacet
  facet normal 1 -0 0
    outer loop
      vertex 7 48 36
      vertex 7 56 1
      vertex 7 56 36
    endloop
  endfacet
  facet normal 1 0 0
    outer loop
      vertex 7 56 1
      vertex 7 48 36
      vertex 7 48 1
    endloop
  endfacet
  facet normal -1 0 0
    outer loop
      vertex 97 79 1
      vertex 97 97 36
      vertex 97 97 1
    endloop
  endfacet
  facet normal -1 -0 0
    outer loop
      vertex 97 97 36
      vertex 97 79 1
      vertex 97 79 36
    endloop
  endfacet
  facet normal -1 0 0
    outer loop
      vertex 97 7 1
      vertex 97 25 36
      vertex 97 25 1
    endloop
  endfacet
  facet normal -1 -0 0
    outer loop
      vertex 97 25 36
      vertex 97 7 1
      vertex 97 7 36
    endloop
  endfacet
  facet normal -1 0 0
    outer loop
      vertex 97 48 1
      vertex 97 56 36
      vertex 97 56 1
    endloop
  endfacet
  facet normal -1 -0 0
    outer loop
      vertex 97 56 36
      vertex 97 48 1
      vertex 97 48 36
    endloop
  endfacet
  facet normal 0 1 -0
    outer loop
      vertex 16 7 1
      vertex 7 7 36
      vertex 16 7 36
    endloop
  endfacet
  facet normal 0 1 0
    outer loop
      vertex 7 7 36
      vertex 16 7 1
      vertex 7 7 1
    endloop
  endfacet
  facet normal 0 1 -0
    outer loop
      vertex 97 7 1
      vertex 92 7 36
      vertex 97 7 36
    endloop
  endfacet
  facet normal 0 1 0
    outer loop
      vertex 92 7 36
      vertex 97 7 1
      vertex 92 7 1
    endloop
  endfacet
  facet normal 0 1 -0
    outer loop
      vertex 42.5 7 1
      vertex 38 7 36
      vertex 42.5 7 36
    endloop
  endfacet
  facet normal 0 1 0
    outer loop
      vertex 38 7 36
      vertex 42.5 7 1
      vertex 38 7 1
    endloop
  endfacet
  facet normal 0 1 -0
    outer loop
      vertex 70 7 1
      vertex 64.5 7 36
      vertex 70 7 36
    endloop
  endfacet
  facet normal 0 1 0
    outer loop
      vertex 64.5 7 36
      vertex 70 7 1
      vertex 64.5 7 1
    endloop
  endfacet
  facet normal 0 -1 0
    outer loop
      vertex 90.5 97 1
      vertex 97 97 36
      vertex 90.5 97 36
    endloop
  endfacet
  facet normal 0 -1 -0
    outer loop
      vertex 97 97 36
      vertex 90.5 97 1
      vertex 97 97 1
    endloop
  endfacet
  facet normal 0 -1 0
    outer loop
      vertex 7 97 1
      vertex 15 97 36
      vertex 7 97 36
    endloop
  endfacet
  facet normal 0 -1 -0
    outer loop
      vertex 15 97 36
      vertex 7 97 1
      vertex 15 97 1
    endloop
  endfacet
  facet normal 0 -1 0
    outer loop
      vertex 37 97 1
      vertex 42 97 36
      vertex 37 97 36
    endloop
  endfacet
  facet normal 0 -1 -0
    outer loop
      vertex 42 97 36
      vertex 37 97 1
      vertex 42 97 1
    endloop
  endfacet
  facet normal 0 -1 0
    outer loop
      vertex 64 97 1
      vertex 68.5 97 36
      vertex 64 97 36
    endloop
  endfacet
  facet normal 0 -1 -0
    outer loop
      vertex 68.5 97 36
      vertex 64 97 1
      vertex 68.5 97 1
    endloop
  endfacet
endsolid OpenSCAD_Model
