solid OpenSCAD_Model
  facet normal -1 0 0
    outer loop
      vertex 0 67 0
      vertex 0 34 35
      vertex 0 67 35
    endloop
  endfacet
  facet normal -1 0 0
    outer loop
      vertex 0 34 35
      vertex 0 16 43
      vertex 0 34 43
    endloop
  endfacet
  facet normal -1 0 0
    outer loop
      vertex 0 0 0
      vertex 0 34 35
      vertex 0 67 0
    endloop
  endfacet
  facet normal -1 -0 0
    outer loop
      vertex 0 34 35
      vertex 0 0 0
      vertex 0 16 43
    endloop
  endfacet
  facet normal -1 0 0
    outer loop
      vertex 0 0 50
      vertex 0 16 43
      vertex 0 0 0
    endloop
  endfacet
  facet normal -1 0 0
    outer loop
      vertex 0 16 43
      vertex 0 0 50
      vertex 0 16 50
    endloop
  endfacet
  facet normal 0 0 1
    outer loop
      vertex 129 16 50
      vertex 128 15 50
      vertex 129 0 50
    endloop
  endfacet
  facet normal 0 0 1
    outer loop
      vertex 129 16 50
      vertex 1 15 50
      vertex 128 15 50
    endloop
  endfacet
  facet normal 0 0 1
    outer loop
      vertex 1 15 50
      vertex 0 16 50
      vertex 1 1 50
    endloop
  endfacet
  facet normal -0 0 1
    outer loop
      vertex 0 16 50
      vertex 1 15 50
      vertex 129 16 50
    endloop
  endfacet
  facet normal -0 0 1
    outer loop
      vertex 128 1 50
      vertex 129 0 50
      vertex 128 15 50
    endloop
  endfacet
  facet normal -0 0 1
    outer loop
      vertex 1 1 50
      vertex 129 0 50
      vertex 128 1 50
    endloop
  endfacet
  facet normal 0 0 1
    outer loop
      vertex 1 1 50
      vertex 0 0 50
      vertex 129 0 50
    endloop
  endfacet
  facet normal 0 0 1
    outer loop
      vertex 0 0 50
      vertex 1 1 50
      vertex 0 16 50
    endloop
  endfacet
  facet normal 1 -0 0
    outer loop
      vertex 129 0 50
      vertex 129 16 0
      vertex 129 16 50
    endloop
  endfacet
  facet normal 1 0 0
    outer loop
      vertex 129 16 0
      vertex 129 0 50
      vertex 129 0 0
    endloop
  endfacet
  facet normal 0 1 -0
    outer loop
      vertex 85 16 35
      vertex 1 16 43
      vertex 85 16 43
    endloop
  endfacet
  facet normal 0 1 0
    outer loop
      vertex 1 16 1
      vertex 85 16 35
      vertex 85 16 1
    endloop
  endfacet
  facet normal 0 1 0
    outer loop
      vertex 85 16 35
      vertex 1 16 1
      vertex 1 16 43
    endloop
  endfacet
  facet normal 0 1 0
    outer loop
      vertex 85 16 43
      vertex 129 16 50
      vertex 86 16 43
    endloop
  endfacet
  facet normal 0 1 0
    outer loop
      vertex 110 16 35
      vertex 129 16 50
      vertex 111 16 35
    endloop
  endfacet
  facet normal 0 1 -0
    outer loop
      vertex 129 16 0
      vertex 111 16 35
      vertex 129 16 50
    endloop
  endfacet
  facet normal 0 1 0
    outer loop
      vertex 111 16 35
      vertex 129 16 0
      vertex 111 16 0
    endloop
  endfacet
  facet normal 0 1 0
    outer loop
      vertex 129 16 50
      vertex 85 16 43
      vertex 0 16 50
    endloop
  endfacet
  facet normal 0 1 -0
    outer loop
      vertex 1 16 43
      vertex 0 16 50
      vertex 85 16 43
    endloop
  endfacet
  facet normal 0 1 0
    outer loop
      vertex 0 16 50
      vertex 1 16 43
      vertex 0 16 43
    endloop
  endfacet
  facet normal 0 1 0
    outer loop
      vertex 129 16 50
      vertex 110 16 35
      vertex 86 16 43
    endloop
  endfacet
  facet normal 0 1 0
    outer loop
      vertex 86 16 1
      vertex 110 16 35
      vertex 110 16 1
    endloop
  endfacet
  facet normal 0 1 0
    outer loop
      vertex 110 16 35
      vertex 86 16 1
      vertex 86 16 43
    endloop
  endfacet
  facet normal 0 0 -1
    outer loop
      vertex 129 0 0
      vertex 111 16 0
      vertex 129 16 0
    endloop
  endfacet
  facet normal 0 0 -1
    outer loop
      vertex 111 16 0
      vertex 85 60 0
      vertex 111 60 0
    endloop
  endfacet
  facet normal 0 0 -1
    outer loop
      vertex 0 0 0
      vertex 111 16 0
      vertex 129 0 0
    endloop
  endfacet
  facet normal 0 0 -1
    outer loop
      vertex 0 0 0
      vertex 85 60 0
      vertex 111 16 0
    endloop
  endfacet
  facet normal 0 0 -1
    outer loop
      vertex 0 67 0
      vertex 85 60 0
      vertex 0 0 0
    endloop
  endfacet
  facet normal 0 0 -1
    outer loop
      vertex 85 60 0
      vertex 0 67 0
      vertex 85 67 0
    endloop
  endfacet
  facet normal 0 -1 0
    outer loop
      vertex 0 0 0
      vertex 129 0 50
      vertex 0 0 50
    endloop
  endfacet
  facet normal 0 -1 -0
    outer loop
      vertex 129 0 50
      vertex 0 0 0
      vertex 129 0 0
    endloop
  endfacet
  facet normal 1 -0 0
    outer loop
      vertex 1 1 50
      vertex 1 15 43
      vertex 1 15 50
    endloop
  endfacet
  facet normal 1 0 0
    outer loop
      vertex 1 1 1
      vertex 1 15 43
      vertex 1 1 50
    endloop
  endfacet
  facet normal 1 0 0
    outer loop
      vertex 1 15 43
      vertex 1 1 1
      vertex 1 15 1
    endloop
  endfacet
  facet normal -1 0 0
    outer loop
      vertex 128 1 1
      vertex 128 15 50
      vertex 128 15 1
    endloop
  endfacet
  facet normal -1 -0 0
    outer loop
      vertex 128 15 50
      vertex 128 1 1
      vertex 128 1 50
    endloop
  endfacet
  facet normal 0 -1 0
    outer loop
      vertex 86 15 43
      vertex 1 15 50
      vertex 1 15 43
    endloop
  endfacet
  facet normal 0 -1 0
    outer loop
      vertex 1 15 50
      vertex 86 15 43
      vertex 128 15 50
    endloop
  endfacet
  facet normal 0 -1 0
    outer loop
      vertex 111 15 35
      vertex 86 15 43
      vertex 86 15 35
    endloop
  endfacet
  facet normal 0 -1 0
    outer loop
      vertex 86 15 43
      vertex 111 15 35
      vertex 128 15 50
    endloop
  endfacet
  facet normal 0 -1 0
    outer loop
      vertex 128 15 1
      vertex 111 15 35
      vertex 111 15 1
    endloop
  endfacet
  facet normal 0 -1 0
    outer loop
      vertex 111 15 35
      vertex 128 15 1
      vertex 128 15 50
    endloop
  endfacet
  facet normal 0 -1 0
    outer loop
      vertex 1 15 43
      vertex 86 15 35
      vertex 86 15 43
    endloop
  endfacet
  facet normal 0 -1 0
    outer loop
      vertex 1 15 1
      vertex 86 15 35
      vertex 1 15 43
    endloop
  endfacet
  facet normal 0 -1 0
    outer loop
      vertex 111 15 1
      vertex 86 15 35
      vertex 1 15 1
    endloop
  endfacet
  facet normal 0 -1 0
    outer loop
      vertex 86 15 35
      vertex 111 15 1
      vertex 111 15 35
    endloop
  endfacet
  facet normal -0 0 1
    outer loop
      vertex 111 15 1
      vertex 128 1 1
      vertex 128 15 1
    endloop
  endfacet
  facet normal 0 0 1
    outer loop
      vertex 1 1 1
      vertex 111 15 1
      vertex 1 15 1
    endloop
  endfacet
  facet normal 0 0 1
    outer loop
      vertex 111 15 1
      vertex 1 1 1
      vertex 128 1 1
    endloop
  endfacet
  facet normal 0 1 -0
    outer loop
      vertex 128 1 1
      vertex 1 1 50
      vertex 128 1 50
    endloop
  endfacet
  facet normal 0 1 0
    outer loop
      vertex 1 1 50
      vertex 128 1 1
      vertex 1 1 1
    endloop
  endfacet
  facet normal 0 0 1
    outer loop
      vertex 86 34 43
      vertex 85 33 43
      vertex 86 16 43
    endloop
  endfacet
  facet normal 0 0 1
    outer loop
      vertex 86 34 43
      vertex 1 33 43
      vertex 85 33 43
    endloop
  endfacet
  facet normal -0 0 1
    outer loop
      vertex 0 34 43
      vertex 1 33 43
      vertex 86 34 43
    endloop
  endfacet
  facet normal 0 0 1
    outer loop
      vertex 0 16 43
      vertex 1 33 43
      vertex 0 34 43
    endloop
  endfacet
  facet normal 0 0 1
    outer loop
      vertex 1 33 43
      vertex 0 16 43
      vertex 1 16 43
    endloop
  endfacet
  facet normal 0 0 1
    outer loop
      vertex 86 16 43
      vertex 85 33 43
      vertex 85 16 43
    endloop
  endfacet
  facet normal 1 -0 0
    outer loop
      vertex 86 16 43
      vertex 86 34 35
      vertex 86 34 43
    endloop
  endfacet
  facet normal 1 0 0
    outer loop
      vertex 86 16 1
      vertex 86 34 35
      vertex 86 16 43
    endloop
  endfacet
  facet normal 1 0 0
    outer loop
      vertex 86 34 35
      vertex 86 16 1
      vertex 86 34 1
    endloop
  endfacet
  facet normal 1 -0 0
    outer loop
      vertex 86 34 35
      vertex 86 59 1
      vertex 86 59 35
    endloop
  endfacet
  facet normal 1 0 0
    outer loop
      vertex 86 59 1
      vertex 86 34 35
      vertex 86 34 1
    endloop
  endfacet
  facet normal 0 1 -0
    outer loop
      vertex 28 34 1
      vertex 1 34 35
      vertex 28 34 35
    endloop
  endfacet
  facet normal 0 1 0
    outer loop
      vertex 1 34 35
      vertex 28 34 1
      vertex 1 34 1
    endloop
  endfacet
  facet normal 0 1 -0
    outer loop
      vertex 56 34 1
      vertex 29 34 35
      vertex 56 34 35
    endloop
  endfacet
  facet normal 0 1 0
    outer loop
      vertex 29 34 35
      vertex 56 34 1
      vertex 29 34 1
    endloop
  endfacet
  facet normal 0 1 -0
    outer loop
      vertex 84 34 1
      vertex 57 34 35
      vertex 84 34 35
    endloop
  endfacet
  facet normal 0 1 0
    outer loop
      vertex 57 34 35
      vertex 84 34 1
      vertex 57 34 1
    endloop
  endfacet
  facet normal 0 1 0
    outer loop
      vertex 84 34 35
      vertex 86 34 43
      vertex 86 34 35
    endloop
  endfacet
  facet normal 0 1 0
    outer loop
      vertex 57 34 35
      vertex 86 34 43
      vertex 84 34 35
    endloop
  endfacet
  facet normal 0 1 0
    outer loop
      vertex 56 34 35
      vertex 86 34 43
      vertex 57 34 35
    endloop
  endfacet
  facet normal 0 1 0
    outer loop
      vertex 86 34 43
      vertex 56 34 35
      vertex 0 34 43
    endloop
  endfacet
  facet normal 0 1 -0
    outer loop
      vertex 29 34 35
      vertex 0 34 43
      vertex 56 34 35
    endloop
  endfacet
  facet normal 0 1 -0
    outer loop
      vertex 28 34 35
      vertex 0 34 43
      vertex 29 34 35
    endloop
  endfacet
  facet normal 0 1 -0
    outer loop
      vertex 1 34 35
      vertex 0 34 43
      vertex 28 34 35
    endloop
  endfacet
  facet normal 0 1 0
    outer loop
      vertex 0 34 43
      vertex 1 34 35
      vertex 0 34 35
    endloop
  endfacet
  facet normal 1 -0 0
    outer loop
      vertex 1 16 43
      vertex 1 33 35
      vertex 1 33 43
    endloop
  endfacet
  facet normal 1 0 0
    outer loop
      vertex 1 16 1
      vertex 1 33 35
      vertex 1 16 43
    endloop
  endfacet
  facet normal 1 0 0
    outer loop
      vertex 1 33 35
      vertex 1 16 1
      vertex 1 33 1
    endloop
  endfacet
  facet normal 1 -0 0
    outer loop
      vertex 85 60 35
      vertex 85 67 0
      vertex 85 67 35
    endloop
  endfacet
  facet normal 1 0 0
    outer loop
      vertex 85 67 0
      vertex 85 60 35
      vertex 85 60 0
    endloop
  endfacet
  facet normal -1 0 0
    outer loop
      vertex 85 16 35
      vertex 85 33 43
      vertex 85 33 35
    endloop
  endfacet
  facet normal -1 -0 0
    outer loop
      vertex 85 33 43
      vertex 85 16 35
      vertex 85 16 43
    endloop
  endfacet
  facet normal -1 0 0
    outer loop
      vertex 85 16 1
      vertex 85 33 35
      vertex 85 33 1
    endloop
  endfacet
  facet normal -1 -0 0
    outer loop
      vertex 85 33 35
      vertex 85 16 1
      vertex 85 16 35
    endloop
  endfacet
  facet normal -0 0 1
    outer loop
      vertex 1 33 1
      vertex 85 16 1
      vertex 85 33 1
    endloop
  endfacet
  facet normal 0 0 1
    outer loop
      vertex 85 16 1
      vertex 1 33 1
      vertex 1 16 1
    endloop
  endfacet
  facet normal 0 -1 0
    outer loop
      vertex 1 33 35
      vertex 85 33 43
      vertex 1 33 43
    endloop
  endfacet
  facet normal 0 -1 -0
    outer loop
      vertex 85 33 43
      vertex 1 33 35
      vertex 85 33 35
    endloop
  endfacet
  facet normal 0 -1 0
    outer loop
      vertex 1 33 1
      vertex 85 33 35
      vertex 1 33 35
    endloop
  endfacet
  facet normal 0 -1 -0
    outer loop
      vertex 85 33 35
      vertex 1 33 1
      vertex 85 33 1
    endloop
  endfacet
  facet normal 0 0 1
    outer loop
      vertex 85 67 35
      vertex 84 66 35
      vertex 85 60 35
    endloop
  endfacet
  facet normal 0 0 1
    outer loop
      vertex 85 67 35
      vertex 57 66 35
      vertex 84 66 35
    endloop
  endfacet
  facet normal 0 0 1
    outer loop
      vertex 57 66 35
      vertex 56 66 35
      vertex 57 34 35
    endloop
  endfacet
  facet normal 0 0 1
    outer loop
      vertex 85 67 35
      vertex 56 66 35
      vertex 57 66 35
    endloop
  endfacet
  facet normal 0 0 1
    outer loop
      vertex 85 67 35
      vertex 29 66 35
      vertex 56 66 35
    endloop
  endfacet
  facet normal 0 0 1
    outer loop
      vertex 29 66 35
      vertex 28 66 35
      vertex 29 34 35
    endloop
  endfacet
  facet normal -0 0 1
    outer loop
      vertex 0 67 35
      vertex 29 66 35
      vertex 85 67 35
    endloop
  endfacet
  facet normal 0 0 1
    outer loop
      vertex 29 66 35
      vertex 0 67 35
      vertex 28 66 35
    endloop
  endfacet
  facet normal 0 0 1
    outer loop
      vertex 28 66 35
      vertex 0 67 35
      vertex 1 66 35
    endloop
  endfacet
  facet normal 0 0 1
    outer loop
      vertex 0 34 35
      vertex 1 66 35
      vertex 0 67 35
    endloop
  endfacet
  facet normal 0 0 1
    outer loop
      vertex 1 66 35
      vertex 0 34 35
      vertex 1 34 35
    endloop
  endfacet
  facet normal 0 0 1
    outer loop
      vertex 111 60 35
      vertex 110 59 35
      vertex 111 16 35
    endloop
  endfacet
  facet normal 0 0 1
    outer loop
      vertex 111 60 35
      vertex 86 59 35
      vertex 110 59 35
    endloop
  endfacet
  facet normal -0 0 1
    outer loop
      vertex 85 60 35
      vertex 86 59 35
      vertex 111 60 35
    endloop
  endfacet
  facet normal 0 0 1
    outer loop
      vertex 84 34 35
      vertex 86 59 35
      vertex 85 60 35
    endloop
  endfacet
  facet normal 0 0 1
    outer loop
      vertex 84 34 35
      vertex 85 60 35
      vertex 84 66 35
    endloop
  endfacet
  facet normal 0 0 1
    outer loop
      vertex 86 59 35
      vertex 84 34 35
      vertex 86 34 35
    endloop
  endfacet
  facet normal 0 0 1
    outer loop
      vertex 111 16 35
      vertex 110 59 35
      vertex 110 16 35
    endloop
  endfacet
  facet normal 0 0 1
    outer loop
      vertex 57 34 35
      vertex 56 66 35
      vertex 56 34 35
    endloop
  endfacet
  facet normal 0 0 1
    outer loop
      vertex 29 34 35
      vertex 28 66 35
      vertex 28 34 35
    endloop
  endfacet
  facet normal 1 -0 0
    outer loop
      vertex 29 34 35
      vertex 29 66 1
      vertex 29 66 35
    endloop
  endfacet
  facet normal 1 0 0
    outer loop
      vertex 29 66 1
      vertex 29 34 35
      vertex 29 34 1
    endloop
  endfacet
  facet normal 0 1 -0
    outer loop
      vertex 85 67 0
      vertex 0 67 35
      vertex 85 67 35
    endloop
  endfacet
  facet normal 0 1 0
    outer loop
      vertex 0 67 35
      vertex 85 67 0
      vertex 0 67 0
    endloop
  endfacet
  facet normal 1 -0 0
    outer loop
      vertex 1 34 35
      vertex 1 66 1
      vertex 1 66 35
    endloop
  endfacet
  facet normal 1 0 0
    outer loop
      vertex 1 66 1
      vertex 1 34 35
      vertex 1 34 1
    endloop
  endfacet
  facet normal -1 0 0
    outer loop
      vertex 28 34 1
      vertex 28 66 35
      vertex 28 66 1
    endloop
  endfacet
  facet normal -1 -0 0
    outer loop
      vertex 28 66 35
      vertex 28 34 1
      vertex 28 34 35
    endloop
  endfacet
  facet normal -0 0 1
    outer loop
      vertex 1 66 1
      vertex 28 34 1
      vertex 28 66 1
    endloop
  endfacet
  facet normal 0 0 1
    outer loop
      vertex 28 34 1
      vertex 1 66 1
      vertex 1 34 1
    endloop
  endfacet
  facet normal 0 -1 0
    outer loop
      vertex 1 66 1
      vertex 28 66 35
      vertex 1 66 35
    endloop
  endfacet
  facet normal 0 -1 -0
    outer loop
      vertex 28 66 35
      vertex 1 66 1
      vertex 28 66 1
    endloop
  endfacet
  facet normal 1 -0 0
    outer loop
      vertex 57 34 35
      vertex 57 66 1
      vertex 57 66 35
    endloop
  endfacet
  facet normal 1 0 0
    outer loop
      vertex 57 66 1
      vertex 57 34 35
      vertex 57 34 1
    endloop
  endfacet
  facet normal -1 0 0
    outer loop
      vertex 56 34 1
      vertex 56 66 35
      vertex 56 66 1
    endloop
  endfacet
  facet normal -1 -0 0
    outer loop
      vertex 56 66 35
      vertex 56 34 1
      vertex 56 34 35
    endloop
  endfacet
  facet normal -0 0 1
    outer loop
      vertex 29 66 1
      vertex 56 34 1
      vertex 56 66 1
    endloop
  endfacet
  facet normal 0 0 1
    outer loop
      vertex 56 34 1
      vertex 29 66 1
      vertex 29 34 1
    endloop
  endfacet
  facet normal 0 -1 0
    outer loop
      vertex 29 66 1
      vertex 56 66 35
      vertex 29 66 35
    endloop
  endfacet
  facet normal 0 -1 -0
    outer loop
      vertex 56 66 35
      vertex 29 66 1
      vertex 56 66 1
    endloop
  endfacet
  facet normal -1 0 0
    outer loop
      vertex 84 34 1
      vertex 84 66 35
      vertex 84 66 1
    endloop
  endfacet
  facet normal -1 -0 0
    outer loop
      vertex 84 66 35
      vertex 84 34 1
      vertex 84 34 35
    endloop
  endfacet
  facet normal 0 -1 0
    outer loop
      vertex 57 66 1
      vertex 84 66 35
      vertex 57 66 35
    endloop
  endfacet
  facet normal 0 -1 -0
    outer loop
      vertex 84 66 35
      vertex 57 66 1
      vertex 84 66 1
    endloop
  endfacet
  facet normal -0 0 1
    outer loop
      vertex 57 66 1
      vertex 84 34 1
      vertex 84 66 1
    endloop
  endfacet
  facet normal 0 0 1
    outer loop
      vertex 84 34 1
      vertex 57 66 1
      vertex 57 34 1
    endloop
  endfacet
  facet normal 1 -0 0
    outer loop
      vertex 111 16 35
      vertex 111 60 0
      vertex 111 60 35
    endloop
  endfacet
  facet normal 1 0 0
    outer loop
      vertex 111 60 0
      vertex 111 16 35
      vertex 111 16 0
    endloop
  endfacet
  facet normal 0 1 -0
    outer loop
      vertex 111 60 0
      vertex 85 60 35
      vertex 111 60 35
    endloop
  endfacet
  facet normal 0 1 0
    outer loop
      vertex 85 60 35
      vertex 111 60 0
      vertex 85 60 0
    endloop
  endfacet
  facet normal -1 0 0
    outer loop
      vertex 110 16 1
      vertex 110 59 35
      vertex 110 59 1
    endloop
  endfacet
  facet normal -1 -0 0
    outer loop
      vertex 110 59 35
      vertex 110 16 1
      vertex 110 16 35
    endloop
  endfacet
  facet normal 0 0 1
    outer loop
      vertex 86 34 1
      vertex 110 59 1
      vertex 86 59 1
    endloop
  endfacet
  facet normal 0 0 1
    outer loop
      vertex 110 59 1
      vertex 86 34 1
      vertex 110 16 1
    endloop
  endfacet
  facet normal 0 0 1
    outer loop
      vertex 110 16 1
      vertex 86 34 1
      vertex 86 16 1
    endloop
  endfacet
  facet normal 0 -1 0
    outer loop
      vertex 86 59 1
      vertex 110 59 35
      vertex 86 59 35
    endloop
  endfacet
  facet normal 0 -1 -0
    outer loop
      vertex 110 59 35
      vertex 86 59 1
      vertex 110 59 1
    endloop
  endfacet
endsolid OpenSCAD_Model
