solid OpenSCAD_Model
  facet normal -0.0156609 0 0.999877
    outer loop
      vertex 53 0.799999 35
      vertex 53.7853 0 35.0123
      vertex 53.7853 0.799999 35.0123
    endloop
  endfacet
  facet normal -0.0156609 0 0.999877
    outer loop
      vertex 53.7853 0 35.0123
      vertex 53 0.799999 35
      vertex 53 0 35
    endloop
  endfacet
  facet normal -0.996909 0 0.0785659
    outer loop
      vertex 77.889 0 57.6473
      vertex 77.9507 0.799999 58.4302
      vertex 77.889 0.799999 57.6473
    endloop
  endfacet
  facet normal -0.996909 0 0.0785659
    outer loop
      vertex 77.9507 0.799999 58.4302
      vertex 77.889 0 57.6473
      vertex 77.9507 0 58.4302
    endloop
  endfacet
  facet normal 0.996909 -0 0.0785659
    outer loop
      vertex 28.0493 0 58.4302
      vertex 28.111 0.799999 57.6473
      vertex 28.0493 0.799999 58.4302
    endloop
  endfacet
  facet normal 0.996909 0 0.0785659
    outer loop
      vertex 28.111 0.799999 57.6473
      vertex 28.0493 0 58.4302
      vertex 28.111 0 57.6473
    endloop
  endfacet
  facet normal -0.382625 0 0.923904
    outer loop
      vertex 62.2031 0.799999 36.7556
      vertex 62.9287 0 37.0561
      vertex 62.9287 0.799999 37.0561
    endloop
  endfacet
  facet normal -0.382625 0 0.923904
    outer loop
      vertex 62.9287 0 37.0561
      vertex 62.2031 0.799999 36.7556
      vertex 62.2031 0 36.7556
    endloop
  endfacet
  facet normal -0.695877 0 0.718161
    outer loop
      vertex 70.1137 0.799999 41.7758
      vertex 70.6777 0 42.3223
      vertex 70.6777 0.799999 42.3223
    endloop
  endfacet
  facet normal -0.695877 0 0.718161
    outer loop
      vertex 70.6777 0 42.3223
      vertex 70.1137 0.799999 41.7758
      vertex 70.1137 0 41.7758
    endloop
  endfacet
  facet normal -0.495439 0 0.868642
    outer loop
      vertex 65.0438 0.799999 38.0923
      vertex 65.726 0 38.4814
      vertex 65.726 0.799999 38.4814
    endloop
  endfacet
  facet normal -0.495439 0 0.868642
    outer loop
      vertex 65.726 0 38.4814
      vertex 65.0438 0.799999 38.0923
      vertex 65.0438 0 38.0923
    endloop
  endfacet
  facet normal 0.935452 -0 0.353453
    outer loop
      vertex 29.478 0 51.5316
      vertex 29.7556 0.799999 50.7969
      vertex 29.478 0.799999 51.5316
    endloop
  endfacet
  facet normal 0.935452 0 0.353453
    outer loop
      vertex 29.7556 0.799999 50.7969
      vertex 29.478 0 51.5316
      vertex 29.7556 0 50.7969
    endloop
  endfacet
  facet normal -0.109635 0 0.993972
    outer loop
      vertex 55.3527 0.799999 35.111
      vertex 56.1333 0 35.1971
      vertex 56.1333 0.799999 35.1971
    endloop
  endfacet
  facet normal -0.109635 0 0.993972
    outer loop
      vertex 56.1333 0 35.1971
      vertex 55.3527 0.799999 35.111
      vertex 55.3527 0 35.111
    endloop
  endfacet
  facet normal -0.14094 0 0.990018
    outer loop
      vertex 56.1333 0.799999 35.1971
      vertex 56.9109 0 35.3078
      vertex 56.9109 0.799999 35.3078
    endloop
  endfacet
  facet normal -0.14094 0 0.990018
    outer loop
      vertex 56.9109 0 35.3078
      vertex 56.1333 0.799999 35.1971
      vertex 56.1333 0 35.1971
    endloop
  endfacet
  facet normal -0.985113 0 0.171911
    outer loop
      vertex 77.5572 0 55.3155
      vertex 77.6922 0.799999 56.0891
      vertex 77.5572 0.799999 55.3155
    endloop
  endfacet
  facet normal -0.985113 0 0.171911
    outer loop
      vertex 77.6922 0.799999 56.0891
      vertex 77.5572 0 55.3155
      vertex 77.6922 0 56.0891
    endloop
  endfacet
  facet normal -0.955798 0 0.294023
    outer loop
      vertex 76.7764 0 52.2746
      vertex 77.0073 0.799999 53.0252
      vertex 76.7764 0.799999 52.2746
    endloop
  endfacet
  facet normal -0.955798 0 0.294023
    outer loop
      vertex 77.0073 0.799999 53.0252
      vertex 76.7764 0 52.2746
      vertex 77.0073 0 53.0252
    endloop
  endfacet
  facet normal -0.923904 0 0.382625
    outer loop
      vertex 75.9439 0 50.0713
      vertex 76.2444 0.799999 50.7969
      vertex 75.9439 0.799999 50.0713
    endloop
  endfacet
  facet normal -0.923904 0 0.382625
    outer loop
      vertex 76.2444 0.799999 50.7969
      vertex 75.9439 0 50.0713
      vertex 76.2444 0 50.7969
    endloop
  endfacet
  facet normal -0.760442 0 0.649406
    outer loop
      vertex 71.7528 0 43.4672
      vertex 72.2628 0.799999 44.0644
      vertex 71.7528 0.799999 43.4672
    endloop
  endfacet
  facet normal -0.760442 0 0.649406
    outer loop
      vertex 72.2628 0.799999 44.0644
      vertex 71.7528 0 43.4672
      vertex 72.2628 0 44.0644
    endloop
  endfacet
  facet normal 0.0471114 0 0.99889
    outer loop
      vertex 51.4302 0.799999 35.0493
      vertex 52.2147 0 35.0123
      vertex 52.2147 0.799999 35.0123
    endloop
  endfacet
  facet normal 0.0471114 0 0.99889
    outer loop
      vertex 52.2147 0 35.0123
      vertex 51.4302 0.799999 35.0493
      vertex 51.4302 0 35.0493
    endloop
  endfacet
  facet normal 0.999877 -0 0.0156609
    outer loop
      vertex 28 0 60
      vertex 28.0123 0.799999 59.2147
      vertex 28 0.799999 60
    endloop
  endfacet
  facet normal 0.999877 0 0.0156609
    outer loop
      vertex 28.0123 0.799999 59.2147
      vertex 28 0 60
      vertex 28.0123 0 59.2147
    endloop
  endfacet
  facet normal 0.94608 -0 0.323934
    outer loop
      vertex 29.2236 0 52.2746
      vertex 29.478 0.799999 51.5316
      vertex 29.2236 0.799999 52.2746
    endloop
  endfacet
  facet normal 0.94608 0 0.323934
    outer loop
      vertex 29.478 0.799999 51.5316
      vertex 29.2236 0 52.2746
      vertex 29.478 0 51.5316
    endloop
  endfacet
  facet normal -0.0471114 0 0.99889
    outer loop
      vertex 53.7853 0.799999 35.0123
      vertex 54.5698 0 35.0493
      vertex 54.5698 0.799999 35.0493
    endloop
  endfacet
  facet normal -0.0471114 0 0.99889
    outer loop
      vertex 54.5698 0 35.0493
      vertex 53.7853 0.799999 35.0123
      vertex 53.7853 0 35.0123
    endloop
  endfacet
  facet normal -0.0785659 0 0.996909
    outer loop
      vertex 54.5698 0.799999 35.0493
      vertex 55.3527 0 35.111
      vertex 55.3527 0.799999 35.111
    endloop
  endfacet
  facet normal -0.0785659 0 0.996909
    outer loop
      vertex 55.3527 0 35.111
      vertex 54.5698 0.799999 35.0493
      vertex 54.5698 0 35.0493
    endloop
  endfacet
  facet normal -0.171911 0 0.985113
    outer loop
      vertex 56.9109 0.799999 35.3078
      vertex 57.6845 0 35.4428
      vertex 57.6845 0.799999 35.4428
    endloop
  endfacet
  facet normal -0.171911 0 0.985113
    outer loop
      vertex 57.6845 0 35.4428
      vertex 56.9109 0.799999 35.3078
      vertex 56.9109 0 35.3078
    endloop
  endfacet
  facet normal -0.20282 0 0.979216
    outer loop
      vertex 57.6845 0.799999 35.4428
      vertex 58.4536 0 35.6021
      vertex 58.4536 0.799999 35.6021
    endloop
  endfacet
  facet normal -0.20282 0 0.979216
    outer loop
      vertex 58.4536 0 35.6021
      vertex 57.6845 0.799999 35.4428
      vertex 57.6845 0 35.4428
    endloop
  endfacet
  facet normal -0.323934 0 0.94608
    outer loop
      vertex 60.7254 0.799999 36.2236
      vertex 61.4684 0 36.478
      vertex 61.4684 0.799999 36.478
    endloop
  endfacet
  facet normal -0.323934 0 0.94608
    outer loop
      vertex 61.4684 0 36.478
      vertex 60.7254 0.799999 36.2236
      vertex 60.7254 0 36.2236
    endloop
  endfacet
  facet normal -0.233416 0 0.972377
    outer loop
      vertex 58.4536 0.799999 35.6021
      vertex 59.2172 0 35.7854
      vertex 59.2172 0.799999 35.7854
    endloop
  endfacet
  facet normal -0.233416 0 0.972377
    outer loop
      vertex 59.2172 0 35.7854
      vertex 58.4536 0.799999 35.6021
      vertex 58.4536 0 35.6021
    endloop
  endfacet
  facet normal -0.649406 0 0.760442
    outer loop
      vertex 68.9356 0.799999 40.7372
      vertex 69.5328 0 41.2472
      vertex 69.5328 0.799999 41.2472
    endloop
  endfacet
  facet normal -0.649406 0 0.760442
    outer loop
      vertex 69.5328 0 41.2472
      vertex 68.9356 0.799999 40.7372
      vertex 68.9356 0 40.7372
    endloop
  endfacet
  facet normal -0.575042 0 0.818124
    outer loop
      vertex 67.0521 0.799999 39.323
      vertex 67.6946 0 39.7746
      vertex 67.6946 0.799999 39.7746
    endloop
  endfacet
  facet normal -0.575042 0 0.818124
    outer loop
      vertex 67.6946 0 39.7746
      vertex 67.0521 0.799999 39.323
      vertex 67.0521 0 39.323
    endloop
  endfacet
  facet normal -0.522505 0 0.852636
    outer loop
      vertex 65.726 0.799999 38.4814
      vertex 66.3957 0 38.8918
      vertex 66.3957 0.799999 38.8918
    endloop
  endfacet
  facet normal -0.522505 0 0.852636
    outer loop
      vertex 66.3957 0 38.8918
      vertex 65.726 0.799999 38.4814
      vertex 65.726 0 38.4814
    endloop
  endfacet
  facet normal -0.411518 0 0.911401
    outer loop
      vertex 62.9287 0.799999 37.0561
      vertex 63.6445 0 37.3793
      vertex 63.6445 0.799999 37.3793
    endloop
  endfacet
  facet normal -0.411518 0 0.911401
    outer loop
      vertex 63.6445 0 37.3793
      vertex 62.9287 0.799999 37.0561
      vertex 62.9287 0 37.0561
    endloop
  endfacet
  facet normal -0.999877 0 0.0156609
    outer loop
      vertex 77.9877 0 59.2147
      vertex 78 0.799999 60
      vertex 77.9877 0.799999 59.2147
    endloop
  endfacet
  facet normal -0.999877 0 0.0156609
    outer loop
      vertex 78 0.799999 60
      vertex 77.9877 0 59.2147
      vertex 78 0 60
    endloop
  endfacet
  facet normal -0.935452 0 0.353453
    outer loop
      vertex 76.2444 0 50.7969
      vertex 76.522 0.799999 51.5316
      vertex 76.2444 0.799999 50.7969
    endloop
  endfacet
  facet normal -0.935452 0 0.353453
    outer loop
      vertex 76.522 0.799999 51.5316
      vertex 76.2444 0 50.7969
      vertex 76.522 0 51.5316
    endloop
  endfacet
  facet normal -0.94608 0 0.323934
    outer loop
      vertex 76.522 0 51.5316
      vertex 76.7764 0.799999 52.2746
      vertex 76.522 0.799999 51.5316
    endloop
  endfacet
  facet normal -0.94608 0 0.323934
    outer loop
      vertex 76.7764 0.799999 52.2746
      vertex 76.522 0 51.5316
      vertex 76.7764 0 52.2746
    endloop
  endfacet
  facet normal -0.979216 0 0.20282
    outer loop
      vertex 77.3979 0 54.5464
      vertex 77.5572 0.799999 55.3155
      vertex 77.3979 0.799999 54.5464
    endloop
  endfacet
  facet normal -0.979216 0 0.20282
    outer loop
      vertex 77.5572 0.799999 55.3155
      vertex 77.3979 0 54.5464
      vertex 77.5572 0 55.3155
    endloop
  endfacet
  facet normal -0.964543 0 0.263925
    outer loop
      vertex 77.0073 0 53.0252
      vertex 77.2146 0.799999 53.7828
      vertex 77.0073 0.799999 53.0252
    endloop
  endfacet
  facet normal -0.964543 0 0.263925
    outer loop
      vertex 77.2146 0.799999 53.7828
      vertex 77.0073 0 53.0252
      vertex 77.2146 0 53.7828
    endloop
  endfacet
  facet normal -0.898039 0 0.439916
    outer loop
      vertex 75.2752 0 48.6502
      vertex 75.6207 0.799999 49.3555
      vertex 75.2752 0.799999 48.6502
    endloop
  endfacet
  facet normal -0.898039 0 0.439916
    outer loop
      vertex 75.6207 0.799999 49.3555
      vertex 75.2752 0 48.6502
      vertex 75.6207 0 49.3555
    endloop
  endfacet
  facet normal -0.911401 0 0.411518
    outer loop
      vertex 75.6207 0 49.3555
      vertex 75.9439 0.799999 50.0713
      vertex 75.6207 0.799999 49.3555
    endloop
  endfacet
  facet normal -0.911401 0 0.411518
    outer loop
      vertex 75.9439 0.799999 50.0713
      vertex 75.6207 0 49.3555
      vertex 75.9439 0 50.0713
    endloop
  endfacet
  facet normal -0.868588 0 0.495536
    outer loop
      vertex 74.5185 0 47.274
      vertex 74.9077 0.799999 47.9562
      vertex 74.5185 0.799999 47.274
    endloop
  endfacet
  facet normal -0.868588 0 0.495536
    outer loop
      vertex 74.9077 0.799999 47.9562
      vertex 74.5185 0 47.274
      vertex 74.9077 0 47.9562
    endloop
  endfacet
  facet normal -0.883741 0 0.467975
    outer loop
      vertex 74.9077 0 47.9562
      vertex 75.2752 0.799999 48.6502
      vertex 74.9077 0.799999 47.9562
    endloop
  endfacet
  facet normal -0.883741 0 0.467975
    outer loop
      vertex 75.2752 0.799999 48.6502
      vertex 74.9077 0 47.9562
      vertex 75.2752 0 48.6502
    endloop
  endfacet
  facet normal -0.835792 0 0.549046
    outer loop
      vertex 73.677 0 45.9479
      vertex 74.1082 0.799999 46.6043
      vertex 73.677 0.799999 45.9479
    endloop
  endfacet
  facet normal -0.835792 0 0.549046
    outer loop
      vertex 74.1082 0.799999 46.6043
      vertex 73.677 0 45.9479
      vertex 74.1082 0 46.6043
    endloop
  endfacet
  facet normal -0.718161 0 0.695877
    outer loop
      vertex 70.6777 0 42.3223
      vertex 71.2242 0.799999 42.8863
      vertex 70.6777 0.799999 42.3223
    endloop
  endfacet
  facet normal -0.718161 0 0.695877
    outer loop
      vertex 71.2242 0.799999 42.8863
      vertex 70.6777 0 42.3223
      vertex 71.2242 0 42.8863
    endloop
  endfacet
  facet normal -0.739617 0 0.673028
    outer loop
      vertex 71.2242 0 42.8863
      vertex 71.7528 0.799999 43.4672
      vertex 71.2242 0.799999 42.8863
    endloop
  endfacet
  facet normal -0.739617 0 0.673028
    outer loop
      vertex 71.7528 0.799999 43.4672
      vertex 71.2242 0 42.8863
      vertex 71.7528 0 43.4672
    endloop
  endfacet
  facet normal -0.818124 0 0.575042
    outer loop
      vertex 73.2254 0 45.3054
      vertex 73.677 0.799999 45.9479
      vertex 73.2254 0.799999 45.3054
    endloop
  endfacet
  facet normal -0.818124 0 0.575042
    outer loop
      vertex 73.677 0.799999 45.9479
      vertex 73.2254 0 45.3054
      vertex 73.677 0 45.9479
    endloop
  endfacet
  facet normal 0.0785659 0 0.996909
    outer loop
      vertex 50.6473 0.799999 35.111
      vertex 51.4302 0 35.0493
      vertex 51.4302 0.799999 35.0493
    endloop
  endfacet
  facet normal 0.0785659 0 0.996909
    outer loop
      vertex 51.4302 0 35.0493
      vertex 50.6473 0.799999 35.111
      vertex 50.6473 0 35.111
    endloop
  endfacet
  facet normal 0.14094 0 0.990018
    outer loop
      vertex 49.0891 0.799999 35.3078
      vertex 49.8667 0 35.1971
      vertex 49.8667 0.799999 35.1971
    endloop
  endfacet
  facet normal 0.14094 0 0.990018
    outer loop
      vertex 49.8667 0 35.1971
      vertex 49.0891 0.799999 35.3078
      vertex 49.0891 0 35.3078
    endloop
  endfacet
  facet normal 0.233416 0 0.972377
    outer loop
      vertex 46.7828 0.799999 35.7854
      vertex 47.5464 0 35.6021
      vertex 47.5464 0.799999 35.6021
    endloop
  endfacet
  facet normal 0.233416 0 0.972377
    outer loop
      vertex 47.5464 0 35.6021
      vertex 46.7828 0.799999 35.7854
      vertex 46.7828 0 35.7854
    endloop
  endfacet
  facet normal 0.993972 -0 0.109635
    outer loop
      vertex 28.111 0 57.6473
      vertex 28.1971 0.799999 56.8667
      vertex 28.111 0.799999 57.6473
    endloop
  endfacet
  facet normal 0.993972 0 0.109635
    outer loop
      vertex 28.1971 0.799999 56.8667
      vertex 28.111 0 57.6473
      vertex 28.1971 0 56.8667
    endloop
  endfacet
  facet normal 0.99889 -0 0.0471114
    outer loop
      vertex 28.0123 0 59.2147
      vertex 28.0493 0.799999 58.4302
      vertex 28.0123 0.799999 59.2147
    endloop
  endfacet
  facet normal 0.99889 0 0.0471114
    outer loop
      vertex 28.0493 0.799999 58.4302
      vertex 28.0123 0 59.2147
      vertex 28.0493 0 58.4302
    endloop
  endfacet
  facet normal 0.911401 -0 0.411518
    outer loop
      vertex 30.0561 0 50.0713
      vertex 30.3793 0.799999 49.3555
      vertex 30.0561 0.799999 50.0713
    endloop
  endfacet
  facet normal 0.911401 0 0.411518
    outer loop
      vertex 30.3793 0.799999 49.3555
      vertex 30.0561 0 50.0713
      vertex 30.3793 0 49.3555
    endloop
  endfacet
  facet normal -0.353453 0 0.935452
    outer loop
      vertex 61.4684 0.799999 36.478
      vertex 62.2031 0 36.7556
      vertex 62.2031 0.799999 36.7556
    endloop
  endfacet
  facet normal -0.353453 0 0.935452
    outer loop
      vertex 62.2031 0 36.7556
      vertex 61.4684 0.799999 36.478
      vertex 61.4684 0 36.478
    endloop
  endfacet
  facet normal -0.263925 0 0.964543
    outer loop
      vertex 59.2172 0.799999 35.7854
      vertex 59.9748 0 35.9927
      vertex 59.9748 0.799999 35.9927
    endloop
  endfacet
  facet normal -0.263925 0 0.964543
    outer loop
      vertex 59.9748 0 35.9927
      vertex 59.2172 0.799999 35.7854
      vertex 59.2172 0 35.7854
    endloop
  endfacet
  facet normal -0.294023 0 0.955798
    outer loop
      vertex 59.9748 0.799999 35.9927
      vertex 60.7254 0 36.2236
      vertex 60.7254 0.799999 36.2236
    endloop
  endfacet
  facet normal -0.294023 0 0.955798
    outer loop
      vertex 60.7254 0 36.2236
      vertex 59.9748 0.799999 35.9927
      vertex 59.9748 0 35.9927
    endloop
  endfacet
  facet normal -0.600346 0 0.79974
    outer loop
      vertex 67.6946 0.799999 39.7746
      vertex 68.3227 0 40.2461
      vertex 68.3227 0.799999 40.2461
    endloop
  endfacet
  facet normal -0.600346 0 0.79974
    outer loop
      vertex 68.3227 0 40.2461
      vertex 67.6946 0.799999 39.7746
      vertex 67.6946 0 39.7746
    endloop
  endfacet
  facet normal -0.6253 0 0.780384
    outer loop
      vertex 68.3227 0.799999 40.2461
      vertex 68.9356 0 40.7372
      vertex 68.9356 0.799999 40.7372
    endloop
  endfacet
  facet normal -0.6253 0 0.780384
    outer loop
      vertex 68.9356 0 40.7372
      vertex 68.3227 0.799999 40.2461
      vertex 68.3227 0 40.2461
    endloop
  endfacet
  facet normal -0.673028 0 0.739617
    outer loop
      vertex 69.5328 0.799999 41.2472
      vertex 70.1137 0 41.7758
      vertex 70.1137 0.799999 41.7758
    endloop
  endfacet
  facet normal -0.673028 0 0.739617
    outer loop
      vertex 70.1137 0 41.7758
      vertex 69.5328 0.799999 41.2472
      vertex 69.5328 0 41.2472
    endloop
  endfacet
  facet normal -0.549046 0 0.835792
    outer loop
      vertex 66.3957 0.799999 38.8918
      vertex 67.0521 0 39.323
      vertex 67.0521 0.799999 39.323
    endloop
  endfacet
  facet normal -0.549046 0 0.835792
    outer loop
      vertex 67.0521 0 39.323
      vertex 66.3957 0.799999 38.8918
      vertex 66.3957 0 38.8918
    endloop
  endfacet
  facet normal -0.439916 0 0.898039
    outer loop
      vertex 63.6445 0.799999 37.3793
      vertex 64.3498 0 37.7248
      vertex 64.3498 0.799999 37.7248
    endloop
  endfacet
  facet normal -0.439916 0 0.898039
    outer loop
      vertex 64.3498 0 37.7248
      vertex 63.6445 0.799999 37.3793
      vertex 63.6445 0 37.3793
    endloop
  endfacet
  facet normal -0.467975 0 0.883741
    outer loop
      vertex 64.3498 0.799999 37.7248
      vertex 65.0438 0 38.0923
      vertex 65.0438 0.799999 38.0923
    endloop
  endfacet
  facet normal -0.467975 0 0.883741
    outer loop
      vertex 65.0438 0 38.0923
      vertex 64.3498 0.799999 37.7248
      vertex 64.3498 0 37.7248
    endloop
  endfacet
  facet normal -0.99889 0 0.0471114
    outer loop
      vertex 77.9507 0 58.4302
      vertex 77.9877 0.799999 59.2147
      vertex 77.9507 0.799999 58.4302
    endloop
  endfacet
  facet normal -0.99889 0 0.0471114
    outer loop
      vertex 77.9877 0.799999 59.2147
      vertex 77.9507 0 58.4302
      vertex 77.9877 0 59.2147
    endloop
  endfacet
  facet normal -0.972377 0 0.233416
    outer loop
      vertex 77.2146 0 53.7828
      vertex 77.3979 0.799999 54.5464
      vertex 77.2146 0.799999 53.7828
    endloop
  endfacet
  facet normal -0.972377 0 0.233416
    outer loop
      vertex 77.3979 0.799999 54.5464
      vertex 77.2146 0 53.7828
      vertex 77.3979 0 54.5464
    endloop
  endfacet
  facet normal -0.990018 0 0.14094
    outer loop
      vertex 77.6922 0 56.0891
      vertex 77.8029 0.799999 56.8667
      vertex 77.6922 0.799999 56.0891
    endloop
  endfacet
  facet normal -0.990018 0 0.14094
    outer loop
      vertex 77.8029 0.799999 56.8667
      vertex 77.6922 0 56.0891
      vertex 77.8029 0 56.8667
    endloop
  endfacet
  facet normal -0.993972 0 0.109635
    outer loop
      vertex 77.8029 0 56.8667
      vertex 77.889 0.799999 57.6473
      vertex 77.8029 0.799999 56.8667
    endloop
  endfacet
  facet normal -0.993972 0 0.109635
    outer loop
      vertex 77.889 0.799999 57.6473
      vertex 77.8029 0 56.8667
      vertex 77.889 0 57.6473
    endloop
  endfacet
  facet normal -0.852693 0 0.522413
    outer loop
      vertex 74.1082 0 46.6043
      vertex 74.5185 0.799999 47.274
      vertex 74.1082 0.799999 46.6043
    endloop
  endfacet
  facet normal -0.852693 0 0.522413
    outer loop
      vertex 74.5185 0.799999 47.274
      vertex 74.1082 0 46.6043
      vertex 74.5185 0 47.274
    endloop
  endfacet
  facet normal -0.780384 0 0.6253
    outer loop
      vertex 72.2628 0 44.0644
      vertex 72.7539 0.799999 44.6773
      vertex 72.2628 0.799999 44.0644
    endloop
  endfacet
  facet normal -0.780384 0 0.6253
    outer loop
      vertex 72.7539 0.799999 44.6773
      vertex 72.2628 0 44.0644
      vertex 72.7539 0 44.6773
    endloop
  endfacet
  facet normal -0.79974 0 0.600346
    outer loop
      vertex 72.7539 0 44.6773
      vertex 73.2254 0.799999 45.3054
      vertex 72.7539 0.799999 44.6773
    endloop
  endfacet
  facet normal -0.79974 0 0.600346
    outer loop
      vertex 73.2254 0.799999 45.3054
      vertex 72.7539 0 44.6773
      vertex 73.2254 0 45.3054
    endloop
  endfacet
  facet normal 0.0156609 0 0.999877
    outer loop
      vertex 52.2147 0.799999 35.0123
      vertex 53 0 35
      vertex 53 0.799999 35
    endloop
  endfacet
  facet normal 0.0156609 0 0.999877
    outer loop
      vertex 53 0 35
      vertex 52.2147 0.799999 35.0123
      vertex 52.2147 0 35.0123
    endloop
  endfacet
  facet normal 0.109635 0 0.993972
    outer loop
      vertex 49.8667 0.799999 35.1971
      vertex 50.6473 0 35.111
      vertex 50.6473 0.799999 35.111
    endloop
  endfacet
  facet normal 0.109635 0 0.993972
    outer loop
      vertex 50.6473 0 35.111
      vertex 49.8667 0.799999 35.1971
      vertex 49.8667 0 35.1971
    endloop
  endfacet
  facet normal 0.522505 0 0.852636
    outer loop
      vertex 39.6043 0.799999 38.8918
      vertex 40.274 0 38.4814
      vertex 40.274 0.799999 38.4814
    endloop
  endfacet
  facet normal 0.522505 0 0.852636
    outer loop
      vertex 40.274 0 38.4814
      vertex 39.6043 0.799999 38.8918
      vertex 39.6043 0 38.8918
    endloop
  endfacet
  facet normal 0.382625 0 0.923904
    outer loop
      vertex 43.0713 0.799999 37.0561
      vertex 43.7969 0 36.7556
      vertex 43.7969 0.799999 36.7556
    endloop
  endfacet
  facet normal 0.382625 0 0.923904
    outer loop
      vertex 43.7969 0 36.7556
      vertex 43.0713 0.799999 37.0561
      vertex 43.0713 0 37.0561
    endloop
  endfacet
  facet normal 0.353453 0 0.935452
    outer loop
      vertex 43.7969 0.799999 36.7556
      vertex 44.5316 0 36.478
      vertex 44.5316 0.799999 36.478
    endloop
  endfacet
  facet normal 0.353453 0 0.935452
    outer loop
      vertex 44.5316 0 36.478
      vertex 43.7969 0.799999 36.7556
      vertex 43.7969 0 36.7556
    endloop
  endfacet
  facet normal 0.718161 -0 0.695877
    outer loop
      vertex 34.7758 0 42.8863
      vertex 35.3223 0.799999 42.3223
      vertex 34.7758 0.799999 42.8863
    endloop
  endfacet
  facet normal 0.718161 0 0.695877
    outer loop
      vertex 35.3223 0.799999 42.3223
      vertex 34.7758 0 42.8863
      vertex 35.3223 0 42.3223
    endloop
  endfacet
  facet normal 0.549046 0 0.835792
    outer loop
      vertex 38.9479 0.799999 39.323
      vertex 39.6043 0 38.8918
      vertex 39.6043 0.799999 38.8918
    endloop
  endfacet
  facet normal 0.549046 0 0.835792
    outer loop
      vertex 39.6043 0 38.8918
      vertex 38.9479 0.799999 39.323
      vertex 38.9479 0 39.323
    endloop
  endfacet
  facet normal 0.673028 0 0.739617
    outer loop
      vertex 35.8863 0.799999 41.7758
      vertex 36.4672 0 41.2472
      vertex 36.4672 0.799999 41.2472
    endloop
  endfacet
  facet normal 0.673028 0 0.739617
    outer loop
      vertex 36.4672 0 41.2472
      vertex 35.8863 0.799999 41.7758
      vertex 35.8863 0 41.7758
    endloop
  endfacet
  facet normal 0.898039 -0 0.439916
    outer loop
      vertex 30.3793 0 49.3555
      vertex 30.7248 0.799999 48.6502
      vertex 30.3793 0.799999 49.3555
    endloop
  endfacet
  facet normal 0.898039 0 0.439916
    outer loop
      vertex 30.7248 0.799999 48.6502
      vertex 30.3793 0 49.3555
      vertex 30.7248 0 48.6502
    endloop
  endfacet
  facet normal 0.79974 -0 0.600346
    outer loop
      vertex 32.7746 0 45.3054
      vertex 33.2461 0.799999 44.6773
      vertex 32.7746 0.799999 45.3054
    endloop
  endfacet
  facet normal 0.79974 0 0.600346
    outer loop
      vertex 33.2461 0.799999 44.6773
      vertex 32.7746 0 45.3054
      vertex 33.2461 0 44.6773
    endloop
  endfacet
  facet normal 0.852636 -0 0.522505
    outer loop
      vertex 31.4814 0 47.274
      vertex 31.8918 0.799999 46.6043
      vertex 31.4814 0.799999 47.274
    endloop
  endfacet
  facet normal 0.852636 0 0.522505
    outer loop
      vertex 31.8918 0.799999 46.6043
      vertex 31.4814 0 47.274
      vertex 31.8918 0 46.6043
    endloop
  endfacet
  facet normal 0.739617 -0 0.673028
    outer loop
      vertex 34.2472 0 43.4672
      vertex 34.7758 0.799999 42.8863
      vertex 34.2472 0.799999 43.4672
    endloop
  endfacet
  facet normal 0.739617 0 0.673028
    outer loop
      vertex 34.7758 0.799999 42.8863
      vertex 34.2472 0 43.4672
      vertex 34.7758 0 42.8863
    endloop
  endfacet
  facet normal 0.990018 -0 0.14094
    outer loop
      vertex 28.1971 0 56.8667
      vertex 28.3078 0.799999 56.0891
      vertex 28.1971 0.799999 56.8667
    endloop
  endfacet
  facet normal 0.990018 0 0.14094
    outer loop
      vertex 28.3078 0.799999 56.0891
      vertex 28.1971 0 56.8667
      vertex 28.3078 0 56.0891
    endloop
  endfacet
  facet normal 0.923904 -0 0.382625
    outer loop
      vertex 29.7556 0 50.7969
      vertex 30.0561 0.799999 50.0713
      vertex 29.7556 0.799999 50.7969
    endloop
  endfacet
  facet normal 0.923904 0 0.382625
    outer loop
      vertex 30.0561 0.799999 50.0713
      vertex 29.7556 0 50.7969
      vertex 30.0561 0 50.0713
    endloop
  endfacet
  facet normal 0.955798 -0 0.294023
    outer loop
      vertex 28.9927 0 53.0252
      vertex 29.2236 0.799999 52.2746
      vertex 28.9927 0.799999 53.0252
    endloop
  endfacet
  facet normal 0.955798 0 0.294023
    outer loop
      vertex 29.2236 0.799999 52.2746
      vertex 28.9927 0 53.0252
      vertex 29.2236 0 52.2746
    endloop
  endfacet
  facet normal 0.439916 0 0.898039
    outer loop
      vertex 41.6502 0.799999 37.7248
      vertex 42.3555 0 37.3793
      vertex 42.3555 0.799999 37.3793
    endloop
  endfacet
  facet normal 0.439916 0 0.898039
    outer loop
      vertex 42.3555 0 37.3793
      vertex 41.6502 0.799999 37.7248
      vertex 41.6502 0 37.7248
    endloop
  endfacet
  facet normal 0.495439 0 0.868642
    outer loop
      vertex 40.274 0.799999 38.4814
      vertex 40.9562 0 38.0923
      vertex 40.9562 0.799999 38.0923
    endloop
  endfacet
  facet normal 0.495439 0 0.868642
    outer loop
      vertex 40.9562 0 38.0923
      vertex 40.274 0.799999 38.4814
      vertex 40.274 0 38.4814
    endloop
  endfacet
  facet normal 0.467975 0 0.883741
    outer loop
      vertex 40.9562 0.799999 38.0923
      vertex 41.6502 0 37.7248
      vertex 41.6502 0.799999 37.7248
    endloop
  endfacet
  facet normal 0.467975 0 0.883741
    outer loop
      vertex 41.6502 0 37.7248
      vertex 40.9562 0.799999 38.0923
      vertex 40.9562 0 38.0923
    endloop
  endfacet
  facet normal 0.323934 0 0.94608
    outer loop
      vertex 44.5316 0.799999 36.478
      vertex 45.2746 0 36.2236
      vertex 45.2746 0.799999 36.2236
    endloop
  endfacet
  facet normal 0.323934 0 0.94608
    outer loop
      vertex 45.2746 0 36.2236
      vertex 44.5316 0.799999 36.478
      vertex 44.5316 0 36.478
    endloop
  endfacet
  facet normal 0.20282 0 0.979216
    outer loop
      vertex 47.5464 0.799999 35.6021
      vertex 48.3155 0 35.4428
      vertex 48.3155 0.799999 35.4428
    endloop
  endfacet
  facet normal 0.20282 0 0.979216
    outer loop
      vertex 48.3155 0 35.4428
      vertex 47.5464 0.799999 35.6021
      vertex 47.5464 0 35.6021
    endloop
  endfacet
  facet normal 0.171911 0 0.985113
    outer loop
      vertex 48.3155 0.799999 35.4428
      vertex 49.0891 0 35.3078
      vertex 49.0891 0.799999 35.3078
    endloop
  endfacet
  facet normal 0.171911 0 0.985113
    outer loop
      vertex 49.0891 0 35.3078
      vertex 48.3155 0.799999 35.4428
      vertex 48.3155 0 35.4428
    endloop
  endfacet
  facet normal 0.649406 0 0.760442
    outer loop
      vertex 36.4672 0.799999 41.2472
      vertex 37.0644 0 40.7372
      vertex 37.0644 0.799999 40.7372
    endloop
  endfacet
  facet normal 0.649406 0 0.760442
    outer loop
      vertex 37.0644 0 40.7372
      vertex 36.4672 0.799999 41.2472
      vertex 36.4672 0 41.2472
    endloop
  endfacet
  facet normal 0.600346 0 0.79974
    outer loop
      vertex 37.6773 0.799999 40.2461
      vertex 38.3054 0 39.7746
      vertex 38.3054 0.799999 39.7746
    endloop
  endfacet
  facet normal 0.600346 0 0.79974
    outer loop
      vertex 38.3054 0 39.7746
      vertex 37.6773 0.799999 40.2461
      vertex 37.6773 0 40.2461
    endloop
  endfacet
  facet normal 0.818124 -0 0.575042
    outer loop
      vertex 32.323 0 45.9479
      vertex 32.7746 0.799999 45.3054
      vertex 32.323 0.799999 45.9479
    endloop
  endfacet
  facet normal 0.818124 0 0.575042
    outer loop
      vertex 32.7746 0.799999 45.3054
      vertex 32.323 0 45.9479
      vertex 32.7746 0 45.3054
    endloop
  endfacet
  facet normal 0.835792 -0 0.549046
    outer loop
      vertex 31.8918 0 46.6043
      vertex 32.323 0.799999 45.9479
      vertex 31.8918 0.799999 46.6043
    endloop
  endfacet
  facet normal 0.835792 0 0.549046
    outer loop
      vertex 32.323 0.799999 45.9479
      vertex 31.8918 0 46.6043
      vertex 32.323 0 45.9479
    endloop
  endfacet
  facet normal 0.695877 0 0.718161
    outer loop
      vertex 35.3223 0.799999 42.3223
      vertex 35.8863 0 41.7758
      vertex 35.8863 0.799999 41.7758
    endloop
  endfacet
  facet normal 0.695877 0 0.718161
    outer loop
      vertex 35.8863 0 41.7758
      vertex 35.3223 0.799999 42.3223
      vertex 35.3223 0 42.3223
    endloop
  endfacet
  facet normal 0.972377 -0 0.233416
    outer loop
      vertex 28.6021 0 54.5464
      vertex 28.7854 0.799999 53.7828
      vertex 28.6021 0.799999 54.5464
    endloop
  endfacet
  facet normal 0.972377 0 0.233416
    outer loop
      vertex 28.7854 0.799999 53.7828
      vertex 28.6021 0 54.5464
      vertex 28.7854 0 53.7828
    endloop
  endfacet
  facet normal 0.964543 -0 0.263925
    outer loop
      vertex 28.7854 0 53.7828
      vertex 28.9927 0.799999 53.0252
      vertex 28.7854 0.799999 53.7828
    endloop
  endfacet
  facet normal 0.964543 0 0.263925
    outer loop
      vertex 28.9927 0.799999 53.0252
      vertex 28.7854 0 53.7828
      vertex 28.9927 0 53.0252
    endloop
  endfacet
  facet normal 0.985113 -0 0.171911
    outer loop
      vertex 28.3078 0 56.0891
      vertex 28.4428 0.799999 55.3155
      vertex 28.3078 0.799999 56.0891
    endloop
  endfacet
  facet normal 0.985113 0 0.171911
    outer loop
      vertex 28.4428 0.799999 55.3155
      vertex 28.3078 0 56.0891
      vertex 28.4428 0 55.3155
    endloop
  endfacet
  facet normal 0.411518 0 0.911401
    outer loop
      vertex 42.3555 0.799999 37.3793
      vertex 43.0713 0 37.0561
      vertex 43.0713 0.799999 37.0561
    endloop
  endfacet
  facet normal 0.411518 0 0.911401
    outer loop
      vertex 43.0713 0 37.0561
      vertex 42.3555 0.799999 37.3793
      vertex 42.3555 0 37.3793
    endloop
  endfacet
  facet normal 0.294023 0 0.955798
    outer loop
      vertex 45.2746 0.799999 36.2236
      vertex 46.0252 0 35.9927
      vertex 46.0252 0.799999 35.9927
    endloop
  endfacet
  facet normal 0.294023 0 0.955798
    outer loop
      vertex 46.0252 0 35.9927
      vertex 45.2746 0.799999 36.2236
      vertex 45.2746 0 36.2236
    endloop
  endfacet
  facet normal 0.263925 0 0.964543
    outer loop
      vertex 46.0252 0.799999 35.9927
      vertex 46.7828 0 35.7854
      vertex 46.7828 0.799999 35.7854
    endloop
  endfacet
  facet normal 0.263925 0 0.964543
    outer loop
      vertex 46.7828 0 35.7854
      vertex 46.0252 0.799999 35.9927
      vertex 46.0252 0 35.9927
    endloop
  endfacet
  facet normal 0.575042 0 0.818124
    outer loop
      vertex 38.3054 0.799999 39.7746
      vertex 38.9479 0 39.323
      vertex 38.9479 0.799999 39.323
    endloop
  endfacet
  facet normal 0.575042 0 0.818124
    outer loop
      vertex 38.9479 0 39.323
      vertex 38.3054 0.799999 39.7746
      vertex 38.3054 0 39.7746
    endloop
  endfacet
  facet normal 0.6253 0 0.780384
    outer loop
      vertex 37.0644 0.799999 40.7372
      vertex 37.6773 0 40.2461
      vertex 37.6773 0.799999 40.2461
    endloop
  endfacet
  facet normal 0.6253 0 0.780384
    outer loop
      vertex 37.6773 0 40.2461
      vertex 37.0644 0.799999 40.7372
      vertex 37.0644 0 40.7372
    endloop
  endfacet
  facet normal 0.868642 -0 0.495439
    outer loop
      vertex 31.0923 0 47.9562
      vertex 31.4814 0.799999 47.274
      vertex 31.0923 0.799999 47.9562
    endloop
  endfacet
  facet normal 0.868642 0 0.495439
    outer loop
      vertex 31.4814 0.799999 47.274
      vertex 31.0923 0 47.9562
      vertex 31.4814 0 47.274
    endloop
  endfacet
  facet normal 0.883741 -0 0.467975
    outer loop
      vertex 30.7248 0 48.6502
      vertex 31.0923 0.799999 47.9562
      vertex 30.7248 0.799999 48.6502
    endloop
  endfacet
  facet normal 0.883741 0 0.467975
    outer loop
      vertex 31.0923 0.799999 47.9562
      vertex 30.7248 0 48.6502
      vertex 31.0923 0 47.9562
    endloop
  endfacet
  facet normal 0.780384 -0 0.6253
    outer loop
      vertex 33.2461 0 44.6773
      vertex 33.7372 0.799999 44.0644
      vertex 33.2461 0.799999 44.6773
    endloop
  endfacet
  facet normal 0.780384 0 0.6253
    outer loop
      vertex 33.7372 0.799999 44.0644
      vertex 33.2461 0 44.6773
      vertex 33.7372 0 44.0644
    endloop
  endfacet
  facet normal 0.760442 -0 0.649406
    outer loop
      vertex 33.7372 0 44.0644
      vertex 34.2472 0.799999 43.4672
      vertex 33.7372 0.799999 44.0644
    endloop
  endfacet
  facet normal 0.760442 0 0.649406
    outer loop
      vertex 34.2472 0.799999 43.4672
      vertex 33.7372 0 44.0644
      vertex 34.2472 0 43.4672
    endloop
  endfacet
  facet normal 0.979216 -0 0.20282
    outer loop
      vertex 28.4428 0 55.3155
      vertex 28.6021 0.799999 54.5464
      vertex 28.4428 0.799999 55.3155
    endloop
  endfacet
  facet normal 0.979216 0 0.20282
    outer loop
      vertex 28.6021 0.799999 54.5464
      vertex 28.4428 0 55.3155
      vertex 28.6021 0 54.5464
    endloop
  endfacet
  facet normal 1 -0 0
    outer loop
      vertex 28 0 68
      vertex 28 0.799999 60
      vertex 28 0.799999 68
    endloop
  endfacet
  facet normal 1 0 0
    outer loop
      vertex 28 0.799999 60
      vertex 28 0 68
      vertex 28 0 60
    endloop
  endfacet
  facet normal -1 0 0
    outer loop
      vertex 78 0 60
      vertex 78 0.799999 68
      vertex 78 0.799999 60
    endloop
  endfacet
  facet normal -1 -0 0
    outer loop
      vertex 78 0.799999 68
      vertex 78 0 60
      vertex 78 0 68
    endloop
  endfacet
  facet normal -1 0 0
    outer loop
      vertex 1 0 60
      vertex 1 0.799999 68
      vertex 1 0.799999 60
    endloop
  endfacet
  facet normal -1 -0 0
    outer loop
      vertex 1 0.799999 68
      vertex 1 0 60
      vertex 1 0 68
    endloop
  endfacet
  facet normal -0 0 1
    outer loop
      vertex 78 0.799999 68
      vertex 104.4 0 68
      vertex 104.4 0.799999 68
    endloop
  endfacet
  facet normal 0 0 1
    outer loop
      vertex 104.4 0 68
      vertex 78 0.799999 68
      vertex 78 0 68
    endloop
  endfacet
  facet normal -0 0 1
    outer loop
      vertex 1 0.799999 68
      vertex 28 0 68
      vertex 28 0.799999 68
    endloop
  endfacet
  facet normal 0 0 1
    outer loop
      vertex 28 0 68
      vertex 1 0.799999 68
      vertex 1 0 68
    endloop
  endfacet
  facet normal 1 -0 0
    outer loop
      vertex 104.4 0 68
      vertex 104.4 0.799999 60
      vertex 104.4 0.799999 68
    endloop
  endfacet
  facet normal 1 0 0
    outer loop
      vertex 104.4 0.799999 60
      vertex 104.4 0 68
      vertex 104.4 0 60
    endloop
  endfacet
  facet normal 0 1 0
    outer loop
      vertex 103.4 0.799999 60
      vertex 104.4 0.799999 68
      vertex 104.4 0.799999 60
    endloop
  endfacet
  facet normal 0 1 0
    outer loop
      vertex 104.4 0.799999 68
      vertex 103.4 0.799999 60
      vertex 78 0.799999 68
    endloop
  endfacet
  facet normal 0 1 0
    outer loop
      vertex 103.4 0.799999 60
      vertex 78 0.799999 60
      vertex 78 0.799999 68
    endloop
  endfacet
  facet normal 0 1 0
    outer loop
      vertex 103.4 0.799999 60
      vertex 77.9877 0.799999 59.2147
      vertex 78 0.799999 60
    endloop
  endfacet
  facet normal 0 1 0
    outer loop
      vertex 103.4 0.799999 60
      vertex 77.9507 0.799999 58.4302
      vertex 77.9877 0.799999 59.2147
    endloop
  endfacet
  facet normal 0 1 0
    outer loop
      vertex 103.4 0.799999 60
      vertex 77.889 0.799999 57.6473
      vertex 77.9507 0.799999 58.4302
    endloop
  endfacet
  facet normal 0 1 0
    outer loop
      vertex 103.4 0.799999 60
      vertex 77.8029 0.799999 56.8667
      vertex 77.889 0.799999 57.6473
    endloop
  endfacet
  facet normal 0 1 0
    outer loop
      vertex 103.4 0.799999 60
      vertex 77.6922 0.799999 56.0891
      vertex 77.8029 0.799999 56.8667
    endloop
  endfacet
  facet normal 0 1 0
    outer loop
      vertex 103.4 0.799999 60
      vertex 77.5572 0.799999 55.3155
      vertex 77.6922 0.799999 56.0891
    endloop
  endfacet
  facet normal 0 1 0
    outer loop
      vertex 103.4 0.799999 60
      vertex 77.3979 0.799999 54.5464
      vertex 77.5572 0.799999 55.3155
    endloop
  endfacet
  facet normal 0 1 0
    outer loop
      vertex 103.4 0.799999 60
      vertex 77.2146 0.799999 53.7828
      vertex 77.3979 0.799999 54.5464
    endloop
  endfacet
  facet normal 0 1 0
    outer loop
      vertex 103.4 0.799999 60
      vertex 77.0073 0.799999 53.0252
      vertex 77.2146 0.799999 53.7828
    endloop
  endfacet
  facet normal 0 1 0
    outer loop
      vertex 103.4 0.799999 60
      vertex 76.7764 0.799999 52.2746
      vertex 77.0073 0.799999 53.0252
    endloop
  endfacet
  facet normal 0 1 0
    outer loop
      vertex 103.4 0.799999 60
      vertex 76.522 0.799999 51.5316
      vertex 76.7764 0.799999 52.2746
    endloop
  endfacet
  facet normal 0 1 0
    outer loop
      vertex 103.4 0.799999 60
      vertex 76.2444 0.799999 50.7969
      vertex 76.522 0.799999 51.5316
    endloop
  endfacet
  facet normal 0 1 0
    outer loop
      vertex 103.4 0.799999 60
      vertex 75.9439 0.799999 50.0713
      vertex 76.2444 0.799999 50.7969
    endloop
  endfacet
  facet normal 0 1 0
    outer loop
      vertex 103.4 0.799999 60
      vertex 75.6207 0.799999 49.3555
      vertex 75.9439 0.799999 50.0713
    endloop
  endfacet
  facet normal 0 1 0
    outer loop
      vertex 103.4 0.799999 60
      vertex 75.2752 0.799999 48.6502
      vertex 75.6207 0.799999 49.3555
    endloop
  endfacet
  facet normal 0 1 0
    outer loop
      vertex 103.4 0.799999 60
      vertex 74.9077 0.799999 47.9562
      vertex 75.2752 0.799999 48.6502
    endloop
  endfacet
  facet normal 0 1 0
    outer loop
      vertex 103.4 0.799999 60
      vertex 74.5185 0.799999 47.274
      vertex 74.9077 0.799999 47.9562
    endloop
  endfacet
  facet normal 0 1 0
    outer loop
      vertex 103.4 0.799999 60
      vertex 74.1082 0.799999 46.6043
      vertex 74.5185 0.799999 47.274
    endloop
  endfacet
  facet normal 0 1 -0
    outer loop
      vertex 103.4 0.799999 2
      vertex 74.1082 0.799999 46.6043
      vertex 103.4 0.799999 60
    endloop
  endfacet
  facet normal 0 1 0
    outer loop
      vertex 74.1082 0.799999 46.6043
      vertex 103.4 0.799999 2
      vertex 73.677 0.799999 45.9479
    endloop
  endfacet
  facet normal 0 1 0
    outer loop
      vertex 73.677 0.799999 45.9479
      vertex 103.4 0.799999 2
      vertex 73.2254 0.799999 45.3054
    endloop
  endfacet
  facet normal 0 1 0
    outer loop
      vertex 73.2254 0.799999 45.3054
      vertex 103.4 0.799999 2
      vertex 72.7539 0.799999 44.6773
    endloop
  endfacet
  facet normal 0 1 0
    outer loop
      vertex 72.7539 0.799999 44.6773
      vertex 103.4 0.799999 2
      vertex 72.2628 0.799999 44.0644
    endloop
  endfacet
  facet normal 0 1 0
    outer loop
      vertex 72.2628 0.799999 44.0644
      vertex 103.4 0.799999 2
      vertex 71.7528 0.799999 43.4672
    endloop
  endfacet
  facet normal 0 1 0
    outer loop
      vertex 71.7528 0.799999 43.4672
      vertex 103.4 0.799999 2
      vertex 71.2242 0.799999 42.8863
    endloop
  endfacet
  facet normal 0 1 0
    outer loop
      vertex 71.2242 0.799999 42.8863
      vertex 103.4 0.799999 2
      vertex 70.6777 0.799999 42.3223
    endloop
  endfacet
  facet normal 0 1 0
    outer loop
      vertex 70.6777 0.799999 42.3223
      vertex 103.4 0.799999 2
      vertex 70.1137 0.799999 41.7758
    endloop
  endfacet
  facet normal 0 1 0
    outer loop
      vertex 70.1137 0.799999 41.7758
      vertex 103.4 0.799999 2
      vertex 69.5328 0.799999 41.2472
    endloop
  endfacet
  facet normal 0 1 0
    outer loop
      vertex 69.5328 0.799999 41.2472
      vertex 103.4 0.799999 2
      vertex 68.9356 0.799999 40.7372
    endloop
  endfacet
  facet normal 0 1 0
    outer loop
      vertex 68.9356 0.799999 40.7372
      vertex 103.4 0.799999 2
      vertex 68.3227 0.799999 40.2461
    endloop
  endfacet
  facet normal 0 1 0
    outer loop
      vertex 68.3227 0.799999 40.2461
      vertex 103.4 0.799999 2
      vertex 67.6946 0.799999 39.7746
    endloop
  endfacet
  facet normal 0 1 0
    outer loop
      vertex 67.6946 0.799999 39.7746
      vertex 103.4 0.799999 2
      vertex 67.0521 0.799999 39.323
    endloop
  endfacet
  facet normal 0 1 0
    outer loop
      vertex 67.0521 0.799999 39.323
      vertex 103.4 0.799999 2
      vertex 66.3957 0.799999 38.8918
    endloop
  endfacet
  facet normal 0 1 0
    outer loop
      vertex 53.7853 0.799999 35.0123
      vertex 103.4 0.799999 2
      vertex 53 0.799999 35
    endloop
  endfacet
  facet normal 0 1 0
    outer loop
      vertex 54.5698 0.799999 35.0493
      vertex 103.4 0.799999 2
      vertex 53.7853 0.799999 35.0123
    endloop
  endfacet
  facet normal 0 1 0
    outer loop
      vertex 55.3527 0.799999 35.111
      vertex 103.4 0.799999 2
      vertex 54.5698 0.799999 35.0493
    endloop
  endfacet
  facet normal 0 1 0
    outer loop
      vertex 56.1333 0.799999 35.1971
      vertex 103.4 0.799999 2
      vertex 55.3527 0.799999 35.111
    endloop
  endfacet
  facet normal 0 1 0
    outer loop
      vertex 56.9109 0.799999 35.3078
      vertex 103.4 0.799999 2
      vertex 56.1333 0.799999 35.1971
    endloop
  endfacet
  facet normal 0 1 0
    outer loop
      vertex 57.6845 0.799999 35.4428
      vertex 103.4 0.799999 2
      vertex 56.9109 0.799999 35.3078
    endloop
  endfacet
  facet normal 0 1 0
    outer loop
      vertex 58.4536 0.799999 35.6021
      vertex 103.4 0.799999 2
      vertex 57.6845 0.799999 35.4428
    endloop
  endfacet
  facet normal 0 1 0
    outer loop
      vertex 59.2172 0.799999 35.7854
      vertex 103.4 0.799999 2
      vertex 58.4536 0.799999 35.6021
    endloop
  endfacet
  facet normal 0 1 0
    outer loop
      vertex 59.9748 0.799999 35.9927
      vertex 103.4 0.799999 2
      vertex 59.2172 0.799999 35.7854
    endloop
  endfacet
  facet normal 0 1 0
    outer loop
      vertex 60.7254 0.799999 36.2236
      vertex 103.4 0.799999 2
      vertex 59.9748 0.799999 35.9927
    endloop
  endfacet
  facet normal 0 1 0
    outer loop
      vertex 61.4684 0.799999 36.478
      vertex 103.4 0.799999 2
      vertex 60.7254 0.799999 36.2236
    endloop
  endfacet
  facet normal 0 1 0
    outer loop
      vertex 62.2031 0.799999 36.7556
      vertex 103.4 0.799999 2
      vertex 61.4684 0.799999 36.478
    endloop
  endfacet
  facet normal 0 1 0
    outer loop
      vertex 62.9287 0.799999 37.0561
      vertex 103.4 0.799999 2
      vertex 62.2031 0.799999 36.7556
    endloop
  endfacet
  facet normal 0 1 0
    outer loop
      vertex 63.6445 0.799999 37.3793
      vertex 103.4 0.799999 2
      vertex 62.9287 0.799999 37.0561
    endloop
  endfacet
  facet normal 0 1 0
    outer loop
      vertex 64.3498 0.799999 37.7248
      vertex 103.4 0.799999 2
      vertex 63.6445 0.799999 37.3793
    endloop
  endfacet
  facet normal 0 1 0
    outer loop
      vertex 65.0438 0.799999 38.0923
      vertex 103.4 0.799999 2
      vertex 64.3498 0.799999 37.7248
    endloop
  endfacet
  facet normal 0 1 0
    outer loop
      vertex 65.726 0.799999 38.4814
      vertex 103.4 0.799999 2
      vertex 65.0438 0.799999 38.0923
    endloop
  endfacet
  facet normal 0 1 0
    outer loop
      vertex 66.3957 0.799999 38.8918
      vertex 103.4 0.799999 2
      vertex 65.726 0.799999 38.4814
    endloop
  endfacet
  facet normal 0 1 0
    outer loop
      vertex 28.0123 0.799999 59.2147
      vertex 2 0.799999 60
      vertex 28 0.799999 60
    endloop
  endfacet
  facet normal 0 1 0
    outer loop
      vertex 28.0493 0.799999 58.4302
      vertex 2 0.799999 60
      vertex 28.0123 0.799999 59.2147
    endloop
  endfacet
  facet normal 0 1 0
    outer loop
      vertex 28.111 0.799999 57.6473
      vertex 2 0.799999 60
      vertex 28.0493 0.799999 58.4302
    endloop
  endfacet
  facet normal 0 1 0
    outer loop
      vertex 28.1971 0.799999 56.8667
      vertex 2 0.799999 60
      vertex 28.111 0.799999 57.6473
    endloop
  endfacet
  facet normal 0 1 0
    outer loop
      vertex 28.3078 0.799999 56.0891
      vertex 2 0.799999 60
      vertex 28.1971 0.799999 56.8667
    endloop
  endfacet
  facet normal 0 1 0
    outer loop
      vertex 28.4428 0.799999 55.3155
      vertex 2 0.799999 60
      vertex 28.3078 0.799999 56.0891
    endloop
  endfacet
  facet normal 0 1 0
    outer loop
      vertex 28.6021 0.799999 54.5464
      vertex 2 0.799999 60
      vertex 28.4428 0.799999 55.3155
    endloop
  endfacet
  facet normal 0 1 0
    outer loop
      vertex 28.7854 0.799999 53.7828
      vertex 2 0.799999 60
      vertex 28.6021 0.799999 54.5464
    endloop
  endfacet
  facet normal 0 1 0
    outer loop
      vertex 28.9927 0.799999 53.0252
      vertex 2 0.799999 60
      vertex 28.7854 0.799999 53.7828
    endloop
  endfacet
  facet normal 0 1 0
    outer loop
      vertex 29.2236 0.799999 52.2746
      vertex 2 0.799999 60
      vertex 28.9927 0.799999 53.0252
    endloop
  endfacet
  facet normal 0 1 0
    outer loop
      vertex 29.478 0.799999 51.5316
      vertex 2 0.799999 60
      vertex 29.2236 0.799999 52.2746
    endloop
  endfacet
  facet normal 0 1 0
    outer loop
      vertex 29.7556 0.799999 50.7969
      vertex 2 0.799999 60
      vertex 29.478 0.799999 51.5316
    endloop
  endfacet
  facet normal 0 1 0
    outer loop
      vertex 30.0561 0.799999 50.0713
      vertex 2 0.799999 60
      vertex 29.7556 0.799999 50.7969
    endloop
  endfacet
  facet normal 0 1 0
    outer loop
      vertex 30.3793 0.799999 49.3555
      vertex 2 0.799999 60
      vertex 30.0561 0.799999 50.0713
    endloop
  endfacet
  facet normal 0 1 0
    outer loop
      vertex 30.7248 0.799999 48.6502
      vertex 2 0.799999 60
      vertex 30.3793 0.799999 49.3555
    endloop
  endfacet
  facet normal 0 1 0
    outer loop
      vertex 31.0923 0.799999 47.9562
      vertex 2 0.799999 60
      vertex 30.7248 0.799999 48.6502
    endloop
  endfacet
  facet normal 0 1 0
    outer loop
      vertex 31.4814 0.799999 47.274
      vertex 2 0.799999 60
      vertex 31.0923 0.799999 47.9562
    endloop
  endfacet
  facet normal 0 1 0
    outer loop
      vertex 31.8918 0.799999 46.6043
      vertex 2 0.799999 60
      vertex 31.4814 0.799999 47.274
    endloop
  endfacet
  facet normal 0 1 0
    outer loop
      vertex 2 0.799999 2
      vertex 31.8918 0.799999 46.6043
      vertex 32.323 0.799999 45.9479
    endloop
  endfacet
  facet normal 0 1 0
    outer loop
      vertex 2 0.799999 2
      vertex 32.323 0.799999 45.9479
      vertex 32.7746 0.799999 45.3054
    endloop
  endfacet
  facet normal 0 1 0
    outer loop
      vertex 2 0.799999 2
      vertex 32.7746 0.799999 45.3054
      vertex 33.2461 0.799999 44.6773
    endloop
  endfacet
  facet normal 0 1 0
    outer loop
      vertex 2 0.799999 2
      vertex 33.2461 0.799999 44.6773
      vertex 33.7372 0.799999 44.0644
    endloop
  endfacet
  facet normal 0 1 0
    outer loop
      vertex 2 0.799999 2
      vertex 33.7372 0.799999 44.0644
      vertex 34.2472 0.799999 43.4672
    endloop
  endfacet
  facet normal 0 1 0
    outer loop
      vertex 2 0.799999 2
      vertex 34.2472 0.799999 43.4672
      vertex 34.7758 0.799999 42.8863
    endloop
  endfacet
  facet normal 0 1 0
    outer loop
      vertex 2 0.799999 2
      vertex 34.7758 0.799999 42.8863
      vertex 35.3223 0.799999 42.3223
    endloop
  endfacet
  facet normal 0 1 0
    outer loop
      vertex 2 0.799999 2
      vertex 35.3223 0.799999 42.3223
      vertex 35.8863 0.799999 41.7758
    endloop
  endfacet
  facet normal 0 1 0
    outer loop
      vertex 2 0.799999 2
      vertex 35.8863 0.799999 41.7758
      vertex 36.4672 0.799999 41.2472
    endloop
  endfacet
  facet normal 0 1 0
    outer loop
      vertex 2 0.799999 2
      vertex 36.4672 0.799999 41.2472
      vertex 37.0644 0.799999 40.7372
    endloop
  endfacet
  facet normal 0 1 0
    outer loop
      vertex 2 0.799999 2
      vertex 37.0644 0.799999 40.7372
      vertex 37.6773 0.799999 40.2461
    endloop
  endfacet
  facet normal 0 1 0
    outer loop
      vertex 2 0.799999 2
      vertex 37.6773 0.799999 40.2461
      vertex 38.3054 0.799999 39.7746
    endloop
  endfacet
  facet normal 0 1 0
    outer loop
      vertex 2 0.799999 2
      vertex 38.3054 0.799999 39.7746
      vertex 38.9479 0.799999 39.323
    endloop
  endfacet
  facet normal 0 1 0
    outer loop
      vertex 2 0.799999 2
      vertex 38.9479 0.799999 39.323
      vertex 39.6043 0.799999 38.8918
    endloop
  endfacet
  facet normal 0 1 0
    outer loop
      vertex 2 0.799999 2
      vertex 39.6043 0.799999 38.8918
      vertex 40.274 0.799999 38.4814
    endloop
  endfacet
  facet normal 0 1 0
    outer loop
      vertex 2 0.799999 2
      vertex 40.274 0.799999 38.4814
      vertex 40.9562 0.799999 38.0923
    endloop
  endfacet
  facet normal 0 1 0
    outer loop
      vertex 2 0.799999 2
      vertex 53 0.799999 35
      vertex 103.4 0.799999 2
    endloop
  endfacet
  facet normal 0 1 0
    outer loop
      vertex 53 0.799999 35
      vertex 2 0.799999 2
      vertex 52.2147 0.799999 35.0123
    endloop
  endfacet
  facet normal 0 1 0
    outer loop
      vertex 52.2147 0.799999 35.0123
      vertex 2 0.799999 2
      vertex 51.4302 0.799999 35.0493
    endloop
  endfacet
  facet normal 0 1 0
    outer loop
      vertex 51.4302 0.799999 35.0493
      vertex 2 0.799999 2
      vertex 50.6473 0.799999 35.111
    endloop
  endfacet
  facet normal 0 1 0
    outer loop
      vertex 50.6473 0.799999 35.111
      vertex 2 0.799999 2
      vertex 49.8667 0.799999 35.1971
    endloop
  endfacet
  facet normal 0 1 0
    outer loop
      vertex 49.8667 0.799999 35.1971
      vertex 2 0.799999 2
      vertex 49.0891 0.799999 35.3078
    endloop
  endfacet
  facet normal 0 1 0
    outer loop
      vertex 49.0891 0.799999 35.3078
      vertex 2 0.799999 2
      vertex 48.3155 0.799999 35.4428
    endloop
  endfacet
  facet normal 0 1 0
    outer loop
      vertex 48.3155 0.799999 35.4428
      vertex 2 0.799999 2
      vertex 47.5464 0.799999 35.6021
    endloop
  endfacet
  facet normal 0 1 0
    outer loop
      vertex 47.5464 0.799999 35.6021
      vertex 2 0.799999 2
      vertex 46.7828 0.799999 35.7854
    endloop
  endfacet
  facet normal 0 1 0
    outer loop
      vertex 46.7828 0.799999 35.7854
      vertex 2 0.799999 2
      vertex 46.0252 0.799999 35.9927
    endloop
  endfacet
  facet normal 0 1 0
    outer loop
      vertex 46.0252 0.799999 35.9927
      vertex 2 0.799999 2
      vertex 45.2746 0.799999 36.2236
    endloop
  endfacet
  facet normal 0 1 0
    outer loop
      vertex 45.2746 0.799999 36.2236
      vertex 2 0.799999 2
      vertex 44.5316 0.799999 36.478
    endloop
  endfacet
  facet normal 0 1 0
    outer loop
      vertex 44.5316 0.799999 36.478
      vertex 2 0.799999 2
      vertex 43.7969 0.799999 36.7556
    endloop
  endfacet
  facet normal 0 1 0
    outer loop
      vertex 43.7969 0.799999 36.7556
      vertex 2 0.799999 2
      vertex 43.0713 0.799999 37.0561
    endloop
  endfacet
  facet normal 0 1 0
    outer loop
      vertex 43.0713 0.799999 37.0561
      vertex 2 0.799999 2
      vertex 42.3555 0.799999 37.3793
    endloop
  endfacet
  facet normal 0 1 0
    outer loop
      vertex 42.3555 0.799999 37.3793
      vertex 2 0.799999 2
      vertex 41.6502 0.799999 37.7248
    endloop
  endfacet
  facet normal 0 1 0
    outer loop
      vertex 41.6502 0.799999 37.7248
      vertex 2 0.799999 2
      vertex 40.9562 0.799999 38.0923
    endloop
  endfacet
  facet normal 0 1 0
    outer loop
      vertex 31.8918 0.799999 46.6043
      vertex 2 0.799999 2
      vertex 2 0.799999 60
    endloop
  endfacet
  facet normal 0 1 0
    outer loop
      vertex 2 0.799999 60
      vertex 28 0.799999 68
      vertex 28 0.799999 60
    endloop
  endfacet
  facet normal 0 1 0
    outer loop
      vertex 28 0.799999 68
      vertex 2 0.799999 60
      vertex 1 0.799999 68
    endloop
  endfacet
  facet normal 0 1 0
    outer loop
      vertex 1 0.799999 68
      vertex 2 0.799999 60
      vertex 1 0.799999 60
    endloop
  endfacet
  facet normal 0 0 -1
    outer loop
      vertex 2 0 2
      vertex 103.4 0.799999 2
      vertex 103.4 0 2
    endloop
  endfacet
  facet normal -0 0 -1
    outer loop
      vertex 103.4 0.799999 2
      vertex 2 0 2
      vertex 2 0.799999 2
    endloop
  endfacet
  facet normal 0 -1 0
    outer loop
      vertex 2 0 60
      vertex 1 0 68
      vertex 1 0 60
    endloop
  endfacet
  facet normal 0 -1 0
    outer loop
      vertex 1 0 68
      vertex 2 0 60
      vertex 28 0 68
    endloop
  endfacet
  facet normal 0 -1 0
    outer loop
      vertex 2 0 60
      vertex 28 0 60
      vertex 28 0 68
    endloop
  endfacet
  facet normal 0 -1 0
    outer loop
      vertex 2 0 60
      vertex 28.0123 0 59.2147
      vertex 28 0 60
    endloop
  endfacet
  facet normal 0 -1 0
    outer loop
      vertex 2 0 60
      vertex 28.0493 0 58.4302
      vertex 28.0123 0 59.2147
    endloop
  endfacet
  facet normal 0 -1 0
    outer loop
      vertex 2 0 60
      vertex 28.111 0 57.6473
      vertex 28.0493 0 58.4302
    endloop
  endfacet
  facet normal 0 -1 0
    outer loop
      vertex 2 0 60
      vertex 28.1971 0 56.8667
      vertex 28.111 0 57.6473
    endloop
  endfacet
  facet normal 0 -1 0
    outer loop
      vertex 2 0 60
      vertex 28.3078 0 56.0891
      vertex 28.1971 0 56.8667
    endloop
  endfacet
  facet normal 0 -1 0
    outer loop
      vertex 2 0 60
      vertex 28.4428 0 55.3155
      vertex 28.3078 0 56.0891
    endloop
  endfacet
  facet normal 0 -1 0
    outer loop
      vertex 2 0 60
      vertex 28.6021 0 54.5464
      vertex 28.4428 0 55.3155
    endloop
  endfacet
  facet normal 0 -1 0
    outer loop
      vertex 2 0 60
      vertex 28.7854 0 53.7828
      vertex 28.6021 0 54.5464
    endloop
  endfacet
  facet normal 0 -1 0
    outer loop
      vertex 2 0 60
      vertex 28.9927 0 53.0252
      vertex 28.7854 0 53.7828
    endloop
  endfacet
  facet normal 0 -1 0
    outer loop
      vertex 2 0 60
      vertex 29.2236 0 52.2746
      vertex 28.9927 0 53.0252
    endloop
  endfacet
  facet normal 0 -1 0
    outer loop
      vertex 2 0 60
      vertex 29.478 0 51.5316
      vertex 29.2236 0 52.2746
    endloop
  endfacet
  facet normal 0 -1 0
    outer loop
      vertex 2 0 60
      vertex 29.7556 0 50.7969
      vertex 29.478 0 51.5316
    endloop
  endfacet
  facet normal 0 -1 0
    outer loop
      vertex 2 0 60
      vertex 30.0561 0 50.0713
      vertex 29.7556 0 50.7969
    endloop
  endfacet
  facet normal 0 -1 0
    outer loop
      vertex 2 0 60
      vertex 30.3793 0 49.3555
      vertex 30.0561 0 50.0713
    endloop
  endfacet
  facet normal 0 -1 0
    outer loop
      vertex 2 0 60
      vertex 30.7248 0 48.6502
      vertex 30.3793 0 49.3555
    endloop
  endfacet
  facet normal 0 -1 0
    outer loop
      vertex 2 0 60
      vertex 31.0923 0 47.9562
      vertex 30.7248 0 48.6502
    endloop
  endfacet
  facet normal 0 -1 0
    outer loop
      vertex 2 0 60
      vertex 31.4814 0 47.274
      vertex 31.0923 0 47.9562
    endloop
  endfacet
  facet normal 0 -1 0
    outer loop
      vertex 2 0 60
      vertex 31.8918 0 46.6043
      vertex 31.4814 0 47.274
    endloop
  endfacet
  facet normal 0 -1 0
    outer loop
      vertex 2 0 2
      vertex 31.8918 0 46.6043
      vertex 2 0 60
    endloop
  endfacet
  facet normal 0 -1 -0
    outer loop
      vertex 31.8918 0 46.6043
      vertex 2 0 2
      vertex 32.323 0 45.9479
    endloop
  endfacet
  facet normal 0 -1 -0
    outer loop
      vertex 32.323 0 45.9479
      vertex 2 0 2
      vertex 32.7746 0 45.3054
    endloop
  endfacet
  facet normal 0 -1 -0
    outer loop
      vertex 32.7746 0 45.3054
      vertex 2 0 2
      vertex 33.2461 0 44.6773
    endloop
  endfacet
  facet normal 0 -1 -0
    outer loop
      vertex 33.2461 0 44.6773
      vertex 2 0 2
      vertex 33.7372 0 44.0644
    endloop
  endfacet
  facet normal 0 -1 -0
    outer loop
      vertex 33.7372 0 44.0644
      vertex 2 0 2
      vertex 34.2472 0 43.4672
    endloop
  endfacet
  facet normal 0 -1 -0
    outer loop
      vertex 34.2472 0 43.4672
      vertex 2 0 2
      vertex 34.7758 0 42.8863
    endloop
  endfacet
  facet normal 0 -1 -0
    outer loop
      vertex 34.7758 0 42.8863
      vertex 2 0 2
      vertex 35.3223 0 42.3223
    endloop
  endfacet
  facet normal 0 -1 -0
    outer loop
      vertex 35.3223 0 42.3223
      vertex 2 0 2
      vertex 35.8863 0 41.7758
    endloop
  endfacet
  facet normal 0 -1 -0
    outer loop
      vertex 35.8863 0 41.7758
      vertex 2 0 2
      vertex 36.4672 0 41.2472
    endloop
  endfacet
  facet normal 0 -1 -0
    outer loop
      vertex 36.4672 0 41.2472
      vertex 2 0 2
      vertex 37.0644 0 40.7372
    endloop
  endfacet
  facet normal 0 -1 -0
    outer loop
      vertex 37.0644 0 40.7372
      vertex 2 0 2
      vertex 37.6773 0 40.2461
    endloop
  endfacet
  facet normal 0 -1 -0
    outer loop
      vertex 37.6773 0 40.2461
      vertex 2 0 2
      vertex 38.3054 0 39.7746
    endloop
  endfacet
  facet normal 0 -1 -0
    outer loop
      vertex 38.3054 0 39.7746
      vertex 2 0 2
      vertex 38.9479 0 39.323
    endloop
  endfacet
  facet normal 0 -1 -0
    outer loop
      vertex 38.9479 0 39.323
      vertex 2 0 2
      vertex 39.6043 0 38.8918
    endloop
  endfacet
  facet normal 0 -1 -0
    outer loop
      vertex 39.6043 0 38.8918
      vertex 2 0 2
      vertex 40.274 0 38.4814
    endloop
  endfacet
  facet normal 0 -1 -0
    outer loop
      vertex 52.2147 0 35.0123
      vertex 2 0 2
      vertex 53 0 35
    endloop
  endfacet
  facet normal 0 -1 -0
    outer loop
      vertex 51.4302 0 35.0493
      vertex 2 0 2
      vertex 52.2147 0 35.0123
    endloop
  endfacet
  facet normal 0 -1 -0
    outer loop
      vertex 50.6473 0 35.111
      vertex 2 0 2
      vertex 51.4302 0 35.0493
    endloop
  endfacet
  facet normal 0 -1 -0
    outer loop
      vertex 49.8667 0 35.1971
      vertex 2 0 2
      vertex 50.6473 0 35.111
    endloop
  endfacet
  facet normal 0 -1 -0
    outer loop
      vertex 49.0891 0 35.3078
      vertex 2 0 2
      vertex 49.8667 0 35.1971
    endloop
  endfacet
  facet normal 0 -1 -0
    outer loop
      vertex 48.3155 0 35.4428
      vertex 2 0 2
      vertex 49.0891 0 35.3078
    endloop
  endfacet
  facet normal 0 -1 -0
    outer loop
      vertex 47.5464 0 35.6021
      vertex 2 0 2
      vertex 48.3155 0 35.4428
    endloop
  endfacet
  facet normal 0 -1 -0
    outer loop
      vertex 46.7828 0 35.7854
      vertex 2 0 2
      vertex 47.5464 0 35.6021
    endloop
  endfacet
  facet normal 0 -1 -0
    outer loop
      vertex 46.0252 0 35.9927
      vertex 2 0 2
      vertex 46.7828 0 35.7854
    endloop
  endfacet
  facet normal 0 -1 -0
    outer loop
      vertex 45.2746 0 36.2236
      vertex 2 0 2
      vertex 46.0252 0 35.9927
    endloop
  endfacet
  facet normal 0 -1 -0
    outer loop
      vertex 44.5316 0 36.478
      vertex 2 0 2
      vertex 45.2746 0 36.2236
    endloop
  endfacet
  facet normal 0 -1 -0
    outer loop
      vertex 43.7969 0 36.7556
      vertex 2 0 2
      vertex 44.5316 0 36.478
    endloop
  endfacet
  facet normal 0 -1 -0
    outer loop
      vertex 43.0713 0 37.0561
      vertex 2 0 2
      vertex 43.7969 0 36.7556
    endloop
  endfacet
  facet normal 0 -1 -0
    outer loop
      vertex 42.3555 0 37.3793
      vertex 2 0 2
      vertex 43.0713 0 37.0561
    endloop
  endfacet
  facet normal 0 -1 -0
    outer loop
      vertex 41.6502 0 37.7248
      vertex 2 0 2
      vertex 42.3555 0 37.3793
    endloop
  endfacet
  facet normal 0 -1 -0
    outer loop
      vertex 40.9562 0 38.0923
      vertex 2 0 2
      vertex 41.6502 0 37.7248
    endloop
  endfacet
  facet normal 0 -1 -0
    outer loop
      vertex 40.274 0 38.4814
      vertex 2 0 2
      vertex 40.9562 0 38.0923
    endloop
  endfacet
  facet normal 0 -1 0
    outer loop
      vertex 77.9877 0 59.2147
      vertex 103.4 0 60
      vertex 78 0 60
    endloop
  endfacet
  facet normal 0 -1 0
    outer loop
      vertex 77.9507 0 58.4302
      vertex 103.4 0 60
      vertex 77.9877 0 59.2147
    endloop
  endfacet
  facet normal 0 -1 0
    outer loop
      vertex 77.889 0 57.6473
      vertex 103.4 0 60
      vertex 77.9507 0 58.4302
    endloop
  endfacet
  facet normal 0 -1 0
    outer loop
      vertex 77.8029 0 56.8667
      vertex 103.4 0 60
      vertex 77.889 0 57.6473
    endloop
  endfacet
  facet normal 0 -1 0
    outer loop
      vertex 77.6922 0 56.0891
      vertex 103.4 0 60
      vertex 77.8029 0 56.8667
    endloop
  endfacet
  facet normal 0 -1 0
    outer loop
      vertex 77.5572 0 55.3155
      vertex 103.4 0 60
      vertex 77.6922 0 56.0891
    endloop
  endfacet
  facet normal 0 -1 0
    outer loop
      vertex 77.3979 0 54.5464
      vertex 103.4 0 60
      vertex 77.5572 0 55.3155
    endloop
  endfacet
  facet normal 0 -1 0
    outer loop
      vertex 77.2146 0 53.7828
      vertex 103.4 0 60
      vertex 77.3979 0 54.5464
    endloop
  endfacet
  facet normal 0 -1 0
    outer loop
      vertex 77.0073 0 53.0252
      vertex 103.4 0 60
      vertex 77.2146 0 53.7828
    endloop
  endfacet
  facet normal 0 -1 0
    outer loop
      vertex 76.7764 0 52.2746
      vertex 103.4 0 60
      vertex 77.0073 0 53.0252
    endloop
  endfacet
  facet normal 0 -1 0
    outer loop
      vertex 76.522 0 51.5316
      vertex 103.4 0 60
      vertex 76.7764 0 52.2746
    endloop
  endfacet
  facet normal 0 -1 0
    outer loop
      vertex 76.2444 0 50.7969
      vertex 103.4 0 60
      vertex 76.522 0 51.5316
    endloop
  endfacet
  facet normal 0 -1 0
    outer loop
      vertex 75.9439 0 50.0713
      vertex 103.4 0 60
      vertex 76.2444 0 50.7969
    endloop
  endfacet
  facet normal 0 -1 0
    outer loop
      vertex 75.6207 0 49.3555
      vertex 103.4 0 60
      vertex 75.9439 0 50.0713
    endloop
  endfacet
  facet normal 0 -1 0
    outer loop
      vertex 75.2752 0 48.6502
      vertex 103.4 0 60
      vertex 75.6207 0 49.3555
    endloop
  endfacet
  facet normal 0 -1 0
    outer loop
      vertex 74.9077 0 47.9562
      vertex 103.4 0 60
      vertex 75.2752 0 48.6502
    endloop
  endfacet
  facet normal 0 -1 0
    outer loop
      vertex 74.5185 0 47.274
      vertex 103.4 0 60
      vertex 74.9077 0 47.9562
    endloop
  endfacet
  facet normal 0 -1 0
    outer loop
      vertex 74.1082 0 46.6043
      vertex 103.4 0 60
      vertex 74.5185 0 47.274
    endloop
  endfacet
  facet normal 0 -1 0
    outer loop
      vertex 103.4 0 2
      vertex 74.1082 0 46.6043
      vertex 73.677 0 45.9479
    endloop
  endfacet
  facet normal 0 -1 0
    outer loop
      vertex 103.4 0 2
      vertex 73.677 0 45.9479
      vertex 73.2254 0 45.3054
    endloop
  endfacet
  facet normal 0 -1 0
    outer loop
      vertex 103.4 0 2
      vertex 73.2254 0 45.3054
      vertex 72.7539 0 44.6773
    endloop
  endfacet
  facet normal 0 -1 0
    outer loop
      vertex 103.4 0 2
      vertex 72.7539 0 44.6773
      vertex 72.2628 0 44.0644
    endloop
  endfacet
  facet normal 0 -1 0
    outer loop
      vertex 103.4 0 2
      vertex 72.2628 0 44.0644
      vertex 71.7528 0 43.4672
    endloop
  endfacet
  facet normal 0 -1 0
    outer loop
      vertex 103.4 0 2
      vertex 71.7528 0 43.4672
      vertex 71.2242 0 42.8863
    endloop
  endfacet
  facet normal 0 -1 0
    outer loop
      vertex 103.4 0 2
      vertex 71.2242 0 42.8863
      vertex 70.6777 0 42.3223
    endloop
  endfacet
  facet normal 0 -1 0
    outer loop
      vertex 103.4 0 2
      vertex 70.6777 0 42.3223
      vertex 70.1137 0 41.7758
    endloop
  endfacet
  facet normal 0 -1 0
    outer loop
      vertex 103.4 0 2
      vertex 70.1137 0 41.7758
      vertex 69.5328 0 41.2472
    endloop
  endfacet
  facet normal 0 -1 0
    outer loop
      vertex 103.4 0 2
      vertex 69.5328 0 41.2472
      vertex 68.9356 0 40.7372
    endloop
  endfacet
  facet normal 0 -1 0
    outer loop
      vertex 103.4 0 2
      vertex 68.9356 0 40.7372
      vertex 68.3227 0 40.2461
    endloop
  endfacet
  facet normal 0 -1 0
    outer loop
      vertex 103.4 0 2
      vertex 68.3227 0 40.2461
      vertex 67.6946 0 39.7746
    endloop
  endfacet
  facet normal 0 -1 0
    outer loop
      vertex 103.4 0 2
      vertex 67.6946 0 39.7746
      vertex 67.0521 0 39.323
    endloop
  endfacet
  facet normal 0 -1 0
    outer loop
      vertex 103.4 0 2
      vertex 67.0521 0 39.323
      vertex 66.3957 0 38.8918
    endloop
  endfacet
  facet normal 0 -1 0
    outer loop
      vertex 103.4 0 2
      vertex 66.3957 0 38.8918
      vertex 65.726 0 38.4814
    endloop
  endfacet
  facet normal 0 -1 0
    outer loop
      vertex 103.4 0 2
      vertex 53 0 35
      vertex 2 0 2
    endloop
  endfacet
  facet normal 0 -1 0
    outer loop
      vertex 53 0 35
      vertex 103.4 0 2
      vertex 53.7853 0 35.0123
    endloop
  endfacet
  facet normal 0 -1 0
    outer loop
      vertex 53.7853 0 35.0123
      vertex 103.4 0 2
      vertex 54.5698 0 35.0493
    endloop
  endfacet
  facet normal 0 -1 0
    outer loop
      vertex 54.5698 0 35.0493
      vertex 103.4 0 2
      vertex 55.3527 0 35.111
    endloop
  endfacet
  facet normal 0 -1 0
    outer loop
      vertex 55.3527 0 35.111
      vertex 103.4 0 2
      vertex 56.1333 0 35.1971
    endloop
  endfacet
  facet normal 0 -1 0
    outer loop
      vertex 56.1333 0 35.1971
      vertex 103.4 0 2
      vertex 56.9109 0 35.3078
    endloop
  endfacet
  facet normal 0 -1 0
    outer loop
      vertex 56.9109 0 35.3078
      vertex 103.4 0 2
      vertex 57.6845 0 35.4428
    endloop
  endfacet
  facet normal 0 -1 0
    outer loop
      vertex 57.6845 0 35.4428
      vertex 103.4 0 2
      vertex 58.4536 0 35.6021
    endloop
  endfacet
  facet normal 0 -1 0
    outer loop
      vertex 58.4536 0 35.6021
      vertex 103.4 0 2
      vertex 59.2172 0 35.7854
    endloop
  endfacet
  facet normal 0 -1 0
    outer loop
      vertex 59.2172 0 35.7854
      vertex 103.4 0 2
      vertex 59.9748 0 35.9927
    endloop
  endfacet
  facet normal 0 -1 0
    outer loop
      vertex 59.9748 0 35.9927
      vertex 103.4 0 2
      vertex 60.7254 0 36.2236
    endloop
  endfacet
  facet normal 0 -1 0
    outer loop
      vertex 60.7254 0 36.2236
      vertex 103.4 0 2
      vertex 61.4684 0 36.478
    endloop
  endfacet
  facet normal 0 -1 0
    outer loop
      vertex 61.4684 0 36.478
      vertex 103.4 0 2
      vertex 62.2031 0 36.7556
    endloop
  endfacet
  facet normal 0 -1 0
    outer loop
      vertex 62.2031 0 36.7556
      vertex 103.4 0 2
      vertex 62.9287 0 37.0561
    endloop
  endfacet
  facet normal 0 -1 0
    outer loop
      vertex 62.9287 0 37.0561
      vertex 103.4 0 2
      vertex 63.6445 0 37.3793
    endloop
  endfacet
  facet normal 0 -1 0
    outer loop
      vertex 63.6445 0 37.3793
      vertex 103.4 0 2
      vertex 64.3498 0 37.7248
    endloop
  endfacet
  facet normal 0 -1 0
    outer loop
      vertex 64.3498 0 37.7248
      vertex 103.4 0 2
      vertex 65.0438 0 38.0923
    endloop
  endfacet
  facet normal 0 -1 0
    outer loop
      vertex 65.0438 0 38.0923
      vertex 103.4 0 2
      vertex 65.726 0 38.4814
    endloop
  endfacet
  facet normal 0 -1 0
    outer loop
      vertex 74.1082 0 46.6043
      vertex 103.4 0 2
      vertex 103.4 0 60
    endloop
  endfacet
  facet normal 0 -1 0
    outer loop
      vertex 103.4 0 60
      vertex 78 0 68
      vertex 78 0 60
    endloop
  endfacet
  facet normal 0 -1 0
    outer loop
      vertex 78 0 68
      vertex 103.4 0 60
      vertex 104.4 0 68
    endloop
  endfacet
  facet normal 0 -1 -0
    outer loop
      vertex 104.4 0 68
      vertex 103.4 0 60
      vertex 104.4 0 60
    endloop
  endfacet
  facet normal 0 0 -1
    outer loop
      vertex 1 0 60
      vertex 2 0.799999 60
      vertex 2 0 60
    endloop
  endfacet
  facet normal -0 0 -1
    outer loop
      vertex 2 0.799999 60
      vertex 1 0 60
      vertex 1 0.799999 60
    endloop
  endfacet
  facet normal -1 0 0
    outer loop
      vertex 2 0 2
      vertex 2 0.799999 60
      vertex 2 0.799999 2
    endloop
  endfacet
  facet normal -1 -0 0
    outer loop
      vertex 2 0.799999 60
      vertex 2 0 2
      vertex 2 0 60
    endloop
  endfacet
  facet normal 1 -0 0
    outer loop
      vertex 103.4 0 60
      vertex 103.4 0.799999 2
      vertex 103.4 0.799999 60
    endloop
  endfacet
  facet normal 1 0 0
    outer loop
      vertex 103.4 0.799999 2
      vertex 103.4 0 60
      vertex 103.4 0 2
    endloop
  endfacet
  facet normal 0 0 -1
    outer loop
      vertex 103.4 0 60
      vertex 104.4 0.799999 60
      vertex 104.4 0 60
    endloop
  endfacet
  facet normal -0 0 -1
    outer loop
      vertex 104.4 0.799999 60
      vertex 103.4 0 60
      vertex 103.4 0.799999 60
    endloop
  endfacet
endsolid OpenSCAD_Model
