solid OpenSCAD_Model
  facet normal 0 1 -0
    outer loop
      vertex 32 1 1
      vertex 6 1 32
      vertex 32 1 32
    endloop
  endfacet
  facet normal 0 1 0
    outer loop
      vertex 6 1 32
      vertex 32 1 1
      vertex 6 1 1
    endloop
  endfacet
  facet normal 0 -1 0
    outer loop
      vertex 30 5 1
      vertex 32 5 32
      vertex 30 5 32
    endloop
  endfacet
  facet normal 0 -1 -0
    outer loop
      vertex 32 5 32
      vertex 30 5 1
      vertex 32 5 1
    endloop
  endfacet
  facet normal 0 -1 0
    outer loop
      vertex 6 5 1
      vertex 8 5 32
      vertex 6 5 32
    endloop
  endfacet
  facet normal 0 -1 -0
    outer loop
      vertex 8 5 32
      vertex 6 5 1
      vertex 8 5 1
    endloop
  endfacet
  facet normal 1 -0 0
    outer loop
      vertex 6 1 32
      vertex 6 5 1
      vertex 6 5 32
    endloop
  endfacet
  facet normal 1 0 0
    outer loop
      vertex 6 5 1
      vertex 6 1 32
      vertex 6 1 1
    endloop
  endfacet
  facet normal 0 0 1
    outer loop
      vertex 184 64 1
      vertex 180 7 1
      vertex 184 7 1
    endloop
  endfacet
  facet normal 0 0 1
    outer loop
      vertex 158 7 1
      vertex 180 7 1
      vertex 177 64 1
    endloop
  endfacet
  facet normal -0 0 1
    outer loop
      vertex 177 64 1
      vertex 180 7 1
      vertex 184 64 1
    endloop
  endfacet
  facet normal -0 0 1
    outer loop
      vertex 180 5 1
      vertex 182 1 1
      vertex 182 5 1
    endloop
  endfacet
  facet normal 0 0 1
    outer loop
      vertex 180 7 1
      vertex 158 7 1
      vertex 180 5 1
    endloop
  endfacet
  facet normal 0 0 1
    outer loop
      vertex 158 5 1
      vertex 180 5 1
      vertex 158 7 1
    endloop
  endfacet
  facet normal 0 0 1
    outer loop
      vertex 180 5 1
      vertex 158 5 1
      vertex 182 1 1
    endloop
  endfacet
  facet normal 0 0 1
    outer loop
      vertex 156 1 1
      vertex 158 5 1
      vertex 156 5 1
    endloop
  endfacet
  facet normal 0 0 1
    outer loop
      vertex 158 5 1
      vertex 156 1 1
      vertex 182 1 1
    endloop
  endfacet
  facet normal 0 0 1
    outer loop
      vertex 179 70 1
      vertex 177 66 1
      vertex 179 66 1
    endloop
  endfacet
  facet normal 0 0 1
    outer loop
      vertex 155 64 1
      vertex 177 64 1
      vertex 177 66 1
    endloop
  endfacet
  facet normal 0 0 1
    outer loop
      vertex 155 64 1
      vertex 177 66 1
      vertex 155 66 1
    endloop
  endfacet
  facet normal 0 0 1
    outer loop
      vertex 179 70 1
      vertex 155 66 1
      vertex 177 66 1
    endloop
  endfacet
  facet normal -0 0 1
    outer loop
      vertex 153 70 1
      vertex 155 66 1
      vertex 179 70 1
    endloop
  endfacet
  facet normal 0 0 1
    outer loop
      vertex 155 66 1
      vertex 153 70 1
      vertex 153 66 1
    endloop
  endfacet
  facet normal 0 0 1
    outer loop
      vertex 177 64 1
      vertex 155 64 1
      vertex 158 7 1
    endloop
  endfacet
  facet normal 0 0 1
    outer loop
      vertex 155 64 1
      vertex 150 7 1
      vertex 158 7 1
    endloop
  endfacet
  facet normal 0 0 1
    outer loop
      vertex 128 7 1
      vertex 150 7 1
      vertex 147 64 1
    endloop
  endfacet
  facet normal -0 0 1
    outer loop
      vertex 147 64 1
      vertex 150 7 1
      vertex 155 64 1
    endloop
  endfacet
  facet normal -0 0 1
    outer loop
      vertex 150 5 1
      vertex 152 1 1
      vertex 152 5 1
    endloop
  endfacet
  facet normal 0 0 1
    outer loop
      vertex 150 7 1
      vertex 128 7 1
      vertex 150 5 1
    endloop
  endfacet
  facet normal 0 0 1
    outer loop
      vertex 128 5 1
      vertex 150 5 1
      vertex 128 7 1
    endloop
  endfacet
  facet normal 0 0 1
    outer loop
      vertex 150 5 1
      vertex 128 5 1
      vertex 152 1 1
    endloop
  endfacet
  facet normal 0 0 1
    outer loop
      vertex 126 1 1
      vertex 128 5 1
      vertex 126 5 1
    endloop
  endfacet
  facet normal 0 0 1
    outer loop
      vertex 128 5 1
      vertex 126 1 1
      vertex 152 1 1
    endloop
  endfacet
  facet normal 0 0 1
    outer loop
      vertex 149 70 1
      vertex 147 66 1
      vertex 149 66 1
    endloop
  endfacet
  facet normal 0 0 1
    outer loop
      vertex 125 64 1
      vertex 147 64 1
      vertex 147 66 1
    endloop
  endfacet
  facet normal 0 0 1
    outer loop
      vertex 125 64 1
      vertex 147 66 1
      vertex 125 66 1
    endloop
  endfacet
  facet normal 0 0 1
    outer loop
      vertex 149 70 1
      vertex 125 66 1
      vertex 147 66 1
    endloop
  endfacet
  facet normal -0 0 1
    outer loop
      vertex 123 70 1
      vertex 125 66 1
      vertex 149 70 1
    endloop
  endfacet
  facet normal 0 0 1
    outer loop
      vertex 125 66 1
      vertex 123 70 1
      vertex 123 66 1
    endloop
  endfacet
  facet normal 0 0 1
    outer loop
      vertex 147 64 1
      vertex 125 64 1
      vertex 128 7 1
    endloop
  endfacet
  facet normal 0 0 1
    outer loop
      vertex 125 64 1
      vertex 120 7 1
      vertex 128 7 1
    endloop
  endfacet
  facet normal 0 0 1
    outer loop
      vertex 98 7 1
      vertex 120 7 1
      vertex 117 64 1
    endloop
  endfacet
  facet normal -0 0 1
    outer loop
      vertex 117 64 1
      vertex 120 7 1
      vertex 125 64 1
    endloop
  endfacet
  facet normal -0 0 1
    outer loop
      vertex 120 5 1
      vertex 122 1 1
      vertex 122 5 1
    endloop
  endfacet
  facet normal 0 0 1
    outer loop
      vertex 120 7 1
      vertex 98 7 1
      vertex 120 5 1
    endloop
  endfacet
  facet normal 0 0 1
    outer loop
      vertex 98 5 1
      vertex 120 5 1
      vertex 98 7 1
    endloop
  endfacet
  facet normal 0 0 1
    outer loop
      vertex 120 5 1
      vertex 98 5 1
      vertex 122 1 1
    endloop
  endfacet
  facet normal 0 0 1
    outer loop
      vertex 96 1 1
      vertex 98 5 1
      vertex 96 5 1
    endloop
  endfacet
  facet normal 0 0 1
    outer loop
      vertex 98 5 1
      vertex 96 1 1
      vertex 122 1 1
    endloop
  endfacet
  facet normal 0 0 1
    outer loop
      vertex 119 70 1
      vertex 117 66 1
      vertex 119 66 1
    endloop
  endfacet
  facet normal 0 0 1
    outer loop
      vertex 95 64 1
      vertex 117 64 1
      vertex 117 66 1
    endloop
  endfacet
  facet normal 0 0 1
    outer loop
      vertex 95 64 1
      vertex 117 66 1
      vertex 95 66 1
    endloop
  endfacet
  facet normal 0 0 1
    outer loop
      vertex 119 70 1
      vertex 95 66 1
      vertex 117 66 1
    endloop
  endfacet
  facet normal -0 0 1
    outer loop
      vertex 93 70 1
      vertex 95 66 1
      vertex 119 70 1
    endloop
  endfacet
  facet normal 0 0 1
    outer loop
      vertex 95 66 1
      vertex 93 70 1
      vertex 93 66 1
    endloop
  endfacet
  facet normal 0 0 1
    outer loop
      vertex 117 64 1
      vertex 95 64 1
      vertex 98 7 1
    endloop
  endfacet
  facet normal 0 0 1
    outer loop
      vertex 95 64 1
      vertex 90 7 1
      vertex 98 7 1
    endloop
  endfacet
  facet normal 0 0 1
    outer loop
      vertex 68 7 1
      vertex 90 7 1
      vertex 87 64 1
    endloop
  endfacet
  facet normal -0 0 1
    outer loop
      vertex 87 64 1
      vertex 90 7 1
      vertex 95 64 1
    endloop
  endfacet
  facet normal -0 0 1
    outer loop
      vertex 90 5 1
      vertex 92 1 1
      vertex 92 5 1
    endloop
  endfacet
  facet normal 0 0 1
    outer loop
      vertex 90 7 1
      vertex 68 7 1
      vertex 90 5 1
    endloop
  endfacet
  facet normal 0 0 1
    outer loop
      vertex 68 5 1
      vertex 90 5 1
      vertex 68 7 1
    endloop
  endfacet
  facet normal 0 0 1
    outer loop
      vertex 90 5 1
      vertex 68 5 1
      vertex 92 1 1
    endloop
  endfacet
  facet normal 0 0 1
    outer loop
      vertex 66 1 1
      vertex 68 5 1
      vertex 66 5 1
    endloop
  endfacet
  facet normal 0 0 1
    outer loop
      vertex 68 5 1
      vertex 66 1 1
      vertex 92 1 1
    endloop
  endfacet
  facet normal 0 0 1
    outer loop
      vertex 89 70 1
      vertex 87 66 1
      vertex 89 66 1
    endloop
  endfacet
  facet normal 0 0 1
    outer loop
      vertex 65 64 1
      vertex 87 64 1
      vertex 87 66 1
    endloop
  endfacet
  facet normal 0 0 1
    outer loop
      vertex 65 64 1
      vertex 87 66 1
      vertex 65 66 1
    endloop
  endfacet
  facet normal 0 0 1
    outer loop
      vertex 89 70 1
      vertex 65 66 1
      vertex 87 66 1
    endloop
  endfacet
  facet normal -0 0 1
    outer loop
      vertex 63 70 1
      vertex 65 66 1
      vertex 89 70 1
    endloop
  endfacet
  facet normal 0 0 1
    outer loop
      vertex 65 66 1
      vertex 63 70 1
      vertex 63 66 1
    endloop
  endfacet
  facet normal 0 0 1
    outer loop
      vertex 87 64 1
      vertex 65 64 1
      vertex 68 7 1
    endloop
  endfacet
  facet normal 0 0 1
    outer loop
      vertex 65 64 1
      vertex 60 7 1
      vertex 68 7 1
    endloop
  endfacet
  facet normal 0 0 1
    outer loop
      vertex 38 7 1
      vertex 60 7 1
      vertex 57 64 1
    endloop
  endfacet
  facet normal -0 0 1
    outer loop
      vertex 57 64 1
      vertex 60 7 1
      vertex 65 64 1
    endloop
  endfacet
  facet normal -0 0 1
    outer loop
      vertex 60 5 1
      vertex 62 1 1
      vertex 62 5 1
    endloop
  endfacet
  facet normal 0 0 1
    outer loop
      vertex 60 7 1
      vertex 38 7 1
      vertex 60 5 1
    endloop
  endfacet
  facet normal 0 0 1
    outer loop
      vertex 38 5 1
      vertex 60 5 1
      vertex 38 7 1
    endloop
  endfacet
  facet normal 0 0 1
    outer loop
      vertex 60 5 1
      vertex 38 5 1
      vertex 62 1 1
    endloop
  endfacet
  facet normal 0 0 1
    outer loop
      vertex 36 1 1
      vertex 38 5 1
      vertex 36 5 1
    endloop
  endfacet
  facet normal 0 0 1
    outer loop
      vertex 38 5 1
      vertex 36 1 1
      vertex 62 1 1
    endloop
  endfacet
  facet normal 0 0 1
    outer loop
      vertex 59 70 1
      vertex 57 66 1
      vertex 59 66 1
    endloop
  endfacet
  facet normal 0 0 1
    outer loop
      vertex 35 64 1
      vertex 57 64 1
      vertex 57 66 1
    endloop
  endfacet
  facet normal 0 0 1
    outer loop
      vertex 35 64 1
      vertex 57 66 1
      vertex 35 66 1
    endloop
  endfacet
  facet normal 0 0 1
    outer loop
      vertex 59 70 1
      vertex 35 66 1
      vertex 57 66 1
    endloop
  endfacet
  facet normal -0 0 1
    outer loop
      vertex 33 70 1
      vertex 35 66 1
      vertex 59 70 1
    endloop
  endfacet
  facet normal 0 0 1
    outer loop
      vertex 35 66 1
      vertex 33 70 1
      vertex 33 66 1
    endloop
  endfacet
  facet normal 0 0 1
    outer loop
      vertex 57 64 1
      vertex 35 64 1
      vertex 38 7 1
    endloop
  endfacet
  facet normal 0 0 1
    outer loop
      vertex 35 64 1
      vertex 30 7 1
      vertex 38 7 1
    endloop
  endfacet
  facet normal 0 0 1
    outer loop
      vertex 8 7 1
      vertex 30 7 1
      vertex 27 64 1
    endloop
  endfacet
  facet normal -0 0 1
    outer loop
      vertex 27 64 1
      vertex 30 7 1
      vertex 35 64 1
    endloop
  endfacet
  facet normal -0 0 1
    outer loop
      vertex 30 5 1
      vertex 32 1 1
      vertex 32 5 1
    endloop
  endfacet
  facet normal 0 0 1
    outer loop
      vertex 30 7 1
      vertex 8 7 1
      vertex 30 5 1
    endloop
  endfacet
  facet normal 0 0 1
    outer loop
      vertex 8 5 1
      vertex 30 5 1
      vertex 8 7 1
    endloop
  endfacet
  facet normal 0 0 1
    outer loop
      vertex 30 5 1
      vertex 8 5 1
      vertex 32 1 1
    endloop
  endfacet
  facet normal 0 0 1
    outer loop
      vertex 6 1 1
      vertex 8 5 1
      vertex 6 5 1
    endloop
  endfacet
  facet normal 0 0 1
    outer loop
      vertex 8 5 1
      vertex 6 1 1
      vertex 32 1 1
    endloop
  endfacet
  facet normal 0 0 1
    outer loop
      vertex 29 70 1
      vertex 27 66 1
      vertex 29 66 1
    endloop
  endfacet
  facet normal 0 0 1
    outer loop
      vertex 5 64 1
      vertex 27 64 1
      vertex 27 66 1
    endloop
  endfacet
  facet normal 0 0 1
    outer loop
      vertex 5 64 1
      vertex 27 66 1
      vertex 5 66 1
    endloop
  endfacet
  facet normal 0 0 1
    outer loop
      vertex 29 70 1
      vertex 5 66 1
      vertex 27 66 1
    endloop
  endfacet
  facet normal -0 0 1
    outer loop
      vertex 3 70 1
      vertex 5 66 1
      vertex 29 70 1
    endloop
  endfacet
  facet normal 0 0 1
    outer loop
      vertex 5 66 1
      vertex 3 70 1
      vertex 3 66 1
    endloop
  endfacet
  facet normal 0 0 1
    outer loop
      vertex 27 64 1
      vertex 5 64 1
      vertex 8 7 1
    endloop
  endfacet
  facet normal 0 0 1
    outer loop
      vertex 1 7 1
      vertex 5 64 1
      vertex 1 64 1
    endloop
  endfacet
  facet normal 0 0 1
    outer loop
      vertex 5 64 1
      vertex 1 7 1
      vertex 8 7 1
    endloop
  endfacet
  facet normal -1 0 0
    outer loop
      vertex 32 1 1
      vertex 32 5 32
      vertex 32 5 1
    endloop
  endfacet
  facet normal -1 -0 0
    outer loop
      vertex 32 5 32
      vertex 32 1 1
      vertex 32 1 32
    endloop
  endfacet
  facet normal -1 0 0
    outer loop
      vertex 30 5 1
      vertex 30 7 32
      vertex 30 7 1
    endloop
  endfacet
  facet normal -1 -0 0
    outer loop
      vertex 30 7 32
      vertex 30 5 1
      vertex 30 5 32
    endloop
  endfacet
  facet normal 1 -0 0
    outer loop
      vertex 8 5 32
      vertex 8 7 1
      vertex 8 7 32
    endloop
  endfacet
  facet normal 1 0 0
    outer loop
      vertex 8 7 1
      vertex 8 5 32
      vertex 8 5 1
    endloop
  endfacet
  facet normal 0 1 -0
    outer loop
      vertex 62 1 1
      vertex 36 1 32
      vertex 62 1 32
    endloop
  endfacet
  facet normal 0 1 0
    outer loop
      vertex 36 1 32
      vertex 62 1 1
      vertex 36 1 1
    endloop
  endfacet
  facet normal 0 -1 0
    outer loop
      vertex 60 5 1
      vertex 62 5 32
      vertex 60 5 32
    endloop
  endfacet
  facet normal 0 -1 -0
    outer loop
      vertex 62 5 32
      vertex 60 5 1
      vertex 62 5 1
    endloop
  endfacet
  facet normal 0 -1 0
    outer loop
      vertex 36 5 1
      vertex 38 5 32
      vertex 36 5 32
    endloop
  endfacet
  facet normal 0 -1 -0
    outer loop
      vertex 38 5 32
      vertex 36 5 1
      vertex 38 5 1
    endloop
  endfacet
  facet normal 1 -0 0
    outer loop
      vertex 36 1 32
      vertex 36 5 1
      vertex 36 5 32
    endloop
  endfacet
  facet normal 1 0 0
    outer loop
      vertex 36 5 1
      vertex 36 1 32
      vertex 36 1 1
    endloop
  endfacet
  facet normal -1 0 0
    outer loop
      vertex 62 1 1
      vertex 62 5 32
      vertex 62 5 1
    endloop
  endfacet
  facet normal -1 -0 0
    outer loop
      vertex 62 5 32
      vertex 62 1 1
      vertex 62 1 32
    endloop
  endfacet
  facet normal 1 -0 0
    outer loop
      vertex 38 5 32
      vertex 38 7 1
      vertex 38 7 32
    endloop
  endfacet
  facet normal 1 0 0
    outer loop
      vertex 38 7 1
      vertex 38 5 32
      vertex 38 5 1
    endloop
  endfacet
  facet normal -1 0 0
    outer loop
      vertex 60 5 1
      vertex 60 7 32
      vertex 60 7 1
    endloop
  endfacet
  facet normal -1 -0 0
    outer loop
      vertex 60 7 32
      vertex 60 5 1
      vertex 60 5 32
    endloop
  endfacet
  facet normal 0 1 -0
    outer loop
      vertex 92 1 1
      vertex 66 1 32
      vertex 92 1 32
    endloop
  endfacet
  facet normal 0 1 0
    outer loop
      vertex 66 1 32
      vertex 92 1 1
      vertex 66 1 1
    endloop
  endfacet
  facet normal 0 -1 0
    outer loop
      vertex 90 5 1
      vertex 92 5 32
      vertex 90 5 32
    endloop
  endfacet
  facet normal 0 -1 -0
    outer loop
      vertex 92 5 32
      vertex 90 5 1
      vertex 92 5 1
    endloop
  endfacet
  facet normal 0 -1 0
    outer loop
      vertex 66 5 1
      vertex 68 5 32
      vertex 66 5 32
    endloop
  endfacet
  facet normal 0 -1 -0
    outer loop
      vertex 68 5 32
      vertex 66 5 1
      vertex 68 5 1
    endloop
  endfacet
  facet normal 1 -0 0
    outer loop
      vertex 66 1 32
      vertex 66 5 1
      vertex 66 5 32
    endloop
  endfacet
  facet normal 1 0 0
    outer loop
      vertex 66 5 1
      vertex 66 1 32
      vertex 66 1 1
    endloop
  endfacet
  facet normal -1 0 0
    outer loop
      vertex 92 1 1
      vertex 92 5 32
      vertex 92 5 1
    endloop
  endfacet
  facet normal -1 -0 0
    outer loop
      vertex 92 5 32
      vertex 92 1 1
      vertex 92 1 32
    endloop
  endfacet
  facet normal -1 0 0
    outer loop
      vertex 90 5 1
      vertex 90 7 32
      vertex 90 7 1
    endloop
  endfacet
  facet normal -1 -0 0
    outer loop
      vertex 90 7 32
      vertex 90 5 1
      vertex 90 5 32
    endloop
  endfacet
  facet normal 1 -0 0
    outer loop
      vertex 68 5 32
      vertex 68 7 1
      vertex 68 7 32
    endloop
  endfacet
  facet normal 1 0 0
    outer loop
      vertex 68 7 1
      vertex 68 5 32
      vertex 68 5 1
    endloop
  endfacet
  facet normal 0 1 -0
    outer loop
      vertex 122 1 1
      vertex 96 1 32
      vertex 122 1 32
    endloop
  endfacet
  facet normal 0 1 0
    outer loop
      vertex 96 1 32
      vertex 122 1 1
      vertex 96 1 1
    endloop
  endfacet
  facet normal 0 -1 0
    outer loop
      vertex 120 5 1
      vertex 122 5 32
      vertex 120 5 32
    endloop
  endfacet
  facet normal 0 -1 -0
    outer loop
      vertex 122 5 32
      vertex 120 5 1
      vertex 122 5 1
    endloop
  endfacet
  facet normal 0 -1 0
    outer loop
      vertex 96 5 1
      vertex 98 5 32
      vertex 96 5 32
    endloop
  endfacet
  facet normal 0 -1 -0
    outer loop
      vertex 98 5 32
      vertex 96 5 1
      vertex 98 5 1
    endloop
  endfacet
  facet normal -1 0 0
    outer loop
      vertex 122 1 1
      vertex 122 5 32
      vertex 122 5 1
    endloop
  endfacet
  facet normal -1 -0 0
    outer loop
      vertex 122 5 32
      vertex 122 1 1
      vertex 122 1 32
    endloop
  endfacet
  facet normal 1 -0 0
    outer loop
      vertex 96 1 32
      vertex 96 5 1
      vertex 96 5 32
    endloop
  endfacet
  facet normal 1 0 0
    outer loop
      vertex 96 5 1
      vertex 96 1 32
      vertex 96 1 1
    endloop
  endfacet
  facet normal -1 0 0
    outer loop
      vertex 120 5 1
      vertex 120 7 32
      vertex 120 7 1
    endloop
  endfacet
  facet normal -1 -0 0
    outer loop
      vertex 120 7 32
      vertex 120 5 1
      vertex 120 5 32
    endloop
  endfacet
  facet normal 1 -0 0
    outer loop
      vertex 98 5 32
      vertex 98 7 1
      vertex 98 7 32
    endloop
  endfacet
  facet normal 1 0 0
    outer loop
      vertex 98 7 1
      vertex 98 5 32
      vertex 98 5 1
    endloop
  endfacet
  facet normal 0 1 -0
    outer loop
      vertex 152 1 1
      vertex 126 1 32
      vertex 152 1 32
    endloop
  endfacet
  facet normal 0 1 0
    outer loop
      vertex 126 1 32
      vertex 152 1 1
      vertex 126 1 1
    endloop
  endfacet
  facet normal 0 -1 0
    outer loop
      vertex 150 5 1
      vertex 152 5 32
      vertex 150 5 32
    endloop
  endfacet
  facet normal 0 -1 -0
    outer loop
      vertex 152 5 32
      vertex 150 5 1
      vertex 152 5 1
    endloop
  endfacet
  facet normal 0 -1 0
    outer loop
      vertex 126 5 1
      vertex 128 5 32
      vertex 126 5 32
    endloop
  endfacet
  facet normal 0 -1 -0
    outer loop
      vertex 128 5 32
      vertex 126 5 1
      vertex 128 5 1
    endloop
  endfacet
  facet normal -1 0 0
    outer loop
      vertex 152 1 1
      vertex 152 5 32
      vertex 152 5 1
    endloop
  endfacet
  facet normal -1 -0 0
    outer loop
      vertex 152 5 32
      vertex 152 1 1
      vertex 152 1 32
    endloop
  endfacet
  facet normal 1 -0 0
    outer loop
      vertex 126 1 32
      vertex 126 5 1
      vertex 126 5 32
    endloop
  endfacet
  facet normal 1 0 0
    outer loop
      vertex 126 5 1
      vertex 126 1 32
      vertex 126 1 1
    endloop
  endfacet
  facet normal -1 0 0
    outer loop
      vertex 150 5 1
      vertex 150 7 32
      vertex 150 7 1
    endloop
  endfacet
  facet normal -1 -0 0
    outer loop
      vertex 150 7 32
      vertex 150 5 1
      vertex 150 5 32
    endloop
  endfacet
  facet normal 1 -0 0
    outer loop
      vertex 128 5 32
      vertex 128 7 1
      vertex 128 7 32
    endloop
  endfacet
  facet normal 1 0 0
    outer loop
      vertex 128 7 1
      vertex 128 5 32
      vertex 128 5 1
    endloop
  endfacet
  facet normal 0 1 -0
    outer loop
      vertex 182 1 1
      vertex 156 1 32
      vertex 182 1 32
    endloop
  endfacet
  facet normal 0 1 0
    outer loop
      vertex 156 1 32
      vertex 182 1 1
      vertex 156 1 1
    endloop
  endfacet
  facet normal 0 -1 0
    outer loop
      vertex 180 5 1
      vertex 182 5 32
      vertex 180 5 32
    endloop
  endfacet
  facet normal 0 -1 -0
    outer loop
      vertex 182 5 32
      vertex 180 5 1
      vertex 182 5 1
    endloop
  endfacet
  facet normal 0 -1 0
    outer loop
      vertex 156 5 1
      vertex 158 5 32
      vertex 156 5 32
    endloop
  endfacet
  facet normal 0 -1 -0
    outer loop
      vertex 158 5 32
      vertex 156 5 1
      vertex 158 5 1
    endloop
  endfacet
  facet normal 1 -0 0
    outer loop
      vertex 156 1 32
      vertex 156 5 1
      vertex 156 5 32
    endloop
  endfacet
  facet normal 1 0 0
    outer loop
      vertex 156 5 1
      vertex 156 1 32
      vertex 156 1 1
    endloop
  endfacet
  facet normal -1 0 0
    outer loop
      vertex 182 1 1
      vertex 182 5 32
      vertex 182 5 1
    endloop
  endfacet
  facet normal -1 -0 0
    outer loop
      vertex 182 5 32
      vertex 182 1 1
      vertex 182 1 32
    endloop
  endfacet
  facet normal -1 0 0
    outer loop
      vertex 180 5 1
      vertex 180 7 32
      vertex 180 7 1
    endloop
  endfacet
  facet normal -1 -0 0
    outer loop
      vertex 180 7 32
      vertex 180 5 1
      vertex 180 5 32
    endloop
  endfacet
  facet normal 1 -0 0
    outer loop
      vertex 158 5 32
      vertex 158 7 1
      vertex 158 7 32
    endloop
  endfacet
  facet normal 1 0 0
    outer loop
      vertex 158 7 1
      vertex 158 5 32
      vertex 158 5 1
    endloop
  endfacet
  facet normal 0 -1 0
    outer loop
      vertex 3 70 1
      vertex 29 70 32
      vertex 3 70 32
    endloop
  endfacet
  facet normal 0 -1 -0
    outer loop
      vertex 29 70 32
      vertex 3 70 1
      vertex 29 70 1
    endloop
  endfacet
  facet normal 0 1 -0
    outer loop
      vertex 5 66 1
      vertex 3 66 32
      vertex 5 66 32
    endloop
  endfacet
  facet normal 0 1 0
    outer loop
      vertex 3 66 32
      vertex 5 66 1
      vertex 3 66 1
    endloop
  endfacet
  facet normal 0 1 -0
    outer loop
      vertex 29 66 1
      vertex 27 66 32
      vertex 29 66 32
    endloop
  endfacet
  facet normal 0 1 0
    outer loop
      vertex 27 66 32
      vertex 29 66 1
      vertex 27 66 1
    endloop
  endfacet
  facet normal 1 -0 0
    outer loop
      vertex 3 66 32
      vertex 3 70 1
      vertex 3 70 32
    endloop
  endfacet
  facet normal 1 0 0
    outer loop
      vertex 3 70 1
      vertex 3 66 32
      vertex 3 66 1
    endloop
  endfacet
  facet normal -1 0 0
    outer loop
      vertex 29 66 1
      vertex 29 70 32
      vertex 29 70 1
    endloop
  endfacet
  facet normal -1 -0 0
    outer loop
      vertex 29 70 32
      vertex 29 66 1
      vertex 29 66 32
    endloop
  endfacet
  facet normal 1 -0 0
    outer loop
      vertex 5 64 32
      vertex 5 66 1
      vertex 5 66 32
    endloop
  endfacet
  facet normal 1 0 0
    outer loop
      vertex 5 66 1
      vertex 5 64 32
      vertex 5 64 1
    endloop
  endfacet
  facet normal -1 0 0
    outer loop
      vertex 27 64 1
      vertex 27 66 32
      vertex 27 66 1
    endloop
  endfacet
  facet normal -1 -0 0
    outer loop
      vertex 27 66 32
      vertex 27 64 1
      vertex 27 64 32
    endloop
  endfacet
  facet normal 0 -1 0
    outer loop
      vertex 33 70 1
      vertex 59 70 32
      vertex 33 70 32
    endloop
  endfacet
  facet normal 0 -1 -0
    outer loop
      vertex 59 70 32
      vertex 33 70 1
      vertex 59 70 1
    endloop
  endfacet
  facet normal 0 1 -0
    outer loop
      vertex 35 66 1
      vertex 33 66 32
      vertex 35 66 32
    endloop
  endfacet
  facet normal 0 1 0
    outer loop
      vertex 33 66 32
      vertex 35 66 1
      vertex 33 66 1
    endloop
  endfacet
  facet normal 0 1 -0
    outer loop
      vertex 59 66 1
      vertex 57 66 32
      vertex 59 66 32
    endloop
  endfacet
  facet normal 0 1 0
    outer loop
      vertex 57 66 32
      vertex 59 66 1
      vertex 57 66 1
    endloop
  endfacet
  facet normal 1 -0 0
    outer loop
      vertex 33 66 32
      vertex 33 70 1
      vertex 33 70 32
    endloop
  endfacet
  facet normal 1 0 0
    outer loop
      vertex 33 70 1
      vertex 33 66 32
      vertex 33 66 1
    endloop
  endfacet
  facet normal -1 0 0
    outer loop
      vertex 59 66 1
      vertex 59 70 32
      vertex 59 70 1
    endloop
  endfacet
  facet normal -1 -0 0
    outer loop
      vertex 59 70 32
      vertex 59 66 1
      vertex 59 66 32
    endloop
  endfacet
  facet normal 1 -0 0
    outer loop
      vertex 35 64 32
      vertex 35 66 1
      vertex 35 66 32
    endloop
  endfacet
  facet normal 1 0 0
    outer loop
      vertex 35 66 1
      vertex 35 64 32
      vertex 35 64 1
    endloop
  endfacet
  facet normal -1 0 0
    outer loop
      vertex 57 64 1
      vertex 57 66 32
      vertex 57 66 1
    endloop
  endfacet
  facet normal -1 -0 0
    outer loop
      vertex 57 66 32
      vertex 57 64 1
      vertex 57 64 32
    endloop
  endfacet
  facet normal 0 -1 0
    outer loop
      vertex 63 70 1
      vertex 89 70 32
      vertex 63 70 32
    endloop
  endfacet
  facet normal 0 -1 -0
    outer loop
      vertex 89 70 32
      vertex 63 70 1
      vertex 89 70 1
    endloop
  endfacet
  facet normal 0 1 -0
    outer loop
      vertex 65 66 1
      vertex 63 66 32
      vertex 65 66 32
    endloop
  endfacet
  facet normal 0 1 0
    outer loop
      vertex 63 66 32
      vertex 65 66 1
      vertex 63 66 1
    endloop
  endfacet
  facet normal 0 1 -0
    outer loop
      vertex 89 66 1
      vertex 87 66 32
      vertex 89 66 32
    endloop
  endfacet
  facet normal 0 1 0
    outer loop
      vertex 87 66 32
      vertex 89 66 1
      vertex 87 66 1
    endloop
  endfacet
  facet normal -1 0 0
    outer loop
      vertex 89 66 1
      vertex 89 70 32
      vertex 89 70 1
    endloop
  endfacet
  facet normal -1 -0 0
    outer loop
      vertex 89 70 32
      vertex 89 66 1
      vertex 89 66 32
    endloop
  endfacet
  facet normal 1 -0 0
    outer loop
      vertex 63 66 32
      vertex 63 70 1
      vertex 63 70 32
    endloop
  endfacet
  facet normal 1 0 0
    outer loop
      vertex 63 70 1
      vertex 63 66 32
      vertex 63 66 1
    endloop
  endfacet
  facet normal 1 -0 0
    outer loop
      vertex 65 64 32
      vertex 65 66 1
      vertex 65 66 32
    endloop
  endfacet
  facet normal 1 0 0
    outer loop
      vertex 65 66 1
      vertex 65 64 32
      vertex 65 64 1
    endloop
  endfacet
  facet normal -1 0 0
    outer loop
      vertex 87 64 1
      vertex 87 66 32
      vertex 87 66 1
    endloop
  endfacet
  facet normal -1 -0 0
    outer loop
      vertex 87 66 32
      vertex 87 64 1
      vertex 87 64 32
    endloop
  endfacet
  facet normal 0 -1 0
    outer loop
      vertex 93 70 1
      vertex 119 70 32
      vertex 93 70 32
    endloop
  endfacet
  facet normal 0 -1 -0
    outer loop
      vertex 119 70 32
      vertex 93 70 1
      vertex 119 70 1
    endloop
  endfacet
  facet normal 0 1 -0
    outer loop
      vertex 95 66 1
      vertex 93 66 32
      vertex 95 66 32
    endloop
  endfacet
  facet normal 0 1 0
    outer loop
      vertex 93 66 32
      vertex 95 66 1
      vertex 93 66 1
    endloop
  endfacet
  facet normal 0 1 -0
    outer loop
      vertex 119 66 1
      vertex 117 66 32
      vertex 119 66 32
    endloop
  endfacet
  facet normal 0 1 0
    outer loop
      vertex 117 66 32
      vertex 119 66 1
      vertex 117 66 1
    endloop
  endfacet
  facet normal 1 -0 0
    outer loop
      vertex 93 66 32
      vertex 93 70 1
      vertex 93 70 32
    endloop
  endfacet
  facet normal 1 0 0
    outer loop
      vertex 93 70 1
      vertex 93 66 32
      vertex 93 66 1
    endloop
  endfacet
  facet normal -1 0 0
    outer loop
      vertex 119 66 1
      vertex 119 70 32
      vertex 119 70 1
    endloop
  endfacet
  facet normal -1 -0 0
    outer loop
      vertex 119 70 32
      vertex 119 66 1
      vertex 119 66 32
    endloop
  endfacet
  facet normal 1 -0 0
    outer loop
      vertex 95 64 32
      vertex 95 66 1
      vertex 95 66 32
    endloop
  endfacet
  facet normal 1 0 0
    outer loop
      vertex 95 66 1
      vertex 95 64 32
      vertex 95 64 1
    endloop
  endfacet
  facet normal -1 0 0
    outer loop
      vertex 117 64 1
      vertex 117 66 32
      vertex 117 66 1
    endloop
  endfacet
  facet normal -1 -0 0
    outer loop
      vertex 117 66 32
      vertex 117 64 1
      vertex 117 64 32
    endloop
  endfacet
  facet normal 0 -1 0
    outer loop
      vertex 123 70 1
      vertex 149 70 32
      vertex 123 70 32
    endloop
  endfacet
  facet normal 0 -1 -0
    outer loop
      vertex 149 70 32
      vertex 123 70 1
      vertex 149 70 1
    endloop
  endfacet
  facet normal 0 1 -0
    outer loop
      vertex 125 66 1
      vertex 123 66 32
      vertex 125 66 32
    endloop
  endfacet
  facet normal 0 1 0
    outer loop
      vertex 123 66 32
      vertex 125 66 1
      vertex 123 66 1
    endloop
  endfacet
  facet normal 0 1 -0
    outer loop
      vertex 149 66 1
      vertex 147 66 32
      vertex 149 66 32
    endloop
  endfacet
  facet normal 0 1 0
    outer loop
      vertex 147 66 32
      vertex 149 66 1
      vertex 147 66 1
    endloop
  endfacet
  facet normal 1 -0 0
    outer loop
      vertex 123 66 32
      vertex 123 70 1
      vertex 123 70 32
    endloop
  endfacet
  facet normal 1 0 0
    outer loop
      vertex 123 70 1
      vertex 123 66 32
      vertex 123 66 1
    endloop
  endfacet
  facet normal -1 0 0
    outer loop
      vertex 149 66 1
      vertex 149 70 32
      vertex 149 70 1
    endloop
  endfacet
  facet normal -1 -0 0
    outer loop
      vertex 149 70 32
      vertex 149 66 1
      vertex 149 66 32
    endloop
  endfacet
  facet normal -1 0 0
    outer loop
      vertex 147 64 1
      vertex 147 66 32
      vertex 147 66 1
    endloop
  endfacet
  facet normal -1 -0 0
    outer loop
      vertex 147 66 32
      vertex 147 64 1
      vertex 147 64 32
    endloop
  endfacet
  facet normal 1 -0 0
    outer loop
      vertex 125 64 32
      vertex 125 66 1
      vertex 125 66 32
    endloop
  endfacet
  facet normal 1 0 0
    outer loop
      vertex 125 66 1
      vertex 125 64 32
      vertex 125 64 1
    endloop
  endfacet
  facet normal 0 -1 0
    outer loop
      vertex 153 70 1
      vertex 179 70 32
      vertex 153 70 32
    endloop
  endfacet
  facet normal 0 -1 -0
    outer loop
      vertex 179 70 32
      vertex 153 70 1
      vertex 179 70 1
    endloop
  endfacet
  facet normal 0 1 -0
    outer loop
      vertex 155 66 1
      vertex 153 66 32
      vertex 155 66 32
    endloop
  endfacet
  facet normal 0 1 0
    outer loop
      vertex 153 66 32
      vertex 155 66 1
      vertex 153 66 1
    endloop
  endfacet
  facet normal 0 1 -0
    outer loop
      vertex 179 66 1
      vertex 177 66 32
      vertex 179 66 32
    endloop
  endfacet
  facet normal 0 1 0
    outer loop
      vertex 177 66 32
      vertex 179 66 1
      vertex 177 66 1
    endloop
  endfacet
  facet normal 1 -0 0
    outer loop
      vertex 153 66 32
      vertex 153 70 1
      vertex 153 70 32
    endloop
  endfacet
  facet normal 1 0 0
    outer loop
      vertex 153 70 1
      vertex 153 66 32
      vertex 153 66 1
    endloop
  endfacet
  facet normal -1 0 0
    outer loop
      vertex 179 66 1
      vertex 179 70 32
      vertex 179 70 1
    endloop
  endfacet
  facet normal -1 -0 0
    outer loop
      vertex 179 70 32
      vertex 179 66 1
      vertex 179 66 32
    endloop
  endfacet
  facet normal 1 -0 0
    outer loop
      vertex 155 64 32
      vertex 155 66 1
      vertex 155 66 32
    endloop
  endfacet
  facet normal 1 0 0
    outer loop
      vertex 155 66 1
      vertex 155 64 32
      vertex 155 64 1
    endloop
  endfacet
  facet normal -1 0 0
    outer loop
      vertex 177 64 1
      vertex 177 66 32
      vertex 177 66 1
    endloop
  endfacet
  facet normal -1 -0 0
    outer loop
      vertex 177 66 32
      vertex 177 64 1
      vertex 177 64 32
    endloop
  endfacet
  facet normal -1 0 0
    outer loop
      vertex 0 0 0
      vertex 0 71 32
      vertex 0 71 0
    endloop
  endfacet
  facet normal -1 -0 0
    outer loop
      vertex 0 71 32
      vertex 0 0 0
      vertex 0 0 32
    endloop
  endfacet
  facet normal 0 0 1
    outer loop
      vertex 8 7 32
      vertex 6 5 32
      vertex 8 5 32
    endloop
  endfacet
  facet normal 0 0 1
    outer loop
      vertex 0 0 32
      vertex 6 5 32
      vertex 1 7 32
    endloop
  endfacet
  facet normal -0 0 1
    outer loop
      vertex 1 7 32
      vertex 6 5 32
      vertex 8 7 32
    endloop
  endfacet
  facet normal 0 0 1
    outer loop
      vertex 38 7 32
      vertex 36 5 32
      vertex 38 5 32
    endloop
  endfacet
  facet normal 0 0 1
    outer loop
      vertex 36 5 32
      vertex 32 5 32
      vertex 36 1 32
    endloop
  endfacet
  facet normal 0 0 1
    outer loop
      vertex 38 7 32
      vertex 32 5 32
      vertex 36 5 32
    endloop
  endfacet
  facet normal -0 0 1
    outer loop
      vertex 30 7 32
      vertex 32 5 32
      vertex 38 7 32
    endloop
  endfacet
  facet normal 0 0 1
    outer loop
      vertex 32 5 32
      vertex 30 7 32
      vertex 30 5 32
    endloop
  endfacet
  facet normal 0 0 1
    outer loop
      vertex 68 7 32
      vertex 66 5 32
      vertex 68 5 32
    endloop
  endfacet
  facet normal 0 0 1
    outer loop
      vertex 66 5 32
      vertex 62 5 32
      vertex 66 1 32
    endloop
  endfacet
  facet normal 0 0 1
    outer loop
      vertex 68 7 32
      vertex 62 5 32
      vertex 66 5 32
    endloop
  endfacet
  facet normal -0 0 1
    outer loop
      vertex 60 7 32
      vertex 62 5 32
      vertex 68 7 32
    endloop
  endfacet
  facet normal 0 0 1
    outer loop
      vertex 62 5 32
      vertex 60 7 32
      vertex 60 5 32
    endloop
  endfacet
  facet normal 0 0 1
    outer loop
      vertex 98 7 32
      vertex 96 5 32
      vertex 98 5 32
    endloop
  endfacet
  facet normal 0 0 1
    outer loop
      vertex 96 5 32
      vertex 92 5 32
      vertex 96 1 32
    endloop
  endfacet
  facet normal 0 0 1
    outer loop
      vertex 98 7 32
      vertex 92 5 32
      vertex 96 5 32
    endloop
  endfacet
  facet normal -0 0 1
    outer loop
      vertex 90 7 32
      vertex 92 5 32
      vertex 98 7 32
    endloop
  endfacet
  facet normal 0 0 1
    outer loop
      vertex 92 5 32
      vertex 90 7 32
      vertex 90 5 32
    endloop
  endfacet
  facet normal 0 0 1
    outer loop
      vertex 128 7 32
      vertex 126 5 32
      vertex 128 5 32
    endloop
  endfacet
  facet normal 0 0 1
    outer loop
      vertex 126 5 32
      vertex 122 5 32
      vertex 126 1 32
    endloop
  endfacet
  facet normal 0 0 1
    outer loop
      vertex 128 7 32
      vertex 122 5 32
      vertex 126 5 32
    endloop
  endfacet
  facet normal -0 0 1
    outer loop
      vertex 120 7 32
      vertex 122 5 32
      vertex 128 7 32
    endloop
  endfacet
  facet normal 0 0 1
    outer loop
      vertex 122 5 32
      vertex 120 7 32
      vertex 120 5 32
    endloop
  endfacet
  facet normal 0 0 1
    outer loop
      vertex 158 7 32
      vertex 156 5 32
      vertex 158 5 32
    endloop
  endfacet
  facet normal 0 0 1
    outer loop
      vertex 156 5 32
      vertex 152 5 32
      vertex 156 1 32
    endloop
  endfacet
  facet normal 0 0 1
    outer loop
      vertex 158 7 32
      vertex 152 5 32
      vertex 156 5 32
    endloop
  endfacet
  facet normal -0 0 1
    outer loop
      vertex 150 7 32
      vertex 152 5 32
      vertex 158 7 32
    endloop
  endfacet
  facet normal 0 0 1
    outer loop
      vertex 152 5 32
      vertex 150 7 32
      vertex 150 5 32
    endloop
  endfacet
  facet normal -0 0 1
    outer loop
      vertex 180 7 32
      vertex 182 5 32
      vertex 184 7 32
    endloop
  endfacet
  facet normal 0 0 1
    outer loop
      vertex 182 5 32
      vertex 180 7 32
      vertex 180 5 32
    endloop
  endfacet
  facet normal 0 0 1
    outer loop
      vertex 185 71 32
      vertex 184 64 32
      vertex 185 0 32
    endloop
  endfacet
  facet normal 0 0 1
    outer loop
      vertex 179 66 32
      vertex 185 71 32
      vertex 179 70 32
    endloop
  endfacet
  facet normal 0 0 1
    outer loop
      vertex 185 71 32
      vertex 153 70 32
      vertex 179 70 32
    endloop
  endfacet
  facet normal 0 0 1
    outer loop
      vertex 153 70 32
      vertex 149 70 32
      vertex 153 66 32
    endloop
  endfacet
  facet normal 0 0 1
    outer loop
      vertex 185 71 32
      vertex 149 70 32
      vertex 153 70 32
    endloop
  endfacet
  facet normal 0 0 1
    outer loop
      vertex 185 71 32
      vertex 123 70 32
      vertex 149 70 32
    endloop
  endfacet
  facet normal 0 0 1
    outer loop
      vertex 123 70 32
      vertex 119 70 32
      vertex 123 66 32
    endloop
  endfacet
  facet normal 0 0 1
    outer loop
      vertex 185 71 32
      vertex 119 70 32
      vertex 123 70 32
    endloop
  endfacet
  facet normal 0 0 1
    outer loop
      vertex 185 71 32
      vertex 93 70 32
      vertex 119 70 32
    endloop
  endfacet
  facet normal 0 0 1
    outer loop
      vertex 93 70 32
      vertex 89 70 32
      vertex 93 66 32
    endloop
  endfacet
  facet normal 0 0 1
    outer loop
      vertex 185 71 32
      vertex 89 70 32
      vertex 93 70 32
    endloop
  endfacet
  facet normal 0 0 1
    outer loop
      vertex 185 71 32
      vertex 63 70 32
      vertex 89 70 32
    endloop
  endfacet
  facet normal 0 0 1
    outer loop
      vertex 63 70 32
      vertex 59 70 32
      vertex 63 66 32
    endloop
  endfacet
  facet normal 0 0 1
    outer loop
      vertex 185 71 32
      vertex 59 70 32
      vertex 63 70 32
    endloop
  endfacet
  facet normal -0 0 1
    outer loop
      vertex 0 71 32
      vertex 59 70 32
      vertex 185 71 32
    endloop
  endfacet
  facet normal 0 0 1
    outer loop
      vertex 33 70 32
      vertex 29 70 32
      vertex 33 66 32
    endloop
  endfacet
  facet normal 0 0 1
    outer loop
      vertex 59 70 32
      vertex 0 71 32
      vertex 33 70 32
    endloop
  endfacet
  facet normal 0 0 1
    outer loop
      vertex 33 70 32
      vertex 0 71 32
      vertex 29 70 32
    endloop
  endfacet
  facet normal 0 0 1
    outer loop
      vertex 0 71 32
      vertex 3 66 32
      vertex 3 70 32
    endloop
  endfacet
  facet normal 0 0 1
    outer loop
      vertex 1 64 32
      vertex 0 71 32
      vertex 1 7 32
    endloop
  endfacet
  facet normal 0 0 1
    outer loop
      vertex 3 66 32
      vertex 0 71 32
      vertex 1 64 32
    endloop
  endfacet
  facet normal 0 0 1
    outer loop
      vertex 29 70 32
      vertex 0 71 32
      vertex 3 70 32
    endloop
  endfacet
  facet normal -0 0 1
    outer loop
      vertex 184 7 32
      vertex 185 0 32
      vertex 184 64 32
    endloop
  endfacet
  facet normal -0 0 1
    outer loop
      vertex 182 5 32
      vertex 185 0 32
      vertex 184 7 32
    endloop
  endfacet
  facet normal -0 0 1
    outer loop
      vertex 182 1 32
      vertex 185 0 32
      vertex 182 5 32
    endloop
  endfacet
  facet normal -0 0 1
    outer loop
      vertex 156 1 32
      vertex 185 0 32
      vertex 182 1 32
    endloop
  endfacet
  facet normal 0 0 1
    outer loop
      vertex 152 1 32
      vertex 156 1 32
      vertex 152 5 32
    endloop
  endfacet
  facet normal -0 0 1
    outer loop
      vertex 152 1 32
      vertex 185 0 32
      vertex 156 1 32
    endloop
  endfacet
  facet normal -0 0 1
    outer loop
      vertex 126 1 32
      vertex 185 0 32
      vertex 152 1 32
    endloop
  endfacet
  facet normal 0 0 1
    outer loop
      vertex 122 1 32
      vertex 126 1 32
      vertex 122 5 32
    endloop
  endfacet
  facet normal -0 0 1
    outer loop
      vertex 122 1 32
      vertex 185 0 32
      vertex 126 1 32
    endloop
  endfacet
  facet normal -0 0 1
    outer loop
      vertex 96 1 32
      vertex 185 0 32
      vertex 122 1 32
    endloop
  endfacet
  facet normal 0 0 1
    outer loop
      vertex 92 1 32
      vertex 96 1 32
      vertex 92 5 32
    endloop
  endfacet
  facet normal -0 0 1
    outer loop
      vertex 92 1 32
      vertex 185 0 32
      vertex 96 1 32
    endloop
  endfacet
  facet normal -0 0 1
    outer loop
      vertex 66 1 32
      vertex 185 0 32
      vertex 92 1 32
    endloop
  endfacet
  facet normal 0 0 1
    outer loop
      vertex 62 1 32
      vertex 66 1 32
      vertex 62 5 32
    endloop
  endfacet
  facet normal -0 0 1
    outer loop
      vertex 62 1 32
      vertex 185 0 32
      vertex 66 1 32
    endloop
  endfacet
  facet normal 0 0 1
    outer loop
      vertex 0 0 32
      vertex 62 1 32
      vertex 36 1 32
    endloop
  endfacet
  facet normal 0 0 1
    outer loop
      vertex 32 1 32
      vertex 36 1 32
      vertex 32 5 32
    endloop
  endfacet
  facet normal 0 0 1
    outer loop
      vertex 0 0 32
      vertex 36 1 32
      vertex 32 1 32
    endloop
  endfacet
  facet normal 0 0 1
    outer loop
      vertex 0 0 32
      vertex 32 1 32
      vertex 6 1 32
    endloop
  endfacet
  facet normal 0 0 1
    outer loop
      vertex 62 1 32
      vertex 0 0 32
      vertex 185 0 32
    endloop
  endfacet
  facet normal 0 0 1
    outer loop
      vertex 6 5 32
      vertex 0 0 32
      vertex 6 1 32
    endloop
  endfacet
  facet normal 0 0 1
    outer loop
      vertex 0 0 32
      vertex 1 7 32
      vertex 0 71 32
    endloop
  endfacet
  facet normal 0 0 1
    outer loop
      vertex 185 71 32
      vertex 179 66 32
      vertex 184 64 32
    endloop
  endfacet
  facet normal 0 0 1
    outer loop
      vertex 177 64 32
      vertex 179 66 32
      vertex 177 66 32
    endloop
  endfacet
  facet normal 0 0 1
    outer loop
      vertex 179 66 32
      vertex 177 64 32
      vertex 184 64 32
    endloop
  endfacet
  facet normal -0 0 1
    outer loop
      vertex 153 66 32
      vertex 155 64 32
      vertex 155 66 32
    endloop
  endfacet
  facet normal 0 0 1
    outer loop
      vertex 149 66 32
      vertex 153 66 32
      vertex 149 70 32
    endloop
  endfacet
  facet normal 0 0 1
    outer loop
      vertex 153 66 32
      vertex 149 66 32
      vertex 155 64 32
    endloop
  endfacet
  facet normal 0 0 1
    outer loop
      vertex 147 64 32
      vertex 149 66 32
      vertex 147 66 32
    endloop
  endfacet
  facet normal 0 0 1
    outer loop
      vertex 149 66 32
      vertex 147 64 32
      vertex 155 64 32
    endloop
  endfacet
  facet normal -0 0 1
    outer loop
      vertex 123 66 32
      vertex 125 64 32
      vertex 125 66 32
    endloop
  endfacet
  facet normal 0 0 1
    outer loop
      vertex 119 66 32
      vertex 123 66 32
      vertex 119 70 32
    endloop
  endfacet
  facet normal 0 0 1
    outer loop
      vertex 123 66 32
      vertex 119 66 32
      vertex 125 64 32
    endloop
  endfacet
  facet normal 0 0 1
    outer loop
      vertex 117 64 32
      vertex 119 66 32
      vertex 117 66 32
    endloop
  endfacet
  facet normal 0 0 1
    outer loop
      vertex 119 66 32
      vertex 117 64 32
      vertex 125 64 32
    endloop
  endfacet
  facet normal -0 0 1
    outer loop
      vertex 93 66 32
      vertex 95 64 32
      vertex 95 66 32
    endloop
  endfacet
  facet normal 0 0 1
    outer loop
      vertex 89 66 32
      vertex 93 66 32
      vertex 89 70 32
    endloop
  endfacet
  facet normal 0 0 1
    outer loop
      vertex 93 66 32
      vertex 89 66 32
      vertex 95 64 32
    endloop
  endfacet
  facet normal 0 0 1
    outer loop
      vertex 87 64 32
      vertex 89 66 32
      vertex 87 66 32
    endloop
  endfacet
  facet normal 0 0 1
    outer loop
      vertex 89 66 32
      vertex 87 64 32
      vertex 95 64 32
    endloop
  endfacet
  facet normal -0 0 1
    outer loop
      vertex 63 66 32
      vertex 65 64 32
      vertex 65 66 32
    endloop
  endfacet
  facet normal 0 0 1
    outer loop
      vertex 59 66 32
      vertex 63 66 32
      vertex 59 70 32
    endloop
  endfacet
  facet normal 0 0 1
    outer loop
      vertex 63 66 32
      vertex 59 66 32
      vertex 65 64 32
    endloop
  endfacet
  facet normal 0 0 1
    outer loop
      vertex 57 64 32
      vertex 59 66 32
      vertex 57 66 32
    endloop
  endfacet
  facet normal 0 0 1
    outer loop
      vertex 59 66 32
      vertex 57 64 32
      vertex 65 64 32
    endloop
  endfacet
  facet normal -0 0 1
    outer loop
      vertex 33 66 32
      vertex 35 64 32
      vertex 35 66 32
    endloop
  endfacet
  facet normal 0 0 1
    outer loop
      vertex 29 66 32
      vertex 33 66 32
      vertex 29 70 32
    endloop
  endfacet
  facet normal 0 0 1
    outer loop
      vertex 33 66 32
      vertex 29 66 32
      vertex 35 64 32
    endloop
  endfacet
  facet normal 0 0 1
    outer loop
      vertex 27 64 32
      vertex 29 66 32
      vertex 27 66 32
    endloop
  endfacet
  facet normal 0 0 1
    outer loop
      vertex 29 66 32
      vertex 27 64 32
      vertex 35 64 32
    endloop
  endfacet
  facet normal -0 0 1
    outer loop
      vertex 3 66 32
      vertex 5 64 32
      vertex 5 66 32
    endloop
  endfacet
  facet normal 0 0 1
    outer loop
      vertex 5 64 32
      vertex 3 66 32
      vertex 1 64 32
    endloop
  endfacet
  facet normal 1 -0 0
    outer loop
      vertex 185 0 32
      vertex 185 71 0
      vertex 185 71 32
    endloop
  endfacet
  facet normal 1 0 0
    outer loop
      vertex 185 71 0
      vertex 185 0 32
      vertex 185 0 0
    endloop
  endfacet
  facet normal 0 1 -0
    outer loop
      vertex 185 71 0
      vertex 0 71 32
      vertex 185 71 32
    endloop
  endfacet
  facet normal 0 1 0
    outer loop
      vertex 0 71 32
      vertex 185 71 0
      vertex 0 71 0
    endloop
  endfacet
  facet normal 0 0 -1
    outer loop
      vertex 0 0 0
      vertex 185 71 0
      vertex 185 0 0
    endloop
  endfacet
  facet normal -0 0 -1
    outer loop
      vertex 185 71 0
      vertex 0 0 0
      vertex 0 71 0
    endloop
  endfacet
  facet normal 0 -1 0
    outer loop
      vertex 0 0 0
      vertex 185 0 32
      vertex 0 0 32
    endloop
  endfacet
  facet normal 0 -1 -0
    outer loop
      vertex 185 0 32
      vertex 0 0 0
      vertex 185 0 0
    endloop
  endfacet
  facet normal 1 -0 0
    outer loop
      vertex 1 7 32
      vertex 1 64 1
      vertex 1 64 32
    endloop
  endfacet
  facet normal 1 0 0
    outer loop
      vertex 1 64 1
      vertex 1 7 32
      vertex 1 7 1
    endloop
  endfacet
  facet normal -1 0 0
    outer loop
      vertex 184 7 1
      vertex 184 64 32
      vertex 184 64 1
    endloop
  endfacet
  facet normal -1 -0 0
    outer loop
      vertex 184 64 32
      vertex 184 7 1
      vertex 184 7 32
    endloop
  endfacet
  facet normal 0 -1 0
    outer loop
      vertex 177 64 1
      vertex 184 64 32
      vertex 177 64 32
    endloop
  endfacet
  facet normal 0 -1 -0
    outer loop
      vertex 184 64 32
      vertex 177 64 1
      vertex 184 64 1
    endloop
  endfacet
  facet normal 0 -1 0
    outer loop
      vertex 1 64 1
      vertex 5 64 32
      vertex 1 64 32
    endloop
  endfacet
  facet normal 0 -1 -0
    outer loop
      vertex 5 64 32
      vertex 1 64 1
      vertex 5 64 1
    endloop
  endfacet
  facet normal 0 -1 0
    outer loop
      vertex 27 64 1
      vertex 35 64 32
      vertex 27 64 32
    endloop
  endfacet
  facet normal 0 -1 -0
    outer loop
      vertex 35 64 32
      vertex 27 64 1
      vertex 35 64 1
    endloop
  endfacet
  facet normal 0 -1 0
    outer loop
      vertex 57 64 1
      vertex 65 64 32
      vertex 57 64 32
    endloop
  endfacet
  facet normal 0 -1 -0
    outer loop
      vertex 65 64 32
      vertex 57 64 1
      vertex 65 64 1
    endloop
  endfacet
  facet normal 0 -1 0
    outer loop
      vertex 87 64 1
      vertex 95 64 32
      vertex 87 64 32
    endloop
  endfacet
  facet normal 0 -1 -0
    outer loop
      vertex 95 64 32
      vertex 87 64 1
      vertex 95 64 1
    endloop
  endfacet
  facet normal 0 -1 0
    outer loop
      vertex 117 64 1
      vertex 125 64 32
      vertex 117 64 32
    endloop
  endfacet
  facet normal 0 -1 -0
    outer loop
      vertex 125 64 32
      vertex 117 64 1
      vertex 125 64 1
    endloop
  endfacet
  facet normal 0 -1 0
    outer loop
      vertex 147 64 1
      vertex 155 64 32
      vertex 147 64 32
    endloop
  endfacet
  facet normal 0 -1 -0
    outer loop
      vertex 155 64 32
      vertex 147 64 1
      vertex 155 64 1
    endloop
  endfacet
  facet normal 0 1 -0
    outer loop
      vertex 8 7 1
      vertex 1 7 32
      vertex 8 7 32
    endloop
  endfacet
  facet normal 0 1 0
    outer loop
      vertex 1 7 32
      vertex 8 7 1
      vertex 1 7 1
    endloop
  endfacet
  facet normal 0 1 -0
    outer loop
      vertex 184 7 1
      vertex 180 7 32
      vertex 184 7 32
    endloop
  endfacet
  facet normal 0 1 0
    outer loop
      vertex 180 7 32
      vertex 184 7 1
      vertex 180 7 1
    endloop
  endfacet
  facet normal 0 1 -0
    outer loop
      vertex 38 7 1
      vertex 30 7 32
      vertex 38 7 32
    endloop
  endfacet
  facet normal 0 1 0
    outer loop
      vertex 30 7 32
      vertex 38 7 1
      vertex 30 7 1
    endloop
  endfacet
  facet normal 0 1 -0
    outer loop
      vertex 68 7 1
      vertex 60 7 32
      vertex 68 7 32
    endloop
  endfacet
  facet normal 0 1 0
    outer loop
      vertex 60 7 32
      vertex 68 7 1
      vertex 60 7 1
    endloop
  endfacet
  facet normal 0 1 -0
    outer loop
      vertex 98 7 1
      vertex 90 7 32
      vertex 98 7 32
    endloop
  endfacet
  facet normal 0 1 0
    outer loop
      vertex 90 7 32
      vertex 98 7 1
      vertex 90 7 1
    endloop
  endfacet
  facet normal 0 1 -0
    outer loop
      vertex 128 7 1
      vertex 120 7 32
      vertex 128 7 32
    endloop
  endfacet
  facet normal 0 1 0
    outer loop
      vertex 120 7 32
      vertex 128 7 1
      vertex 120 7 1
    endloop
  endfacet
  facet normal 0 1 -0
    outer loop
      vertex 158 7 1
      vertex 150 7 32
      vertex 158 7 32
    endloop
  endfacet
  facet normal 0 1 0
    outer loop
      vertex 150 7 32
      vertex 158 7 1
      vertex 150 7 1
    endloop
  endfacet
endsolid OpenSCAD_Model
